<?xml version="1.0" standalone="no"?>
<!DOCTYPE svg PUBLIC "-//W3C//DTD SVG 1.1//EN" "http://www.w3.org/Graphics/SVG/1.1/DTD/svg11.dtd" >
<svg xmlns="http://www.w3.org/2000/svg" xmlns:xlink="http://www.w3.org/1999/xlink" version="1.1">
<metadata>
Created by FontForge 20201107 at Wed May 21 08:18:35 2025
 By 
Copyright 2015 (c) Newlyn Works Limited
</metadata>
<defs>
<font id="HeroNew-Thin" horiz-adv-x="1249" >
  <font-face 
    font-family="Hero New Thin"
    font-weight="270"
    font-stretch="normal"
    units-per-em="2048"
    panose-1="2 0 2 0 0 0 0 0 0 0"
    ascent="1638"
    descent="-410"
    x-height="1079"
    cap-height="1520"
    bbox="-356 -502 2370 2152"
    underline-thickness="102"
    underline-position="-204"
    unicode-range="U+000D-FB02"
  />
<missing-glyph horiz-adv-x="1349" 
d="M1167 1520v-1520h-985v1520h985zM1083 1468h-817l416 -659zM236 1423v-1327l415 664zM1114 1423l-401 -663l401 -664v1327zM682 711l-416 -660h817z" />
    <glyph glyph-name="fi" unicode="fi" horiz-adv-x="1142" 
d="M236 0v1030h-164v49h164v228q0 159 86 244t219 85q89 0 157 -30v-54q-72 33 -155 33q-114 0 -184 -71t-70 -216v-219h329v-49h-329v-1030h-53zM911 1436q-23 0 -37 13.5t-14 35.5t14 36.5t37 14.5q22 0 37 -14.5t15 -36.5q0 -21 -15 -35t-37 -14zM883 0v1079h53v-1079
h-53z" />
    <glyph glyph-name="fl" unicode="fl" horiz-adv-x="1144" 
d="M236 0v1030h-164v49h164v228q0 159 86 244t219 85q89 0 157 -30v-54q-72 33 -155 33q-114 0 -184 -71t-70 -216v-219h329v-49h-329v-1030h-53zM883 0v1624h53v-1624h-53z" />
    <glyph glyph-name=".notdef" horiz-adv-x="1349" 
d="M1167 1520v-1520h-985v1520h985zM1083 1468h-817l416 -659zM236 1423v-1327l415 664zM1114 1423l-401 -663l401 -664v1327zM682 711l-416 -660h817z" />
    <glyph glyph-name=".null" horiz-adv-x="0" 
 />
    <glyph glyph-name="nonmarkingreturn" horiz-adv-x="682" 
 />
    <glyph glyph-name="CR" unicode="&#xd;" horiz-adv-x="528" 
 />
    <glyph glyph-name="space" unicode=" " horiz-adv-x="602" 
 />
    <glyph glyph-name="exclam" unicode="!" horiz-adv-x="458" 
d="M207 414l-6 1106h57l-6 -1106h-45zM229 -6q-28 0 -47.5 19t-19.5 48t19.5 48.5t47.5 19.5q29 0 48.5 -19.5t19.5 -48.5t-19.5 -48t-48.5 -19z" />
    <glyph glyph-name="quotedbl" unicode="&#x22;" horiz-adv-x="673" 
d="M178 1044l-10 476h57l-8 -476h-39zM457 1044l-11 476h58l-8 -476h-39z" />
    <glyph glyph-name="numbersign" unicode="#" horiz-adv-x="1288" 
d="M1176 967h-248l-68 -414h258v-47h-264l-82 -506h-51l80 506h-398l-79 -506h-54l82 506h-239v47h245l68 414h-256v47h262l82 506h51l-80 -506h398l80 506h53l-82 -506h242v-47zM809 553l65 414h-397l-65 -414h397z" />
    <glyph glyph-name="dollar" unicode="$" horiz-adv-x="1085" 
d="M967 414q0 -150 -110 -254.5t-286 -116.5l-2 -190h-49v188q-217 3 -389 127v65q73 -64 180.5 -102.5t218.5 -38.5q168 0 274.5 91t106.5 235q0 57 -20.5 104t-50.5 79.5t-83 64t-98 51t-116 45.5q-59 21 -100 38.5t-89.5 42.5t-81 53t-60.5 63t-42 79.5t-14 96.5
q0 138 100 233.5t264 108.5v190h49v-188q175 0 324 -86v-62q-62 41 -147 68.5t-177 27.5q-162 0 -260 -83t-98 -211q0 -52 19.5 -96t48.5 -75t79 -60.5t95 -49t112 -43.5q73 -27 123.5 -49t107.5 -57t91 -73t57 -94t23 -122z" />
    <glyph glyph-name="percent" unicode="%" horiz-adv-x="1638" 
d="M436 809q-143 0 -239.5 103t-96.5 262q0 157 96.5 260.5t239.5 103.5q140 0 237 -104t97 -260q0 -158 -97 -261.5t-237 -103.5zM291 0l999 1520h58l-1000 -1520h-57zM436 854q118 0 201.5 91t83.5 229q0 139 -83.5 229t-201.5 90q-122 0 -204 -89.5t-82 -229.5t82.5 -230
t203.5 -90zM1204 -18q-143 0 -239.5 102.5t-96.5 261.5q0 157 96.5 261t239.5 104q141 0 237.5 -104t96.5 -261q0 -158 -96.5 -261t-237.5 -103zM1204 27q118 0 202.5 90.5t84.5 228.5q0 139 -84.5 229.5t-202.5 90.5q-121 0 -203.5 -90t-82.5 -230t83 -229.5t203 -89.5z
" />
    <glyph glyph-name="ampersand" unicode="&#x26;" horiz-adv-x="1460" 
d="M1374 0h-69l-277 289l-4 -6q-99 -150 -207.5 -225.5t-251.5 -75.5q-181 0 -298 110.5t-117 278.5q0 66 21 124.5t53 101.5t84 85t99.5 70.5t114.5 62.5q-143 152 -196.5 236.5t-53.5 171.5q0 135 102.5 225t256.5 90t251 -91t97 -226q0 -49 -13.5 -93.5t-41.5 -82.5
t-59.5 -69.5t-79 -63t-87.5 -54.5t-96 -53l418 -436l276 424h62l-301 -461zM631 1489q-133 0 -219 -76t-86 -192q0 -73 50 -152.5t193 -228.5q85 43 140 77.5t109.5 81.5t81 101.5t26.5 118.5q0 115 -81.5 192.5t-213.5 77.5zM977 301l16 25l-438 454q-65 -34 -110 -61
t-94 -65.5t-79 -77.5t-49.5 -91t-19.5 -110q0 -148 102 -245t260 -97q125 0 224.5 66.5t187.5 201.5z" />
    <glyph glyph-name="quotesingle" unicode="'" horiz-adv-x="395" 
d="M178 1044l-10 476h57l-8 -476h-39z" />
    <glyph glyph-name="parenleft" unicode="(" horiz-adv-x="612" 
d="M578 1520q-191 -183 -295.5 -409.5t-104.5 -485.5q0 -509 400 -893h-68q-383 390 -383 893q0 262 103 488.5t280 406.5h68z" />
    <glyph glyph-name="parenright" unicode=")" horiz-adv-x="612" 
d="M35 1520h67q177 -180 280 -406.5t103 -488.5q0 -503 -383 -893h-67q399 383 399 893q0 260 -104.5 486t-294.5 409z" />
    <glyph glyph-name="asterisk" unicode="*" horiz-adv-x="1173" 
d="M610 1630l-4 -407l389 131l19 -49l-398 -119l248 -324l-41 -31l-235 332h-2l-236 -332l-43 31l248 324l-395 119l16 49l389 -131l-6 407h51z" />
    <glyph glyph-name="plus" unicode="+" horiz-adv-x="1304" 
d="M678 1292v-489h489v-51h-489v-488h-53v488h-488v51h488v489h53z" />
    <glyph glyph-name="comma" unicode="," horiz-adv-x="411" 
d="M90 -272q92 234 92 426v67h54v-67q0 -180 -101 -426h-45z" />
    <glyph glyph-name="hyphen" unicode="-" horiz-adv-x="804" 
d="M170 580v51h463v-51h-463z" />
    <glyph glyph-name="period" unicode="." horiz-adv-x="456" 
d="M227 -6q-28 0 -47.5 19t-19.5 48t19.5 48.5t47.5 19.5q29 0 49.5 -19.5t20.5 -48.5t-20 -48t-50 -19z" />
    <glyph glyph-name="slash" unicode="/" horiz-adv-x="888" 
d="M88 -270l657 1941h56l-660 -1941h-53z" />
    <glyph glyph-name="zero" unicode="0" horiz-adv-x="1327" 
d="M664 1538q106 0 199 -52.5t163.5 -149.5t111 -246t40.5 -330t-40.5 -330t-111 -246t-163.5 -149.5t-199 -52.5q-107 0 -200 52.5t-163 149.5t-110.5 246t-40.5 330t40.5 330t110.5 246t163 149.5t200 52.5zM664 1487q-95 0 -178 -49t-146 -139.5t-99 -229.5t-36 -309
q0 -171 36 -310t99 -229.5t146 -139t178 -48.5t178.5 49t146 139.5t99 229.5t36.5 309t-36.5 309t-99 229.5t-146 139.5t-178.5 49z" />
    <glyph glyph-name="one" unicode="1" horiz-adv-x="886" 
d="M492 0v1450l-414 -195v58l446 209h21v-1522h-53z" />
    <glyph glyph-name="two" unicode="2" horiz-adv-x="1120" 
d="M88 0q190 203 310.5 335.5t218.5 248.5t148.5 185.5t84.5 137t43.5 114t9.5 105.5q0 94 -41.5 174.5t-129 133.5t-206.5 53q-111 0 -207 -46t-165 -124v65q68 74 165 115t207 41q101 0 184 -34.5t136 -92t81.5 -131t28.5 -154.5q0 -39 -4 -73.5t-18 -75t-27 -73
t-45.5 -82.5t-57.5 -86.5t-79.5 -102.5t-94.5 -113t-119.5 -135.5t-138 -153t-165.5 -180.5h786v-51h-905z" />
    <glyph glyph-name="three" unicode="3" horiz-adv-x="1124" 
d="M608 786q173 -26 272 -133t99 -264q0 -82 -29.5 -155t-84.5 -129t-140 -88.5t-190 -32.5q-261 0 -400 174v69q63 -91 168 -141.5t232 -50.5q183 0 287 101t104 255q0 161 -116 263t-321 102h-161v51h147q184 0 289.5 103.5t105.5 248.5q0 138 -96.5 233t-249.5 95
q-104 0 -194 -44.5t-144 -117.5v70q60 66 148 104.5t190 38.5q175 0 287.5 -109.5t112.5 -265.5q0 -133 -84.5 -240t-231.5 -137z" />
    <glyph glyph-name="four" unicode="4" horiz-adv-x="1253" 
d="M1165 449v-52h-272v-397h-53v397h-764v39l772 1084h45v-1071h272zM147 449h693v972h-2l-691 -970v-2z" />
    <glyph glyph-name="five" unicode="5" horiz-adv-x="1126" 
d="M930 1520v-50h-520l-127 -614h2q104 47 231 47q148 0 260.5 -64.5t168.5 -167.5t56 -227q0 -93 -31.5 -176t-90.5 -147t-151.5 -101.5t-207.5 -37.5q-250 0 -409 172v67q75 -90 182.5 -139t228.5 -49q197 0 311.5 116t114.5 293t-118.5 294.5t-321.5 117.5
q-148 0 -275 -70l-8 9l148 727h557z" />
    <glyph glyph-name="six" unicode="6" horiz-adv-x="1165" 
d="M567 930q91 0 178 -31.5t157.5 -90t113.5 -150.5t43 -203q0 -129 -59 -237t-167 -172t-243 -64q-136 0 -245.5 65t-169.5 173t-60 237q0 109 47 205t153 231l490 627h63l-489 -625q90 35 188 35zM590 33q181 0 298.5 122t117.5 296q0 103 -39 187t-103 135.5t-143 79.5
t-164 28q-121 0 -227 -50q-88 -115 -125 -196t-37 -180q0 -174 120 -298t302 -124z" />
    <glyph glyph-name="seven" unicode="7" horiz-adv-x="1024" 
d="M131 0l787 1470h-807v50h890l-808 -1520h-62z" />
    <glyph glyph-name="eight" unicode="8" horiz-adv-x="1232" 
d="M758 784q149 -35 239 -142.5t90 -248.5q0 -178 -133 -294.5t-338 -116.5t-337 116.5t-132 294.5q0 141 89.5 248.5t238.5 142.5v2q-125 37 -202.5 135t-77.5 228q0 163 120 276t301 113t301.5 -113t120.5 -276q0 -129 -78 -227t-202 -136v-2zM246 1149q0 -146 106.5 -243
t263.5 -97t264 97t107 243q0 145 -106.5 241.5t-264.5 96.5t-264 -96.5t-106 -241.5zM616 760q-182 0 -299.5 -104.5t-117.5 -260.5t117 -259t300 -103q185 0 302.5 103t117.5 259t-118.5 260.5t-301.5 104.5z" />
    <glyph glyph-name="nine" unicode="9" horiz-adv-x="1144" 
d="M336 0h-62l508 647l-8 -8q-21 -14 -75.5 -25.5t-108.5 -11.5q-88 0 -173 31t-155 88.5t-113 149t-43 202.5q0 194 131.5 329.5t333.5 135.5q133 0 240 -63t166 -169.5t59 -232.5q0 -106 -45.5 -203t-150.5 -229zM823 700q86 115 123 195t37 176q0 113 -51.5 208
t-146.5 151.5t-214 56.5q-180 0 -295.5 -120t-115.5 -292q0 -99 37 -181t98.5 -134t138.5 -80.5t160 -28.5q121 0 229 49z" />
    <glyph glyph-name="colon" unicode=":" horiz-adv-x="479" 
d="M240 707q-28 0 -48 19t-20 48t20 48.5t48 19.5q29 0 49 -19.5t20 -48.5t-20 -48t-49 -19zM240 -6q-28 0 -48 19t-20 48t20 48.5t48 19.5q29 0 49 -19.5t20 -48.5t-20 -48t-49 -19z" />
    <glyph glyph-name="semicolon" unicode=";" horiz-adv-x="477" 
d="M246 707q-28 0 -48 19t-20 48t20 48.5t48 19.5q29 0 49 -19.5t20 -48.5t-20 -48t-49 -19zM137 -272q92 234 92 426v67h54v-67q0 -180 -101 -426h-45z" />
    <glyph glyph-name="less" unicode="&#x3c;" horiz-adv-x="1337" 
d="M1122 1196v55l-1005 -446v-55l1005 -445v55l-944 418v2z" />
    <glyph glyph-name="equal" unicode="=" horiz-adv-x="1368" 
d="M182 909v52h1004v-52h-1004zM182 594v51h1004v-51h-1004z" />
    <glyph glyph-name="greater" unicode="&#x3e;" horiz-adv-x="1337" 
d="M215 1196l944 -416v-2l-944 -418v-55l1006 445v55l-1006 446v-55z" />
    <glyph glyph-name="question" unicode="?" horiz-adv-x="1009" 
d="M477 1538q166 0 279.5 -108.5t113.5 -286.5q0 -58 -16.5 -115t-44 -109.5t-78.5 -119.5t-104.5 -127t-137.5 -150l-28 -30h-66l39 40q66 74 101.5 113.5t83.5 96t72 90.5t52.5 79t41 79t21.5 73t9 78q0 158 -98 252t-244 94q-105 0 -198.5 -50t-163.5 -137v68
q62 72 157.5 121t208.5 49zM444 129q29 0 49.5 -19.5t20.5 -48.5t-20 -48t-50 -19q-28 0 -47.5 19t-19.5 48t19.5 48.5t47.5 19.5z" />
    <glyph glyph-name="at" unicode="@" horiz-adv-x="2013" 
d="M1319 86h-21l33 254h-2q-61 -126 -160.5 -198t-220.5 -72q-71 0 -137 26t-119 75.5t-85 129.5t-32 180q0 143 63.5 264.5t169.5 191t228 69.5q128 0 224 -77t122 -210l48 274h38l-122 -860q62 6 126 36t126 85t110 128t77.5 174t29.5 214q0 120 -37 221t-103 173.5
t-156.5 123.5t-196.5 76t-224 25q-130 0 -258 -36t-245.5 -112t-207.5 -182t-143.5 -257t-53.5 -327q0 -121 26.5 -225.5t73 -183t111 -142t139 -105.5t159 -70.5t168 -41t169.5 -12.5q170 0 348 55l-8 -51q-161 -53 -346 -53q-129 0 -252 27t-240.5 90t-205.5 156
t-141.5 235t-53.5 317q0 184 56 343t150.5 272t219 194.5t262.5 120.5t279 39q123 0 236.5 -28t209.5 -84t167 -134.5t111 -186.5t40 -233q0 -121 -33.5 -231.5t-90 -192t-127.5 -142t-148 -91.5t-150 -31zM954 121q105 0 198.5 66t149.5 178.5t56 240.5q1 169 -94.5 259.5
t-225.5 90.5q-80 0 -154.5 -37t-130.5 -99.5t-90 -151t-34 -185.5q0 -90 27.5 -161.5t74.5 -114t103.5 -64.5t119.5 -22z" />
    <glyph glyph-name="A" unicode="A" horiz-adv-x="1370" 
d="M1329 0h-57l-228 561h-718l-228 -561h-57l616 1520h56zM686 1452l-340 -840h678z" />
    <glyph glyph-name="B" unicode="B" horiz-adv-x="1271" 
d="M793 784q163 -34 253.5 -135t90.5 -248q0 -174 -130.5 -287.5t-365.5 -113.5h-391v1520h373q212 0 332 -103.5t120 -273.5q0 -138 -73 -232.5t-209 -126.5zM303 1470v-665h336q98 0 173 27.5t119.5 75t66.5 106.5t22 127q0 153 -103.5 241t-287.5 88h-326zM641 51
q212 0 327 98.5t115 251.5q0 155 -115 254t-321 99h-344v-703h338z" />
    <glyph glyph-name="C" unicode="C" horiz-adv-x="1359" 
d="M1262 86q-167 -104 -390 -104q-110 0 -216.5 32.5t-200 99t-164.5 158.5t-112.5 218.5t-41.5 271.5q0 179 63 329t166 246t231 148.5t263 52.5q238 0 402 -104v-58q-171 111 -402 111q-98 0 -193.5 -30t-181.5 -91t-152 -145.5t-104.5 -203.5t-38.5 -255q0 -137 39 -256
t106 -204.5t154 -147t184.5 -91.5t196.5 -30q218 0 392 112v-59z" />
    <glyph glyph-name="D" unicode="D" horiz-adv-x="1468" 
d="M539 1520q234 0 413 -90.5t279 -262.5t100 -403q0 -232 -100.5 -406t-279.5 -266t-412 -92h-289v1520h289zM303 1470v-1419h238q215 0 381 84t260 246t94 381q0 220 -94.5 381.5t-259.5 244t-381 82.5h-238z" />
    <glyph glyph-name="E" unicode="E" horiz-adv-x="1128" 
d="M250 0v1520h715v-50h-662v-673h625v-49h-625v-697h662v-51h-715z" />
    <glyph glyph-name="F" unicode="F" horiz-adv-x="1089" 
d="M250 0v1520h729v-50h-676v-686h649v-51h-649v-733h-53z" />
    <glyph glyph-name="G" unicode="G" horiz-adv-x="1466" 
d="M190 762q0 -162 52.5 -299.5t143 -230.5t214 -144.5t264.5 -50.5q210 3 377 78v692h53v-725q-85 -44 -200 -72t-230 -28q-150 0 -283 56t-231 156t-155.5 247.5t-57.5 320.5t57 320t154.5 246t228.5 154.5t279 55.5q244 0 428 -108v-62q-195 117 -428 117
q-137 0 -258.5 -51t-212 -143t-143 -229t-52.5 -300z" />
    <glyph glyph-name="H" unicode="H" horiz-adv-x="1570" 
d="M1268 0v756h-965v-756h-53v1520h53v-713h965v713h53v-1520h-53z" />
    <glyph glyph-name="I" unicode="I" horiz-adv-x="552" 
d="M250 0v1520h53v-1520h-53z" />
    <glyph glyph-name="J" unicode="J" horiz-adv-x="892" 
d="M61 152q117 -117 267 -117q127 0 201.5 81t74.5 232v1172h53v-1178q0 -166 -89.5 -262t-239.5 -96q-154 0 -267 104v64z" />
    <glyph glyph-name="K" unicode="K" horiz-adv-x="1228" 
d="M303 1520v-1520h-53v1520h53zM1180 1520l-805 -760l815 -760h-74l-813 760l807 760h70z" />
    <glyph glyph-name="L" unicode="L" horiz-adv-x="1064" 
d="M250 0v1520h53v-1469h709v-51h-762z" />
    <glyph glyph-name="M" unicode="M" horiz-adv-x="1935" 
d="M424 1430l-234 -1430h-55l250 1520h64l522 -1434h2l508 1434h65l254 -1520h-55l-236 1434h-4l-510 -1434h-49l-520 1430h-2z" />
    <glyph glyph-name="N" unicode="N" horiz-adv-x="1591" 
d="M1341 1520v-1520h-53l-983 1434h-2v-1434h-53v1520h59l977 -1426h2v1426h53z" />
    <glyph glyph-name="O" unicode="O" horiz-adv-x="1716" 
d="M858 -18q-152 0 -285.5 58.5t-229 160.5t-151 247t-55.5 312t55.5 312t151 247t229 160.5t285.5 58.5q151 0 284.5 -58.5t229.5 -160.5t151.5 -247t55.5 -312t-55.5 -312t-151.5 -247t-229.5 -160.5t-284.5 -58.5zM858 33q137 0 259 53t212.5 146.5t143.5 230.5t53 297
t-53 297t-143.5 230.5t-212.5 146.5t-259 53t-259.5 -53t-213 -146.5t-143 -230.5t-52.5 -297t52.5 -297t143 -230.5t213 -146.5t259.5 -53z" />
    <glyph glyph-name="P" unicode="P" horiz-adv-x="1179" 
d="M250 0v1520h303q242 0 388 -119.5t146 -331.5q0 -220 -145.5 -343.5t-390.5 -123.5h-248v-602h-53zM553 653q222 0 350.5 109t128.5 305q0 191 -128.5 297t-348.5 106h-252v-817h250z" />
    <glyph glyph-name="Q" unicode="Q" horiz-adv-x="1718" 
d="M1583 -63l-37 -37l-231 245q-193 -163 -457 -163q-152 0 -285.5 58.5t-229 160.5t-151 247t-55.5 312t55.5 312t151 247t229 160.5t285.5 58.5q151 0 284.5 -58.5t229.5 -160.5t151.5 -247t55.5 -312q0 -175 -59 -323t-166 -255zM858 33q239 0 420 151l-324 344l39 37
l324 -346q99 99 154 237.5t55 303.5q0 160 -53 297t-143.5 230.5t-212.5 146.5t-259 53t-259.5 -53t-213 -146.5t-143 -230.5t-52.5 -297t52.5 -297t143 -230.5t213 -146.5t259.5 -53z" />
    <glyph glyph-name="R" unicode="R" horiz-adv-x="1175" 
d="M381 702l698 -702h-73l-697 702h-6v-702h-53v1520h299q123 0 217.5 -31.5t151.5 -88t85.5 -129.5t28.5 -161q0 -188 -126 -298t-361 -110h-164zM303 752h236q220 0 330 96t110 262q0 164 -107.5 262t-326.5 98h-242v-718z" />
    <glyph glyph-name="S" unicode="S" horiz-adv-x="1112" 
d="M588 1540q90 0 180.5 -26t157.5 -78v-64q-70 59 -161 87t-177 28q-164 0 -267.5 -87t-103.5 -224q0 -54 19.5 -100.5t49.5 -80.5t83 -69.5t101 -60.5t124 -60q75 -35 123.5 -60.5t105 -65.5t89.5 -80t55 -96.5t22 -121.5q0 -174 -128.5 -286.5t-321.5 -112.5
q-112 0 -219.5 39t-190.5 108v68q84 -77 193 -120.5t217 -43.5q171 0 284 97t113 247q0 41 -10.5 78.5t-27 67t-45.5 58.5t-57 50.5t-71.5 46.5t-79 43t-88.5 43q-56 26 -93 44.5t-83 44.5t-74.5 48t-59 52.5t-47.5 62t-27.5 71t-10.5 84.5q0 161 120 265t306 104z" />
    <glyph glyph-name="T" unicode="T" horiz-adv-x="1169" 
d="M557 0v1470h-510v50h1075v-50h-512v-1470h-53z" />
    <glyph glyph-name="U" unicode="U" horiz-adv-x="1513" 
d="M754 -18q-241 0 -383 154t-142 417v967h54v-971q0 -239 127 -377.5t344 -138.5q219 0 348 139t129 379v969h53v-967q0 -262 -143.5 -416.5t-386.5 -154.5z" />
    <glyph glyph-name="V" unicode="V" horiz-adv-x="1349" 
d="M1307 1520l-605 -1520h-55l-604 1520h57l574 -1450h2l575 1450h56z" />
    <glyph glyph-name="W" unicode="W" horiz-adv-x="2107" 
d="M1532 0l-477 1436l-477 -1436h-60l-452 1520h57l424 -1438h2l479 1438h53l480 -1438h2l426 1438h55l-453 -1520h-59z" />
    <glyph glyph-name="X" unicode="X" horiz-adv-x="1259" 
d="M61 0l537 766l-528 754h61l500 -713l495 713h60l-527 -752l541 -768h-63l-508 725l-506 -725h-62z" />
    <glyph glyph-name="Y" unicode="Y" horiz-adv-x="1214" 
d="M582 0v676l-547 844h59l512 -789h2l508 789h60l-543 -844v-676h-51z" />
    <glyph glyph-name="Z" unicode="Z" horiz-adv-x="1142" 
d="M1081 1520l-931 -1469h882v-51h-979l936 1468v2h-866v50h958z" />
    <glyph glyph-name="bracketleft" unicode="[" horiz-adv-x="540" 
d="M182 -430v2015h297v-51h-243v-1913h243v-51h-297z" />
    <glyph glyph-name="backslash" unicode="\" horiz-adv-x="888" 
d="M801 -270h-53l-660 1941h55z" />
    <glyph glyph-name="bracketright" unicode="]" horiz-adv-x="540" 
d="M358 -430h-297v51h244v1913h-244v51h297v-2015z" />
    <glyph glyph-name="asciicircum" unicode="^" horiz-adv-x="1079" 
d="M952 627h-53l-358 821l-361 -821h-53l389 893h47z" />
    <glyph glyph-name="underscore" unicode="_" horiz-adv-x="1079" 
d="M0 -328v49h1079v-49h-1079z" />
    <glyph glyph-name="grave" unicode="`" horiz-adv-x="1259" 
d="M506 1602l248 -326h-52l-260 326h64z" />
    <glyph glyph-name="a" unicode="a" horiz-adv-x="1306" 
d="M612 -16q-95 0 -183.5 39.5t-157 109.5t-109.5 176t-41 230q0 126 40.5 232.5t109 176.5t157 109t184.5 39q146 0 269.5 -87t175.5 -245l6 315h45v-1079h-45l-6 315q-52 -158 -175 -244.5t-270 -86.5zM616 35q87 0 166.5 35.5t140.5 99t97.5 160t36.5 211.5
q0 114 -36 210t-97 159.5t-141 98.5t-169 35q-87 0 -166.5 -35t-140.5 -98.5t-97 -160t-36 -211.5q0 -113 36.5 -209.5t98 -160t141 -99t166.5 -35.5z" />
    <glyph glyph-name="b" unicode="b" horiz-adv-x="1306" 
d="M254 1624v-858q51 157 174 243.5t270 86.5q96 0 183.5 -39t155.5 -109t108.5 -176.5t40.5 -232.5q0 -124 -41 -230t-109 -176t-156.5 -109.5t-183.5 -39.5t-182 36.5t-157.5 113.5t-104.5 185h-2l-6 -319h-43v1624h53zM694 1044q-88 0 -168 -35t-141.5 -98.5t-98 -159.5
t-36.5 -210q0 -115 36.5 -211.5t98 -160t141.5 -99t168 -35.5q180 0 309.5 139.5t129.5 364.5q0 115 -36 211.5t-96.5 160t-139.5 98.5t-167 35z" />
    <glyph glyph-name="c" unicode="c" horiz-adv-x="1032" 
d="M174 541q0 -113 37.5 -209t101 -160.5t147 -100.5t175.5 -36q170 0 291 86v-60q-124 -77 -291 -77q-140 0 -257 69.5t-187 198t-70 289.5q0 158 69 285.5t186 198.5t257 71q162 0 293 -76v-59q-126 83 -295 83q-91 0 -174 -36.5t-146 -101.5t-100 -160t-37 -205z" />
    <glyph glyph-name="d" unicode="d" horiz-adv-x="1306" 
d="M614 -16q-96 0 -184.5 39t-157 109.5t-109 176t-40.5 230.5q0 126 40.5 232.5t108.5 176.5t156 109t184 39q146 0 268 -86t173 -242h2v856h53v-1624h-43l-6 319h-2q-52 -161 -174.5 -248t-268.5 -87zM616 35q87 0 166.5 35.5t140.5 99t97.5 160t36.5 211.5q0 114 -36 210
t-97 159.5t-140.5 98.5t-167.5 35t-167.5 -35t-140 -98.5t-96.5 -160t-36 -211.5q0 -113 36 -209t97 -160t140.5 -99.5t166.5 -35.5z" />
    <glyph glyph-name="e" unicode="e" horiz-adv-x="1173" 
d="M1055 563q0 -9 -1 -23t-1 -16h-877q4 -226 131 -357.5t326 -131.5q226 0 395 155v-61q-173 -145 -397 -145t-366 150.5t-142 404.5q0 126 40.5 232.5t109 176.5t157 109t184.5 39q89 0 167.5 -34.5t140 -99.5t97.5 -168t36 -231zM176 573h825q0 116 -32 208t-86.5 149
t-123 87t-145.5 30q-82 0 -158.5 -33t-137 -93t-99 -150.5t-43.5 -197.5z" />
    <glyph glyph-name="f" unicode="f" horiz-adv-x="649" 
d="M236 0v1030h-164v49h164v228q0 159 86 244t219 85q89 0 157 -30v-54q-72 33 -155 33q-114 0 -184 -71t-70 -216v-219h329v-49h-329v-1030h-53z" />
    <glyph glyph-name="g" unicode="g" horiz-adv-x="1294" 
d="M606 1096q145 0 266 -85.5t172 -240.5l9 309h43v-1071q0 -124 -38 -217.5t-104.5 -147t-147 -79t-175.5 -25.5q-241 0 -410 125v62q170 -136 412 -136q83 0 154 22.5t129.5 69.5t92 128.5t33.5 191.5v332h-2q-51 -152 -171 -236t-263 -84q-94 0 -181.5 38t-155 106
t-108 171t-40.5 224q0 122 40.5 225.5t107.5 172t154.5 107t182.5 38.5zM608 1044q-85 0 -163.5 -34.5t-138.5 -96.5t-96 -156t-36 -204t36 -203t96 -155t139 -97t165 -35t164.5 35t138.5 97t95.5 156t35.5 204q0 220 -127.5 354.5t-308.5 134.5z" />
    <glyph glyph-name="h" unicode="h" horiz-adv-x="1175" 
d="M254 1624v-737h2q44 98 142 153.5t220 55.5q170 0 270.5 -99.5t100.5 -275.5v-721h-53v707q0 162 -85 249.5t-237 87.5q-97 0 -177 -35.5t-131.5 -110t-51.5 -175.5v-723h-53v1624h53z" />
    <glyph glyph-name="i" unicode="i" horiz-adv-x="468" 
d="M236 1436q-23 0 -37.5 13.5t-14.5 35.5t14.5 36.5t37.5 14.5q22 0 36.5 -14.5t14.5 -36.5t-14.5 -35.5t-36.5 -13.5zM207 0v1079h53v-1079h-53z" />
    <glyph glyph-name="j" unicode="j" horiz-adv-x="468" 
d="M236 1436q-22 0 -37 14t-15 35q0 22 15 36.5t37 14.5t36.5 -14.5t14.5 -36.5t-14.5 -35.5t-36.5 -13.5zM23 -444q94 100 140 233t46 317v973h53v-973q0 -184 -42.5 -315t-127.5 -235h-69z" />
    <glyph glyph-name="k" unicode="k" horiz-adv-x="954" 
d="M254 1624v-1624h-53v1624h53zM901 1079l-575 -508l600 -571h-74l-598 571l573 508h74z" />
    <glyph glyph-name="l" unicode="l" horiz-adv-x="468" 
d="M207 0v1624h53v-1624h-53z" />
    <glyph glyph-name="m" unicode="m" horiz-adv-x="1662" 
d="M1161 1096q151 0 233.5 -96.5t82.5 -258.5v-741h-54v737q0 143 -70 225t-200 82t-209.5 -87.5t-79.5 -221.5v-735h-53v737q0 141 -70.5 224t-201.5 83q-129 0 -207 -87.5t-78 -219.5v-737h-53v1079h41l6 -192h4q31 96 109.5 152.5t183.5 56.5q120 0 197 -63t104 -175
q31 110 113.5 174t201.5 64z" />
    <glyph glyph-name="n" unicode="n" horiz-adv-x="1175" 
d="M616 1096q168 0 270.5 -101t102.5 -272v-723h-53v709q0 160 -87 247.5t-239 87.5q-150 0 -253 -88.5t-103 -240.5v-715h-53v1079h41l6 -207h4q41 104 138.5 164t225.5 60z" />
    <glyph glyph-name="o" unicode="o" horiz-adv-x="1259" 
d="M631 -16q-100 0 -192.5 40t-163 110.5t-112.5 176t-42 228.5t42 229t112 177t162.5 111t193.5 40q100 0 192 -40t162.5 -111t112 -177t41.5 -229q0 -122 -42 -227.5t-112 -176.5t-162 -111t-192 -40zM631 35q87 0 168.5 35t145 97.5t102 159.5t38.5 212t-38.5 212
t-102 160t-145 98t-168.5 35q-88 0 -170 -35t-146 -98t-102.5 -160t-38.5 -212t38.5 -212t102.5 -159.5t146 -97.5t170 -35z" />
    <glyph glyph-name="p" unicode="p" horiz-adv-x="1306" 
d="M201 -444v1523h43l6 -319h2q34 108 104.5 185.5t158 114t183.5 36.5q95 0 183 -39t156 -109.5t108.5 -176t40.5 -230.5q0 -126 -41 -232.5t-109 -176.5t-156 -109t-184 -39q-146 0 -268.5 86t-173.5 241v-755h-53zM694 35q87 0 166 35.5t140 99t97 160t36 211.5
q0 113 -36 209t-96.5 159.5t-140 99t-166.5 35.5q-88 0 -168 -35t-141.5 -98.5t-98 -160t-36.5 -211.5q0 -114 36.5 -210t98 -159.5t141.5 -99t168 -35.5z" />
    <glyph glyph-name="q" unicode="q" horiz-adv-x="1306" 
d="M612 1096q146 0 269.5 -87.5t175.5 -248.5l6 319h45v-1523h-53v755h-2q-51 -156 -172.5 -241.5t-268.5 -85.5q-96 0 -184 39.5t-156.5 109.5t-109.5 176.5t-41 231.5t40.5 231t109 176t157 109t184.5 39zM614 1044q-87 0 -166.5 -35t-140.5 -98.5t-97 -160t-36 -211.5
q0 -113 36.5 -209.5t98 -160t141 -99t166.5 -35.5t166.5 35.5t140.5 99t97.5 159.5t36.5 210q0 228 -129.5 366.5t-313.5 138.5z" />
    <glyph glyph-name="r" unicode="r" horiz-adv-x="665" 
d="M201 0v1079h43l6 -221h2q27 75 81 128t114.5 77t123.5 24q34 0 66 -4v-51q-24 6 -66 6q-78 0 -148 -36.5t-118 -113.5t-51 -179v-709h-53z" />
    <glyph glyph-name="s" unicode="s" horiz-adv-x="937" 
d="M483 1096q161 0 297 -92v-60q-139 100 -299 100q-126 0 -207 -61.5t-81 -159.5q0 -34 9 -61.5t30 -50t43 -39t61.5 -34.5t71 -30t84.5 -30q65 -21 107.5 -38t91 -43.5t76 -55t46 -71t18.5 -94.5q0 -129 -98.5 -210.5t-255.5 -81.5q-195 0 -362 129v63q163 -141 362 -141
q133 0 217 67t84 172q0 42 -15.5 77t-40 60t-67 48.5t-84.5 39.5t-104 36q-63 21 -102 36t-87 40t-75 52t-45.5 67t-18.5 89q0 120 97.5 198.5t246.5 78.5z" />
    <glyph glyph-name="t" unicode="t" horiz-adv-x="659" 
d="M276 1335v-256h326v-49h-326v-708q0 -285 273 -285q47 0 88 8v-47q-40 -10 -94 -10q-146 0 -233 81t-87 248v713h-166v49h168v256h51z" />
    <glyph glyph-name="u" unicode="u" horiz-adv-x="1161" 
d="M580 -16q-181 0 -287.5 108t-106.5 293v694h54v-696q0 -164 91 -256t249 -92q159 0 250.5 91.5t91.5 256.5v696h53v-694q0 -185 -107 -293t-288 -108z" />
    <glyph glyph-name="v" unicode="v" horiz-adv-x="1015" 
d="M481 0l-405 1079h55l377 -1013h2l377 1013h55l-405 -1079h-56z" />
    <glyph glyph-name="w" unicode="w" horiz-adv-x="1648" 
d="M1184 0l-359 1008h-2l-358 -1008h-59l-316 1079h53l293 -1013h2l359 1013h55l360 -1013h2l291 1013h54l-318 -1079h-57z" />
    <glyph glyph-name="x" unicode="x" horiz-adv-x="970" 
d="M897 1079l-381 -532l389 -547h-59l-359 504h-2l-358 -504h-59l387 543l-381 536h59l352 -495h2l353 495h57z" />
    <glyph glyph-name="y" unicode="y" horiz-adv-x="1015" 
d="M944 1079l-594 -1523h-53l190 489l-413 1034h57l383 -964h2l373 964h55z" />
    <glyph glyph-name="z" unicode="z" horiz-adv-x="937" 
d="M877 1079l-727 -1028v-2h679v-49h-776l727 1028h-657v51h754z" />
    <glyph glyph-name="braceleft" unicode="{" horiz-adv-x="622" 
d="M555 1554v-51q-107 9 -166 -36t-59 -138v-479q0 -239 -185 -283v-2q185 -47 185 -280v-478q0 -93 59.5 -138.5t167.5 -37.5v-49q-128 -11 -203 47.5t-75 171.5v490q0 98 -44.5 163t-158.5 87v51q59 10 100.5 34.5t63 59.5t30.5 73t9 85v489q0 113 74.5 172.5t201.5 48.5z
" />
    <glyph glyph-name="bar" unicode="|" horiz-adv-x="423" 
d="M184 -375v2269h54v-2269h-54z" />
    <glyph glyph-name="braceright" unicode="}" horiz-adv-x="622" 
d="M344 1333v-489q0 -47 9 -85t30.5 -73t63 -59.5t100.5 -34.5v-51q-114 -22 -158.5 -87t-44.5 -163v-490q0 -113 -75 -171.5t-203 -47.5v49q108 -8 167.5 37.5t59.5 138.5v478q0 234 184 280v2q-184 44 -184 283v479q0 93 -59 138t-166 36v51q127 11 201.5 -48.5
t74.5 -172.5z" />
    <glyph glyph-name="asciitilde" unicode="~" horiz-adv-x="1449" 
d="M1268 891q-12 -106 -77.5 -170t-168.5 -64q-65 0 -146.5 28.5t-146 62t-142.5 62t-136 28.5q-86 0 -143.5 -52.5t-65.5 -132.5h-49q7 104 78 169t175 65q64 0 145.5 -28t146 -62t143 -62t137.5 -28q84 0 137 51.5t64 132.5h49z" />
    <glyph glyph-name="uni00A0" unicode="&#xa0;" horiz-adv-x="602" 
 />
    <glyph glyph-name="exclamdown" unicode="&#xa1;" horiz-adv-x="458" 
d="M217 1524q14 0 23.5 -19.5t9.5 -48.5t-9.5 -48t-23.5 -19q-12 0 -21.5 19t-9.5 48t9.5 48.5t21.5 19.5zM229 1104l2 -1106h-26l2 1106h22z" />
    <glyph glyph-name="cent" unicode="&#xa2;" horiz-adv-x="1085" 
d="M629 1047q-87 0 -166.5 -33.5t-140 -93t-96.5 -149.5t-36 -196q0 -213 129.5 -339.5t315.5 -126.5q162 0 283 86v-58q-126 -78 -283 -78h-2v-204h-49v206q-193 19 -320 159.5t-127 354.5q0 215 127.5 357t319.5 160v219h49v-217q156 0 285 -74v-57q-133 84 -289 84z" />
    <glyph glyph-name="sterling" unicode="&#xa3;" horiz-adv-x="1087" 
d="M168 51h774v-51h-860q84 122 140 275t87 368l6 47h-180v49h187l55 396q30 211 122 307t246 96q56 0 109.5 -15t83.5 -36v-57q-79 57 -193 57q-134 0 -212 -82t-105 -275l-53 -391h389v-49h-395l-9 -53q-28 -194 -71.5 -326.5t-120.5 -259.5z" />
    <glyph glyph-name="currency" unicode="&#xa4;" horiz-adv-x="1259" 
d="M1020 1237l39 -37l-125 -121q106 -116 106 -272q0 -155 -102 -275l125 -122l-35 -39l-129 127q-114 -99 -262 -99q-160 0 -277 107l-129 -133l-38 37l133 133q-97 115 -97 264q0 147 99 264l-129 129l37 37l129 -129q117 102 272 102q146 0 260 -96zM637 449
q149 0 250.5 104t101.5 254q0 148 -101.5 251t-250.5 103q-151 0 -253.5 -102.5t-102.5 -251.5q0 -150 102.5 -254t253.5 -104z" />
    <glyph glyph-name="yen" unicode="&#xa5;" horiz-adv-x="1294" 
d="M1217 1520l-527 -805h391v-49h-407v-224h407v-49h-407v-393h-51v393h-408v49h408v224h-408v49h389l-528 805h61l510 -777h2l508 777h60z" />
    <glyph glyph-name="brokenbar" unicode="&#xa6;" horiz-adv-x="460" 
d="M205 1059v835h53v-835h-53zM258 461v-836h-53v836h53z" />
    <glyph glyph-name="section" unicode="&#xa7;" horiz-adv-x="1026" 
d="M657 246q102 -56 156.5 -123.5t54.5 -169.5q0 -148 -106.5 -239t-272.5 -91q-104 0 -195 37t-147 96v72q54 -70 148 -112t197 -42q139 0 230 74t91 201q0 41 -9 74.5t-31.5 62.5t-45.5 50.5t-66 46.5t-75.5 41t-91.5 44q-52 26 -76.5 38t-68.5 37t-65.5 42t-51 45
t-43.5 54.5t-24.5 62t-10.5 74.5q0 116 75.5 202t202.5 109q-54 26 -92 51.5t-72 60.5t-51.5 81t-17.5 102q0 132 96 220.5t256 88.5q150 0 270 -82v-61q-126 94 -270 94q-137 0 -218 -74t-81 -186q0 -32 7.5 -60t19 -50t34 -43.5t42 -36.5t54.5 -34.5t60.5 -32t69.5 -32.5
q41 -19 60 -28t56 -28t55.5 -31t48 -32.5t44.5 -37.5t34.5 -41t28.5 -48t16 -54t7 -63q0 -117 -67.5 -203.5t-164.5 -125.5zM207 623q0 -38 9.5 -70.5t31.5 -60.5t45 -49.5t63.5 -45t72 -39.5t83.5 -41l92 -43q93 26 162.5 105t69.5 192q0 36 -9 68t-22.5 56.5t-39 48.5
t-47 41t-59.5 37.5t-64.5 33t-72.5 33.5l-10 4q-140 0 -222.5 -79t-82.5 -191z" />
    <glyph glyph-name="dieresis" unicode="&#xa8;" horiz-adv-x="1259" 
d="M467 1350q-22 0 -36.5 14.5t-14.5 34.5q0 22 14.5 36.5t36.5 14.5t36.5 -14.5t14.5 -36.5q0 -20 -14.5 -34.5t-36.5 -14.5zM793 1350q-22 0 -37 14.5t-15 34.5q0 22 15 36.5t37 14.5t36.5 -14.5t14.5 -36.5q0 -20 -14.5 -34.5t-36.5 -14.5z" />
    <glyph glyph-name="copyright" unicode="&#xa9;" horiz-adv-x="1837" 
d="M918 1538q160 0 305 -62t249 -166.5t165 -248t61 -301.5q0 -157 -61 -300.5t-165 -248.5t-249 -167t-305 -62t-305 62t-248.5 167t-164.5 248.5t-61 300.5q0 158 61 301.5t164.5 248t248.5 166.5t305 62zM190 760q0 -148 56.5 -282.5t153 -232.5t232 -156t286.5 -58
q200 0 368.5 98t265.5 265.5t97 365.5t-97 365.5t-265.5 265.5t-368.5 98q-151 0 -286.5 -58t-232 -156t-153 -232.5t-56.5 -282.5zM1161 352q-76 -55 -219 -55q-87 0 -167 33.5t-141.5 93t-98.5 148.5t-37 192q0 132 64 239t164.5 163.5t211.5 56.5q146 0 223 -49v-56
q-54 30 -102.5 44t-116.5 14q-74 0 -144.5 -30t-126 -82.5t-89 -131t-33.5 -168.5q0 -123 56.5 -220t146.5 -147.5t192 -50.5q120 0 217 60v-54z" />
    <glyph glyph-name="ordfeminine" unicode="&#xaa;" horiz-adv-x="1118" 
d="M932 1520v-861h-41l-6 250h-2q-41 -126 -140 -195t-219 -69q-162 0 -279.5 123.5t-117.5 321.5t117.5 321t279.5 123q119 0 218.5 -69t140.5 -195h2l6 250h41zM530 1485q-145 0 -248.5 -110t-103.5 -288q0 -177 103.5 -286t248.5 -109q146 0 249.5 109t103.5 286
q0 180 -103 289t-250 109z" />
    <glyph glyph-name="guillemotleft" unicode="&#xab;" horiz-adv-x="1089" 
d="M571 954v-59l-421 -356l421 -357v-59l-465 393v45zM936 954v-59l-422 -356l422 -357v-59l-465 393v45z" />
    <glyph glyph-name="logicalnot" unicode="&#xac;" horiz-adv-x="1417" 
d="M1178 260v492h-975v51h1030v-543h-55z" />
    <glyph glyph-name="uni00AD" unicode="&#xad;" horiz-adv-x="804" 
d="M170 580v51h463v-51h-463z" />
    <glyph glyph-name="registered" unicode="&#xae;" horiz-adv-x="1837" 
d="M918 1538q160 0 305 -62t249 -166.5t165 -248t61 -301.5q0 -157 -61 -300.5t-165 -248.5t-249 -167t-305 -62t-305 62t-248.5 167t-164.5 248.5t-61 300.5q0 158 61 301.5t164.5 248t248.5 166.5t305 62zM918 31q200 0 368.5 98t265.5 265.5t97 365.5t-97 365.5
t-265.5 265.5t-368.5 98q-151 0 -286.5 -58t-232 -156t-153 -232.5t-56.5 -282.5t56.5 -282.5t153 -232.5t232 -156t286.5 -58zM891 723h-84l407 -410h-65l-401 408h-5v-408h-47v899h191q145 0 219 -68t74 -177q0 -117 -77.5 -180.5t-211.5 -63.5zM743 764h138
q252 0 252 203q0 93 -63 146.5t-191 53.5h-136v-403z" />
    <glyph glyph-name="macron" unicode="&#xaf;" horiz-adv-x="1259" 
d="M360 1386v48h539v-48h-539z" />
    <glyph glyph-name="degree" unicode="&#xb0;" horiz-adv-x="905" 
d="M453 877q-137 0 -231.5 96t-94.5 235q0 138 95 234t231 96q138 0 232.5 -96t94.5 -234q0 -140 -94.5 -235.5t-232.5 -95.5zM453 1493q-117 0 -198 -83t-81 -202q0 -120 81 -203t198 -83t197.5 83t80.5 203q0 119 -80.5 202t-197.5 83z" />
    <glyph glyph-name="plusminus" unicode="&#xb1;" horiz-adv-x="1409" 
d="M729 1282v-477h492v-49h-492v-482h-53v482h-488v49h488v477h53zM1221 51v-51h-1033v51h1033z" />
    <glyph glyph-name="uni00B2" unicode="&#xb2;" horiz-adv-x="700" 
d="M600 686v-47h-537q292 315 359 398q94 115 112 189q7 30 7 66q0 82 -56 138.5t-145 56.5q-135 0 -227 -92v53q88 84 231 84q106 0 177 -68t71 -172q0 -44 -11 -82.5t-36.5 -81.5t-71 -99t-109 -127t-157.5 -172q-27 -29 -41 -44h434z" />
    <glyph glyph-name="uni00B3" unicode="&#xb3;" horiz-adv-x="706" 
d="M399 1096q93 -19 149 -78t56 -148q0 -104 -76.5 -173.5t-197.5 -69.5q-136 0 -234 88v55q96 -96 234 -96q99 0 162 54.5t63 143.5q0 92 -70.5 144.5t-185.5 52.5h-98v45h98q106 0 162.5 58.5t56.5 136.5q0 75 -50 125.5t-130 50.5q-125 0 -213 -88v53q89 82 213 82
q102 0 166.5 -63.5t64.5 -157.5q0 -75 -45 -135t-125 -80z" />
    <glyph glyph-name="acute" unicode="&#xb4;" horiz-adv-x="1259" 
d="M754 1602h63l-260 -326h-51z" />
    <glyph glyph-name="uni00B5" unicode="&#xb5;" horiz-adv-x="1220" 
d="M1100 41q23 0 39 4v-47q-15 -6 -45 -6q-156 0 -156 180v27q-40 -100 -133 -157.5t-213 -57.5q-122 0 -211 55t-127 156h-2v-639h-53v1523h53v-702q0 -154 93 -247t249 -93q158 0 250 90.5t92 263.5v688h53v-905q0 -73 26 -103t85 -30z" />
    <glyph glyph-name="paragraph" unicode="&#xb6;" horiz-adv-x="1128" 
d="M666 -444v948h-74q-102 0 -193 32.5t-163.5 94t-115 160t-42.5 221.5q0 98 28 181.5t78 143t118.5 101t149.5 62t171 20.5h309v-1964h-53v1914h-160v-1914h-53z" />
    <glyph glyph-name="periodcentered" unicode="&#xb7;" horiz-adv-x="479" 
d="M240 692q-28 0 -48 19.5t-20 48.5t20 48t48 19q29 0 49 -19t20 -48t-20 -48.5t-49 -19.5z" />
    <glyph glyph-name="cedilla" unicode="&#xb8;" horiz-adv-x="1259" 
d="M494 -365q77 93 116 176t39 199h49q0 -121 -38 -207t-105 -168h-61z" />
    <glyph glyph-name="uni00B9" unicode="&#xb9;" horiz-adv-x="540" 
d="M287 639v823l-226 -112v51l254 125h21v-887h-49z" />
    <glyph glyph-name="ordmasculine" unicode="&#xba;" horiz-adv-x="1077" 
d="M539 1534q170 0 291.5 -124.5t121.5 -322.5q0 -195 -121.5 -318.5t-291.5 -123.5t-292 123.5t-122 318.5q0 99 34 184t91 142t132 89t157 32zM539 1485q-70 0 -135 -27t-116 -77t-81.5 -126t-30.5 -168q0 -178 108 -286.5t255 -108.5t254.5 108.5t107.5 286.5
q0 181 -107.5 289.5t-254.5 108.5z" />
    <glyph glyph-name="guillemotright" unicode="&#xbb;" horiz-adv-x="1073" 
d="M152 121v59l421 357l-421 356v59l464 -393v-45zM502 121v59l422 357l-422 356v59l465 -393v-45z" />
    <glyph glyph-name="onequarter" unicode="&#xbc;" horiz-adv-x="1624" 
d="M311 639v823l-225 -112v51l254 125h20v-887h-49zM1243 1520h55l-999 -1520h-55zM1532 281v-45h-137v-236h-47v236h-465v36l469 609h43v-600h137zM944 281h404v520h-2l-402 -518v-2z" />
    <glyph glyph-name="onehalf" unicode="&#xbd;" horiz-adv-x="1712" 
d="M311 639v823l-225 -112v51l254 125h20v-887h-49zM244 0l999 1520h55l-999 -1520h-55zM1593 47v-47h-536q292 315 361 399q92 115 109 189q7 29 7 65q0 82 -56 138.5t-145 56.5q-135 0 -227 -92v53q88 84 231 84q106 0 177 -68t71 -172q0 -44 -11 -82.5t-36.5 -81.5
t-71 -99t-109 -127t-157.5 -172q-27 -29 -41 -44h434z" />
    <glyph glyph-name="threequarters" unicode="&#xbe;" horiz-adv-x="1810" 
d="M635 870q0 -104 -77 -173.5t-198 -69.5q-135 0 -233 88v55q96 -96 233 -96q99 0 162.5 54.5t63.5 143.5q0 92 -70.5 144.5t-185.5 52.5h-99v45h99q106 0 162.5 58.5t56.5 136.5q0 75 -50 125.5t-130 50.5q-125 0 -213 -88v53q89 82 213 82q102 0 166.5 -63.5t64.5 -157.5
q0 -75 -45 -135t-125 -80q93 -19 149 -78t56 -148zM1430 1520h55l-1000 -1520h-55zM1718 281v-45h-137v-236h-47v236h-465v36l469 609h43v-600h137zM1130 281h404v520h-2l-402 -518v-2z" />
    <glyph glyph-name="questiondown" unicode="&#xbf;" horiz-adv-x="1007" 
d="M563 1391q-29 0 -49 19t-20 48t20 48.5t49 19.5q28 0 48 -19.5t20 -48.5t-20 -48t-48 -19zM530 -18q-166 0 -279.5 108.5t-113.5 286.5q0 72 22 139t76 145.5t115.5 150.5t167.5 185l29 31h65l-39 -41q-77 -86 -117 -131t-92 -108t-77 -102t-50.5 -88t-34.5 -91t-9 -88
q0 -158 98 -252t244 -94q105 0 198.5 50t163.5 136v-67q-62 -72 -158 -121t-209 -49z" />
    <glyph glyph-name="Agrave" unicode="&#xc0;" horiz-adv-x="1370" 
d="M535 2042l247 -326h-51l-260 326h64zM1329 0h-57l-228 561h-718l-228 -561h-57l616 1520h56zM686 1452l-340 -840h678z" />
    <glyph glyph-name="Aacute" unicode="&#xc1;" horiz-adv-x="1370" 
d="M838 2042h63l-260 -326h-51zM1329 0h-57l-228 561h-718l-228 -561h-57l616 1520h56zM686 1452l-340 -840h678z" />
    <glyph glyph-name="Acircumflex" unicode="&#xc2;" horiz-adv-x="1370" 
d="M711 2042l254 -326h-60l-219 281l-219 -281h-57l254 326h47zM1329 0h-57l-228 561h-718l-228 -561h-57l616 1520h56zM686 1452l-340 -840h678z" />
    <glyph glyph-name="Atilde" unicode="&#xc3;" horiz-adv-x="1370" 
d="M1006 1896q4 -79 -45.5 -121t-120.5 -42q-42 0 -85.5 18.5t-74 40.5t-71.5 40.5t-79 18.5q-55 0 -88 -31t-32 -87h-48q-3 79 47 121t121 42q42 0 85.5 -18.5t74 -40.5t71.5 -40.5t79 -18.5q55 0 88 31t30 87h48zM1329 0h-57l-228 561h-718l-228 -561h-57l616 1520h56z
M686 1452l-340 -840h678z" />
    <glyph glyph-name="Adieresis" unicode="&#xc4;" horiz-adv-x="1370" 
d="M524 1790q-22 0 -36.5 14.5t-14.5 34.5q0 22 14.5 36.5t36.5 14.5t36.5 -14.5t14.5 -36.5q0 -20 -14.5 -34.5t-36.5 -14.5zM850 1790q-22 0 -36.5 14.5t-14.5 34.5q0 22 14.5 36.5t36.5 14.5t36.5 -14.5t14.5 -36.5q0 -20 -14.5 -34.5t-36.5 -14.5zM1329 0h-57l-228 561
h-718l-228 -561h-57l616 1520h56zM686 1452l-340 -840h678z" />
    <glyph glyph-name="Aring" unicode="&#xc5;" horiz-adv-x="1370" 
d="M686 2044q70 0 118 -47.5t48 -112.5t-48 -112.5t-118 -47.5t-118 47.5t-48 112.5t48 112.5t118 47.5zM686 2005q-55 0 -89 -34.5t-34 -86.5t34 -86.5t89 -34.5q54 0 88.5 34.5t34.5 86.5t-34.5 86.5t-88.5 34.5zM1329 0h-57l-228 561h-718l-228 -561h-57l616 1520h56z
M686 1452l-340 -840h678z" />
    <glyph glyph-name="AE" unicode="&#xc6;" horiz-adv-x="1961" 
d="M1798 1470h-661v-673h622v-49h-622v-697h661v-51h-715v563h-634l-396 -563h-65l1063 1520h747v-50zM483 614h600v852h-2z" />
    <glyph glyph-name="Ccedilla" unicode="&#xc7;" horiz-adv-x="1359" 
d="M860 1487q-98 0 -193.5 -30t-181.5 -91t-152 -145.5t-104.5 -203.5t-38.5 -255q0 -137 39 -256t106 -204.5t154 -147t184.5 -91.5t196.5 -30q218 0 392 112v-59q-167 -104 -390 -104h-32q-5 -110 -42.5 -189t-101.5 -158h-61q75 91 113.5 168t42.5 183q-128 15 -244.5 74
t-208.5 155t-146.5 238t-54.5 309q0 179 63 329t166 246t231 148.5t263 52.5q238 0 402 -104v-58q-171 111 -402 111z" />
    <glyph glyph-name="Egrave" unicode="&#xc8;" horiz-adv-x="1128" 
d="M467 2042l248 -326h-51l-261 326h64zM250 0v1520h715v-50h-662v-673h625v-49h-625v-697h662v-51h-715z" />
    <glyph glyph-name="Eacute" unicode="&#xc9;" horiz-adv-x="1128" 
d="M770 2042h64l-261 -326h-51zM250 0v1520h715v-50h-662v-673h625v-49h-625v-697h662v-51h-715z" />
    <glyph glyph-name="Ecircumflex" unicode="&#xca;" horiz-adv-x="1128" 
d="M643 2042l254 -326h-59l-220 281l-219 -281h-57l254 326h47zM250 0v1520h715v-50h-662v-673h625v-49h-625v-697h662v-51h-715z" />
    <glyph glyph-name="Edieresis" unicode="&#xcb;" horiz-adv-x="1128" 
d="M457 1790q-22 0 -36.5 14.5t-14.5 34.5q0 22 14.5 36.5t36.5 14.5t36.5 -14.5t14.5 -36.5q0 -20 -14.5 -34.5t-36.5 -14.5zM782 1790q-22 0 -36.5 14.5t-14.5 34.5q0 22 14.5 36.5t36.5 14.5t37 -14.5t15 -36.5q0 -20 -15 -34.5t-37 -14.5zM250 0v1520h715v-50h-662v-673
h625v-49h-625v-697h662v-51h-715z" />
    <glyph glyph-name="Igrave" unicode="&#xcc;" horiz-adv-x="552" 
d="M125 2042l248 -326h-51l-261 326h64zM250 0v1520h53v-1520h-53z" />
    <glyph glyph-name="Iacute" unicode="&#xcd;" horiz-adv-x="552" 
d="M428 2042h64l-261 -326h-51zM250 0v1520h53v-1520h-53z" />
    <glyph glyph-name="Icircumflex" unicode="&#xce;" horiz-adv-x="552" 
d="M301 2042l254 -326h-59l-220 281l-219 -281h-57l254 326h47zM250 0v1520h53v-1520h-53z" />
    <glyph glyph-name="Idieresis" unicode="&#xcf;" horiz-adv-x="552" 
d="M115 1790q-22 0 -37 14.5t-15 34.5q0 22 15 36.5t37 14.5t36.5 -14.5t14.5 -36.5q0 -20 -14.5 -34.5t-36.5 -14.5zM440 1790q-22 0 -36.5 14.5t-14.5 34.5q0 22 14.5 36.5t36.5 14.5t37 -14.5t15 -36.5q0 -20 -15 -34.5t-37 -14.5zM250 0v1520h53v-1520h-53z" />
    <glyph glyph-name="Eth" unicode="&#xd0;" horiz-adv-x="1482" 
d="M553 1520q234 0 413 -90.5t279.5 -262.5t100.5 -403q0 -232 -101 -406t-280 -266t-412 -92h-289v756h-237v45h237v719h289zM555 51q215 0 381 84t260 246t94 381q0 220 -94.5 381.5t-259.5 244t-381 82.5h-238v-669h471v-45h-471v-705h238z" />
    <glyph glyph-name="Ntilde" unicode="&#xd1;" horiz-adv-x="1591" 
d="M1120 1896q4 -79 -45.5 -121t-120.5 -42q-42 0 -85 18.5t-74 40.5t-71.5 40.5t-78.5 18.5q-55 0 -88.5 -31t-32.5 -87h-47q-3 79 47 121t121 42q42 0 85 -18.5t74 -40.5t71.5 -40.5t78.5 -18.5q56 0 89 31t30 87h47zM1341 1520v-1520h-53l-983 1434h-2v-1434h-53v1520h59
l977 -1426h2v1426h53z" />
    <glyph glyph-name="Ograve" unicode="&#xd2;" horiz-adv-x="1716" 
d="M707 2042l247 -326h-51l-260 326h64zM858 -18q-152 0 -285.5 58.5t-229 160.5t-151 247t-55.5 312t55.5 312t151 247t229 160.5t285.5 58.5q151 0 284.5 -58.5t229.5 -160.5t151.5 -247t55.5 -312t-55.5 -312t-151.5 -247t-229.5 -160.5t-284.5 -58.5zM858 33
q137 0 259 53t212.5 146.5t143.5 230.5t53 297t-53 297t-143.5 230.5t-212.5 146.5t-259 53t-259.5 -53t-213 -146.5t-143 -230.5t-52.5 -297t52.5 -297t143 -230.5t213 -146.5t259.5 -53z" />
    <glyph glyph-name="Oacute" unicode="&#xd3;" horiz-adv-x="1716" 
d="M1010 2042h63l-260 -326h-51zM858 -18q-152 0 -285.5 58.5t-229 160.5t-151 247t-55.5 312t55.5 312t151 247t229 160.5t285.5 58.5q151 0 284.5 -58.5t229.5 -160.5t151.5 -247t55.5 -312t-55.5 -312t-151.5 -247t-229.5 -160.5t-284.5 -58.5zM858 33q137 0 259 53
t212.5 146.5t143.5 230.5t53 297t-53 297t-143.5 230.5t-212.5 146.5t-259 53t-259.5 -53t-213 -146.5t-143 -230.5t-52.5 -297t52.5 -297t143 -230.5t213 -146.5t259.5 -53z" />
    <glyph glyph-name="Ocircumflex" unicode="&#xd4;" horiz-adv-x="1716" 
d="M883 2042l254 -326h-60l-219 281l-219 -281h-57l254 326h47zM858 -18q-152 0 -285.5 58.5t-229 160.5t-151 247t-55.5 312t55.5 312t151 247t229 160.5t285.5 58.5q151 0 284.5 -58.5t229.5 -160.5t151.5 -247t55.5 -312t-55.5 -312t-151.5 -247t-229.5 -160.5
t-284.5 -58.5zM858 33q137 0 259 53t212.5 146.5t143.5 230.5t53 297t-53 297t-143.5 230.5t-212.5 146.5t-259 53t-259.5 -53t-213 -146.5t-143 -230.5t-52.5 -297t52.5 -297t143 -230.5t213 -146.5t259.5 -53z" />
    <glyph glyph-name="Otilde" unicode="&#xd5;" horiz-adv-x="1716" 
d="M1178 1896q4 -79 -45.5 -121t-120.5 -42q-42 0 -85.5 18.5t-74 40.5t-71.5 40.5t-79 18.5q-55 0 -88 -31t-32 -87h-47q-3 79 46.5 121t120.5 42q42 0 85.5 -18.5t74 -40.5t71.5 -40.5t79 -18.5q55 0 88 31t30 87h48zM858 -18q-152 0 -285.5 58.5t-229 160.5t-151 247
t-55.5 312t55.5 312t151 247t229 160.5t285.5 58.5q151 0 284.5 -58.5t229.5 -160.5t151.5 -247t55.5 -312t-55.5 -312t-151.5 -247t-229.5 -160.5t-284.5 -58.5zM858 33q137 0 259 53t212.5 146.5t143.5 230.5t53 297t-53 297t-143.5 230.5t-212.5 146.5t-259 53
t-259.5 -53t-213 -146.5t-143 -230.5t-52.5 -297t52.5 -297t143 -230.5t213 -146.5t259.5 -53z" />
    <glyph glyph-name="Odieresis" unicode="&#xd6;" horiz-adv-x="1716" 
d="M696 1790q-22 0 -36.5 14.5t-14.5 34.5q0 22 14.5 36.5t36.5 14.5t37 -14.5t15 -36.5q0 -20 -15 -34.5t-37 -14.5zM1022 1790q-22 0 -36.5 14.5t-14.5 34.5q0 22 14.5 36.5t36.5 14.5t36.5 -14.5t14.5 -36.5q0 -20 -14.5 -34.5t-36.5 -14.5zM858 -18q-152 0 -285.5 58.5
t-229 160.5t-151 247t-55.5 312t55.5 312t151 247t229 160.5t285.5 58.5q151 0 284.5 -58.5t229.5 -160.5t151.5 -247t55.5 -312t-55.5 -312t-151.5 -247t-229.5 -160.5t-284.5 -58.5zM858 33q137 0 259 53t212.5 146.5t143.5 230.5t53 297t-53 297t-143.5 230.5
t-212.5 146.5t-259 53t-259.5 -53t-213 -146.5t-143 -230.5t-52.5 -297t52.5 -297t143 -230.5t213 -146.5t259.5 -53z" />
    <glyph glyph-name="multiply" unicode="&#xd7;" horiz-adv-x="1134" 
d="M961 1135l-357 -357l357 -358l-35 -37l-359 358l-356 -358l-39 37l358 358l-358 357l39 36l356 -356l357 356z" />
    <glyph glyph-name="Oslash" unicode="&#xd8;" horiz-adv-x="1732" 
d="M1595 1499l-192 -203q186 -218 186 -536q0 -167 -55.5 -312t-151.5 -247t-229.5 -160.5t-284.5 -58.5q-149 0 -279.5 55.5t-228.5 157.5l-194 -205l-33 30l197 207q-88 103 -136.5 239.5t-48.5 293.5q0 167 55.5 312t152 247t230 160.5t285.5 58.5q148 0 278 -55
t226 -156l193 203zM201 760q0 -291 166 -494l970 1022q-91 96 -212 147.5t-257 51.5q-138 0 -260.5 -53t-212.5 -146.5t-142 -230.5t-52 -297zM1534 760q0 292 -168 497l-971 -1024q91 -96 213.5 -148t259.5 -52t259 53t212 146.5t142.5 230.5t52.5 297z" />
    <glyph glyph-name="Ugrave" unicode="&#xd9;" horiz-adv-x="1513" 
d="M604 2042l248 -326h-51l-260 326h63zM754 -18q-241 0 -383 154t-142 417v967h54v-971q0 -239 127 -377.5t344 -138.5q219 0 348 139t129 379v969h53v-967q0 -262 -143.5 -416.5t-386.5 -154.5z" />
    <glyph glyph-name="Uacute" unicode="&#xda;" horiz-adv-x="1513" 
d="M907 2042h64l-260 -326h-52zM754 -18q-241 0 -383 154t-142 417v967h54v-971q0 -239 127 -377.5t344 -138.5q219 0 348 139t129 379v969h53v-967q0 -262 -143.5 -416.5t-386.5 -154.5z" />
    <glyph glyph-name="Ucircumflex" unicode="&#xdb;" horiz-adv-x="1513" 
d="M780 2042l254 -326h-59l-219 281l-219 -281h-58l254 326h47zM754 -18q-241 0 -383 154t-142 417v967h54v-971q0 -239 127 -377.5t344 -138.5q219 0 348 139t129 379v969h53v-967q0 -262 -143.5 -416.5t-386.5 -154.5z" />
    <glyph glyph-name="Udieresis" unicode="&#xdc;" horiz-adv-x="1513" 
d="M594 1790q-22 0 -36.5 14.5t-14.5 34.5q0 22 14.5 36.5t36.5 14.5t36.5 -14.5t14.5 -36.5q0 -20 -14.5 -34.5t-36.5 -14.5zM920 1790q-22 0 -37 14.5t-15 34.5q0 22 15 36.5t37 14.5t36.5 -14.5t14.5 -36.5q0 -20 -14.5 -34.5t-36.5 -14.5zM754 -18q-241 0 -383 154
t-142 417v967h54v-971q0 -239 127 -377.5t344 -138.5q219 0 348 139t129 379v969h53v-967q0 -262 -143.5 -416.5t-386.5 -154.5z" />
    <glyph glyph-name="Yacute" unicode="&#xdd;" horiz-adv-x="1214" 
d="M758 2042h63l-260 -326h-51zM582 0v676l-547 844h59l512 -789h2l508 789h60l-543 -844v-676h-51z" />
    <glyph glyph-name="Thorn" unicode="&#xde;" horiz-adv-x="1175" 
d="M250 0v1520h53v-279h244q239 0 384.5 -119.5t145.5 -333.5q0 -219 -145.5 -341.5t-386.5 -122.5h-242v-324h-53zM547 375q219 0 347 109t128 304q0 190 -127.5 296t-345.5 106h-246v-815h244z" />
    <glyph glyph-name="germandbls" unicode="&#xdf;" horiz-adv-x="1204" 
d="M653 903q191 -18 312.5 -135.5t121.5 -310.5q0 -93 -27.5 -171t-75 -132.5t-112.5 -92t-140 -55.5t-157 -18q-83 0 -153 18v51q62 -18 153 -18q93 0 174 25.5t145.5 75t102 131.5t37.5 188q0 189 -127.5 298t-328.5 109h-119v49h57q154 0 251 89t97 210q0 124 -83 205.5
t-208 81.5q-145 0 -232 -96t-87 -258v-1147h-53v1145q0 182 103 294.5t271 112.5q149 0 243.5 -95.5t94.5 -237.5q0 -106 -71 -196t-189 -120z" />
    <glyph glyph-name="agrave" unicode="&#xe0;" horiz-adv-x="1306" 
d="M506 1602l248 -326h-52l-260 326h64zM612 -16q-95 0 -183.5 39.5t-157 109.5t-109.5 176t-41 230q0 126 40.5 232.5t109 176.5t157 109t184.5 39q146 0 269.5 -87t175.5 -245l6 315h45v-1079h-45l-6 315q-52 -158 -175 -244.5t-270 -86.5zM616 35q87 0 166.5 35.5
t140.5 99t97.5 160t36.5 211.5q0 114 -36 210t-97 159.5t-141 98.5t-169 35q-87 0 -166.5 -35t-140.5 -98.5t-97 -160t-36 -211.5q0 -113 36.5 -209.5t98 -160t141 -99t166.5 -35.5z" />
    <glyph glyph-name="aacute" unicode="&#xe1;" horiz-adv-x="1306" 
d="M809 1602h63l-260 -326h-51zM612 -16q-95 0 -183.5 39.5t-157 109.5t-109.5 176t-41 230q0 126 40.5 232.5t109 176.5t157 109t184.5 39q146 0 269.5 -87t175.5 -245l6 315h45v-1079h-45l-6 315q-52 -158 -175 -244.5t-270 -86.5zM616 35q87 0 166.5 35.5t140.5 99
t97.5 160t36.5 211.5q0 114 -36 210t-97 159.5t-141 98.5t-169 35q-87 0 -166.5 -35t-140.5 -98.5t-97 -160t-36 -211.5q0 -113 36.5 -209.5t98 -160t141 -99t166.5 -35.5z" />
    <glyph glyph-name="acircumflex" unicode="&#xe2;" horiz-adv-x="1306" 
d="M682 1602l254 -326h-59l-220 280l-219 -280h-57l254 326h47zM612 -16q-95 0 -183.5 39.5t-157 109.5t-109.5 176t-41 230q0 126 40.5 232.5t109 176.5t157 109t184.5 39q146 0 269.5 -87t175.5 -245l6 315h45v-1079h-45l-6 315q-52 -158 -175 -244.5t-270 -86.5zM616 35
q87 0 166.5 35.5t140.5 99t97.5 160t36.5 211.5q0 114 -36 210t-97 159.5t-141 98.5t-169 35q-87 0 -166.5 -35t-140.5 -98.5t-97 -160t-36 -211.5q0 -113 36.5 -209.5t98 -160t141 -99t166.5 -35.5z" />
    <glyph glyph-name="atilde" unicode="&#xe3;" horiz-adv-x="1306" 
d="M977 1456q4 -79 -45.5 -121.5t-120.5 -42.5q-42 0 -85 18.5t-74 41t-71.5 41t-78.5 18.5q-55 0 -88.5 -31.5t-32.5 -87.5h-47q-3 79 47 121.5t121 42.5q42 0 85 -18.5t74 -41t71.5 -41t78.5 -18.5q55 0 88.5 31.5t30.5 87.5h47zM612 -16q-95 0 -183.5 39.5t-157 109.5
t-109.5 176t-41 230q0 126 40.5 232.5t109 176.5t157 109t184.5 39q146 0 269.5 -87t175.5 -245l6 315h45v-1079h-45l-6 315q-52 -158 -175 -244.5t-270 -86.5zM616 35q87 0 166.5 35.5t140.5 99t97.5 160t36.5 211.5q0 114 -36 210t-97 159.5t-141 98.5t-169 35
q-87 0 -166.5 -35t-140.5 -98.5t-97 -160t-36 -211.5q0 -113 36.5 -209.5t98 -160t141 -99t166.5 -35.5z" />
    <glyph glyph-name="adieresis" unicode="&#xe4;" horiz-adv-x="1306" 
d="M496 1350q-22 0 -37 14.5t-15 34.5q0 22 15 36.5t37 14.5t36.5 -14.5t14.5 -36.5q0 -20 -14.5 -34.5t-36.5 -14.5zM821 1350q-22 0 -36.5 14.5t-14.5 34.5q0 22 14.5 36.5t36.5 14.5t36.5 -14.5t14.5 -36.5q0 -20 -14.5 -34.5t-36.5 -14.5zM612 -16q-95 0 -183.5 39.5
t-157 109.5t-109.5 176t-41 230q0 126 40.5 232.5t109 176.5t157 109t184.5 39q146 0 269.5 -87t175.5 -245l6 315h45v-1079h-45l-6 315q-52 -158 -175 -244.5t-270 -86.5zM616 35q87 0 166.5 35.5t140.5 99t97.5 160t36.5 211.5q0 114 -36 210t-97 159.5t-141 98.5t-169 35
q-87 0 -166.5 -35t-140.5 -98.5t-97 -160t-36 -211.5q0 -113 36.5 -209.5t98 -160t141 -99t166.5 -35.5z" />
    <glyph glyph-name="aring" unicode="&#xe5;" horiz-adv-x="1306" 
d="M657 1604q70 0 118 -47.5t48 -112.5t-48 -112.5t-118 -47.5t-117.5 47.5t-47.5 112.5t47.5 112.5t117.5 47.5zM657 1565q-55 0 -88.5 -34.5t-33.5 -86.5t33.5 -86.5t88.5 -34.5q53 0 88 34.5t35 86.5t-35 86.5t-88 34.5zM612 -16q-95 0 -183.5 39.5t-157 109.5
t-109.5 176t-41 230q0 126 40.5 232.5t109 176.5t157 109t184.5 39q146 0 269.5 -87t175.5 -245l6 315h45v-1079h-45l-6 315q-52 -158 -175 -244.5t-270 -86.5zM616 35q87 0 166.5 35.5t140.5 99t97.5 160t36.5 211.5q0 114 -36 210t-97 159.5t-141 98.5t-169 35
q-87 0 -166.5 -35t-140.5 -98.5t-97 -160t-36 -211.5q0 -113 36.5 -209.5t98 -160t141 -99t166.5 -35.5z" />
    <glyph glyph-name="ae" unicode="&#xe6;" horiz-adv-x="1941" 
d="M1823 563q0 -9 -1 -23t-1 -16h-877q3 -226 130.5 -357.5t326.5 -131.5q226 0 395 155v-61q-173 -145 -397 -145q-166 0 -290.5 86t-178.5 241q-36 -143 -156.5 -235t-284.5 -92q-165 0 -272.5 90t-107.5 235q0 66 25.5 124.5t75.5 105t132 73.5t186 27q172 0 365 -61v153
q0 142 -91.5 227.5t-254.5 85.5q-103 0 -203.5 -35.5t-177.5 -97.5v58q79 60 178.5 93.5t204.5 33.5q168 0 270.5 -84t120.5 -221q60 144 180 224.5t262 80.5q89 0 167.5 -34.5t140 -99.5t97.5 -168t36 -231zM944 573h825q0 116 -32 208t-86.5 149t-123 87t-145.5 30
q-171 0 -298.5 -130t-139.5 -344zM494 33q168 0 283.5 108t115.5 269v120q-177 60 -358 60q-187 0 -280 -79.5t-93 -201.5q0 -124 94 -200t238 -76z" />
    <glyph glyph-name="ccedilla" unicode="&#xe7;" horiz-adv-x="1032" 
d="M631 1044q-91 0 -174 -36.5t-146 -101.5t-100 -160t-37 -205q0 -113 37.5 -209t101 -160.5t147 -100.5t175.5 -36q170 0 291 86v-60q-120 -73 -283 -77q-4 -110 -41.5 -190t-101.5 -159h-62q74 88 113 166.5t43 184.5q-201 15 -337 170t-136 385q0 158 69 285.5
t186 198.5t257 71q162 0 293 -76v-59q-126 83 -295 83z" />
    <glyph glyph-name="egrave" unicode="&#xe8;" horiz-adv-x="1173" 
d="M709 1276h-52l-260 326h64zM1055 563q0 -9 -1 -23t-1 -16h-877q4 -226 131 -357.5t326 -131.5q226 0 395 155v-61q-173 -145 -397 -145t-366 150.5t-142 404.5q0 126 40.5 232.5t109 176.5t157 109t184.5 39q89 0 167.5 -34.5t140 -99.5t97.5 -168t36 -231zM176 573h825
q0 116 -32 208t-86.5 149t-123 87t-145.5 30q-82 0 -158.5 -33t-137 -93t-99 -150.5t-43.5 -197.5z" />
    <glyph glyph-name="eacute" unicode="&#xe9;" horiz-adv-x="1173" 
d="M827 1602l-260 -326h-51l248 326h63zM1055 563q0 -9 -1 -23t-1 -16h-877q4 -226 131 -357.5t326 -131.5q226 0 395 155v-61q-173 -145 -397 -145t-366 150.5t-142 404.5q0 126 40.5 232.5t109 176.5t157 109t184.5 39q89 0 167.5 -34.5t140 -99.5t97.5 -168t36 -231z
M176 573h825q0 116 -32 208t-86.5 149t-123 87t-145.5 30q-82 0 -158.5 -33t-137 -93t-99 -150.5t-43.5 -197.5z" />
    <glyph glyph-name="ecircumflex" unicode="&#xea;" horiz-adv-x="1173" 
d="M612 1556l-219 -280h-57l254 326h47l254 -326h-60zM1055 563q0 -9 -1 -23t-1 -16h-877q4 -226 131 -357.5t326 -131.5q226 0 395 155v-61q-173 -145 -397 -145t-366 150.5t-142 404.5q0 126 40.5 232.5t109 176.5t157 109t184.5 39q89 0 167.5 -34.5t140 -99.5t97.5 -168
t36 -231zM176 573h825q0 116 -32 208t-86.5 149t-123 87t-145.5 30q-82 0 -158.5 -33t-137 -93t-99 -150.5t-43.5 -197.5z" />
    <glyph glyph-name="edieresis" unicode="&#xeb;" horiz-adv-x="1173" 
d="M451 1350q-22 0 -37 14.5t-15 34.5q0 22 15 36.5t37 14.5t36.5 -14.5t14.5 -36.5q0 -20 -14.5 -34.5t-36.5 -14.5zM776 1350q-22 0 -36.5 14.5t-14.5 34.5q0 22 14.5 36.5t36.5 14.5t36.5 -14.5t14.5 -36.5q0 -20 -14.5 -34.5t-36.5 -14.5zM1055 563q0 -9 -1 -23t-1 -16
h-877q4 -226 131 -357.5t326 -131.5q226 0 395 155v-61q-173 -145 -397 -145t-366 150.5t-142 404.5q0 126 40.5 232.5t109 176.5t157 109t184.5 39q89 0 167.5 -34.5t140 -99.5t97.5 -168t36 -231zM176 573h825q0 116 -32 208t-86.5 149t-123 87t-145.5 30
q-82 0 -158.5 -33t-137 -93t-99 -150.5t-43.5 -197.5z" />
    <glyph glyph-name="igrave" unicode="&#xec;" horiz-adv-x="468" 
d="M82 1655l248 -326h-51l-261 326h64zM207 0v1079h53v-1079h-53z" />
    <glyph glyph-name="iacute" unicode="&#xed;" horiz-adv-x="468" 
d="M401 1655h64l-260 -326h-51zM207 0v1079h53v-1079h-53z" />
    <glyph glyph-name="icircumflex" unicode="&#xee;" horiz-adv-x="468" 
d="M258 1655l254 -326h-59l-220 281l-219 -281h-57l254 326h47zM207 0v1079h53v-1079h-53z" />
    <glyph glyph-name="idieresis" unicode="&#xef;" horiz-adv-x="468" 
d="M74 1403q-22 0 -36.5 14.5t-14.5 34.5q0 22 14.5 36.5t36.5 14.5t36.5 -14.5t14.5 -36.5q0 -20 -14.5 -34.5t-36.5 -14.5zM399 1403q-22 0 -36.5 14.5t-14.5 34.5q0 22 14.5 36.5t36.5 14.5t37 -14.5t15 -36.5q0 -20 -15 -34.5t-37 -14.5zM207 0v1079h53v-1079h-53z" />
    <glyph glyph-name="eth" unicode="&#xf0;" horiz-adv-x="1263" 
d="M713 1454q227 -266 325.5 -472.5t98.5 -432.5q0 -126 -41 -233.5t-110 -179.5t-161 -112t-194 -40q-100 0 -192.5 40t-163 110.5t-112.5 176t-42 228.5t41 229t110.5 177t161 111t191.5 40q131 0 241 -69t170 -189l2 2q-79 262 -366 590l-230 -140l-20 33l221 135
q-64 74 -162 172h74q84 -92 131 -145l227 139l23 -35zM631 35q90 0 171.5 35t144 98.5t99.5 161t37 213.5q0 114 -38.5 210t-103 158.5t-146 97.5t-168.5 35q-88 0 -169 -35t-144.5 -98t-101.5 -160t-38 -212t38.5 -212t102.5 -159.5t146 -97.5t170 -35z" />
    <glyph glyph-name="ntilde" unicode="&#xf1;" horiz-adv-x="1175" 
d="M928 1456q4 -79 -45.5 -121.5t-120.5 -42.5q-42 0 -85 18.5t-74 41t-71.5 41t-78.5 18.5q-55 0 -88.5 -31.5t-32.5 -87.5h-47q-3 79 47 121.5t121 42.5q42 0 85 -18.5t74 -41t71.5 -41t78.5 -18.5q55 0 88.5 31.5t30.5 87.5h47zM616 1096q168 0 270.5 -101t102.5 -272
v-723h-53v709q0 160 -87 247.5t-239 87.5q-150 0 -253 -88.5t-103 -240.5v-715h-53v1079h41l6 -207h4q41 104 138.5 164t225.5 60z" />
    <glyph glyph-name="ograve" unicode="&#xf2;" horiz-adv-x="1259" 
d="M479 1602l248 -326h-51l-260 326h63zM631 -16q-100 0 -192.5 40t-163 110.5t-112.5 176t-42 228.5t42 229t112 177t162.5 111t193.5 40q100 0 192 -40t162.5 -111t112 -177t41.5 -229q0 -122 -42 -227.5t-112 -176.5t-162 -111t-192 -40zM631 35q87 0 168.5 35t145 97.5
t102 159.5t38.5 212t-38.5 212t-102 160t-145 98t-168.5 35q-88 0 -170 -35t-146 -98t-102.5 -160t-38.5 -212t38.5 -212t102.5 -159.5t146 -97.5t170 -35z" />
    <glyph glyph-name="oacute" unicode="&#xf3;" horiz-adv-x="1259" 
d="M782 1602h64l-260 -326h-51zM631 -16q-100 0 -192.5 40t-163 110.5t-112.5 176t-42 228.5t42 229t112 177t162.5 111t193.5 40q100 0 192 -40t162.5 -111t112 -177t41.5 -229q0 -122 -42 -227.5t-112 -176.5t-162 -111t-192 -40zM631 35q87 0 168.5 35t145 97.5
t102 159.5t38.5 212t-38.5 212t-102 160t-145 98t-168.5 35q-88 0 -170 -35t-146 -98t-102.5 -160t-38.5 -212t38.5 -212t102.5 -159.5t146 -97.5t170 -35z" />
    <glyph glyph-name="ocircumflex" unicode="&#xf4;" horiz-adv-x="1259" 
d="M655 1602l254 -326h-59l-219 280l-219 -280h-58l254 326h47zM631 -16q-100 0 -192.5 40t-163 110.5t-112.5 176t-42 228.5t42 229t112 177t162.5 111t193.5 40q100 0 192 -40t162.5 -111t112 -177t41.5 -229q0 -122 -42 -227.5t-112 -176.5t-162 -111t-192 -40zM631 35
q87 0 168.5 35t145 97.5t102 159.5t38.5 212t-38.5 212t-102 160t-145 98t-168.5 35q-88 0 -170 -35t-146 -98t-102.5 -160t-38.5 -212t38.5 -212t102.5 -159.5t146 -97.5t170 -35z" />
    <glyph glyph-name="otilde" unicode="&#xf5;" horiz-adv-x="1259" 
d="M950 1456q4 -79 -45.5 -121.5t-120.5 -42.5q-42 0 -85 18.5t-74 41t-71.5 41t-78.5 18.5q-55 0 -88.5 -31.5t-32.5 -87.5h-47q-3 79 47 121.5t121 42.5q42 0 85 -18.5t74 -41t71.5 -41t78.5 -18.5q55 0 88.5 31.5t30.5 87.5h47zM631 -16q-100 0 -192.5 40t-163 110.5
t-112.5 176t-42 228.5t42 229t112 177t162.5 111t193.5 40q100 0 192 -40t162.5 -111t112 -177t41.5 -229q0 -122 -42 -227.5t-112 -176.5t-162 -111t-192 -40zM631 35q87 0 168.5 35t145 97.5t102 159.5t38.5 212t-38.5 212t-102 160t-145 98t-168.5 35q-88 0 -170 -35
t-146 -98t-102.5 -160t-38.5 -212t38.5 -212t102.5 -159.5t146 -97.5t170 -35z" />
    <glyph glyph-name="odieresis" unicode="&#xf6;" horiz-adv-x="1259" 
d="M469 1350q-22 0 -36.5 14.5t-14.5 34.5q0 22 14.5 36.5t36.5 14.5t36.5 -14.5t14.5 -36.5q0 -20 -14.5 -34.5t-36.5 -14.5zM795 1350q-22 0 -37 14.5t-15 34.5q0 22 15 36.5t37 14.5t36.5 -14.5t14.5 -36.5q0 -20 -14.5 -34.5t-36.5 -14.5zM631 -16q-100 0 -192.5 40
t-163 110.5t-112.5 176t-42 228.5t42 229t112 177t162.5 111t193.5 40q100 0 192 -40t162.5 -111t112 -177t41.5 -229q0 -122 -42 -227.5t-112 -176.5t-162 -111t-192 -40zM631 35q87 0 168.5 35t145 97.5t102 159.5t38.5 212t-38.5 212t-102 160t-145 98t-168.5 35
q-88 0 -170 -35t-146 -98t-102.5 -160t-38.5 -212t38.5 -212t102.5 -159.5t146 -97.5t170 -35z" />
    <glyph glyph-name="divide" unicode="&#xf7;" horiz-adv-x="1404" 
d="M674 1096q-29 0 -48.5 19t-19.5 48q0 28 19.5 48t48.5 20q28 0 47.5 -20t19.5 -48q0 -29 -19.5 -48t-47.5 -19zM193 752v51h1013v-51h-1013zM674 326q-29 0 -48.5 19t-19.5 48t19.5 48.5t48.5 19.5q28 0 47.5 -19.5t19.5 -48.5t-19.5 -48t-47.5 -19z" />
    <glyph glyph-name="oslash" unicode="&#xf8;" horiz-adv-x="1267" 
d="M1145 1059l-131 -141q129 -155 129 -379q0 -122 -42 -227.5t-112 -176.5t-162 -111t-192 -40q-202 0 -348 143l-125 -137l-31 28l127 140q-133 152 -133 381q0 123 42 229t112 177t162.5 111t193.5 40q99 0 190 -38.5t160 -109.5l129 139zM178 539q0 -203 115 -344
l657 714q-62 65 -144 100t-171 35q-88 0 -170 -35t-146 -98t-102.5 -160t-38.5 -212zM1090 539q0 200 -111 340l-657 -715q132 -129 313 -129q87 0 168.5 35t145.5 97.5t102.5 159.5t38.5 212z" />
    <glyph glyph-name="ugrave" unicode="&#xf9;" horiz-adv-x="1161" 
d="M428 1602l248 -326h-51l-260 326h63zM580 -16q-181 0 -287.5 108t-106.5 293v694h54v-696q0 -164 91 -256t249 -92q159 0 250.5 91.5t91.5 256.5v696h53v-694q0 -185 -107 -293t-288 -108z" />
    <glyph glyph-name="uacute" unicode="&#xfa;" horiz-adv-x="1161" 
d="M731 1602h64l-260 -326h-52zM580 -16q-181 0 -287.5 108t-106.5 293v694h54v-696q0 -164 91 -256t249 -92q159 0 250.5 91.5t91.5 256.5v696h53v-694q0 -185 -107 -293t-288 -108z" />
    <glyph glyph-name="ucircumflex" unicode="&#xfb;" horiz-adv-x="1161" 
d="M604 1602l254 -326h-59l-219 280l-220 -280h-57l254 326h47zM580 -16q-181 0 -287.5 108t-106.5 293v694h54v-696q0 -164 91 -256t249 -92q159 0 250.5 91.5t91.5 256.5v696h53v-694q0 -185 -107 -293t-288 -108z" />
    <glyph glyph-name="udieresis" unicode="&#xfc;" horiz-adv-x="1161" 
d="M418 1350q-22 0 -36.5 14.5t-14.5 34.5q0 22 14.5 36.5t36.5 14.5t36.5 -14.5t14.5 -36.5q0 -20 -14.5 -34.5t-36.5 -14.5zM743 1350q-22 0 -36.5 14.5t-14.5 34.5q0 22 14.5 36.5t36.5 14.5t37 -14.5t15 -36.5q0 -20 -15 -34.5t-37 -14.5zM580 -16q-181 0 -287.5 108
t-106.5 293v694h54v-696q0 -164 91 -256t249 -92q159 0 250.5 91.5t91.5 256.5v696h53v-694q0 -185 -107 -293t-288 -108z" />
    <glyph glyph-name="yacute" unicode="&#xfd;" horiz-adv-x="1015" 
d="M662 1602h63l-260 -326h-51zM944 1079l-594 -1523h-53l190 489l-413 1034h57l383 -964h2l373 964h55z" />
    <glyph glyph-name="thorn" unicode="&#xfe;" horiz-adv-x="1306" 
d="M254 1630v-864q51 156 174 242t270 86q96 0 183.5 -38.5t155.5 -108t108.5 -175.5t40.5 -231t-41 -231t-109 -176t-156 -109t-184 -39q-146 0 -267.5 84.5t-174.5 242.5v-757h-53v2074h53zM692 1044q-87 0 -166.5 -35t-141 -98.5t-98 -160t-36.5 -211.5q0 -114 36.5 -210
t98 -159.5t141 -99t166.5 -35.5t166 35.5t139.5 99.5t96.5 160.5t36 210.5t-35.5 210t-96 159.5t-139.5 98.5t-167 35z" />
    <glyph glyph-name="ydieresis" unicode="&#xff;" horiz-adv-x="1015" 
d="M348 1350q-22 0 -36.5 14.5t-14.5 34.5q0 22 14.5 36.5t36.5 14.5t36.5 -14.5t14.5 -36.5q0 -20 -14.5 -34.5t-36.5 -14.5zM674 1350q-22 0 -36.5 14.5t-14.5 34.5q0 22 14.5 36.5t36.5 14.5t36.5 -14.5t14.5 -36.5q0 -20 -14.5 -34.5t-36.5 -14.5zM944 1079l-594 -1523
h-53l190 489l-413 1034h57l383 -964h2l373 964h55z" />
    <glyph glyph-name="Amacron" unicode="&#x100;" horiz-adv-x="1370" 
d="M416 1827v47h538v-47h-538zM1329 0h-57l-228 561h-718l-228 -561h-57l616 1520h56zM686 1452l-340 -840h678z" />
    <glyph glyph-name="amacron" unicode="&#x101;" horiz-adv-x="1306" 
d="M387 1386v48h539v-48h-539zM612 -16q-95 0 -183.5 39.5t-157 109.5t-109.5 176t-41 230q0 126 40.5 232.5t109 176.5t157 109t184.5 39q146 0 269.5 -87t175.5 -245l6 315h45v-1079h-45l-6 315q-52 -158 -175 -244.5t-270 -86.5zM616 35q87 0 166.5 35.5t140.5 99
t97.5 160t36.5 211.5q0 114 -36 210t-97 159.5t-141 98.5t-169 35q-87 0 -166.5 -35t-140.5 -98.5t-97 -160t-36 -211.5q0 -113 36.5 -209.5t98 -160t141 -99t166.5 -35.5z" />
    <glyph glyph-name="Abreve" unicode="&#x102;" horiz-adv-x="1370" 
d="M981 2017q-4 -119 -88.5 -187.5t-206.5 -68.5t-206.5 68.5t-90.5 187.5h51q6 -92 75 -150.5t171 -58.5q100 0 169 58.5t75 150.5h51zM1329 0h-57l-228 561h-718l-228 -561h-57l616 1520h56zM686 1452l-340 -840h678z" />
    <glyph glyph-name="abreve" unicode="&#x103;" horiz-adv-x="1306" 
d="M952 1577q-4 -119 -88.5 -187.5t-206.5 -68.5t-206.5 68.5t-90.5 187.5h52q6 -92 75 -150.5t170 -58.5q100 0 169 58.5t75 150.5h51zM612 -16q-95 0 -183.5 39.5t-157 109.5t-109.5 176t-41 230q0 126 40.5 232.5t109 176.5t157 109t184.5 39q146 0 269.5 -87t175.5 -245
l6 315h45v-1079h-45l-6 315q-52 -158 -175 -244.5t-270 -86.5zM616 35q87 0 166.5 35.5t140.5 99t97.5 160t36.5 211.5q0 114 -36 210t-97 159.5t-141 98.5t-169 35q-87 0 -166.5 -35t-140.5 -98.5t-97 -160t-36 -211.5q0 -113 36.5 -209.5t98 -160t141 -99t166.5 -35.5z
" />
    <glyph glyph-name="Aogonek" unicode="&#x104;" horiz-adv-x="1370" 
d="M1114 -276q0 -68 44 -104t102 -36q47 0 69 13v-46q-16 -12 -69 -12q-77 0 -136 46t-59 132q0 131 205 287l-226 557h-718l-228 -561h-57l616 1520h56l616 -1520q-107 -84 -161 -149t-54 -127zM346 612h678l-338 840z" />
    <glyph glyph-name="aogonek" unicode="&#x105;" horiz-adv-x="1306" 
d="M1108 0q-107 -84 -161 -149t-54 -127q0 -68 44 -104t101 -36q48 0 70 13v-46q-16 -12 -70 -12q-77 0 -135.5 46t-58.5 132q0 131 219 297l-6 301q-52 -158 -175 -244.5t-270 -86.5q-95 0 -183.5 39.5t-157 109.5t-109.5 176t-41 230q0 126 40.5 232.5t109 176.5t157 109
t184.5 39q146 0 269.5 -87t175.5 -245l6 315h45v-1079zM616 35q87 0 166.5 35.5t140.5 99t97.5 160t36.5 211.5q0 114 -36 210t-97 159.5t-141 98.5t-169 35q-87 0 -166.5 -35t-140.5 -98.5t-97 -160t-36 -211.5q0 -113 36.5 -209.5t98 -160t141 -99t166.5 -35.5z" />
    <glyph glyph-name="Cacute" unicode="&#x106;" horiz-adv-x="1359" 
d="M1010 2042h63l-260 -326h-51zM1262 86q-167 -104 -390 -104q-110 0 -216.5 32.5t-200 99t-164.5 158.5t-112.5 218.5t-41.5 271.5q0 179 63 329t166 246t231 148.5t263 52.5q238 0 402 -104v-58q-171 111 -402 111q-98 0 -193.5 -30t-181.5 -91t-152 -145.5
t-104.5 -203.5t-38.5 -255q0 -137 39 -256t106 -204.5t154 -147t184.5 -91.5t196.5 -30q218 0 392 112v-59z" />
    <glyph glyph-name="cacute" unicode="&#x107;" horiz-adv-x="1032" 
d="M768 1602h63l-260 -326h-51zM174 541q0 -113 37.5 -209t101 -160.5t147 -100.5t175.5 -36q170 0 291 86v-60q-124 -77 -291 -77q-140 0 -257 69.5t-187 198t-70 289.5q0 158 69 285.5t186 198.5t257 71q162 0 293 -76v-59q-126 83 -295 83q-91 0 -174 -36.5t-146 -101.5
t-100 -160t-37 -205z" />
    <glyph glyph-name="Cdotaccent" unicode="&#x10a;" horiz-adv-x="1359" 
d="M856 1790q-20 0 -35.5 14.5t-15.5 34.5q0 21 15 36t36 15q22 0 37.5 -14.5t15.5 -36.5q0 -20 -15.5 -34.5t-37.5 -14.5zM1262 86q-167 -104 -390 -104q-110 0 -216.5 32.5t-200 99t-164.5 158.5t-112.5 218.5t-41.5 271.5q0 179 63 329t166 246t231 148.5t263 52.5
q238 0 402 -104v-58q-171 111 -402 111q-98 0 -193.5 -30t-181.5 -91t-152 -145.5t-104.5 -203.5t-38.5 -255q0 -137 39 -256t106 -204.5t154 -147t184.5 -91.5t196.5 -30q218 0 392 112v-59z" />
    <glyph glyph-name="cdotaccent" unicode="&#x10b;" horiz-adv-x="1032" 
d="M614 1350q-20 0 -35.5 14.5t-15.5 34.5q0 21 15 36t36 15q22 0 38 -15t16 -36q0 -20 -16 -34.5t-38 -14.5zM174 541q0 -113 37.5 -209t101 -160.5t147 -100.5t175.5 -36q170 0 291 86v-60q-124 -77 -291 -77q-140 0 -257 69.5t-187 198t-70 289.5q0 158 69 285.5
t186 198.5t257 71q162 0 293 -76v-59q-126 83 -295 83q-91 0 -174 -36.5t-146 -101.5t-100 -160t-37 -205z" />
    <glyph glyph-name="Ccaron" unicode="&#x10c;" horiz-adv-x="1359" 
d="M1135 2042l-254 -326h-47l-254 326h59l219 -281l219 281h58zM1262 86q-167 -104 -390 -104q-110 0 -216.5 32.5t-200 99t-164.5 158.5t-112.5 218.5t-41.5 271.5q0 179 63 329t166 246t231 148.5t263 52.5q238 0 402 -104v-58q-171 111 -402 111q-98 0 -193.5 -30
t-181.5 -91t-152 -145.5t-104.5 -203.5t-38.5 -255q0 -137 39 -256t106 -204.5t154 -147t184.5 -91.5t196.5 -30q218 0 392 112v-59z" />
    <glyph glyph-name="ccaron" unicode="&#x10d;" horiz-adv-x="1032" 
d="M893 1602l-254 -326h-47l-254 326h59l219 -281l220 281h57zM174 541q0 -113 37.5 -209t101 -160.5t147 -100.5t175.5 -36q170 0 291 86v-60q-124 -77 -291 -77q-140 0 -257 69.5t-187 198t-70 289.5q0 158 69 285.5t186 198.5t257 71q162 0 293 -76v-59q-126 83 -295 83
q-91 0 -174 -36.5t-146 -101.5t-100 -160t-37 -205z" />
    <glyph glyph-name="Dcaron" unicode="&#x10e;" horiz-adv-x="1468" 
d="M973 2042l-254 -326h-47l-254 326h59l219 -281l219 281h58zM539 1520q234 0 413 -90.5t279 -262.5t100 -403q0 -232 -100.5 -406t-279.5 -266t-412 -92h-289v1520h289zM303 1470v-1419h238q215 0 381 84t260 246t94 381q0 220 -94.5 381.5t-259.5 244t-381 82.5h-238z
" />
    <glyph glyph-name="dcaron" unicode="&#x10f;" horiz-adv-x="1306" 
d="M614 -16q-96 0 -184.5 39t-157 109.5t-109 176t-40.5 230.5q0 126 40.5 232.5t108.5 176.5t156 109t184 39q146 0 268 -86t173 -242h2v856h53v-1624h-43l-6 319h-2q-52 -161 -174.5 -248t-268.5 -87zM1305 1317q26 106 26 190q0 66 -14 117h51q10 -58 10 -98
q0 -115 -35 -209h-38zM616 35q87 0 166.5 35.5t140.5 99t97.5 160t36.5 211.5q0 114 -36 210t-97 159.5t-140.5 98.5t-167.5 35t-167.5 -35t-140 -98.5t-96.5 -160t-36 -211.5q0 -113 36 -209t97 -160t140.5 -99.5t166.5 -35.5z" />
    <glyph glyph-name="Dcroat" unicode="&#x110;" horiz-adv-x="1482" 
d="M553 1520q234 0 413 -90.5t279.5 -262.5t100.5 -403q0 -232 -101 -406t-280 -266t-412 -92h-289v756h-237v45h237v719h289zM555 51q215 0 381 84t260 246t94 381q0 220 -94.5 381.5t-259.5 244t-381 82.5h-238v-669h471v-45h-471v-705h238z" />
    <glyph glyph-name="dcroat" unicode="&#x111;" horiz-adv-x="1306" 
d="M1311 1346v-50h-203v-1296h-43l-6 319h-2q-52 -161 -174.5 -248t-268.5 -87q-96 0 -184.5 39t-157 109.5t-109 176t-40.5 230.5q0 126 40.5 232.5t108.5 176.5t156 109t184 39q146 0 268 -86t173 -242h2v528h-363v50h363v278h53v-278h203zM616 35q87 0 166.5 35.5
t140.5 99t97.5 160t36.5 211.5q0 114 -36 210t-97 159.5t-140.5 98.5t-167.5 35t-167.5 -35t-140 -98.5t-96.5 -160t-36 -211.5q0 -113 36 -209t97 -160t140.5 -99.5t166.5 -35.5z" />
    <glyph glyph-name="Emacron" unicode="&#x112;" horiz-adv-x="1128" 
d="M348 1827v47h539v-47h-539zM250 0v1520h715v-50h-662v-673h625v-49h-625v-697h662v-51h-715z" />
    <glyph glyph-name="emacron" unicode="&#x113;" horiz-adv-x="1173" 
d="M881 1434v-48h-539v48h539zM1055 563q0 -9 -1 -23t-1 -16h-877q4 -226 131 -357.5t326 -131.5q226 0 395 155v-61q-173 -145 -397 -145t-366 150.5t-142 404.5q0 126 40.5 232.5t109 176.5t157 109t184.5 39q89 0 167.5 -34.5t140 -99.5t97.5 -168t36 -231zM176 573h825
q0 116 -32 208t-86.5 149t-123 87t-145.5 30q-82 0 -158.5 -33t-137 -93t-99 -150.5t-43.5 -197.5z" />
    <glyph glyph-name="Edotaccent" unicode="&#x116;" horiz-adv-x="1128" 
d="M616 1790q-20 0 -35.5 14.5t-15.5 34.5q0 21 15 36t36 15q22 0 38 -15t16 -36q0 -20 -16 -34.5t-38 -14.5zM250 0v1520h715v-50h-662v-673h625v-49h-625v-697h662v-51h-715z" />
    <glyph glyph-name="edotaccent" unicode="&#x117;" horiz-adv-x="1173" 
d="M610 1350q-20 0 -35.5 14.5t-15.5 34.5q0 21 15 36t36 15q22 0 38 -15t16 -36q0 -20 -16 -34.5t-38 -14.5zM1055 563q0 -9 -1 -23t-1 -16h-877q4 -226 131 -357.5t326 -131.5q226 0 395 155v-61q-173 -145 -397 -145t-366 150.5t-142 404.5q0 126 40.5 232.5t109 176.5
t157 109t184.5 39q89 0 167.5 -34.5t140 -99.5t97.5 -168t36 -231zM176 573h825q0 116 -32 208t-86.5 149t-123 87t-145.5 30q-82 0 -158.5 -33t-137 -93t-99 -150.5t-43.5 -197.5z" />
    <glyph glyph-name="Eogonek" unicode="&#x118;" horiz-adv-x="1128" 
d="M965 1470h-662v-673h625v-49h-625v-697h662v-51q-107 -84 -161 -149t-54 -127q0 -68 44 -104t101 -36q48 0 70 13v-46q-16 -12 -70 -12q-77 0 -136 46t-59 132q0 127 199 283h-649v1520h715v-50z" />
    <glyph glyph-name="eogonek" unicode="&#x119;" horiz-adv-x="1173" 
d="M1055 563q0 -9 -1 -23t-1 -16h-877q3 -226 130.5 -357.5t326.5 -131.5q226 0 395 155v-61q-154 -186 -185 -229q-66 -103 -69 -176q0 -68 45 -104t103 -36q47 0 69 13v-46q-20 -12 -71 -12q-77 0 -136 46t-59 132q0 72 39.5 142t144.5 198q-123 -73 -278 -73
q-224 0 -366 150.5t-142 404.5q0 126 40.5 232.5t109 176.5t157 109t184.5 39q89 0 167.5 -34.5t140 -99.5t97.5 -168t36 -231zM176 573h825q0 116 -32 208t-86.5 149t-123 87t-145.5 30q-82 0 -158.5 -33t-137 -93t-99 -150.5t-43.5 -197.5z" />
    <glyph glyph-name="Ecaron" unicode="&#x11a;" horiz-adv-x="1128" 
d="M895 2042l-254 -326h-47l-254 326h59l219 -281l220 281h57zM250 0v1520h715v-50h-662v-673h625v-49h-625v-697h662v-51h-715z" />
    <glyph glyph-name="ecaron" unicode="&#x11b;" horiz-adv-x="1173" 
d="M635 1276h-47l-254 326h59l219 -281l219 281h58zM1055 563q0 -9 -1 -23t-1 -16h-877q4 -226 131 -357.5t326 -131.5q226 0 395 155v-61q-173 -145 -397 -145t-366 150.5t-142 404.5q0 126 40.5 232.5t109 176.5t157 109t184.5 39q89 0 167.5 -34.5t140 -99.5t97.5 -168
t36 -231zM176 573h825q0 116 -32 208t-86.5 149t-123 87t-145.5 30q-82 0 -158.5 -33t-137 -93t-99 -150.5t-43.5 -197.5z" />
    <glyph glyph-name="Gbreve" unicode="&#x11e;" horiz-adv-x="1466" 
d="M1141 2017q-4 -119 -88.5 -187.5t-206.5 -68.5t-206.5 68.5t-90.5 187.5h51q6 -92 75 -150.5t171 -58.5q100 0 169 58.5t75 150.5h51zM190 762q0 -162 52.5 -299.5t143 -230.5t214 -144.5t264.5 -50.5q210 3 377 78v692h53v-725q-85 -44 -200 -72t-230 -28
q-150 0 -283 56t-231 156t-155.5 247.5t-57.5 320.5t57 320t154.5 246t228.5 154.5t279 55.5q244 0 428 -108v-62q-195 117 -428 117q-137 0 -258.5 -51t-212 -143t-143 -229t-52.5 -300z" />
    <glyph glyph-name="gbreve" unicode="&#x11f;" horiz-adv-x="1294" 
d="M952 1577q-4 -119 -88.5 -187.5t-206.5 -68.5t-206.5 68.5t-90.5 187.5h52q6 -92 75 -150.5t170 -58.5q100 0 169 58.5t75 150.5h51zM606 1096q145 0 266 -85.5t172 -240.5l9 309h43v-1071q0 -124 -38 -217.5t-104.5 -147t-147 -79t-175.5 -25.5q-241 0 -410 125v62
q170 -136 412 -136q83 0 154 22.5t129.5 69.5t92 128.5t33.5 191.5v332h-2q-51 -152 -171 -236t-263 -84q-94 0 -181.5 38t-155 106t-108 171t-40.5 224q0 122 40.5 225.5t107.5 172t154.5 107t182.5 38.5zM608 1044q-85 0 -163.5 -34.5t-138.5 -96.5t-96 -156t-36 -204
t36 -203t96 -155t139 -97t165 -35t164.5 35t138.5 97t95.5 156t35.5 204q0 220 -127.5 354.5t-308.5 134.5z" />
    <glyph glyph-name="Gdotaccent" unicode="&#x120;" horiz-adv-x="1466" 
d="M844 1790q-20 0 -35.5 14.5t-15.5 34.5q0 21 15 36t36 15q22 0 37.5 -14.5t15.5 -36.5q0 -20 -15.5 -34.5t-37.5 -14.5zM190 762q0 -162 52.5 -299.5t143 -230.5t214 -144.5t264.5 -50.5q210 3 377 78v692h53v-725q-85 -44 -200 -72t-230 -28q-150 0 -283 56t-231 156
t-155.5 247.5t-57.5 320.5t57 320t154.5 246t228.5 154.5t279 55.5q244 0 428 -108v-62q-195 117 -428 117q-137 0 -258.5 -51t-212 -143t-143 -229t-52.5 -300z" />
    <glyph glyph-name="gdotaccent" unicode="&#x121;" horiz-adv-x="1294" 
d="M655 1350q-20 0 -35.5 14.5t-15.5 34.5q0 21 15 36t36 15q22 0 38 -15t16 -36q0 -20 -16 -34.5t-38 -14.5zM606 1096q145 0 266 -85.5t172 -240.5l9 309h43v-1071q0 -124 -38 -217.5t-104.5 -147t-147 -79t-175.5 -25.5q-241 0 -410 125v62q170 -136 412 -136
q83 0 154 22.5t129.5 69.5t92 128.5t33.5 191.5v332h-2q-51 -152 -171 -236t-263 -84q-94 0 -181.5 38t-155 106t-108 171t-40.5 224q0 122 40.5 225.5t107.5 172t154.5 107t182.5 38.5zM608 1044q-85 0 -163.5 -34.5t-138.5 -96.5t-96 -156t-36 -204t36 -203t96 -155
t139 -97t165 -35t164.5 35t138.5 97t95.5 156t35.5 204q0 220 -127.5 354.5t-308.5 134.5z" />
    <glyph glyph-name="uni0122" unicode="&#x122;" horiz-adv-x="1466" 
d="M190 762q0 -162 52.5 -299.5t143 -230.5t214 -144.5t264.5 -50.5q210 3 377 78v692h53v-725q-85 -44 -200 -72t-230 -28q-150 0 -283 56t-231 156t-155.5 247.5t-57.5 320.5t57 320t154.5 246t228.5 154.5t279 55.5q244 0 428 -108v-62q-195 117 -428 117
q-137 0 -258.5 -51t-212 -143t-143 -229t-52.5 -300zM860 -162q23 -163 -49 -340h-45q60 171 41 340h53z" />
    <glyph glyph-name="uni0123" unicode="&#x123;" horiz-adv-x="1294" 
d="M631 1241q-23 163 49 340h45q-60 -171 -41 -340h-53zM606 1096q145 0 266 -85.5t172 -240.5l9 309h43v-1071q0 -124 -38 -217.5t-104.5 -147t-147 -79t-175.5 -25.5q-241 0 -410 125v62q170 -136 412 -136q83 0 154 22.5t129.5 69.5t92 128.5t33.5 191.5v332h-2
q-51 -152 -171 -236t-263 -84q-94 0 -181.5 38t-155 106t-108 171t-40.5 224q0 122 40.5 225.5t107.5 172t154.5 107t182.5 38.5zM608 1044q-85 0 -163.5 -34.5t-138.5 -96.5t-96 -156t-36 -204t36 -203t96 -155t139 -97t165 -35t164.5 35t138.5 97t95.5 156t35.5 204
q0 220 -127.5 354.5t-308.5 134.5z" />
    <glyph glyph-name="Hbar" unicode="&#x126;" horiz-adv-x="1572" 
d="M1477 1188l-4 -45h-150v-1143h-53v756h-965v-756h-53v1143h-186l2 45h184v332h53v-332h965v332h53v-332h154zM1270 807v336h-965v-336h965z" />
    <glyph glyph-name="hbar" unicode="&#x127;" horiz-adv-x="1175" 
d="M618 1096q170 0 270.5 -99.5t100.5 -275.5v-721h-53v707q0 162 -85 249.5t-237 87.5q-97 0 -177 -35.5t-131.5 -110t-51.5 -175.5v-723h-53v1296h-193v50h193v278h53v-278h371v-50h-371v-409h2q44 98 142 153.5t220 55.5z" />
    <glyph glyph-name="Imacron" unicode="&#x12a;" horiz-adv-x="552" 
d="M6 1827v47h539v-47h-539zM250 0v1520h53v-1520h-53z" />
    <glyph glyph-name="imacron" unicode="&#x12b;" horiz-adv-x="468" 
d="M-35 1440v47h539v-47h-539zM207 0v1079h53v-1079h-53z" />
    <glyph glyph-name="Iogonek" unicode="&#x12e;" horiz-adv-x="552" 
d="M303 0q-107 -84 -161 -149t-54 -127q0 -68 44 -104t101 -36q48 0 70 13v-46q-16 -12 -70 -12q-77 0 -135.5 46t-58.5 132q0 130 211 291v1512h53v-1520z" />
    <glyph glyph-name="iogonek" unicode="&#x12f;" horiz-adv-x="468" 
d="M236 1536q22 0 36.5 -14.5t14.5 -36.5t-14.5 -35.5t-36.5 -13.5q-23 0 -37.5 13.5t-14.5 35.5t14.5 36.5t37.5 14.5zM207 8v1071h53v-1079q-107 -84 -161 -149t-54 -127q0 -68 44 -104t101 -36q48 0 70 13v-46q-16 -12 -70 -12q-77 0 -135.5 46t-58.5 132q0 130 211 291z
" />
    <glyph glyph-name="Idotaccent" unicode="&#x130;" horiz-adv-x="552" 
d="M274 1790q-20 0 -35.5 14.5t-15.5 34.5q0 21 15 36t36 15q22 0 38 -15t16 -36q0 -20 -16 -34.5t-38 -14.5zM250 0v1520h53v-1520h-53z" />
    <glyph glyph-name="dotlessi" unicode="&#x131;" horiz-adv-x="468" 
d="M207 0v1079h53v-1079h-53z" />
    <glyph glyph-name="IJ" unicode="&#x132;" horiz-adv-x="1468" 
d="M250 0v1520h53v-1520h-53zM635 152q117 -117 266 -117q127 0 202 81t75 232v1172h53v-1178q0 -166 -90 -262t-240 -96q-153 0 -266 104v64z" />
    <glyph glyph-name="ij" unicode="&#x133;" horiz-adv-x="937" 
d="M236 1436q-23 0 -37.5 13.5t-14.5 35.5t14.5 36.5t37.5 14.5q22 0 36.5 -14.5t14.5 -36.5t-14.5 -35.5t-36.5 -13.5zM705 1436q-22 0 -37 14t-15 35q0 22 15 36.5t37 14.5t36.5 -14.5t14.5 -36.5t-14.5 -35.5t-36.5 -13.5zM207 0v1079h53v-1079h-53zM492 -444
q94 100 140 233t46 317v973h53v-973q0 -184 -42.5 -315t-127.5 -235h-69z" />
    <glyph glyph-name="uni0136" unicode="&#x136;" horiz-adv-x="1228" 
d="M303 1520v-1520h-53v1520h53zM1180 1520l-805 -760l815 -760h-74l-813 760l807 760h70zM696 -162q23 -163 -49 -340h-45q60 171 41 340h53z" />
    <glyph glyph-name="uni0137" unicode="&#x137;" horiz-adv-x="954" 
d="M254 1624v-1624h-53v1624h53zM901 1079l-575 -508l600 -571h-74l-598 571l573 508h74zM551 -162q23 -163 -49 -340h-45q60 171 41 340h53z" />
    <glyph glyph-name="kgreenlandic" unicode="&#x138;" horiz-adv-x="954" 
d="M254 1079v-1079h-53v1079h53zM899 1079l-575 -508l600 -571h-72l-598 571l573 508h72z" />
    <glyph glyph-name="Lacute" unicode="&#x139;" horiz-adv-x="1064" 
d="M428 2042h64l-261 -326h-51zM250 0v1520h53v-1469h709v-51h-762z" />
    <glyph glyph-name="lacute" unicode="&#x13a;" horiz-adv-x="468" 
d="M385 2146h64l-261 -325h-51zM207 0v1624h53v-1624h-53z" />
    <glyph glyph-name="uni013B" unicode="&#x13b;" horiz-adv-x="1064" 
d="M250 0v1520h53v-1469h709v-51h-762zM659 -162q23 -163 -49 -340h-45q60 171 41 340h53z" />
    <glyph glyph-name="uni013C" unicode="&#x13c;" horiz-adv-x="468" 
d="M207 0v1624h53v-1624h-53zM260 -162q23 -163 -49 -340h-45q60 171 41 340h53z" />
    <glyph glyph-name="Lcaron" unicode="&#x13d;" horiz-adv-x="1064" 
d="M500 1323q26 106 26 190q0 66 -14 117h51q10 -57 10 -98q0 -118 -34 -209h-39zM250 0v1520h53v-1469h709v-51h-762z" />
    <glyph glyph-name="lcaron" unicode="&#x13e;" horiz-adv-x="460" 
d="M207 0v1624h53v-1624h-53zM457 1317q26 106 26 190q0 66 -14 117h51q10 -58 10 -98q0 -118 -34 -209h-39z" />
    <glyph glyph-name="Ldot" unicode="&#x13f;" horiz-adv-x="1103" 
d="M250 0v1520h53v-1469h709v-51h-762zM817 696q-28 0 -47.5 19.5t-19.5 48.5t19.5 48t47.5 19q30 0 50 -19t20 -48t-20.5 -48.5t-49.5 -19.5z" />
    <glyph glyph-name="ldot" unicode="&#x140;" horiz-adv-x="552" 
d="M207 0v1624h53v-1624h-53zM512 745q-28 0 -48 19.5t-20 48.5t20 48.5t48 19.5q29 0 49.5 -19.5t20.5 -48.5t-20.5 -48.5t-49.5 -19.5z" />
    <glyph glyph-name="Lslash" unicode="&#x141;" horiz-adv-x="1089" 
d="M328 51h708v-51h-762v670l-254 -148v56l254 147v795h54v-764l381 219v-55l-381 -220v-649z" />
    <glyph glyph-name="lslash" unicode="&#x142;" horiz-adv-x="714" 
d="M662 1049v-58l-273 -160v-831h-53v801l-266 -156v57l266 156v766h53v-735z" />
    <glyph glyph-name="Nacute" unicode="&#x143;" horiz-adv-x="1591" 
d="M952 2042h64l-260 -326h-51zM1341 1520v-1520h-53l-983 1434h-2v-1434h-53v1520h59l977 -1426h2v1426h53z" />
    <glyph glyph-name="nacute" unicode="&#x144;" horiz-adv-x="1175" 
d="M760 1602h63l-260 -326h-51zM616 1096q168 0 270.5 -101t102.5 -272v-723h-53v709q0 160 -87 247.5t-239 87.5q-150 0 -253 -88.5t-103 -240.5v-715h-53v1079h41l6 -207h4q41 104 138.5 164t225.5 60z" />
    <glyph glyph-name="uni0145" unicode="&#x145;" horiz-adv-x="1591" 
d="M1341 1520v-1520h-53l-983 1434h-2v-1434h-53v1520h59l977 -1426h2v1426h53zM823 -162q23 -163 -49 -340h-45q60 171 41 340h53z" />
    <glyph glyph-name="uni0146" unicode="&#x146;" horiz-adv-x="1175" 
d="M616 1096q168 0 270.5 -101t102.5 -272v-723h-53v709q0 160 -87 247.5t-239 87.5q-150 0 -253 -88.5t-103 -240.5v-715h-53v1079h41l6 -207h4q41 104 138.5 164t225.5 60zM621 -162q23 -161 -50 -340h-45q60 171 41 340h54z" />
    <glyph glyph-name="Ncaron" unicode="&#x147;" horiz-adv-x="1591" 
d="M1077 2042l-254 -326h-47l-254 326h60l219 -281l219 281h57zM1341 1520v-1520h-53l-983 1434h-2v-1434h-53v1520h59l977 -1426h2v1426h53z" />
    <glyph glyph-name="ncaron" unicode="&#x148;" horiz-adv-x="1175" 
d="M885 1602l-254 -326h-47l-254 326h59l219 -281l219 281h58zM616 1096q168 0 270.5 -101t102.5 -272v-723h-53v709q0 160 -87 247.5t-239 87.5q-150 0 -253 -88.5t-103 -240.5v-715h-53v1079h41l6 -207h4q41 104 138.5 164t225.5 60z" />
    <glyph glyph-name="Eng" unicode="&#x14a;" horiz-adv-x="1593" 
d="M1343 1520v-1622q0 -167 -89 -263t-240 -96q-152 0 -269 105v63q120 -117 269 -117q127 0 201.5 80.5t74.5 231.5v98l-985 1434h-2v-1434h-53v1520h59l979 -1426h2v1426h53z" />
    <glyph glyph-name="eng" unicode="&#x14b;" horiz-adv-x="1175" 
d="M989 723v-617q0 -184 -42.5 -315t-127.5 -235h-67q93 100 138.5 233t45.5 317v603q0 160 -87 247.5t-239 87.5q-150 0 -253 -88.5t-103 -240.5v-715h-53v1079h41l6 -207h4q41 104 138.5 164t225.5 60q168 0 270.5 -101t102.5 -272z" />
    <glyph glyph-name="Omacron" unicode="&#x14c;" horiz-adv-x="1716" 
d="M588 1827v47h538v-47h-538zM858 -18q-152 0 -285.5 58.5t-229 160.5t-151 247t-55.5 312t55.5 312t151 247t229 160.5t285.5 58.5q151 0 284.5 -58.5t229.5 -160.5t151.5 -247t55.5 -312t-55.5 -312t-151.5 -247t-229.5 -160.5t-284.5 -58.5zM858 33q137 0 259 53
t212.5 146.5t143.5 230.5t53 297t-53 297t-143.5 230.5t-212.5 146.5t-259 53t-259.5 -53t-213 -146.5t-143 -230.5t-52.5 -297t52.5 -297t143 -230.5t213 -146.5t259.5 -53z" />
    <glyph glyph-name="omacron" unicode="&#x14d;" horiz-adv-x="1259" 
d="M360 1386v48h539v-48h-539zM631 -16q-100 0 -192.5 40t-163 110.5t-112.5 176t-42 228.5t42 229t112 177t162.5 111t193.5 40q100 0 192 -40t162.5 -111t112 -177t41.5 -229q0 -122 -42 -227.5t-112 -176.5t-162 -111t-192 -40zM631 35q87 0 168.5 35t145 97.5t102 159.5
t38.5 212t-38.5 212t-102 160t-145 98t-168.5 35q-88 0 -170 -35t-146 -98t-102.5 -160t-38.5 -212t38.5 -212t102.5 -159.5t146 -97.5t170 -35z" />
    <glyph glyph-name="Ohungarumlaut" unicode="&#x150;" horiz-adv-x="1716" 
d="M1006 2042l-295 -326h-54l283 326h66zM1288 2042l-295 -326h-53l281 326h67zM858 -18q-152 0 -285.5 58.5t-229 160.5t-151 247t-55.5 312t55.5 312t151 247t229 160.5t285.5 58.5q151 0 284.5 -58.5t229.5 -160.5t151.5 -247t55.5 -312t-55.5 -312t-151.5 -247
t-229.5 -160.5t-284.5 -58.5zM858 33q137 0 259 53t212.5 146.5t143.5 230.5t53 297t-53 297t-143.5 230.5t-212.5 146.5t-259 53t-259.5 -53t-213 -146.5t-143 -230.5t-52.5 -297t52.5 -297t143 -230.5t213 -146.5t259.5 -53z" />
    <glyph glyph-name="ohungarumlaut" unicode="&#x151;" horiz-adv-x="1259" 
d="M778 1602l-295 -326h-53l283 326h65zM1061 1602l-295 -326h-53l280 326h68zM631 -16q-100 0 -192.5 40t-163 110.5t-112.5 176t-42 228.5t42 229t112 177t162.5 111t193.5 40q100 0 192 -40t162.5 -111t112 -177t41.5 -229q0 -122 -42 -227.5t-112 -176.5t-162 -111
t-192 -40zM631 35q87 0 168.5 35t145 97.5t102 159.5t38.5 212t-38.5 212t-102 160t-145 98t-168.5 35q-88 0 -170 -35t-146 -98t-102.5 -160t-38.5 -212t38.5 -212t102.5 -159.5t146 -97.5t170 -35z" />
    <glyph glyph-name="OE" unicode="&#x152;" horiz-adv-x="1980" 
d="M1819 1520v-50h-664v-673h625v-49h-625v-697h664v-51h-717q-119 -18 -232 -18q-155 0 -291 58.5t-233.5 160.5t-154 247t-56.5 312t56.5 312t154 247t233.5 160.5t291 58.5q133 0 232 -18h717zM1102 1466q-102 21 -232 21q-140 0 -265 -53t-216.5 -146.5t-145 -230.5
t-53.5 -297t53.5 -297t145 -230.5t216.5 -146.5t265 -53q135 0 232 20v1413z" />
    <glyph glyph-name="oe" unicode="&#x153;" horiz-adv-x="2134" 
d="M2015 563q0 -9 -1 -23t-1 -16h-876q3 -226 130.5 -357.5t325.5 -131.5q227 0 396 155v-61q-173 -145 -396 -145q-181 0 -309.5 99.5t-175.5 281.5q-49 -175 -181 -278t-296 -103q-100 0 -192.5 40t-163 110.5t-112.5 176t-42 228.5t42 229t112 177t162.5 111t193.5 40
q162 0 296.5 -103t180.5 -276q44 175 171 277t296 102q89 0 167.5 -34.5t139.5 -99.5t97 -168t36 -231zM1137 573h827q-1 116 -33 208t-87 149t-123.5 87t-145.5 30q-171 0 -298.5 -130t-139.5 -344zM631 35q87 0 168.5 35t145 97.5t102 159.5t38.5 212t-38.5 212t-102 160
t-145 98t-168.5 35q-88 0 -170 -35t-146 -98t-102.5 -160t-38.5 -212t38.5 -212t102.5 -159.5t146 -97.5t170 -35z" />
    <glyph glyph-name="Racute" unicode="&#x154;" horiz-adv-x="1175" 
d="M813 2042l-260 -326h-51l248 326h63zM381 702l698 -702h-73l-697 702h-6v-702h-53v1520h299q123 0 217.5 -31.5t151.5 -88t85.5 -129.5t28.5 -161q0 -188 -126 -298t-361 -110h-164zM303 752h236q220 0 330 96t110 262q0 164 -107.5 262t-326.5 98h-242v-718z" />
    <glyph glyph-name="racute" unicode="&#x155;" horiz-adv-x="665" 
d="M584 1602h63l-260 -326h-51zM201 0v1079h43l6 -221h2q27 75 81 128t114.5 77t123.5 24q34 0 66 -4v-51q-24 6 -66 6q-78 0 -148 -36.5t-118 -113.5t-51 -179v-709h-53z" />
    <glyph glyph-name="uni0156" unicode="&#x156;" horiz-adv-x="1175" 
d="M381 702l698 -702h-73l-697 702h-6v-702h-53v1520h299q123 0 217.5 -31.5t151.5 -88t85.5 -129.5t28.5 -161q0 -188 -126 -298t-361 -110h-164zM303 752h236q220 0 330 96t110 262q0 164 -107.5 262t-326.5 98h-242v-718zM600 -162h53q23 -163 -49 -340h-45
q60 171 41 340z" />
    <glyph glyph-name="uni0157" unicode="&#x157;" horiz-adv-x="665" 
d="M201 0v1079h43l6 -221h2q27 75 81 128t114.5 77t123.5 24q34 0 66 -4v-51q-24 6 -66 6q-78 0 -148 -36.5t-118 -113.5t-51 -179v-709h-53zM252 -162q23 -163 -49 -340h-45q60 171 41 340h53z" />
    <glyph glyph-name="Rcaron" unicode="&#x158;" horiz-adv-x="1175" 
d="M621 1716h-48l-254 326h60l219 -281l219 281h57zM381 702l698 -702h-73l-697 702h-6v-702h-53v1520h299q123 0 217.5 -31.5t151.5 -88t85.5 -129.5t28.5 -161q0 -188 -126 -298t-361 -110h-164zM303 752h236q220 0 330 96t110 262q0 164 -107.5 262t-326.5 98h-242v-718z
" />
    <glyph glyph-name="rcaron" unicode="&#x159;" horiz-adv-x="665" 
d="M709 1602l-254 -326h-47l-254 326h59l219 -281l219 281h58zM201 0v1079h43l6 -221h2q27 75 81 128t114.5 77t123.5 24q34 0 66 -4v-51q-24 6 -66 6q-78 0 -148 -36.5t-118 -113.5t-51 -179v-709h-53z" />
    <glyph glyph-name="Sacute" unicode="&#x15a;" horiz-adv-x="1112" 
d="M737 2042h64l-260 -326h-52zM588 1540q90 0 180.5 -26t157.5 -78v-64q-70 59 -161 87t-177 28q-164 0 -267.5 -87t-103.5 -224q0 -54 19.5 -100.5t49.5 -80.5t83 -69.5t101 -60.5t124 -60q75 -35 123.5 -60.5t105 -65.5t89.5 -80t55 -96.5t22 -121.5
q0 -174 -128.5 -286.5t-321.5 -112.5q-112 0 -219.5 39t-190.5 108v68q84 -77 193 -120.5t217 -43.5q171 0 284 97t113 247q0 41 -10.5 78.5t-27 67t-45.5 58.5t-57 50.5t-71.5 46.5t-79 43t-88.5 43q-56 26 -93 44.5t-83 44.5t-74.5 48t-59 52.5t-47.5 62t-27.5 71
t-10.5 84.5q0 161 120 265t306 104z" />
    <glyph glyph-name="sacute" unicode="&#x15b;" horiz-adv-x="937" 
d="M639 1602h63l-260 -326h-51zM483 1096q161 0 297 -92v-60q-139 100 -299 100q-126 0 -207 -61.5t-81 -159.5q0 -34 9 -61.5t30 -50t43 -39t61.5 -34.5t71 -30t84.5 -30q65 -21 107.5 -38t91 -43.5t76 -55t46 -71t18.5 -94.5q0 -129 -98.5 -210.5t-255.5 -81.5
q-195 0 -362 129v63q163 -141 362 -141q133 0 217 67t84 172q0 42 -15.5 77t-40 60t-67 48.5t-84.5 39.5t-104 36q-63 21 -102 36t-87 40t-75 52t-45.5 67t-18.5 89q0 120 97.5 198.5t246.5 78.5z" />
    <glyph glyph-name="uni015E" unicode="&#x15e;" horiz-adv-x="1112" 
d="M989 381q0 -166 -118 -277t-298 -122q-5 -109 -42.5 -189.5t-100.5 -157.5h-61q72 87 111 164t44 183q-110 3 -213 42t-182 105v68q84 -77 193 -120.5t217 -43.5q171 0 284 97t113 247q0 41 -10.5 78.5t-27 67t-45.5 58.5t-57 50.5t-71.5 46.5t-79 43t-88.5 43
q-56 26 -93 44.5t-83 44.5t-74.5 48t-59 52.5t-47.5 62t-27.5 71t-10.5 84.5q0 161 120 265t306 104q90 0 180.5 -26t157.5 -78v-64q-70 59 -161 87t-177 28q-164 0 -267.5 -87t-103.5 -224q0 -54 19.5 -100.5t49.5 -80.5t83 -69.5t101 -60.5t124 -60q75 -35 123.5 -60.5
t105 -65.5t89.5 -80t55 -96.5t22 -121.5z" />
    <glyph glyph-name="uni015F" unicode="&#x15f;" horiz-adv-x="937" 
d="M831 276q0 -124 -91 -204t-238 -88q-4 -110 -41.5 -190t-102.5 -159h-61q72 87 111.5 165t44.5 184q-186 10 -338 129v63q163 -141 362 -141q133 0 217 67t84 172q0 42 -15.5 77t-40 60t-67 48.5t-84.5 39.5t-104 36q-63 21 -102 36t-87 40t-75 52t-45.5 67t-18.5 89
q0 120 97.5 198.5t246.5 78.5q161 0 297 -92v-60q-139 100 -299 100q-126 0 -207 -61.5t-81 -159.5q0 -34 9 -61.5t30 -50t43 -39t61.5 -34.5t71 -30t84.5 -30q65 -21 107.5 -38t91 -43.5t76 -55t46 -71t18.5 -94.5z" />
    <glyph glyph-name="Scaron" unicode="&#x160;" horiz-adv-x="1112" 
d="M862 2042l-254 -326h-47l-254 326h60l219 -281l219 281h57zM588 1540q90 0 180.5 -26t157.5 -78v-64q-70 59 -161 87t-177 28q-164 0 -267.5 -87t-103.5 -224q0 -54 19.5 -100.5t49.5 -80.5t83 -69.5t101 -60.5t124 -60q75 -35 123.5 -60.5t105 -65.5t89.5 -80t55 -96.5
t22 -121.5q0 -174 -128.5 -286.5t-321.5 -112.5q-112 0 -219.5 39t-190.5 108v68q84 -77 193 -120.5t217 -43.5q171 0 284 97t113 247q0 41 -10.5 78.5t-27 67t-45.5 58.5t-57 50.5t-71.5 46.5t-79 43t-88.5 43q-56 26 -93 44.5t-83 44.5t-74.5 48t-59 52.5t-47.5 62
t-27.5 71t-10.5 84.5q0 161 120 265t306 104z" />
    <glyph glyph-name="scaron" unicode="&#x161;" horiz-adv-x="937" 
d="M764 1602l-254 -326h-47l-254 326h59l219 -281l220 281h57zM483 1096q161 0 297 -92v-60q-139 100 -299 100q-126 0 -207 -61.5t-81 -159.5q0 -34 9 -61.5t30 -50t43 -39t61.5 -34.5t71 -30t84.5 -30q65 -21 107.5 -38t91 -43.5t76 -55t46 -71t18.5 -94.5
q0 -129 -98.5 -210.5t-255.5 -81.5q-195 0 -362 129v63q163 -141 362 -141q133 0 217 67t84 172q0 42 -15.5 77t-40 60t-67 48.5t-84.5 39.5t-104 36q-63 21 -102 36t-87 40t-75 52t-45.5 67t-18.5 89q0 120 97.5 198.5t246.5 78.5z" />
    <glyph glyph-name="uni0162" unicode="&#x162;" horiz-adv-x="1169" 
d="M47 1520h1075v-50h-512v-1470q-1 -117 -39 -200.5t-104 -164.5h-61q76 92 115 172.5t40 192.5h-4v1470h-510v50z" />
    <glyph glyph-name="uni0163" unicode="&#x163;" horiz-adv-x="659" 
d="M549 37q47 0 88 8v-47q-40 -10 -94 -10q-26 0 -66 4q-3 -114 -40.5 -196.5t-102.5 -160.5h-62q37 45 60.5 78.5t47.5 79.5t35.5 97.5t12.5 111.5q-97 27 -151 105.5t-54 209.5v713h-166v49h168v256h51v-256h326v-49h-326v-708q0 -285 273 -285z" />
    <glyph glyph-name="Tcaron" unicode="&#x164;" horiz-adv-x="1169" 
d="M860 2042l-254 -326h-47l-254 326h60l219 -281l219 281h57zM557 0v1470h-510v50h1075v-50h-512v-1470h-53z" />
    <glyph glyph-name="tcaron" unicode="&#x165;" horiz-adv-x="659" 
d="M473 1323q27 110 27 190q0 63 -15 117h52q12 -46 12 -98q0 -109 -37 -209h-39zM276 1335v-256h326v-49h-326v-708q0 -285 273 -285q47 0 88 8v-47q-40 -10 -94 -10q-146 0 -233 81t-87 248v713h-166v49h168v256h51z" />
    <glyph glyph-name="Tbar" unicode="&#x166;" horiz-adv-x="1216" 
d="M1145 1470h-512v-677h346v-50h-346v-743h-53v743h-340v50h340v677h-510v50h1075v-50z" />
    <glyph glyph-name="tbar" unicode="&#x167;" horiz-adv-x="677" 
d="M559 37q47 0 88 8v-47q-40 -10 -94 -10q-146 0 -233 81t-87 248v240h-165v49h165v424h-165v49h168v256h51v-256h325v-49h-325v-424h325v-49h-325v-235q0 -285 272 -285z" />
    <glyph glyph-name="Umacron" unicode="&#x16a;" horiz-adv-x="1513" 
d="M485 1827v47h539v-47h-539zM754 -18q-241 0 -383 154t-142 417v967h54v-971q0 -239 127 -377.5t344 -138.5q219 0 348 139t129 379v969h53v-967q0 -262 -143.5 -416.5t-386.5 -154.5z" />
    <glyph glyph-name="umacron" unicode="&#x16b;" horiz-adv-x="1161" 
d="M309 1386v48h539v-48h-539zM580 -16q-181 0 -287.5 108t-106.5 293v694h54v-696q0 -164 91 -256t249 -92q159 0 250.5 91.5t91.5 256.5v696h53v-694q0 -185 -107 -293t-288 -108z" />
    <glyph glyph-name="Uring" unicode="&#x16e;" horiz-adv-x="1513" 
d="M756 2044q70 0 118 -47.5t48 -112.5t-48 -112.5t-118 -47.5t-118 47.5t-48 112.5t48 112.5t118 47.5zM756 2005q-55 0 -89 -34.5t-34 -86.5t34 -86.5t89 -34.5q54 0 88.5 34.5t34.5 86.5t-34.5 86.5t-88.5 34.5zM754 -18q-241 0 -383 154t-142 417v967h54v-971
q0 -239 127 -377.5t344 -138.5q219 0 348 139t129 379v969h53v-967q0 -262 -143.5 -416.5t-386.5 -154.5z" />
    <glyph glyph-name="uring" unicode="&#x16f;" horiz-adv-x="1161" 
d="M580 1604q70 0 117.5 -47.5t47.5 -112.5t-47.5 -112.5t-117.5 -47.5t-118 47.5t-48 112.5t48 112.5t118 47.5zM580 1565q-55 0 -89 -34.5t-34 -86.5t34 -86.5t89 -34.5q53 0 87.5 34.5t34.5 86.5t-34.5 86.5t-87.5 34.5zM580 -16q-181 0 -287.5 108t-106.5 293v694h54
v-696q0 -164 91 -256t249 -92q159 0 250.5 91.5t91.5 256.5v696h53v-694q0 -185 -107 -293t-288 -108z" />
    <glyph glyph-name="Uhungarumlaut" unicode="&#x170;" horiz-adv-x="1513" 
d="M903 2042l-295 -326h-53l283 326h65zM1186 2042l-295 -326h-53l280 326h68zM754 -18q-241 0 -383 154t-142 417v967h54v-971q0 -239 127 -377.5t344 -138.5q219 0 348 139t129 379v969h53v-967q0 -262 -143.5 -416.5t-386.5 -154.5z" />
    <glyph glyph-name="uhungarumlaut" unicode="&#x171;" horiz-adv-x="1161" 
d="M727 1602l-295 -326h-53l283 326h65zM1010 1602l-295 -326h-53l280 326h68zM580 -16q-181 0 -287.5 108t-106.5 293v694h54v-696q0 -164 91 -256t249 -92q159 0 250.5 91.5t91.5 256.5v696h53v-694q0 -185 -107 -293t-288 -108z" />
    <glyph glyph-name="Uogonek" unicode="&#x172;" horiz-adv-x="1513" 
d="M1231 1520h53v-967q0 -280 -166 -436q-131 -153 -186 -237t-55 -156q0 -68 44 -104t103 -36q48 0 70 13v-46q-20 -12 -72 -12q-77 0 -136 47.5t-59 132.5q0 65 42.5 140.5t127.5 179.5q-108 -57 -243 -57q-241 0 -383 154t-142 417v967h54v-971q0 -239 127 -377.5
t344 -138.5q219 0 348 139t129 379v969z" />
    <glyph glyph-name="uogonek" unicode="&#x173;" horiz-adv-x="1161" 
d="M922 1079h53v-694q0 -174 -101 -283q-121 -139 -176 -224t-55 -157q0 -68 44.5 -102.5t103.5 -34.5q47 0 69 13v-46q-20 -12 -72 -12q-78 0 -136 45.5t-58 132.5q0 115 151 301q-69 -34 -165 -34q-181 0 -287.5 108t-106.5 293v694h54v-696q0 -163 91 -255.5t249 -92.5
q159 0 250.5 91.5t91.5 256.5v696z" />
    <glyph glyph-name="Wcircumflex" unicode="&#x174;" horiz-adv-x="2107" 
d="M1079 2042l254 -326h-59l-219 281l-219 -281h-58l254 326h47zM1532 0l-477 1436l-477 -1436h-60l-452 1520h57l424 -1438h2l479 1438h53l480 -1438h2l426 1438h55l-453 -1520h-59z" />
    <glyph glyph-name="wcircumflex" unicode="&#x175;" horiz-adv-x="1648" 
d="M848 1602l254 -326h-60l-219 280l-219 -280h-57l254 326h47zM1184 0l-359 1008h-2l-358 -1008h-59l-316 1079h53l293 -1013h2l359 1013h55l360 -1013h2l291 1013h54l-318 -1079h-57z" />
    <glyph glyph-name="Ycircumflex" unicode="&#x176;" horiz-adv-x="1214" 
d="M631 2042l254 -326h-60l-219 281l-219 -281h-57l254 326h47zM582 0v676l-547 844h59l512 -789h2l508 789h60l-543 -844v-676h-51z" />
    <glyph glyph-name="ycircumflex" unicode="&#x177;" horiz-adv-x="1015" 
d="M535 1602l253 -326h-59l-219 280l-219 -280h-58l254 326h48zM944 1079l-594 -1523h-53l190 489l-413 1034h57l383 -964h2l373 964h55z" />
    <glyph glyph-name="Ydieresis" unicode="&#x178;" horiz-adv-x="1214" 
d="M444 1790q-22 0 -36.5 14.5t-14.5 34.5q0 22 14.5 36.5t36.5 14.5t37 -14.5t15 -36.5q0 -20 -15 -34.5t-37 -14.5zM770 1790q-22 0 -36.5 14.5t-14.5 34.5q0 22 14.5 36.5t36.5 14.5t36.5 -14.5t14.5 -36.5q0 -20 -14.5 -34.5t-36.5 -14.5zM582 0v676l-547 844h59
l512 -789h2l508 789h60l-543 -844v-676h-51z" />
    <glyph glyph-name="Zacute" unicode="&#x179;" horiz-adv-x="1142" 
d="M743 2042h64l-260 -326h-51zM1081 1520l-931 -1469h882v-51h-979l936 1468v2h-866v50h958z" />
    <glyph glyph-name="zacute" unicode="&#x17a;" horiz-adv-x="937" 
d="M623 1602h63l-260 -326h-51zM877 1079l-727 -1028v-2h679v-49h-776l727 1028h-657v51h754z" />
    <glyph glyph-name="Zdotaccent" unicode="&#x17b;" horiz-adv-x="1142" 
d="M590 1790q-20 0 -35.5 14.5t-15.5 34.5q0 21 15 36t36 15q22 0 37.5 -14.5t15.5 -36.5q0 -20 -15.5 -34.5t-37.5 -14.5zM1081 1520l-931 -1469h882v-51h-979l936 1468v2h-866v50h958z" />
    <glyph glyph-name="zdotaccent" unicode="&#x17c;" horiz-adv-x="937" 
d="M469 1350q-20 0 -35.5 14.5t-15.5 34.5q0 21 15 36t36 15q22 0 37.5 -14.5t15.5 -36.5q0 -20 -15.5 -34.5t-37.5 -14.5zM877 1079l-727 -1028v-2h679v-49h-776l727 1028h-657v51h754z" />
    <glyph glyph-name="Zcaron" unicode="&#x17d;" horiz-adv-x="1142" 
d="M868 2042l-254 -326h-47l-254 326h60l219 -281l219 281h57zM1081 1520l-931 -1469h882v-51h-979l936 1468v2h-866v50h958z" />
    <glyph glyph-name="zcaron" unicode="&#x17e;" horiz-adv-x="937" 
d="M748 1602l-254 -326h-48l-253 326h59l219 -281l219 281h58zM877 1079l-727 -1028v-2h679v-49h-776l727 1028h-657v51h754z" />
    <glyph glyph-name="florin" unicode="&#x192;" horiz-adv-x="761" 
d="M657 1589q-98 0 -154 -60.5t-75 -180.5l-41 -269h289v-49h-297l-178 -1182q-23 -158 -92.5 -233.5t-192.5 -75.5q-70 0 -115 19v49q49 -21 111 -21q101 0 158.5 64.5t76.5 193.5l181 1186h-197v49h205l41 273q42 288 280 288q49 0 97 -16v-51q-29 16 -97 16z" />
    <glyph glyph-name="uni0218" unicode="&#x218;" horiz-adv-x="1112" 
d="M588 1540q90 0 180.5 -26t157.5 -78v-64q-70 59 -161 87t-177 28q-164 0 -267.5 -87t-103.5 -224q0 -54 19.5 -100.5t49.5 -80.5t83 -69.5t101 -60.5t124 -60q75 -35 123.5 -60.5t105 -65.5t89.5 -80t55 -96.5t22 -121.5q0 -174 -128.5 -286.5t-321.5 -112.5
q-112 0 -219.5 39t-190.5 108v68q84 -77 193 -120.5t217 -43.5q171 0 284 97t113 247q0 41 -10.5 78.5t-27 67t-45.5 58.5t-57 50.5t-71.5 46.5t-79 43t-88.5 43q-56 26 -93 44.5t-83 44.5t-74.5 48t-59 52.5t-47.5 62t-27.5 71t-10.5 84.5q0 161 120 265t306 104zM573 -162
q23 -163 -49 -340h-45q60 171 41 340h53z" />
    <glyph glyph-name="uni0219" unicode="&#x219;" horiz-adv-x="937" 
d="M483 1096q161 0 297 -92v-60q-139 100 -299 100q-126 0 -207 -61.5t-81 -159.5q0 -34 9 -61.5t30 -50t43 -39t61.5 -34.5t71 -30t84.5 -30q65 -21 107.5 -38t91 -43.5t76 -55t46 -71t18.5 -94.5q0 -129 -98.5 -210.5t-255.5 -81.5q-195 0 -362 129v63q163 -141 362 -141
q133 0 217 67t84 172q0 42 -15.5 77t-40 60t-67 48.5t-84.5 39.5t-104 36q-63 21 -102 36t-87 40t-75 52t-45.5 67t-18.5 89q0 120 97.5 198.5t246.5 78.5zM502 -162q23 -163 -49 -340h-45q60 171 41 340h53z" />
    <glyph glyph-name="uni021A" unicode="&#x21a;" horiz-adv-x="1169" 
d="M557 0v1470h-510v50h1075v-50h-512v-1470h-53zM610 -162q23 -163 -49 -340h-45q60 171 41 340h53z" />
    <glyph glyph-name="uni021B" unicode="&#x21b;" horiz-adv-x="659" 
d="M276 1335v-256h326v-49h-326v-708q0 -285 273 -285q47 0 88 8v-47q-40 -10 -94 -10q-146 0 -233 81t-87 248v713h-166v49h168v256h51zM477 -162q23 -163 -49 -340h-45q60 171 41 340h53z" />
    <glyph glyph-name="circumflex" unicode="&#x2c6;" horiz-adv-x="1259" 
d="M653 1602l254 -326h-59l-219 280l-219 -280h-58l254 326h47z" />
    <glyph glyph-name="caron" unicode="&#x2c7;" horiz-adv-x="1259" 
d="M907 1602l-254 -326h-47l-254 326h60l219 -281l219 281h57z" />
    <glyph glyph-name="breve" unicode="&#x2d8;" horiz-adv-x="1259" 
d="M926 1577q-4 -119 -88.5 -187.5t-206.5 -68.5t-206.5 68.5t-90.5 187.5h51q6 -92 75 -150.5t171 -58.5q100 0 168.5 58.5t74.5 150.5h52z" />
    <glyph glyph-name="dotaccent" unicode="&#x2d9;" horiz-adv-x="1259" 
d="M629 1350q-20 0 -35.5 14.5t-15.5 34.5q0 21 15 36t36 15q22 0 37.5 -14.5t15.5 -36.5q0 -20 -15.5 -34.5t-37.5 -14.5z" />
    <glyph glyph-name="ring" unicode="&#x2da;" horiz-adv-x="1259" 
d="M629 1604q70 0 118 -47.5t48 -112.5t-48 -112.5t-118 -47.5t-118 47.5t-48 112.5t48 112.5t118 47.5zM629 1565q-55 0 -89 -34.5t-34 -86.5t34 -86.5t89 -34.5q53 0 88 34.5t35 86.5t-35 86.5t-88 34.5z" />
    <glyph glyph-name="ogonek" unicode="&#x2db;" horiz-adv-x="1259" 
d="M741 0q-107 -84 -161 -149t-54 -127q0 -68 44 -104t102 -36q47 0 69 13v-46q-16 -12 -69 -12q-77 0 -136 46t-59 132q0 137 230 306z" />
    <glyph glyph-name="tilde" unicode="&#x2dc;" horiz-adv-x="1259" 
d="M965 1456q4 -79 -45.5 -121.5t-120.5 -42.5q-42 0 -85.5 18.5t-74 41t-71.5 41t-79 18.5q-55 0 -88 -31.5t-32 -87.5h-47q-3 80 46.5 122t120.5 42q42 0 85.5 -18.5t74 -41t71.5 -41t79 -18.5q55 0 88.5 31.5t30.5 87.5h47z" />
    <glyph glyph-name="hungarumlaut" unicode="&#x2dd;" horiz-adv-x="1259" 
d="M696 1602l-295 -326h-53l283 326h65zM979 1602l-295 -326h-53l280 326h68z" />
    <glyph glyph-name="gravecomb" unicode="&#x300;" horiz-adv-x="0" 
d="M-152 1602l248 -326h-51l-260 326h63z" />
    <glyph glyph-name="acutecomb" unicode="&#x301;" horiz-adv-x="0" 
d="M152 1602h63l-260 -326h-51z" />
    <glyph glyph-name="uni0302" unicode="&#x302;" horiz-adv-x="0" 
d="M25 1602l254 -326h-60l-219 280l-219 -280h-57l253 326h48z" />
    <glyph glyph-name="tildecomb" unicode="&#x303;" horiz-adv-x="0" 
d="M319 1456q4 -79 -45 -121.5t-120 -42.5q-42 0 -85.5 18.5t-74 41t-71.5 41t-79 18.5q-55 0 -88 -31.5t-32 -87.5h-48q-3 79 47 121.5t121 42.5q42 0 85.5 -18.5t74 -41t71.5 -41t79 -18.5q55 0 88 31.5t30 87.5h47z" />
    <glyph glyph-name="uni0304" unicode="&#x304;" horiz-adv-x="0" 
d="M-270 1386v48h538v-48h-538z" />
    <glyph glyph-name="uni0306" unicode="&#x306;" horiz-adv-x="0" 
d="M295 1577q-4 -119 -88.5 -187.5t-206.5 -68.5t-206.5 68.5t-90.5 187.5h51q6 -92 75 -150.5t171 -58.5q100 0 169 58.5t75 150.5h51z" />
    <glyph glyph-name="uni0307" unicode="&#x307;" horiz-adv-x="0" 
d="M-2 1350q-20 0 -35.5 14.5t-15.5 34.5q0 21 15 36t36 15q22 0 37.5 -14.5t15.5 -36.5q0 -20 -15.5 -34.5t-37.5 -14.5z" />
    <glyph glyph-name="uni0308" unicode="&#x308;" horiz-adv-x="0" 
d="M-162 1350q-22 0 -36.5 14.5t-14.5 34.5q0 22 14.5 36.5t36.5 14.5t36.5 -14.5t14.5 -36.5q0 -20 -14.5 -34.5t-36.5 -14.5zM164 1350q-22 0 -36.5 14.5t-14.5 34.5q0 22 14.5 36.5t36.5 14.5t36.5 -14.5t14.5 -36.5q0 -20 -14.5 -34.5t-36.5 -14.5z" />
    <glyph glyph-name="uni030A" unicode="&#x30a;" horiz-adv-x="0" 
d="M0 1604q70 0 118 -47.5t48 -112.5t-48 -112.5t-118 -47.5t-118 47.5t-48 112.5t48 112.5t118 47.5zM0 1565q-55 0 -89 -34.5t-34 -86.5t34 -86.5t89 -34.5q54 0 88.5 34.5t34.5 86.5t-34.5 86.5t-88.5 34.5z" />
    <glyph glyph-name="uni030B" unicode="&#x30b;" horiz-adv-x="0" 
d="M147 1602l-294 -326h-54l283 326h65zM430 1602l-295 -326h-53l280 326h68z" />
    <glyph glyph-name="uni030C" unicode="&#x30c;" horiz-adv-x="0" 
d="M276 1602l-253 -326h-48l-254 326h60l219 -281l219 281h57z" />
    <glyph glyph-name="uni0326" unicode="&#x326;" horiz-adv-x="0" 
d="M27 -162q23 -161 -50 -340h-45q60 171 41 340h54z" />
    <glyph glyph-name="uni0327" unicode="&#x327;" horiz-adv-x="0" 
d="M-178 -365q77 93 116 176t39 199h50q0 -121 -38 -207t-106 -168h-61z" />
    <glyph glyph-name="uni0328" unicode="&#x328;" horiz-adv-x="0" 
d="M0 0q-107 -84 -161 -149t-54 -127q0 -68 44 -104t101 -36q48 0 70 13v-46q-16 -12 -70 -12q-77 0 -135.5 46t-58.5 132q0 137 229 306z" />
    <glyph glyph-name="uni037E" unicode="&#x37e;" horiz-adv-x="483" 
d="M252 707q-28 0 -48 19t-20 48t20 48.5t48 19.5q29 0 49.5 -19.5t20.5 -48.5t-20 -48t-50 -19zM137 -272q92 234 92 426v67h54v-67q0 -180 -101 -426h-45z" />
    <glyph glyph-name="tonos" unicode="&#x384;" horiz-adv-x="1257" 
d="M692 1726h58l-160 -430h-45z" />
    <glyph glyph-name="dieresistonos" unicode="&#x385;" horiz-adv-x="1208" 
d="M528 1296l148 430h57l-160 -430h-45zM412 1350q-21 0 -36.5 14.5t-15.5 34.5q0 21 15.5 36t36.5 15q22 0 37.5 -14.5t15.5 -36.5q0 -20 -15.5 -34.5t-37.5 -14.5zM768 1350q-22 0 -36.5 14.5t-14.5 34.5q0 22 14.5 36.5t36.5 14.5t36.5 -14.5t14.5 -36.5
q0 -20 -14.5 -34.5t-36.5 -14.5z" />
    <glyph glyph-name="Alphatonos" unicode="&#x386;" horiz-adv-x="1398" 
d="M338 1522h59l-121 -430h-45zM1358 0h-58l-227 561h-719l-227 -561h-57l616 1520h55zM715 1452l-340 -840h678z" />
    <glyph glyph-name="uni0387" unicode="&#x387;" horiz-adv-x="479" 
d="M240 707q-28 0 -48 19t-20 48t20 48.5t48 19.5q29 0 49 -19.5t20 -48.5t-20 -48t-49 -19z" />
    <glyph glyph-name="Epsilontonos" unicode="&#x388;" horiz-adv-x="1263" 
d="M166 1522h59l-121 -430h-45zM385 0v1520h715v-50h-662v-673h625v-49h-625v-697h662v-51h-715z" />
    <glyph glyph-name="Etatonos" unicode="&#x389;" horiz-adv-x="1708" 
d="M166 1522h59l-121 -430h-45zM1403 0v756h-965v-756h-53v1520h53v-713h965v713h53v-1520h-53z" />
    <glyph glyph-name="Iotatonos" unicode="&#x38a;" horiz-adv-x="688" 
d="M166 1522h59l-121 -430h-45zM385 0v1520h53v-1520h-53z" />
    <glyph glyph-name="Omicrontonos" unicode="&#x38c;" horiz-adv-x="1843" 
d="M985 -18q-152 0 -285.5 58.5t-229 160.5t-151 247t-55.5 312t55.5 312t151 247t229 160.5t285.5 58.5q151 0 284.5 -58.5t229.5 -160.5t151.5 -247t55.5 -312t-55.5 -312t-151.5 -247t-229.5 -160.5t-284.5 -58.5zM225 1522h60l-121 -430h-45zM985 33q137 0 259 53
t212.5 146.5t143.5 230.5t53 297t-53 297t-143.5 230.5t-212.5 146.5t-259 53t-259.5 -53t-213 -146.5t-143 -230.5t-52.5 -297t52.5 -297t143 -230.5t213 -146.5t259.5 -53z" />
    <glyph glyph-name="Upsilontonos" unicode="&#x38e;" horiz-adv-x="1542" 
d="M199 1522h59l-121 -430h-45zM911 0v676l-546 844h59l512 -789h2l508 789h59l-542 -844v-676h-52z" />
    <glyph glyph-name="Omegatonos" unicode="&#x38f;" horiz-adv-x="1826" 
d="M1243 51h461v-51h-571v41q92 41 176.5 111.5t153.5 165.5t110.5 218.5t42.5 256.5q2 205 -80.5 363.5t-230.5 244.5t-338 86q-189 0 -337 -86t-230.5 -244.5t-80.5 -363.5q1 -133 42.5 -256.5t110.5 -218.5t154 -165.5t177 -111.5v-41h-574v51h463q-185 103 -306.5 304
t-121.5 440q-1 331 195 537t508 206q205 0 365 -92.5t249 -262t88 -388.5q0 -238 -121.5 -439.5t-304.5 -304.5zM190 1522h60l-121 -430h-45z" />
    <glyph glyph-name="iotadieresistonos" unicode="&#x390;" horiz-adv-x="612" 
d="M186 1296l148 430h57l-160 -430h-45zM70 1350q-21 0 -36.5 14.5t-15.5 34.5q0 21 15.5 36t36.5 15q22 0 37.5 -14.5t15.5 -36.5q0 -20 -15.5 -34.5t-37.5 -14.5zM426 1350q-22 0 -36.5 14.5t-14.5 34.5q0 22 14.5 36.5t36.5 14.5t36.5 -14.5t14.5 -36.5
q0 -20 -14.5 -34.5t-36.5 -14.5zM510 -12q-317 0 -317 321v770h53v-764q0 -150 68.5 -214t199.5 -64q53 0 92 10v-47q-30 -12 -96 -12z" />
    <glyph glyph-name="Alpha" unicode="&#x391;" horiz-adv-x="1370" 
d="M1329 0h-57l-228 561h-718l-228 -561h-57l616 1520h56zM686 1452l-340 -840h678z" />
    <glyph glyph-name="Beta" unicode="&#x392;" horiz-adv-x="1271" 
d="M793 784q163 -34 253.5 -135t90.5 -248q0 -174 -130.5 -287.5t-365.5 -113.5h-391v1520h373q212 0 332 -103.5t120 -273.5q0 -138 -73 -232.5t-209 -126.5zM303 1470v-665h336q98 0 173 27.5t119.5 75t66.5 106.5t22 127q0 153 -103.5 241t-287.5 88h-326zM641 51
q212 0 327 98.5t115 251.5q0 155 -115 254t-321 99h-344v-703h338z" />
    <glyph glyph-name="Gamma" unicode="&#x393;" horiz-adv-x="1007" 
d="M250 0v1520h706v-50h-653v-1470h-53z" />
    <glyph glyph-name="uni0394" unicode="&#x394;" horiz-adv-x="1390" 
d="M41 0l629 1520h55l627 -1520h-1311zM119 51h1155l-578 1401z" />
    <glyph glyph-name="Epsilon" unicode="&#x395;" horiz-adv-x="1128" 
d="M250 0v1520h715v-50h-662v-673h625v-49h-625v-697h662v-51h-715z" />
    <glyph glyph-name="Zeta" unicode="&#x396;" horiz-adv-x="1142" 
d="M1081 1520l-931 -1469h882v-51h-979l936 1468v2h-866v50h958z" />
    <glyph glyph-name="Eta" unicode="&#x397;" horiz-adv-x="1570" 
d="M1268 0v756h-965v-756h-53v1520h53v-713h965v713h53v-1520h-53z" />
    <glyph glyph-name="Theta" unicode="&#x398;" horiz-adv-x="1716" 
d="M858 -18q-152 0 -285.5 58.5t-229 160.5t-151 247t-55.5 312t55.5 312t151 247t229 160.5t285.5 58.5q151 0 284.5 -58.5t229.5 -160.5t151.5 -247t55.5 -312t-55.5 -312t-151.5 -247t-229.5 -160.5t-284.5 -58.5zM858 33q137 0 259 53t212.5 146.5t143.5 230.5t53 297
t-53 297t-143.5 230.5t-212.5 146.5t-259 53t-259.5 -53t-213 -146.5t-143 -230.5t-52.5 -297t52.5 -297t143 -230.5t213 -146.5t259.5 -53zM457 743v52h800v-52h-800z" />
    <glyph glyph-name="Iota" unicode="&#x399;" horiz-adv-x="552" 
d="M250 0v1520h53v-1520h-53z" />
    <glyph glyph-name="Kappa" unicode="&#x39a;" horiz-adv-x="1228" 
d="M303 1520v-1520h-53v1520h53zM1180 1520l-805 -760l815 -760h-74l-813 760l807 760h70z" />
    <glyph glyph-name="Lambda" unicode="&#x39b;" horiz-adv-x="1314" 
d="M43 0l588 1520h55l586 -1520h-60l-555 1452l-555 -1452h-59z" />
    <glyph glyph-name="Mu" unicode="&#x39c;" horiz-adv-x="1935" 
d="M424 1430l-234 -1430h-55l250 1520h64l522 -1434h2l508 1434h65l254 -1520h-55l-236 1434h-4l-510 -1434h-49l-520 1430h-2z" />
    <glyph glyph-name="Nu" unicode="&#x39d;" horiz-adv-x="1591" 
d="M1341 1520v-1520h-53l-983 1434h-2v-1434h-53v1520h59l977 -1426h2v1426h53z" />
    <glyph glyph-name="Xi" unicode="&#x39e;" horiz-adv-x="1271" 
d="M133 1520h1008v-54h-1008v54zM223 797h826v-54h-826v54zM133 53h1008v-53h-1008v53z" />
    <glyph glyph-name="Omicron" unicode="&#x39f;" horiz-adv-x="1716" 
d="M858 -18q-152 0 -285.5 58.5t-229 160.5t-151 247t-55.5 312t55.5 312t151 247t229 160.5t285.5 58.5q151 0 284.5 -58.5t229.5 -160.5t151.5 -247t55.5 -312t-55.5 -312t-151.5 -247t-229.5 -160.5t-284.5 -58.5zM858 33q137 0 259 53t212.5 146.5t143.5 230.5t53 297
t-53 297t-143.5 230.5t-212.5 146.5t-259 53t-259.5 -53t-213 -146.5t-143 -230.5t-52.5 -297t52.5 -297t143 -230.5t213 -146.5t259.5 -53z" />
    <glyph glyph-name="Pi" unicode="&#x3a0;" horiz-adv-x="1523" 
d="M1221 0v1470h-918v-1470h-53v1520h1024v-1520h-53z" />
    <glyph glyph-name="Rho" unicode="&#x3a1;" horiz-adv-x="1179" 
d="M250 0v1520h303q242 0 388 -119.5t146 -331.5q0 -220 -145.5 -343.5t-390.5 -123.5h-248v-602h-53zM553 653q222 0 350.5 109t128.5 305q0 191 -128.5 297t-348.5 106h-252v-817h250z" />
    <glyph glyph-name="Sigma" unicode="&#x3a3;" horiz-adv-x="1140" 
d="M158 51h889v-51h-977l444 770l-424 750h936v-50h-848v-2l397 -698l-417 -717v-2z" />
    <glyph glyph-name="Tau" unicode="&#x3a4;" horiz-adv-x="1169" 
d="M557 0v1470h-510v50h1075v-50h-512v-1470h-53z" />
    <glyph glyph-name="Upsilon" unicode="&#x3a5;" horiz-adv-x="1216" 
d="M584 0v676l-547 844h59l512 -789h2l508 789h60l-543 -844v-676h-51z" />
    <glyph glyph-name="Phi" unicode="&#x3a6;" horiz-adv-x="1703" 
d="M879 1456q197 0 358 -85.5t254.5 -240t93.5 -348.5t-93.5 -348.5t-254.5 -239.5t-358 -85v-152h-54v152q-197 0 -358 85t-254.5 239.5t-93.5 348.5t93.5 348.5t254.5 240t358 85.5v152h54v-152zM825 158v1249q-183 0 -331.5 -79t-234 -222.5t-85.5 -323.5q0 -135 50 -252
t137 -198t207 -127.5t257 -46.5zM879 158q137 0 257 46.5t207 127.5t137 198t50 252q0 180 -85.5 323.5t-234 222.5t-331.5 79v-1249z" />
    <glyph glyph-name="Chi" unicode="&#x3a7;" horiz-adv-x="1259" 
d="M61 0l537 766l-528 754h61l500 -713l495 713h60l-527 -752l541 -768h-63l-508 725l-506 -725h-62z" />
    <glyph glyph-name="Psi" unicode="&#x3a8;" horiz-adv-x="1574" 
d="M1376 1520h54v-582q0 -265 -167.5 -412t-449.5 -147v-379h-53v379q-281 0 -448 147t-167 412v582h54v-582q0 -246 150.5 -378t410.5 -132v1092h53v-1092q261 0 412 132t151 378v582z" />
    <glyph glyph-name="uni03A9" unicode="&#x3a9;" horiz-adv-x="1718" 
d="M1135 51h460v-51h-571v41q92 41 176.5 111.5t153.5 165.5t110.5 218.5t42.5 256.5q2 205 -80.5 363.5t-230.5 244.5t-338 86q-142 0 -262.5 -50.5t-205.5 -140.5t-132.5 -219.5t-46.5 -283.5q1 -133 42.5 -256.5t110.5 -218.5t153.5 -165.5t176.5 -111.5v-41h-573v51h463
q-185 103 -306.5 304t-121.5 440q-1 219 88 388.5t249 262t365 92.5q312 0 508 -206t195 -537q0 -238 -121.5 -439.5t-304.5 -304.5z" />
    <glyph glyph-name="Iotadieresis" unicode="&#x3aa;" horiz-adv-x="552" 
d="M115 1792q-22 0 -37 14.5t-15 34.5q0 22 15 36.5t37 14.5t36.5 -14.5t14.5 -36.5q0 -20 -14.5 -34.5t-36.5 -14.5zM440 1792q-22 0 -36.5 14.5t-14.5 34.5q0 22 14.5 36.5t36.5 14.5t37 -14.5t15 -36.5q0 -20 -15 -34.5t-37 -14.5zM250 0v1520h53v-1520h-53z" />
    <glyph glyph-name="Upsilondieresis" unicode="&#x3ab;" horiz-adv-x="1216" 
d="M438 1792q-22 0 -36.5 14.5t-14.5 34.5q0 22 14.5 36.5t36.5 14.5t36.5 -14.5t14.5 -36.5q0 -20 -14.5 -34.5t-36.5 -14.5zM764 1792q-22 0 -36.5 14.5t-14.5 34.5q0 22 14.5 36.5t36.5 14.5t36.5 -14.5t14.5 -36.5q0 -20 -14.5 -34.5t-36.5 -14.5zM584 0v676l-547 844
h59l512 -789h2l508 789h60l-543 -844v-676h-51z" />
    <glyph glyph-name="alphatonos" unicode="&#x3ac;" horiz-adv-x="1310" 
d="M842 1726l-160 -430h-45l147 430h58zM1192 41q21 0 41 4v-47q-18 -6 -45 -6q-82 0 -122 44t-40 136v82h10l2 72h-4q-34 -110 -103 -188.5t-153.5 -116t-177.5 -37.5t-179 39t-152.5 109t-106 176t-39.5 231q0 126 39.5 232.5t105.5 176.5t151.5 109t178.5 39
q142 0 260.5 -86t169.5 -244h2l6 313h43v-905q0 -73 26 -103t87 -30zM602 35q85 0 162 35.5t135.5 99.5t93.5 160.5t35 210.5t-34.5 210t-93.5 159.5t-136 98.5t-162 35t-161.5 -35t-135.5 -98.5t-94 -160t-35 -211.5q0 -113 35 -209.5t94 -160t136 -99t161 -35.5z" />
    <glyph glyph-name="epsilontonos" unicode="&#x3ad;" horiz-adv-x="976" 
d="M684 1726l-160 -430h-45l148 430h57zM524 35q197 0 353 88v-55q-160 -84 -353 -84q-184 0 -291.5 76.5t-107.5 213.5q0 105 62.5 184t172.5 105q-94 22 -148 88t-54 158q0 134 98 210.5t268 76.5q87 0 183 -21t151 -53v-55q-50 33 -148.5 55t-185.5 22q-149 0 -231 -61.5
t-82 -173.5q0 -102 73 -161.5t197 -59.5h252v-51h-241q-146 0 -230 -73t-84 -190q0 -115 92.5 -177t253.5 -62z" />
    <glyph glyph-name="etatonos" unicode="&#x3ae;" horiz-adv-x="1191" 
d="M717 1726l-160 -430h-45l147 430h58zM633 1096q170 0 272.5 -101t102.5 -272v-1167h-54v1153q0 160 -86.5 247.5t-240.5 87.5q-152 0 -255.5 -88.5t-103.5 -240.5v-715h-53v913q0 70 -24.5 98.5t-81.5 28.5q-19 0 -39 -4v47q20 4 43 4q155 0 155 -172v-32
q44 99 141.5 156t223.5 57z" />
    <glyph glyph-name="iotatonos" unicode="&#x3af;" horiz-adv-x="610" 
d="M344 1726h57l-159 -430h-45zM508 -12q-318 0 -318 321v770h54v-764q0 -150 68.5 -214t199.5 -64q53 0 92 10v-47q-30 -12 -96 -12z" />
    <glyph glyph-name="upsilondieresistonos" unicode="&#x3b0;" horiz-adv-x="1138" 
d="M479 1296l148 430h57l-160 -430h-45zM362 1350q-20 0 -35.5 14.5t-15.5 34.5q0 21 15 36t36 15q22 0 38 -15t16 -36q0 -20 -16 -34.5t-38 -14.5zM719 1350q-22 0 -36.5 14.5t-14.5 34.5q0 22 14.5 36.5t36.5 14.5t36.5 -14.5t14.5 -36.5q0 -20 -14.5 -34.5t-36.5 -14.5z
M567 -16q-189 0 -288 106t-99 307v682h53v-682q0 -362 334 -362q183 0 283 128.5t100 360.5q0 322 -133 555h60q127 -237 127 -555q0 -253 -116.5 -396.5t-320.5 -143.5z" />
    <glyph glyph-name="alpha" unicode="&#x3b1;" horiz-adv-x="1310" 
d="M1192 41q21 0 41 4v-47q-18 -6 -45 -6q-82 0 -122 44t-40 136v82h10l2 72h-4q-34 -110 -103 -188.5t-153.5 -116t-177.5 -37.5t-179 39t-152.5 109t-106 176t-39.5 231q0 126 39.5 232.5t105.5 176.5t151.5 109t178.5 39q142 0 260.5 -86t169.5 -244h2l6 313h43v-905
q0 -73 26 -103t87 -30zM602 35q85 0 162 35.5t135.5 99.5t93.5 160.5t35 210.5t-34.5 210t-93.5 159.5t-136 98.5t-162 35t-161.5 -35t-135.5 -98.5t-94 -160t-35 -211.5q0 -113 35 -209.5t94 -160t136 -99t161 -35.5z" />
    <glyph glyph-name="beta" unicode="&#x3b2;" horiz-adv-x="1286" 
d="M772 889q180 -31 289.5 -154t109.5 -299q0 -195 -134 -323.5t-341 -128.5q-138 0 -263 56t-187 142v-626h-53v1620q0 203 122.5 331.5t319.5 128.5q186 0 294.5 -101t108.5 -275q0 -139 -70.5 -237.5t-195.5 -133.5zM696 35q186 0 304 113t118 290q0 186 -132 303
t-339 117h-135v49h98q174 0 274.5 95t100.5 258q0 154 -93 239.5t-257 85.5q-176 0 -282.5 -112.5t-106.5 -296.5v-922q66 -100 188.5 -159.5t261.5 -59.5z" />
    <glyph glyph-name="gamma" unicode="&#x3b3;" horiz-adv-x="1083" 
d="M963 1079q0 -277 -112 -572.5t-294 -488.5v-462h-53v448l-449 1075h56l417 -1009h7q152 154 263 442t111 567h54z" />
    <glyph glyph-name="delta" unicode="&#x3b4;" horiz-adv-x="1236" 
d="M688 1034q226 -119 328 -249.5t102 -309.5q0 -219 -139.5 -355t-364.5 -136q-217 0 -356 133.5t-139 345.5q0 199 130 351.5t349 207.5q-173 94 -246 172t-73 180q0 120 100 191t270 71q88 0 190 -24t189 -64l-2 -57q-196 94 -377 94q-144 0 -230.5 -56t-86.5 -155
q0 -90 76 -161.5t280 -178.5zM614 35q201 0 326 120.5t125 319.5q0 161 -91.5 280t-307.5 232l-13 6q-216 -47 -348.5 -193.5t-132.5 -336.5q0 -189 123 -308.5t319 -119.5z" />
    <glyph glyph-name="epsilon" unicode="&#x3b5;" horiz-adv-x="976" 
d="M524 35q197 0 353 88v-55q-160 -84 -353 -84q-184 0 -291.5 76.5t-107.5 213.5q0 105 62.5 184t172.5 105q-94 22 -148 88t-54 158q0 134 98 210.5t268 76.5q87 0 183 -21t151 -53v-55q-50 33 -148.5 55t-185.5 22q-149 0 -231 -61.5t-82 -173.5q0 -102 73 -161.5
t197 -59.5h252v-51h-241q-146 0 -230 -73t-84 -190q0 -115 92.5 -177t253.5 -62z" />
    <glyph glyph-name="zeta" unicode="&#x3b6;" horiz-adv-x="921" 
d="M895 1624v-39q-367 -370 -546 -635t-179 -442q0 -132 63.5 -206t229.5 -132l229 -82q187 -67 187 -233q0 -65 -27.5 -133t-93.5 -166h-64q131 178 131 294q0 71 -39 118.5t-122 76.5l-226 80q-177 63 -249 149t-72 232q0 184 168.5 442.5t525.5 624.5h-621v51h705z" />
    <glyph glyph-name="eta" unicode="&#x3b7;" horiz-adv-x="1191" 
d="M633 1096q170 0 272.5 -101t102.5 -272v-1167h-54v1153q0 160 -86.5 247.5t-240.5 87.5q-152 0 -255.5 -88.5t-103.5 -240.5v-715h-53v913q0 70 -24.5 98.5t-81.5 28.5q-19 0 -39 -4v47q20 4 43 4q155 0 155 -172v-32q44 99 141.5 156t223.5 57z" />
    <glyph glyph-name="theta" unicode="&#x3b8;" horiz-adv-x="1294" 
d="M647 1630q231 0 368.5 -220.5t137.5 -594.5q0 -386 -136 -608.5t-370 -222.5q-233 0 -369.5 223t-136.5 608q0 374 137.5 594.5t368.5 220.5zM647 1579q-203 0 -324.5 -196t-127.5 -533h905q-6 336 -128 532.5t-325 196.5zM647 35q206 0 328 205t125 559h-905
q3 -353 124.5 -558.5t327.5 -205.5z" />
    <glyph glyph-name="iota" unicode="&#x3b9;" horiz-adv-x="610" 
d="M508 -12q-318 0 -318 321v770h54v-764q0 -150 68.5 -214t199.5 -64q53 0 92 10v-47q-30 -12 -96 -12z" />
    <glyph glyph-name="kappa" unicode="&#x3ba;" horiz-adv-x="1087" 
d="M979 0l-432 578l-301 -334v-244h-53v1079h53v-764l690 764h68l-420 -463l456 -616h-61z" />
    <glyph glyph-name="lambda" unicode="&#x3bb;" horiz-adv-x="1075" 
d="M995 0h-55l-389 1006h-2l-438 -1006h-58l471 1073l-141 363q-30 82 -74 114.5t-114 32.5q-39 0 -72 -10v47q30 10 78 10q82 0 136 -39t91 -133z" />
    <glyph glyph-name="uni03BC" unicode="&#x3bc;" horiz-adv-x="1200" 
d="M1094 41q23 0 39 4v-47q-15 -6 -46 -6q-155 0 -155 180v27q-40 -100 -133 -157.5t-213 -57.5q-122 0 -211 55t-127 156h-2v-639h-53v1523h53v-702q0 -154 93 -247t249 -93q158 0 250 90.5t92 263.5v688h53v-905q0 -73 26 -103t85 -30z" />
    <glyph glyph-name="nu" unicode="&#x3bd;" horiz-adv-x="1062" 
d="M469 0l-412 1079h56l389 -1024h2q161 168 274 465.5t113 558.5h53q0 -277 -120 -580.5t-306 -498.5h-49z" />
    <glyph glyph-name="xi" unicode="&#x3be;" horiz-adv-x="991" 
d="M629 1581q-198 0 -306 -86t-108 -244q0 -143 106.5 -229t284.5 -86h164v-49h-160q-198 0 -324 -104t-126 -267q0 -122 69.5 -202.5t223.5 -135.5l252 -90q184 -68 184 -233q0 -64 -28.5 -133t-94.5 -166h-64q134 179 134 294q0 138 -160 195l-246 88q-168 60 -246 151
t-78 228q0 147 92.5 255.5t245.5 143.5q-131 34 -206.5 124t-75.5 214q0 182 120.5 281.5t340.5 99.5q86 0 174.5 -19.5t140.5 -51.5v-56q-46 32 -133.5 54t-175.5 24z" />
    <glyph glyph-name="omicron" unicode="&#x3bf;" horiz-adv-x="1257" 
d="M629 -16q-100 0 -192.5 40t-163 110.5t-112.5 176t-42 228.5t42 229t112 177t162.5 111t193.5 40q100 0 192 -40t162.5 -111t112 -177t41.5 -229q0 -122 -42 -227.5t-112 -176.5t-162 -111t-192 -40zM629 35q87 0 168.5 35t145 97.5t102 159.5t38.5 212t-38.5 212
t-102 160t-145 98t-168.5 35q-88 0 -170 -35t-146 -98t-102.5 -160t-38.5 -212t38.5 -212t102.5 -159.5t146 -97.5t170 -35z" />
    <glyph glyph-name="pi" unicode="&#x3c0;" horiz-adv-x="1343" 
d="M1188 37q39 0 69 10v-47q-24 -12 -77 -12q-134 0 -196 78t-62 237v727h-560v-1030h-53v1030h-274v49h1214v-49h-274v-721q0 -144 47.5 -208t165.5 -64z" />
    <glyph glyph-name="rho" unicode="&#x3c1;" horiz-adv-x="1265" 
d="M174 -444v962q0 261 130 419.5t345 158.5q213 0 354.5 -158.5t141.5 -396.5q0 -157 -64 -285t-176 -200t-250 -72q-151 0 -265 86t-161 235h-2v-749h-53zM653 35q189 0 314 144t125 362q0 217 -126 360t-317 143q-188 0 -306 -141.5t-118 -367.5q0 -218 121 -359
t307 -141z" />
    <glyph glyph-name="uni03C2" unicode="&#x3c2;" horiz-adv-x="991" 
d="M692 -444q133 182 133 294q0 137 -163 195l-222 78q-164 60 -242.5 169t-78.5 275q0 146 66 267.5t181.5 191.5t254.5 70q174 0 301 -76v-59q-124 83 -301 83q-190 0 -319.5 -138t-129.5 -339q0 -151 70.5 -248t220.5 -149l227 -82q189 -69 189 -233q0 -63 -28.5 -131.5
t-94.5 -167.5h-64z" />
    <glyph glyph-name="sigma" unicode="&#x3c3;" horiz-adv-x="1271" 
d="M1239 1079v-49h-420q137 -62 222 -191.5t85 -306.5q0 -123 -41 -227t-110.5 -173.5t-160 -108.5t-189.5 -39t-190 39t-161 108.5t-111.5 174t-41.5 226.5q0 121 41.5 225t111 173.5t160.5 109t191 39.5l8 -2l-2 2h608zM1073 532q0 213 -128.5 354.5t-319.5 141.5
t-321 -141.5t-130 -354.5t130 -355t321 -142t319.5 142t128.5 355z" />
    <glyph glyph-name="tau" unicode="&#x3c4;" horiz-adv-x="989" 
d="M928 1030h-457v-704q0 -157 68.5 -223t203.5 -66q62 0 101 10v-47q-30 -12 -105 -12q-157 0 -239 77.5t-82 251.5v713h-377v49h887v-49z" />
    <glyph glyph-name="upsilon" unicode="&#x3c5;" horiz-adv-x="1138" 
d="M567 -16q-189 0 -288 106t-99 307v682h53v-682q0 -362 334 -362q183 0 283 128.5t100 360.5q0 322 -133 555h60q127 -237 127 -555q0 -253 -116.5 -396.5t-320.5 -143.5z" />
    <glyph glyph-name="phi" unicode="&#x3c6;" horiz-adv-x="1423" 
d="M1303 539q0 -250 -158 -401.5t-406 -153.5v-428h-53v428q-249 2 -407 153.5t-158 401.5t158 401.5t407 153.5v315h53v-315q248 -2 406 -153.5t158 -401.5zM174 539q0 -229 142 -365.5t370 -138.5v1009q-228 -2 -370 -139t-142 -366zM739 35q227 2 368.5 138.5
t141.5 365.5t-141.5 366t-368.5 139v-1009z" />
    <glyph glyph-name="chi" unicode="&#x3c7;" horiz-adv-x="933" 
d="M899 -444h-57l-373 702l-348 -702h-58l379 753l-407 770h57l381 -719l354 719h54l-381 -770z" />
    <glyph glyph-name="psi" unicode="&#x3c8;" horiz-adv-x="1388" 
d="M1253 545q0 -262 -140 -409t-388 -152v-433h-53v433q-242 2 -367 115t-125 339v641h53v-641q0 -204 109 -302.5t330 -100.5v1374h53v-1374q228 5 351.5 137t123.5 373q0 298 -129 534h59q123 -243 123 -534z" />
    <glyph glyph-name="omega" unicode="&#x3c9;" horiz-adv-x="1626" 
d="M1325 1079q170 -266 170 -602q0 -236 -92.5 -364.5t-263.5 -128.5q-129 0 -211.5 75.5t-114.5 221.5q-32 -146 -114.5 -221.5t-211.5 -75.5q-171 0 -263.5 128.5t-92.5 364.5q0 337 172 602h57q-85 -128 -130.5 -283t-45.5 -319q0 -215 77.5 -328.5t225.5 -113.5
q145 0 222 113t77 325v293h54v-293q0 -212 77 -325t222 -113q149 0 226 113t77 329q0 340 -174 602h57z" />
    <glyph glyph-name="iotadieresis" unicode="&#x3ca;" horiz-adv-x="612" 
d="M66 1350q-22 0 -37 14.5t-15 34.5q0 22 15 36.5t37 14.5t36.5 -14.5t14.5 -36.5q0 -20 -14.5 -34.5t-36.5 -14.5zM391 1350q-22 0 -36.5 14.5t-14.5 34.5q0 22 14.5 36.5t36.5 14.5t36.5 -14.5t14.5 -36.5q0 -20 -14.5 -34.5t-36.5 -14.5zM510 -12q-317 0 -317 321v770
h53v-764q0 -150 68.5 -214t199.5 -64q53 0 92 10v-47q-30 -12 -96 -12z" />
    <glyph glyph-name="upsilondieresis" unicode="&#x3cb;" horiz-adv-x="1138" 
d="M358 1350q-22 0 -36.5 14.5t-14.5 34.5q0 22 14.5 36.5t36.5 14.5t37 -14.5t15 -36.5q0 -20 -15 -34.5t-37 -14.5zM684 1350q-22 0 -36.5 14.5t-14.5 34.5q0 22 14.5 36.5t36.5 14.5t36.5 -14.5t14.5 -36.5q0 -20 -14.5 -34.5t-36.5 -14.5zM567 -16q-189 0 -288 106
t-99 307v682h53v-682q0 -362 334 -362q183 0 283 128.5t100 360.5q0 322 -133 555h60q127 -237 127 -555q0 -253 -116.5 -396.5t-320.5 -143.5z" />
    <glyph glyph-name="omicrontonos" unicode="&#x3cc;" horiz-adv-x="1257" 
d="M745 1726h58l-160 -430h-45zM629 -16q-100 0 -192.5 40t-163 110.5t-112.5 176t-42 228.5t42 229t112 177t162.5 111t193.5 40q100 0 192 -40t162.5 -111t112 -177t41.5 -229q0 -122 -42 -227.5t-112 -176.5t-162 -111t-192 -40zM629 35q87 0 168.5 35t145 97.5
t102 159.5t38.5 212t-38.5 212t-102 160t-145 98t-168.5 35q-88 0 -170 -35t-146 -98t-102.5 -160t-38.5 -212t38.5 -212t102.5 -159.5t146 -97.5t170 -35z" />
    <glyph glyph-name="upsilontonos" unicode="&#x3cd;" horiz-adv-x="1138" 
d="M639 1726h57l-159 -430h-45zM567 -16q-189 0 -288 106t-99 307v682h53v-682q0 -362 334 -362q183 0 283 128.5t100 360.5q0 322 -133 555h60q127 -237 127 -555q0 -253 -116.5 -396.5t-320.5 -143.5z" />
    <glyph glyph-name="omegatonos" unicode="&#x3ce;" horiz-adv-x="1626" 
d="M985 1726l-160 -430h-45l148 430h57zM1325 1079q170 -266 170 -602q0 -236 -92.5 -364.5t-263.5 -128.5q-129 0 -211.5 75.5t-114.5 221.5q-32 -146 -114.5 -221.5t-211.5 -75.5q-171 0 -263.5 128.5t-92.5 364.5q0 337 172 602h57q-85 -128 -130.5 -283t-45.5 -319
q0 -215 77.5 -328.5t225.5 -113.5q145 0 222 113t77 325v293h54v-293q0 -212 77 -325t222 -113q149 0 226 113t77 329q0 340 -174 602h57z" />
    <glyph glyph-name="uni0401" unicode="&#x401;" horiz-adv-x="1128" 
d="M457 1792q-22 0 -36.5 14.5t-14.5 34.5q0 22 14.5 36.5t36.5 14.5t36.5 -14.5t14.5 -36.5q0 -20 -14.5 -34.5t-36.5 -14.5zM782 1792q-22 0 -36.5 14.5t-14.5 34.5q0 22 14.5 36.5t36.5 14.5t37 -14.5t15 -36.5q0 -20 -15 -34.5t-37 -14.5zM250 0v1520h715v-50h-662v-673
h625v-49h-625v-697h662v-51h-715z" />
    <glyph glyph-name="uni0402" unicode="&#x402;" horiz-adv-x="1423" 
d="M879 891q208 0 328 -110.5t120 -329.5q0 -205 -120.5 -328t-317.5 -123h-23v51h21q175 0 281 107t106 291q0 196 -105.5 293.5t-296.5 97.5q-217 0 -383 -86v-754h-53v1470h-389v50h1008v-50h-566v-661q175 82 390 82z" />
    <glyph glyph-name="uni0408" unicode="&#x408;" horiz-adv-x="892" 
d="M61 152q117 -117 267 -117q127 0 201.5 81t74.5 232v1172h53v-1178q0 -166 -89.5 -262t-239.5 -96q-154 0 -267 104v64z" />
    <glyph glyph-name="uni0409" unicode="&#x409;" horiz-adv-x="1974" 
d="M1350 877q245 0 389.5 -108.5t144.5 -313.5q0 -214 -145.5 -333.5t-390.5 -119.5h-287v1468h-686v-778q0 -347 -96.5 -519.5t-280.5 -172.5v49q56 0 102.5 19.5t88.5 66t70.5 118.5t45.5 183.5t17 255.5v828h792v-643h236zM1350 53q223 0 351 105t128 297q0 184 -127 278
t-350 94h-238v-774h236z" />
    <glyph glyph-name="uni040A" unicode="&#x40a;" horiz-adv-x="2099" 
d="M1477 838q247 0 390.5 -102.5t143.5 -301.5q0 -207 -144 -320.5t-390 -113.5h-285v788h-889v-788h-53v1520h53v-682h889v682h53v-682h232zM1479 51q223 0 351 99t128 284q0 178 -126.5 266t-352.5 88h-234v-737h234z" />
    <glyph glyph-name="uni040B" unicode="&#x40b;" horiz-adv-x="1464" 
d="M907 891q221 0 328.5 -104.5t107.5 -333.5v-453h-53v444q0 209 -92 302.5t-295 93.5q-238 0 -407 -86v-754h-54v1470h-395v50h1028v-50h-579v-661q175 82 411 82z" />
    <glyph glyph-name="uni040F" unicode="&#x40f;" horiz-adv-x="1472" 
d="M1223 1520v-1520h-461v-348h-53v348h-459v1520h53v-1469h866v1469h54z" />
    <glyph glyph-name="uni0410" unicode="&#x410;" horiz-adv-x="1370" 
d="M1329 0h-57l-228 561h-718l-228 -561h-57l616 1520h56zM686 1452l-340 -840h678z" />
    <glyph glyph-name="uni0411" unicode="&#x411;" horiz-adv-x="1210" 
d="M567 856q249 0 390 -107.5t141 -306.5q0 -207 -143.5 -324.5t-387.5 -117.5h-317v1520h758v-50h-705v-614h264zM567 51q222 0 348.5 102t126.5 289q0 178 -125 270.5t-350 92.5h-264v-754h264z" />
    <glyph glyph-name="uni0412" unicode="&#x412;" horiz-adv-x="1271" 
d="M793 784q163 -34 253.5 -135t90.5 -248q0 -174 -130.5 -287.5t-365.5 -113.5h-391v1520h373q212 0 332 -103.5t120 -273.5q0 -138 -73 -232.5t-209 -126.5zM303 1470v-665h336q98 0 173 27.5t119.5 75t66.5 106.5t22 127q0 153 -103.5 241t-287.5 88h-326zM641 51
q212 0 327 98.5t115 251.5q0 155 -115 254t-321 99h-344v-703h338z" />
    <glyph glyph-name="uni0413" unicode="&#x413;" horiz-adv-x="999" 
d="M250 0v1520h696v-50h-643v-1470h-53z" />
    <glyph glyph-name="uni0414" unicode="&#x414;" horiz-adv-x="1421" 
d="M1149 51h180v-399h-53v348h-1208v-348h-54v399h160q92 122 134 307.5t42 507.5v654h799v-1469zM403 866q0 -308 -36 -493t-131 -322h860v1419h-693v-604z" />
    <glyph glyph-name="uni0415" unicode="&#x415;" horiz-adv-x="1128" 
d="M250 0v1520h715v-50h-662v-673h625v-49h-625v-697h662v-51h-715z" />
    <glyph glyph-name="uni0416" unicode="&#x416;" horiz-adv-x="1792" 
d="M39 0l758 760l-748 760h70l749 -760l-755 -760h-74zM868 0v1520h54v-1520h-54zM1679 0l-755 760l749 760h70l-748 -760l758 -760h-74z" />
    <glyph glyph-name="uni0417" unicode="&#x417;" horiz-adv-x="1128" 
d="M662 780q144 -31 227.5 -133.5t83.5 -253.5q0 -188 -121 -299.5t-326 -111.5q-226 0 -411 141v67q80 -70 188.5 -113.5t218.5 -43.5q184 0 291 97t107 265q0 166 -111 262.5t-301 96.5h-189v51h209q154 0 253.5 98.5t99.5 251.5t-104 243.5t-279 90.5q-102 0 -196 -30.5
t-163 -86.5v64q145 104 363 104q199 0 315.5 -105.5t116.5 -277.5q0 -137 -76 -240t-196 -137z" />
    <glyph glyph-name="uni0418" unicode="&#x418;" horiz-adv-x="1591" 
d="M250 0v1520h51v-1434h2l979 1434h59v-1520h-53v1438h-2l-981 -1438h-55z" />
    <glyph glyph-name="uni0419" unicode="&#x419;" horiz-adv-x="1591" 
d="M1092 2013q-6 -134 -86 -202t-205 -68q-124 0 -203.5 68t-85.5 202h53q6 -110 67 -168.5t169 -58.5q109 0 170 58.5t67 168.5h54zM250 0v1520h51v-1434h2l979 1434h59v-1520h-53v1438h-2l-981 -1438h-55z" />
    <glyph glyph-name="uni041A" unicode="&#x41a;" horiz-adv-x="1228" 
d="M303 1520v-1520h-53v1520h53zM1180 1520l-805 -760l815 -760h-74l-813 760l807 760h70z" />
    <glyph glyph-name="uni041B" unicode="&#x41b;" horiz-adv-x="1368" 
d="M-4 -6v49q70 0 126 32.5t101.5 104.5t70.5 200t25 306v834h799v-1520h-53v1470h-692v-784q0 -346 -96.5 -519t-280.5 -173z" />
    <glyph glyph-name="uni041C" unicode="&#x41c;" horiz-adv-x="1935" 
d="M424 1430l-234 -1430h-55l250 1520h64l522 -1434h2l508 1434h65l254 -1520h-55l-236 1434h-4l-510 -1434h-49l-520 1430h-2z" />
    <glyph glyph-name="uni041D" unicode="&#x41d;" horiz-adv-x="1570" 
d="M1268 0v756h-965v-756h-53v1520h53v-713h965v713h53v-1520h-53z" />
    <glyph glyph-name="uni041E" unicode="&#x41e;" horiz-adv-x="1716" 
d="M858 -18q-152 0 -285.5 58.5t-229 160.5t-151 247t-55.5 312t55.5 312t151 247t229 160.5t285.5 58.5q151 0 284.5 -58.5t229.5 -160.5t151.5 -247t55.5 -312t-55.5 -312t-151.5 -247t-229.5 -160.5t-284.5 -58.5zM858 33q137 0 259 53t212.5 146.5t143.5 230.5t53 297
t-53 297t-143.5 230.5t-212.5 146.5t-259 53t-259.5 -53t-213 -146.5t-143 -230.5t-52.5 -297t52.5 -297t143 -230.5t213 -146.5t259.5 -53z" />
    <glyph glyph-name="uni041F" unicode="&#x41f;" horiz-adv-x="1523" 
d="M1221 0v1470h-918v-1470h-53v1520h1024v-1520h-53z" />
    <glyph glyph-name="uni0420" unicode="&#x420;" horiz-adv-x="1179" 
d="M250 0v1520h303q242 0 388 -119.5t146 -331.5q0 -220 -145.5 -343.5t-390.5 -123.5h-248v-602h-53zM553 653q222 0 350.5 109t128.5 305q0 191 -128.5 297t-348.5 106h-252v-817h250z" />
    <glyph glyph-name="uni0421" unicode="&#x421;" horiz-adv-x="1359" 
d="M1262 86q-167 -104 -390 -104q-110 0 -216.5 32.5t-200 99t-164.5 158.5t-112.5 218.5t-41.5 271.5q0 179 63 329t166 246t231 148.5t263 52.5q238 0 402 -104v-58q-171 111 -402 111q-98 0 -193.5 -30t-181.5 -91t-152 -145.5t-104.5 -203.5t-38.5 -255q0 -137 39 -256
t106 -204.5t154 -147t184.5 -91.5t196.5 -30q218 0 392 112v-59z" />
    <glyph glyph-name="uni0422" unicode="&#x422;" horiz-adv-x="1169" 
d="M557 0v1470h-510v50h1075v-50h-512v-1470h-53z" />
    <glyph glyph-name="uni0423" unicode="&#x423;" horiz-adv-x="1286" 
d="M1206 1520h58l-531 -1192q-78 -177 -179 -254.5t-255 -77.5v49q137 0 225.5 69t161.5 234l-639 1172h59l607 -1114z" />
    <glyph glyph-name="uni0424" unicode="&#x424;" horiz-adv-x="1703" 
d="M879 1427q199 0 361 -82t255.5 -230t93.5 -333q0 -184 -93.5 -332t-255.5 -230.5t-361 -82.5v-160h-54v160q-199 0 -361 82.5t-255.5 230.5t-93.5 332q0 185 93.5 333t255.5 230t361 82v160h54v-160zM825 186v1192q-183 0 -332.5 -75.5t-236 -212t-86.5 -308.5
q0 -171 86.5 -308t236 -212.5t332.5 -75.5zM879 186q138 0 259 44.5t208.5 122.5t138.5 189.5t51 239.5q0 172 -86.5 308.5t-236.5 212t-334 75.5v-1192z" />
    <glyph glyph-name="uni0425" unicode="&#x425;" horiz-adv-x="1259" 
d="M61 0l537 766l-528 754h61l500 -713l495 713h60l-527 -752l541 -768h-63l-508 725l-506 -725h-62z" />
    <glyph glyph-name="uni0426" unicode="&#x426;" horiz-adv-x="1497" 
d="M1223 51h182v-399h-51v348h-1104v1520h53v-1469h866v1469h54v-1469z" />
    <glyph glyph-name="uni0427" unicode="&#x427;" horiz-adv-x="1259" 
d="M954 1520h56v-1520h-56v709q-178 -82 -401 -82q-221 0 -326.5 106t-105.5 336v451h53v-447q0 -208 91.5 -301.5t293.5 -93.5q110 0 215 23.5t180 62.5v756z" />
    <glyph glyph-name="uni0428" unicode="&#x428;" horiz-adv-x="1961" 
d="M1659 1520h53v-1520h-1462v1520h53v-1469h651v1469h54v-1469h651v1469z" />
    <glyph glyph-name="uni0429" unicode="&#x429;" horiz-adv-x="1974" 
d="M1700 51h182v-399h-51v348h-1581v1520h53v-1469h645v1469h53v-1469h646v1469h53v-1469z" />
    <glyph glyph-name="uni042A" unicode="&#x42a;" horiz-adv-x="1443" 
d="M817 877q246 0 390.5 -109t144.5 -315q0 -214 -146 -333.5t-391 -119.5h-301v1470h-469v50h522v-643h250zM817 51q223 0 352 105t129 297q0 184 -128 279t-351 95h-252v-776h250z" />
    <glyph glyph-name="uni042B" unicode="&#x42b;" horiz-adv-x="1636" 
d="M539 877q246 0 390 -109t144 -315q0 -214 -145.5 -333.5t-390.5 -119.5h-287v1520h53v-643h236zM1333 1520h53v-1520h-53v1520zM539 51q223 0 352 105t129 297q0 184 -128 279t-351 95h-238v-776h236z" />
    <glyph glyph-name="uni042C" unicode="&#x42c;" horiz-adv-x="1185" 
d="M559 877q252 0 393.5 -111t141.5 -313q0 -211 -144 -332t-391 -121h-309v1520h53v-643h256zM561 51q225 0 352 106t127 296q0 181 -124.5 277.5t-354.5 96.5h-258v-776h258z" />
    <glyph glyph-name="uni042D" unicode="&#x42d;" horiz-adv-x="1406" 
d="M537 1536q142 0 271.5 -50t233.5 -144t166 -244.5t62 -335.5q0 -187 -63 -338t-169 -245.5t-239 -144.5t-279 -50q-225 0 -399 104v55q171 -108 399 -108q107 0 207 28t188 86t153.5 141t104.5 200t41 255h-839v52h839q-4 134 -43.5 247.5t-104 193.5t-150 136.5
t-181.5 83.5t-198 27q-245 0 -416 -109v58q181 102 416 102z" />
    <glyph glyph-name="uni042E" unicode="&#x42e;" horiz-adv-x="2181" 
d="M1352 1536q144 0 272 -57.5t220.5 -158.5t146 -246.5t53.5 -313.5q0 -167 -53.5 -312.5t-146 -246.5t-220.5 -159t-272 -58q-142 0 -267.5 56t-217.5 154.5t-146.5 239t-58.5 303.5h-359v-737h-53v1520h53v-732h359q6 217 98.5 388.5t247.5 265.5t344 94zM1352 35
q181 0 327 93.5t228 259.5t82 372q0 155 -48 290t-132.5 230.5t-202.5 150t-254 54.5t-254 -54.5t-201.5 -150t-131.5 -230.5t-48 -290q0 -206 81.5 -372t227 -259.5t326.5 -93.5z" />
    <glyph glyph-name="uni042F" unicode="&#x42f;" horiz-adv-x="1189" 
d="M631 1520h309v-1520h-53v737l-719 -737h-74l688 702h-153q-243 0 -364.5 107t-121.5 301q0 185 123.5 297.5t364.5 112.5zM635 752h252v718h-256q-221 0 -327.5 -97.5t-106.5 -262.5q0 -358 438 -358z" />
    <glyph glyph-name="uni0430" unicode="&#x430;" horiz-adv-x="1308" 
d="M612 -16q-95 0 -183.5 39.5t-157 109.5t-109.5 176t-41 230q0 126 40.5 232.5t109 176.5t157 109t184.5 39q146 0 269.5 -87t175.5 -245l6 315h45v-1079h-45l-6 315q-52 -158 -175 -244.5t-270 -86.5zM616 35q87 0 166.5 35.5t140.5 99t97.5 160t36.5 211.5
q0 114 -36 210t-97 159.5t-141 98.5t-169 35q-87 0 -166.5 -35t-140.5 -98.5t-97 -160t-36 -211.5q0 -113 36.5 -209.5t98 -160t141 -99t166.5 -35.5z" />
    <glyph glyph-name="uni0431" unicode="&#x431;" horiz-adv-x="1290" 
d="M678 1075q216 0 352.5 -154.5t136.5 -390.5q0 -237 -140.5 -391.5t-356.5 -154.5q-229 0 -368.5 169t-139.5 451q0 188 19 328t55.5 239.5t97.5 169t135.5 112.5t179.5 75q182 56 455 108v-51q-69 -12 -211 -45t-244 -63q-142 -44 -229 -120t-138.5 -221.5t-62.5 -375.5
q55 144 180.5 229.5t278.5 85.5zM668 35q196 0 321 139t125 356q0 213 -122.5 353.5t-313.5 140.5q-192 0 -326.5 -135t-134.5 -330q0 -226 128 -375t323 -149z" />
    <glyph glyph-name="uni0432" unicode="&#x432;" horiz-adv-x="1054" 
d="M688 557q114 -24 180 -93.5t66 -172.5q0 -135 -100 -213t-273 -78h-360v1079h352q161 0 250.5 -69t89.5 -195q0 -97 -55 -166t-150 -92zM254 1030v-450h309q127 0 202 61.5t75 169.5t-75 163.5t-216 55.5h-295zM557 49q154 0 239 63.5t85 182.5q0 110 -87.5 172.5
t-236.5 62.5h-303v-481h303z" />
    <glyph glyph-name="uni0433" unicode="&#x433;" horiz-adv-x="798" 
d="M201 0v1079h555v-47h-502v-1032h-53z" />
    <glyph glyph-name="uni0434" unicode="&#x434;" horiz-adv-x="1118" 
d="M891 49h143v-315h-53v266h-897v-266h-53v315h123q66 92 94 215t28 324v491h615v-1030zM330 588q0 -193 -28.5 -321t-88.5 -218h625v981h-508v-442z" />
    <glyph glyph-name="uni0435" unicode="&#x435;" horiz-adv-x="1173" 
d="M1055 563q0 -9 -1 -23t-1 -16h-877q4 -226 131 -357.5t326 -131.5q226 0 395 155v-61q-173 -145 -397 -145t-366 150.5t-142 404.5q0 126 40.5 232.5t109 176.5t157 109t184.5 39q89 0 167.5 -34.5t140 -99.5t97.5 -168t36 -231zM176 573h825q0 116 -32 208t-86.5 149
t-123 87t-145.5 30q-82 0 -158.5 -33t-137 -93t-99 -150.5t-43.5 -197.5z" />
    <glyph glyph-name="uni0436" unicode="&#x436;" horiz-adv-x="1386" 
d="M72 1079h69l533 -522l-559 -557h-74l565 557zM674 1079h53v-1079h-53v1079zM1329 1079l-534 -522l563 -557h-72l-559 557l533 522h69z" />
    <glyph glyph-name="uni0437" unicode="&#x437;" horiz-adv-x="942" 
d="M578 557q110 -21 175.5 -95.5t65.5 -185.5q0 -130 -97 -211t-257 -81q-201 0 -365 127v61q78 -64 173.5 -100.5t193.5 -36.5q137 0 218 67t81 181q0 111 -81.5 179t-215.5 68h-182v50h186q110 0 182 69t72 174q0 100 -80 160.5t-213 60.5q-163 0 -307 -100v60
q145 92 309 92q157 0 250.5 -75t93.5 -196q0 -97 -56.5 -171.5t-145.5 -96.5z" />
    <glyph glyph-name="uni0438" unicode="&#x438;" horiz-adv-x="1193" 
d="M201 0v1079h53v-997h2l682 997h55v-1079h-51v993h-2l-680 -993h-59z" />
    <glyph glyph-name="uni0439" unicode="&#x439;" horiz-adv-x="1193" 
d="M887 1571q-6 -134 -86 -202.5t-205 -68.5q-124 0 -203.5 68.5t-85.5 202.5h53q6 -110 67.5 -169t168.5 -59q109 0 170.5 59t67.5 169h53zM201 0v1079h53v-997h2l682 997h55v-1079h-51v993h-2l-680 -993h-59z" />
    <glyph glyph-name="uni043A" unicode="&#x43a;" horiz-adv-x="954" 
d="M254 1079v-1079h-53v1079h53zM899 1079l-575 -522l604 -557h-74l-600 557l573 522h72z" />
    <glyph glyph-name="uni043B" unicode="&#x43b;" horiz-adv-x="1060" 
d="M27 -6v49q223 0 223 436v600h610v-1079h-53v1030h-504v-549q0 -487 -276 -487z" />
    <glyph glyph-name="uni043C" unicode="&#x43c;" horiz-adv-x="1400" 
d="M141 0l125 1079h62l372 -975h2l373 975h58l124 -1079h-51l-112 985h-2l-369 -965h-47l-369 967h-2l-110 -987h-54z" />
    <glyph glyph-name="uni043D" unicode="&#x43d;" horiz-adv-x="1173" 
d="M201 0v1079h53v-504h666v504h53v-1079h-53v528h-666v-528h-53z" />
    <glyph glyph-name="uni043E" unicode="&#x43e;" horiz-adv-x="1257" 
d="M629 -16q-100 0 -192.5 40t-163 110.5t-112.5 176t-42 228.5t42 229t112 177t162.5 111t193.5 40q100 0 192 -40t162.5 -111t112 -177t41.5 -229q0 -122 -42 -227.5t-112 -176.5t-162 -111t-192 -40zM629 35q87 0 168.5 35t145 97.5t102 159.5t38.5 212t-38.5 212
t-102 160t-145 98t-168.5 35q-88 0 -170 -35t-146 -98t-102.5 -160t-38.5 -212t38.5 -212t102.5 -159.5t146 -97.5t170 -35z" />
    <glyph glyph-name="uni043F" unicode="&#x43f;" horiz-adv-x="1157" 
d="M201 0v1079h755v-1079h-53v1030h-649v-1030h-53z" />
    <glyph glyph-name="uni0440" unicode="&#x440;" horiz-adv-x="1308" 
d="M203 -444v1523h43l6 -319h2q34 108 104.5 185.5t158 114t183.5 36.5q95 0 183 -39t156 -109.5t108.5 -176t40.5 -230.5q0 -126 -41 -232.5t-109 -176.5t-156 -109t-184 -39q-146 0 -268.5 86t-173.5 241v-755h-53zM696 35q87 0 166 35.5t140 99t97 160t36 211.5
q0 113 -36 209t-96.5 159.5t-140 99t-166.5 35.5q-88 0 -168 -35t-141.5 -98.5t-98 -160t-36.5 -211.5q0 -114 36.5 -210t98 -159.5t141.5 -99t168 -35.5z" />
    <glyph glyph-name="uni0441" unicode="&#x441;" horiz-adv-x="1032" 
d="M174 541q0 -113 37.5 -209t101 -160.5t147 -100.5t175.5 -36q170 0 291 86v-60q-124 -77 -291 -77q-140 0 -257 69.5t-187 198t-70 289.5q0 158 69 285.5t186 198.5t257 71q162 0 293 -76v-59q-126 83 -295 83q-91 0 -174 -36.5t-146 -101.5t-100 -160t-37 -205z" />
    <glyph glyph-name="uni0442" unicode="&#x442;" horiz-adv-x="860" 
d="M403 0v1030h-358v49h772v-49h-360v-1030h-54z" />
    <glyph glyph-name="uni0443" unicode="&#x443;" horiz-adv-x="1017" 
d="M944 1079l-594 -1523h-53l190 489l-413 1034h57l383 -964h2l373 964h55z" />
    <glyph glyph-name="uni0444" unicode="&#x444;" horiz-adv-x="1398" 
d="M1278 539q0 -164 -79 -292.5t-204 -195t-270 -67.5v-428h-53v428q-144 1 -269 67.5t-204.5 195t-79.5 292.5q0 124 46 230t123 176t176.5 109t207.5 40v530h53v-530q87 -1 168.5 -25.5t151 -72.5t122 -114t82 -154.5t29.5 -188.5zM172 539q0 -112 41 -207.5t110 -159.5
t159.5 -100t189.5 -37v1009q-133 -1 -246 -61.5t-183.5 -177t-70.5 -266.5zM725 35q134 1 247 62t183 177t70 265q0 150 -70 266.5t-183 177t-247 61.5v-1009z" />
    <glyph glyph-name="uni0445" unicode="&#x445;" horiz-adv-x="970" 
d="M897 1079l-381 -532l389 -547h-59l-359 504h-2l-358 -504h-59l387 543l-381 536h59l352 -495h2l353 495h57z" />
    <glyph glyph-name="uni0446" unicode="&#x446;" horiz-adv-x="1163" 
d="M938 49h141v-315h-53v266h-825v1079h53v-1030h631v1030h53v-1030z" />
    <glyph glyph-name="uni0447" unicode="&#x447;" horiz-adv-x="1011" 
d="M758 1079h53v-1079h-53v492q-132 -58 -309 -58q-343 0 -343 340v305h54v-297q0 -156 72 -227.5t227 -71.5q175 0 299 62v534z" />
    <glyph glyph-name="uni0448" unicode="&#x448;" horiz-adv-x="1574" 
d="M1321 1079h53v-1079h-1173v1079h53v-1030h508v1030h53v-1030h506v1030z" />
    <glyph glyph-name="uni0449" unicode="&#x449;" horiz-adv-x="1593" 
d="M1366 49h143v-315h-53v266h-1255v1079h53v-1030h504v1030h53v-1030h502v1030h53v-1030z" />
    <glyph glyph-name="uni044A" unicode="&#x44a;" horiz-adv-x="1120" 
d="M672 629q170 0 266 -85.5t96 -228.5q0 -142 -107 -228.5t-280 -86.5h-274v1030h-328v49h381v-450h246zM649 49q150 0 241 72t91 194q0 124 -80.5 194.5t-228.5 70.5h-246v-531h223z" />
    <glyph glyph-name="uni044B" unicode="&#x44b;" horiz-adv-x="1300" 
d="M489 629q170 0 266.5 -85.5t96.5 -228.5q0 -142 -107 -228.5t-278 -86.5h-266v1079h53v-450h235zM1047 1079h53v-1079h-53v1079zM467 49q150 0 241 72t91 194q0 124 -81 194.5t-229 70.5h-235v-531h213z" />
    <glyph glyph-name="uni044C" unicode="&#x44c;" horiz-adv-x="954" 
d="M506 629q170 0 266 -85.5t96 -228.5q0 -142 -107 -228.5t-278 -86.5h-282v1079h53v-450h252zM483 49q150 0 241 72t91 194q0 124 -80.5 194.5t-228.5 70.5h-252v-531h229z" />
    <glyph glyph-name="uni044D" unicode="&#x44d;" horiz-adv-x="1054" 
d="M412 1096q228 0 375 -153.5t147 -401.5q0 -126 -40 -231t-110.5 -176t-167 -110.5t-208.5 -39.5q-174 0 -299 77v60q124 -86 299 -86q205 0 337 133t136 356h-609v49h609q-10 213 -140 342t-329 129q-175 0 -303 -81v57q131 76 303 76z" />
    <glyph glyph-name="uni044E" unicode="&#x44e;" horiz-adv-x="1646" 
d="M1028 1094q97 0 186.5 -39t159 -109t111 -176t41.5 -231t-42 -231t-111.5 -176t-159 -109t-185.5 -39q-95 0 -183 37.5t-157.5 105.5t-112 170.5t-45.5 224.5h-276v-522h-53v1079h53v-508h276q6 119 49.5 219t112 165.5t155.5 102t181 36.5zM1028 35q189 0 317 144.5
t128 359.5q0 218 -127 360.5t-318 142.5q-190 0 -317 -143.5t-127 -359.5q0 -215 127.5 -359.5t316.5 -144.5z" />
    <glyph glyph-name="uni044F" unicode="&#x44f;" horiz-adv-x="983" 
d="M479 1079h303v-1079h-53v520l-569 -520h-72l537 483h-152q-169 0 -256.5 77.5t-87.5 219.5q0 140 92 219.5t258 79.5zM479 530h250v500h-250q-151 0 -224 -68t-73 -182q0 -250 297 -250z" />
    <glyph glyph-name="uni0451" unicode="&#x451;" horiz-adv-x="1173" 
d="M449 1350q-22 0 -37 14.5t-15 34.5q0 22 15 36.5t37 14.5t36.5 -14.5t14.5 -36.5q0 -20 -14.5 -34.5t-36.5 -14.5zM774 1350q-22 0 -36.5 14.5t-14.5 34.5q0 22 14.5 36.5t36.5 14.5t36.5 -14.5t14.5 -36.5q0 -20 -14.5 -34.5t-36.5 -14.5zM1055 563q0 -9 -1 -23t-1 -16
h-877q4 -226 131 -357.5t326 -131.5q226 0 395 155v-61q-173 -145 -397 -145t-366 150.5t-142 404.5q0 126 40.5 232.5t109 176.5t157 109t184.5 39q89 0 167.5 -34.5t140 -99.5t97.5 -168t36 -231zM176 573h825q0 116 -32 208t-86.5 149t-123 87t-145.5 30
q-82 0 -158.5 -33t-137 -93t-99 -150.5t-43.5 -197.5z" />
    <glyph glyph-name="uni0452" unicode="&#x452;" horiz-adv-x="1175" 
d="M618 1096q170 0 270.5 -99.5t100.5 -275.5v-615q0 -183 -42.5 -314t-125.5 -236h-69q93 100 138.5 233t45.5 317v601q0 162 -85 249.5t-237 87.5q-97 0 -177 -35.5t-131.5 -110t-51.5 -175.5v-723h-53v1296h-193v50h193v278h53v-278h371v-50h-371v-409h2q43 98 142 153.5
t220 55.5z" />
    <glyph glyph-name="uni0458" unicode="&#x458;" horiz-adv-x="454" 
d="M229 1436q-22 0 -36.5 13.5t-14.5 35.5t14.5 36.5t36.5 14.5t37 -14.5t15 -36.5q0 -21 -15 -35t-37 -14zM16 -444q94 100 140.5 233t46.5 317v973h53v-973q0 -184 -42.5 -315t-127.5 -235h-70z" />
    <glyph glyph-name="uni0459" unicode="&#x459;" horiz-adv-x="1542" 
d="M1092 629q170 0 267 -85.5t97 -228.5q0 -142 -108 -228.5t-279 -86.5h-264v1030h-500v-545q1 -244 -69.5 -364.5t-206.5 -120.5v49q226 0 223 436v594h606v-450h234zM1071 49q149 0 240.5 72t91.5 194q0 124 -80.5 194.5t-228.5 70.5h-236v-531h213z" />
    <glyph glyph-name="uni045A" unicode="&#x45a;" horiz-adv-x="1622" 
d="M1176 606q171 0 266.5 -79.5t95.5 -219.5q0 -139 -107 -223t-278 -84h-266v559h-633v-559h-53v1079h53v-473h633v473h53v-473h236zM1153 49q150 0 241 69.5t91 188.5q0 122 -80 187t-229 65h-236v-510h213z" />
    <glyph glyph-name="uni045B" unicode="&#x45b;" horiz-adv-x="1177" 
d="M618 1096q170 0 270.5 -99.5t100.5 -275.5v-721h-53v707q0 162 -85 249.5t-237 87.5q-97 0 -177 -35.5t-131.5 -110t-51.5 -175.5v-723h-53v1296h-193v50h193v278h53v-278h371v-50h-371v-409h2q43 98 142 153.5t220 55.5z" />
    <glyph glyph-name="uni045F" unicode="&#x45f;" horiz-adv-x="1138" 
d="M938 1079v-1079h-342v-266h-53v266h-342v1079h53v-1030h631v1030h53z" />
    <glyph glyph-name="Wgrave" unicode="&#x1e80;" horiz-adv-x="2107" 
d="M903 2042l248 -326h-51l-260 326h63zM1532 0l-477 1436l-477 -1436h-60l-452 1520h57l424 -1438h2l479 1438h53l480 -1438h2l426 1438h55l-453 -1520h-59z" />
    <glyph glyph-name="wgrave" unicode="&#x1e81;" horiz-adv-x="1648" 
d="M672 1602l248 -326h-52l-260 326h64zM1184 0l-359 1008h-2l-358 -1008h-59l-316 1079h53l293 -1013h2l359 1013h55l360 -1013h2l291 1013h54l-318 -1079h-57z" />
    <glyph glyph-name="Wacute" unicode="&#x1e82;" horiz-adv-x="2107" 
d="M1206 2042h64l-260 -326h-52zM1532 0l-477 1436l-477 -1436h-60l-452 1520h57l424 -1438h2l479 1438h53l480 -1438h2l426 1438h55l-453 -1520h-59z" />
    <glyph glyph-name="wacute" unicode="&#x1e83;" horiz-adv-x="1648" 
d="M975 1602h63l-260 -326h-51zM1184 0l-359 1008h-2l-358 -1008h-59l-316 1079h53l293 -1013h2l359 1013h55l360 -1013h2l291 1013h54l-318 -1079h-57z" />
    <glyph glyph-name="Wdieresis" unicode="&#x1e84;" horiz-adv-x="2107" 
d="M893 1790q-22 0 -36.5 14.5t-14.5 34.5q0 22 14.5 36.5t36.5 14.5t36.5 -14.5t14.5 -36.5q0 -20 -14.5 -34.5t-36.5 -14.5zM1219 1790q-22 0 -37 14.5t-15 34.5q0 22 15 36.5t37 14.5t36.5 -14.5t14.5 -36.5q0 -20 -14.5 -34.5t-36.5 -14.5zM1532 0l-477 1436l-477 -1436
h-60l-452 1520h57l424 -1438h2l479 1438h53l480 -1438h2l426 1438h55l-453 -1520h-59z" />
    <glyph glyph-name="wdieresis" unicode="&#x1e85;" horiz-adv-x="1648" 
d="M662 1350q-22 0 -37 14.5t-15 34.5q0 22 15 36.5t37 14.5t36.5 -14.5t14.5 -36.5q0 -20 -14.5 -34.5t-36.5 -14.5zM987 1350q-22 0 -36.5 14.5t-14.5 34.5q0 22 14.5 36.5t36.5 14.5t36.5 -14.5t14.5 -36.5q0 -20 -14.5 -34.5t-36.5 -14.5zM1184 0l-359 1008h-2
l-358 -1008h-59l-316 1079h53l293 -1013h2l359 1013h55l360 -1013h2l291 1013h54l-318 -1079h-57z" />
    <glyph glyph-name="uni1E9E" unicode="&#x1e9e;" horiz-adv-x="1470" 
d="M874 819q217 0 353.5 -115t136.5 -298q0 -178 -127.5 -300t-327.5 -122q-116 0 -223.5 42.5t-191.5 116.5v66q87 -80 193.5 -127t221.5 -47q173 0 287.5 107t114.5 266q0 163 -123.5 264.5t-323.5 101.5h-129l447 582q-150 135 -377 135q-233 0 -378.5 -153t-145.5 -388
v-950h-54v954q0 166 72 300t205 211t303 77q121 0 235.5 -43t204.5 -131l-420 -549h47z" />
    <glyph glyph-name="Ygrave" unicode="&#x1ef2;" horiz-adv-x="1214" 
d="M455 2042l247 -326h-51l-260 326h64zM582 0v676l-547 844h59l512 -789h2l508 789h60l-543 -844v-676h-51z" />
    <glyph glyph-name="ygrave" unicode="&#x1ef3;" horiz-adv-x="1015" 
d="M358 1602l248 -326h-51l-260 326h63zM944 1079l-594 -1523h-53l190 489l-413 1034h57l383 -964h2l373 964h55z" />
    <glyph glyph-name="endash" unicode="&#x2013;" horiz-adv-x="1079" 
d="M170 580v51h737v-51h-737z" />
    <glyph glyph-name="emdash" unicode="&#x2014;" horiz-adv-x="1685" 
d="M170 580v51h1346v-51h-1346z" />
    <glyph glyph-name="quoteleft" unicode="&#x2018;" horiz-adv-x="417" 
d="M303 1520q-92 -234 -92 -426v-68h-53v68q0 183 100 426h45z" />
    <glyph glyph-name="quoteright" unicode="&#x2019;" horiz-adv-x="421" 
d="M139 1026q92 234 92 426v68h54v-68q0 -180 -101 -426h-45z" />
    <glyph glyph-name="quotesinglbase" unicode="&#x201a;" horiz-adv-x="411" 
d="M90 -272q92 234 92 426v67h54v-67q0 -180 -101 -426h-45z" />
    <glyph glyph-name="quotedblleft" unicode="&#x201c;" horiz-adv-x="677" 
d="M303 1520q-92 -234 -92 -426v-68h-53v68q0 183 100 426h45zM563 1520q-92 -234 -92 -426v-68h-53v68q0 183 100 426h45z" />
    <glyph glyph-name="quotedblright" unicode="&#x201d;" horiz-adv-x="673" 
d="M139 1026q92 234 92 426v68h54v-68q0 -180 -101 -426h-45zM393 1026q92 234 92 426v68h54v-68q0 -180 -101 -426h-45z" />
    <glyph glyph-name="quotedblbase" unicode="&#x201e;" horiz-adv-x="690" 
d="M90 -274q92 234 92 426v67h54v-67q0 -180 -101 -426h-45zM367 -274q92 234 92 426v67h53v-67q0 -183 -100 -426h-45z" />
    <glyph glyph-name="dagger" unicode="&#x2020;" horiz-adv-x="958" 
d="M453 -416v1444h-365v51h365v457h53v-457h364v-51h-364v-1444h-53z" />
    <glyph glyph-name="daggerdbl" unicode="&#x2021;" horiz-adv-x="1081" 
d="M567 1536v-457h365v-51h-365v-936h365v-49h-365v-459h-53v459h-364v49h364v936h-364v51h364v457h53z" />
    <glyph glyph-name="bullet" unicode="&#x2022;" horiz-adv-x="948" 
d="M199 760q0 116 80.5 196t195.5 80q116 0 196.5 -80.5t80.5 -195.5q0 -116 -81 -196.5t-196 -80.5t-195.5 80.5t-80.5 196.5z" />
    <glyph glyph-name="ellipsis" unicode="&#x2026;" horiz-adv-x="1374" 
d="M227 -6q-28 0 -47.5 19t-19.5 48t19.5 48.5t47.5 19.5q29 0 49.5 -19.5t20.5 -48.5t-20 -48t-50 -19zM686 -6q-28 0 -48 19t-20 48t20 48.5t48 19.5q29 0 49.5 -19.5t20.5 -48.5t-20 -48t-50 -19zM1145 -6q-28 0 -48 19t-20 48t20 48.5t48 19.5q29 0 49 -19.5t20 -48.5
t-20 -48t-49 -19z" />
    <glyph glyph-name="perthousand" unicode="&#x2030;" horiz-adv-x="2433" 
d="M770 1174q0 -158 -97 -261.5t-237 -103.5q-143 0 -239.5 103t-96.5 262q0 157 96.5 260.5t239.5 103.5q140 0 237 -104t97 -260zM291 0l999 1520h58l-1000 -1520h-57zM721 1174q0 139 -83.5 229t-201.5 90q-122 0 -204 -89.5t-82 -229.5t82.5 -230t203.5 -90
q118 0 201.5 91t83.5 229zM1538 346q0 -158 -96.5 -261t-237.5 -103q-143 0 -239.5 102.5t-96.5 261.5q0 157 96.5 261t239.5 104q141 0 237.5 -104t96.5 -261zM2347 346q0 -158 -96.5 -261t-237.5 -103q-143 0 -239.5 102.5t-96.5 261.5q0 157 96.5 261t239.5 104
q141 0 237.5 -104t96.5 -261zM1491 346q0 139 -84.5 229.5t-202.5 90.5q-121 0 -203.5 -90t-82.5 -230t83 -229.5t203 -89.5q118 0 202.5 90.5t84.5 228.5zM2300 346q0 139 -84.5 229.5t-202.5 90.5q-121 0 -204 -90t-83 -230t83 -229.5t204 -89.5q118 0 202.5 90.5
t84.5 228.5z" />
    <glyph glyph-name="guilsinglleft" unicode="&#x2039;" horiz-adv-x="722" 
d="M571 954v-59l-421 -356l421 -357v-59l-465 393v45z" />
    <glyph glyph-name="guilsinglright" unicode="&#x203a;" horiz-adv-x="722" 
d="M152 121v59l421 357l-421 356v59l464 -393v-45z" />
    <glyph glyph-name="fraction" unicode="&#x2044;" horiz-adv-x="333" 
d="M-356 0l999 1520h55l-999 -1520h-55z" />
    <glyph glyph-name="Euro" unicode="&#x20ac;" horiz-adv-x="1404" 
d="M965 1487q-230 0 -387 -155t-201 -400h700v-49h-706q-9 -59 -9 -121q0 -46 7 -111h708v-49h-702q41 -253 199 -411t391 -158q171 0 280 73v-57q-111 -67 -282 -67q-168 0 -305 82t-221.5 221.5t-112.5 316.5h-209v49h202q-6 55 -6 111q0 62 6 121h-202v49h211
q44 267 215.5 436.5t421.5 169.5q172 0 282 -68v-57q-112 74 -280 74z" />
    <glyph glyph-name="uni20B9" unicode="&#x20b9;" horiz-adv-x="1298" 
d="M1180 1520v-47h-490q108 -46 167 -134.5t65 -203.5h258v-50h-258q-8 -185 -135 -284t-361 -99h-156l699 -702h-74l-743 752h276q214 0 323 85.5t117 247.5h-714v50h714q-10 154 -116.5 244.5t-317.5 90.5h-280v50h1026z" />
    <glyph glyph-name="uni20BA" unicode="&#x20ba;" horiz-adv-x="1263" 
d="M1167 657q13 -298 -160.5 -477.5t-474.5 -179.5h-159v535l-248 -144v60l248 143v235l-248 -143v59l248 144v631h53v-600l387 223v-60l-387 -223v-235l387 223v-60l-387 -223v-514h94q281 0 441 163t151 443h55z" />
    <glyph glyph-name="uni20BD" unicode="&#x20bd;" horiz-adv-x="1300" 
d="M674 606h-252v-256h360v-47h-360v-303h-53v303h-244v47h244v256h-244v49h244v865h305q242 0 386 -120t144 -331q0 -217 -144 -340t-386 -123zM422 1470v-815h250q222 0 350.5 108t128.5 304q0 191 -129 297t-350 106h-250z" />
    <glyph glyph-name="trademark" unicode="&#x2122;" horiz-adv-x="1863" 
d="M680 1520v-47h-272v-830h-50v830h-270v47h592zM1556 1520l148 -877h-49l-133 797h-2l-281 -797h-43l-283 797h-2l-131 -797h-47l144 877h57l285 -801h2l278 801h57z" />
    <glyph glyph-name="uni2126" unicode="&#x2126;" horiz-adv-x="1718" 
d="M1135 51h460v-51h-571v41q92 41 176.5 111.5t153.5 165.5t110.5 218.5t42.5 256.5q2 205 -80.5 363.5t-230.5 244.5t-338 86q-142 0 -262.5 -50.5t-205.5 -140.5t-132.5 -219.5t-46.5 -283.5q1 -133 42.5 -256.5t110.5 -218.5t153.5 -165.5t176.5 -111.5v-41h-573v51h463
q-185 103 -306.5 304t-121.5 440q-1 219 88 388.5t249 262t365 92.5q312 0 508 -206t195 -537q0 -238 -121.5 -439.5t-304.5 -304.5z" />
    <glyph glyph-name="arrowleft" unicode="&#x2190;" horiz-adv-x="1566" 
d="M705 1479h69l-633 -664l1426 2v-53h-1426l633 -660h-69l-658 687z" />
    <glyph glyph-name="arrowup" unicode="&#x2191;" horiz-adv-x="1566" 
d="M1470 862v-69l-663 632l2 -1425h-53v1425l-660 -632v69l686 658z" />
    <glyph glyph-name="arrowright" unicode="&#x2192;" horiz-adv-x="1566" 
d="M862 41h-69l632 664l-1425 -3v54h1425l-632 659h69l658 -686z" />
    <glyph glyph-name="arrowdown" unicode="&#x2193;" horiz-adv-x="1566" 
d="M1470 657l-688 -657l-686 657v70l660 -633v1426h53l-2 -1426l663 633v-70z" />
    <glyph glyph-name="uni2196" unicode="&#x2196;" horiz-adv-x="1566" 
d="M1376 266l-39 -39l-1030 1033v-936l-51 49v977h979l49 -54h-938z" />
    <glyph glyph-name="uni2197" unicode="&#x2197;" horiz-adv-x="1566" 
d="M190 266l1031 1030h-938l49 54h979v-977l-51 -49v936l-1031 -1033z" />
    <glyph glyph-name="uni2198" unicode="&#x2198;" horiz-adv-x="1566" 
d="M188 1300l39 39l1030 -1032v936l52 -49v-977h-979l-49 53h938z" />
    <glyph glyph-name="uni2199" unicode="&#x2199;" horiz-adv-x="1566" 
d="M1378 1300l-1030 -1030h938l-49 -53h-979v977l51 49v-936l1030 1032z" />
    <glyph glyph-name="partialdiff" unicode="&#x2202;" horiz-adv-x="1282" 
d="M664 1618q152 0 264.5 -82.5t171.5 -232t59 -347.5q0 -84 -18 -260q-45 -321 -203 -515.5t-387 -194.5q-192 0 -311 125.5t-119 343.5q0 183 80.5 329t226 229t330.5 83q174 0 348 -101q-8 264 -126 419t-318 155q-158 0 -289 -64v47q135 66 291 66zM553 35
q203 0 346 179t188 482q19 165 19 246q-65 44 -158.5 73t-183.5 29q-129 0 -240 -45.5t-187.5 -124t-119.5 -186t-43 -229.5q0 -195 104.5 -309.5t274.5 -114.5z" />
    <glyph glyph-name="uni2206" unicode="&#x2206;" horiz-adv-x="1341" 
d="M16 0l629 1520h55l627 -1520h-1311zM94 51h1155l-577 1401z" />
    <glyph glyph-name="product" unicode="&#x220f;" horiz-adv-x="1339" 
d="M195 1528h950v-1958h-53v1907h-844v-1907h-53v1958z" />
    <glyph glyph-name="summation" unicode="&#x2211;" horiz-adv-x="1177" 
d="M1061 1520v-50h-883l574 -931l-574 -934h887v-49h-987l608 981l-608 983h983z" />
    <glyph glyph-name="minus" unicode="&#x2212;" horiz-adv-x="1368" 
d="M182 752v51h1004v-51h-1004z" />
    <glyph glyph-name="radical" unicode="&#x221a;" horiz-adv-x="1224" 
d="M281 602l-232 -90l-14 43l278 113l303 -869h2l508 2095h56l-543 -2222h-27z" />
    <glyph glyph-name="infinity" unicode="&#x221e;" horiz-adv-x="1396" 
d="M991 1040q102 0 173 -76.5t71 -185.5q0 -107 -70.5 -180.5t-173.5 -73.5q-50 0 -93 17t-79.5 51.5t-61.5 66.5t-59 82q-34 -51 -59 -82.5t-61.5 -66t-79 -51.5t-92.5 -17q-103 0 -173.5 73.5t-70.5 180.5q0 109 71 185.5t173 76.5q50 0 92.5 -17t79 -51.5t61.5 -66
t59 -82.5q34 50 59 82t61.5 66.5t79.5 51.5t93 17zM408 573q43 0 80.5 15.5t71 49.5t56.5 63.5t56 80.5q-35 51 -56.5 79t-55.5 62.5t-71.5 50t-80.5 15.5q-80 0 -136.5 -61t-56.5 -150q0 -86 56.5 -145.5t136.5 -59.5zM989 573q80 0 136.5 59.5t56.5 145.5q0 89 -56.5 150
t-136.5 61q-43 0 -80.5 -15.5t-71.5 -50t-55.5 -62.5t-56.5 -79q33 -51 56 -80.5t56.5 -63.5t71 -49.5t80.5 -15.5z" />
    <glyph glyph-name="integral" unicode="&#x222b;" horiz-adv-x="821" 
d="M778 1599v-51q-66 37 -141 37q-93 0 -147 -58.5t-54 -166.5v-1546q0 -132 -71 -203.5t-179 -71.5q-81 0 -147 35v51q66 -37 143 -37q92 0 146.5 59.5t54.5 168.5v1544q0 133 70 204.5t178 71.5q80 0 147 -37z" />
    <glyph glyph-name="approxequal" unicode="&#x2248;" horiz-adv-x="1447" 
d="M1268 1071q-12 -106 -77.5 -169.5t-168.5 -63.5q-65 0 -146.5 28t-146 62t-142.5 62t-136 28q-86 0 -143.5 -52t-65.5 -132h-49q7 104 77.5 168.5t175.5 64.5q64 0 145.5 -28t146 -62t143 -62t137.5 -28q84 0 137 51.5t64 132.5h49zM1268 711q-12 -106 -77.5 -170
t-168.5 -64q-65 0 -146.5 28t-146 62t-142.5 62t-136 28q-86 0 -143.5 -52t-65.5 -132h-49q7 104 78 169t175 65q64 0 145.5 -28.5t146 -62t143 -62t137.5 -28.5q83 0 136.5 52t64.5 133h49z" />
    <glyph glyph-name="notequal" unicode="&#x2260;" horiz-adv-x="1368" 
d="M1186 909h-365l-223 -264h588v-51h-631l-299 -352h-53l299 352h-320v51h363l223 264h-586v52h629l301 354h53l-301 -354h322v-52z" />
    <glyph glyph-name="lessequal" unicode="&#x2264;" horiz-adv-x="1388" 
d="M1180 1184v55l-1006 -446v-56l1006 -444v55l-944 418v2zM178 0v49h1004v-49h-1004z" />
    <glyph glyph-name="greaterequal" unicode="&#x2265;" horiz-adv-x="1388" 
d="M209 1184l944 -416v-2l-944 -418v-55l1005 444v56l-1005 446v-55zM207 0v49h1005v-49h-1005z" />
    <glyph glyph-name="lozenge" unicode="&#x25ca;" horiz-adv-x="1181" 
d="M1079 760l-471 -778h-35l-473 778l471 778h37zM1018 760l-424 702h-4l-428 -702l428 -703h2z" />
    <glyph glyph-name="NULL" horiz-adv-x="0" 
 />
    <glyph glyph-name="i.loclTRK" horiz-adv-x="468" 
d="M236 1436q-23 0 -37.5 13.5t-14.5 35.5t14.5 36.5t37.5 14.5q22 0 36.5 -14.5t14.5 -36.5t-14.5 -35.5t-36.5 -13.5zM207 0v1079h53v-1079h-53z" />
    <glyph glyph-name="zero.osf" horiz-adv-x="1357" 
d="M678 1096q100 0 195 -38t172.5 -106.5t124.5 -176t47 -236.5q0 -103 -31 -193t-83.5 -155.5t-121.5 -112.5t-146.5 -70.5t-156.5 -23.5t-156 23t-145.5 70t-121 112.5t-83.5 155.5t-31 194q0 129 47.5 236.5t124.5 176t172 106.5t193 38zM678 1042q-72 0 -141 -20.5
t-130.5 -62.5t-108 -101t-74 -141.5t-27.5 -177.5q0 -119 41.5 -216.5t110.5 -159t154 -95t175 -33.5t175.5 33.5t155 95.5t112 159.5t42.5 215.5t-42.5 216t-112 159.5t-155 94.5t-175.5 33z" />
    <glyph glyph-name="one.osf" horiz-adv-x="733" 
d="M397 0v1018l-303 -141v57l338 156h19v-1090h-54z" />
    <glyph glyph-name="two.osf" horiz-adv-x="1148" 
d="M1022 51v-51h-911q177 109 295.5 185.5t214.5 146.5t150 120t90 102.5t48.5 97t12.5 100.5q2 126 -91 209t-239 83q-236 0 -404 -194v68q164 178 406 178q168 0 274.5 -97.5t106.5 -244.5q0 -86 -31.5 -157.5t-116 -154.5t-211 -171.5t-337.5 -217.5v-2h743z" />
    <glyph glyph-name="three.osf" horiz-adv-x="1087" 
d="M592 344q169 -26 265.5 -133.5t96.5 -261.5q0 -84 -29 -157.5t-83 -129.5t-138 -88.5t-188 -32.5q-256 0 -395 174v68q65 -90 167.5 -140.5t225.5 -50.5q181 0 284 102t103 255q0 160 -114 262t-316 102h-158v52h146q179 0 282 105.5t103 248.5q0 137 -94 231t-246 94
q-103 0 -190.5 -44t-141.5 -117v69q60 67 147 105.5t187 38.5q173 0 282 -108.5t109 -266.5q0 -132 -81.5 -239.5t-223.5 -137.5z" />
    <glyph glyph-name="four.osf" horiz-adv-x="1193" 
d="M1116 51v-51h-268v-412h-51v412h-740v39l740 1042h51v-1030h268zM127 51h670v944h-2l-668 -942v-2z" />
    <glyph glyph-name="five.osf" horiz-adv-x="1099" 
d="M915 1079v-51h-518l-127 -612v-2q100 49 232 49q148 0 261 -64.5t169.5 -167.5t56.5 -227q0 -93 -32 -176t-91 -147.5t-152 -102t-208 -37.5q-126 0 -230 46t-178 126v68q76 -90 183 -139.5t229 -49.5q196 0 311 116.5t115 293.5q0 176 -119.5 293t-320.5 117
q-155 0 -275 -68l-10 8l149 727h555z" />
    <glyph glyph-name="six.osf" horiz-adv-x="1165" 
d="M567 930q91 0 178 -31.5t157.5 -90t113.5 -150.5t43 -203q0 -129 -59 -237t-167 -172t-243 -64q-136 0 -245.5 65t-169.5 173t-60 237q0 109 47 205t153 231l490 627h63l-489 -625q90 35 188 35zM590 33q181 0 298.5 122t117.5 296q0 103 -39 187t-103 135.5t-143 79.5
t-164 28q-121 0 -227 -50q-88 -115 -125 -196t-37 -180q0 -174 120 -298t302 -124z" />
    <glyph glyph-name="seven.osf" horiz-adv-x="1005" 
d="M117 -442l786 1470h-807v51h891l-809 -1521h-61z" />
    <glyph glyph-name="eight.osf" horiz-adv-x="1232" 
d="M758 784q149 -35 239 -142.5t90 -248.5q0 -178 -133 -294.5t-338 -116.5t-337 116.5t-132 294.5q0 141 89.5 248.5t238.5 142.5v2q-125 37 -202.5 135t-77.5 228q0 163 120 276t301 113t301.5 -113t120.5 -276q0 -129 -78 -227t-202 -136v-2zM246 1149q0 -146 106.5 -243
t263.5 -97t264 97t107 243q0 145 -106.5 241.5t-264.5 96.5t-264 -96.5t-106 -241.5zM616 760q-182 0 -299.5 -104.5t-117.5 -260.5t117 -259t300 -103q185 0 302.5 103t117.5 259t-118.5 260.5t-301.5 104.5z" />
    <glyph glyph-name="nine.osf" horiz-adv-x="1116" 
d="M559 1096q202 0 333.5 -136t131.5 -331q0 -104 -46 -201t-151 -229l-503 -641h-60l500 637q-77 -35 -186 -35q-88 0 -172.5 31t-155 88.5t-113.5 149t-43 202.5q0 126 59 232.5t166 169.5t240 63zM811 256q87 114 123.5 195t36.5 178q0 174 -116 294.5t-296 120.5
t-296 -119.5t-116 -291.5q0 -99 37.5 -181t99.5 -134t139.5 -80.5t160.5 -28.5q127 0 227 47z" />
    <glyph glyph-name="zero.tf" 
d="M625 1538q96 0 180 -52.5t147.5 -149.5t100.5 -246t37 -330q0 -182 -37 -331t-100.5 -245.5t-147.5 -149t-180 -52.5t-180 52.5t-147.5 149t-100.5 245.5t-37 331q0 181 37 330t100.5 246t147.5 149.5t180 52.5zM625 1487q-176 0 -294 -195t-118 -532q0 -338 118 -532.5
t294 -194.5q175 0 293 194.5t118 530.5q0 170 -33 310t-89 230.5t-130.5 139.5t-158.5 49z" />
    <glyph glyph-name="one.tf" 
d="M1077 53v-53h-813v53h389v1393l-405 -191v62l442 205h21v-1469h366z" />
    <glyph glyph-name="two.tf" 
d="M154 0q190 203 310.5 335.5t218.5 248.5t148.5 185.5t84.5 137t43.5 114t9.5 105.5q0 94 -41.5 174.5t-129 133.5t-206.5 53q-112 0 -208 -46t-165 -124v65q68 74 165.5 115t207.5 41q101 0 184 -34.5t136 -92t81.5 -131t28.5 -154.5q0 -39 -4 -73.5t-18.5 -75.5
t-27 -72.5t-45.5 -82.5t-57.5 -86.5t-79.5 -102.5t-94.5 -113t-120 -135.5t-138 -152.5t-165.5 -181h787v-51h-905z" />
    <glyph glyph-name="three.tf" 
d="M672 786q173 -26 271.5 -133t98.5 -264q0 -82 -29.5 -155t-84.5 -129t-140 -88.5t-190 -32.5q-260 0 -399 174v69q63 -91 167.5 -141.5t231.5 -50.5q183 0 287 101t104 255q0 162 -115.5 263.5t-320.5 101.5h-162v51h148q184 0 289.5 103.5t105.5 248.5q0 138 -96.5 233
t-249.5 95q-104 0 -194 -44.5t-144 -117.5v70q60 66 148 104.5t190 38.5q175 0 287 -109.5t112 -265.5q0 -133 -84 -240t-231 -137z" />
    <glyph glyph-name="four.tf" 
d="M1163 449v-52h-272v-397h-53v397h-764v39l772 1084h45v-1071h272zM145 449h693v972h-2l-691 -970v-2z" />
    <glyph glyph-name="five.tf" 
d="M991 1520v-50h-520l-127 -614h2q104 47 232 47q148 0 260.5 -64.5t168.5 -167.5t56 -227q0 -93 -31.5 -176t-90.5 -147t-151.5 -101.5t-207.5 -37.5q-251 0 -410 172v67q75 -89 183 -138.5t229 -49.5q197 0 311.5 116t114.5 293q0 176 -119 294t-322 118q-147 0 -274 -70
l-8 9l147 727h557z" />
    <glyph glyph-name="six.tf" 
d="M608 930q91 0 178 -31.5t157.5 -90t113.5 -150.5t43 -203q0 -129 -59 -237t-167 -172t-243 -64q-136 0 -245.5 65t-169.5 173t-60 237q0 109 47 205t153 231l490 627h63l-489 -625q90 35 188 35zM631 33q181 0 298.5 122t117.5 296q0 103 -39 187t-103 135.5t-143 79.5
t-164 28q-121 0 -227 -50q-88 -115 -125 -196t-37 -180q0 -174 120 -298t302 -124z" />
    <glyph glyph-name="seven.tf" 
d="M244 0l786 1470h-807v50h891l-809 -1520h-61z" />
    <glyph glyph-name="eight.tf" 
d="M766 784q149 -35 239.5 -142.5t90.5 -248.5q0 -178 -133 -294.5t-338 -116.5t-338 116.5t-133 294.5q0 141 90 248.5t239 142.5v2q-125 37 -202.5 135t-77.5 228q0 163 120.5 276t301.5 113t301.5 -113t120.5 -276q0 -129 -79 -227t-202 -136v-2zM625 1487
q-158 0 -264.5 -96.5t-106.5 -241.5q0 -146 106 -243t265 -97q157 0 263.5 97t106.5 243q0 144 -106.5 241t-263.5 97zM1042 395q0 156 -117.5 260.5t-299.5 104.5q-183 0 -300.5 -104t-117.5 -261q0 -156 117.5 -259t300.5 -103t300 103t117 259z" />
    <glyph glyph-name="nine.tf" 
d="M387 0h-61l508 647l-9 -8q-21 -14 -75.5 -25.5t-108.5 -11.5q-70 0 -139 19t-131 58.5t-109.5 94.5t-75.5 132.5t-28 166.5q0 194 131.5 329.5t333.5 135.5q133 0 240 -63t165.5 -169.5t58.5 -232.5q0 -106 -45.5 -203t-150.5 -229zM874 700q86 115 123 195t37 176
q0 113 -51 208t-146 151.5t-214 56.5q-180 0 -296 -120t-116 -292q0 -99 37 -181t98.5 -134t138.5 -80.5t160 -28.5q121 0 229 49z" />
    <glyph glyph-name="zero.dnom" horiz-adv-x="892" 
d="M446 887q145 0 242.5 -121.5t97.5 -331.5q0 -208 -97.5 -330t-242.5 -122t-243.5 122t-98.5 330q0 209 98.5 331t243.5 122zM446 842q-124 0 -207 -109t-83 -299q0 -188 83 -296.5t207 -108.5t207.5 108.5t83.5 296.5q0 190 -83.5 299t-207.5 109z" />
    <glyph glyph-name="one.dnom" horiz-adv-x="542" 
d="M287 0v823l-226 -112v51l254 125h21v-887h-49z" />
    <glyph glyph-name="two.dnom" horiz-adv-x="702" 
d="M602 47v-47h-536q292 315 361 399q92 115 109 189q7 29 7 65q0 82 -56 138.5t-145 56.5q-135 0 -227 -92v53q88 84 231 84q106 0 177 -68t71 -172q0 -44 -11 -82.5t-36.5 -81.5t-71 -99t-109 -127t-157.5 -172q-27 -29 -41 -44h434z" />
    <glyph glyph-name="three.dnom" horiz-adv-x="706" 
d="M399 451q93 -19 149 -78t56 -148q0 -104 -76.5 -173.5t-197.5 -69.5q-136 0 -234 88v55q96 -96 234 -96q99 0 162 54.5t63 143.5q0 92 -70.5 144.5t-185.5 52.5h-98v45h98q106 0 162.5 58.5t56.5 136.5q0 75 -50 125.5t-130 50.5q-125 0 -213 -88v53q89 82 213 82
q102 0 166.5 -63.5t64.5 -157.5q0 -75 -45 -135t-125 -80z" />
    <glyph glyph-name="four.dnom" horiz-adv-x="784" 
d="M711 281v-45h-138v-236h-47v236h-465v36l469 609h43v-600h138zM123 281h403v520h-2l-401 -518v-2z" />
    <glyph glyph-name="five.dnom" horiz-adv-x="757" 
d="M621 874v-45h-340l-76 -331h2q71 26 158 26q142 0 222.5 -76.5t80.5 -185.5q0 -114 -85.5 -197t-230.5 -83q-77 0 -148 26t-122 70v53q50 -48 120.5 -75t149.5 -27q121 0 192.5 67.5t71.5 165.5q0 93 -67.5 156t-192.5 63q-109 0 -196 -41l-8 6l94 428h375z" />
    <glyph glyph-name="six.dnom" horiz-adv-x="780" 
d="M395 541q126 0 218 -77t92 -202q0 -117 -88.5 -198.5t-223.5 -81.5t-225 81.5t-90 198.5q0 64 31 122.5t100 135.5l315 354h58l-312 -350q57 17 125 17zM393 29q113 0 187.5 67.5t74.5 163.5q0 111 -79.5 174.5t-182.5 63.5q-87 0 -166 -27q-53 -61 -75.5 -107.5
t-22.5 -101.5q0 -97 75 -165t189 -68z" />
    <glyph glyph-name="seven.dnom" horiz-adv-x="704" 
d="M92 0l502 836h-514v45h592l-525 -881h-55z" />
    <glyph glyph-name="eight.dnom" horiz-adv-x="823" 
d="M520 453q90 -25 144.5 -86t54.5 -140q0 -103 -87.5 -171t-219.5 -68t-221 68t-89 171q0 79 55 140t146 86q-77 25 -123.5 81t-46.5 128q0 96 80 160.5t197 64.5q120 0 200 -64t80 -161q0 -71 -46.5 -127.5t-123.5 -81.5zM182 659q0 -80 65.5 -134t162.5 -54
q98 0 164.5 54t66.5 134q0 78 -66.5 131.5t-164.5 53.5q-97 0 -162.5 -53.5t-65.5 -131.5zM412 31q110 0 184 56.5t74 141.5q0 86 -73.5 142.5t-184.5 56.5t-184.5 -56.5t-73.5 -142.5q0 -85 74 -141.5t184 -56.5z" />
    <glyph glyph-name="nine.dnom" horiz-adv-x="772" 
d="M389 893q132 0 218.5 -81t86.5 -198q0 -62 -29.5 -118.5t-97.5 -133.5l-321 -362h-60l312 352q-46 -12 -101 -12q-127 0 -222 75.5t-95 200.5q0 117 87 197t222 80zM547 412q53 61 75.5 105t22.5 97q0 97 -72.5 165.5t-183.5 68.5q-114 0 -186 -66.5t-72 -163.5
q0 -106 79.5 -170.5t188.5 -64.5q75 0 148 29z" />
    <glyph glyph-name="zero.numr" horiz-adv-x="892" 
d="M446 1532q145 0 242.5 -121.5t97.5 -331.5q0 -208 -97.5 -330t-242.5 -122t-243.5 122t-98.5 330q0 209 98.5 331t243.5 122zM446 1487q-124 0 -207 -109t-83 -299q0 -188 83 -296.5t207 -108.5t207.5 108.5t83.5 296.5q0 190 -83.5 299t-207.5 109z" />
    <glyph glyph-name="one.numr" horiz-adv-x="540" 
d="M287 639v823l-226 -112v51l254 125h21v-887h-49z" />
    <glyph glyph-name="two.numr" horiz-adv-x="700" 
d="M600 686v-47h-537q292 315 359 398q94 115 112 189q7 30 7 66q0 82 -56 138.5t-145 56.5q-135 0 -227 -92v53q88 84 231 84q106 0 177 -68t71 -172q0 -44 -11 -82.5t-36.5 -81.5t-71 -99t-109 -127t-157.5 -172q-27 -29 -41 -44h434z" />
    <glyph glyph-name="three.numr" horiz-adv-x="706" 
d="M399 1096q93 -19 149 -78t56 -148q0 -104 -76.5 -173.5t-197.5 -69.5q-136 0 -234 88v55q96 -96 234 -96q99 0 162 54.5t63 143.5q0 92 -70.5 144.5t-185.5 52.5h-98v45h98q106 0 162.5 58.5t56.5 136.5q0 75 -50 125.5t-130 50.5q-125 0 -213 -88v53q89 82 213 82
q102 0 166.5 -63.5t64.5 -157.5q0 -75 -45 -135t-125 -80z" />
    <glyph glyph-name="four.numr" horiz-adv-x="784" 
d="M711 920v-46h-138v-235h-47v235h-465v37l469 609h43v-600h138zM123 920h403v520h-2l-401 -518v-2z" />
    <glyph glyph-name="five.numr" horiz-adv-x="757" 
d="M621 1520v-45h-340l-76 -332h2q71 26 158 26q142 0 222.5 -76.5t80.5 -185.5q0 -114 -85.5 -197t-230.5 -83q-77 0 -148 26t-122 70v53q50 -48 120.5 -75t149.5 -27q121 0 192.5 67.5t71.5 165.5q0 93 -67.5 156t-192.5 63q-109 0 -196 -41l-8 7l94 428h375z" />
    <glyph glyph-name="six.numr" horiz-adv-x="782" 
d="M395 1186q126 0 218 -77t92 -202q0 -117 -88.5 -198.5t-223.5 -81.5t-225 81.5t-90 198.5q0 64 31 122.5t100 135.5l315 355h58l-312 -351q57 17 125 17zM393 674q113 0 187.5 67.5t74.5 163.5q0 111 -79.5 174.5t-182.5 63.5q-87 0 -166 -27q-53 -61 -75.5 -107.5
t-22.5 -101.5q0 -97 75 -165t189 -68z" />
    <glyph glyph-name="seven.numr" horiz-adv-x="702" 
d="M92 639l502 836h-514v45h592l-525 -881h-55z" />
    <glyph glyph-name="eight.numr" horiz-adv-x="823" 
d="M520 1098q90 -25 144.5 -86t54.5 -140q0 -103 -87.5 -171t-219.5 -68t-221 68t-89 171q0 79 55 140t146 86q-77 25 -123.5 81t-46.5 128q0 96 80 160.5t197 64.5q120 0 200 -64t80 -161q0 -71 -46.5 -127.5t-123.5 -81.5zM182 1305q0 -80 65.5 -134.5t162.5 -54.5
q98 0 164.5 54.5t66.5 134.5q0 78 -66.5 131t-164.5 53q-97 0 -162.5 -53t-65.5 -131zM412 676q110 0 184 56.5t74 141.5q0 86 -73.5 142.5t-184.5 56.5t-184.5 -56.5t-73.5 -142.5q0 -85 74 -141.5t184 -56.5z" />
    <glyph glyph-name="nine.numr" horiz-adv-x="772" 
d="M389 1532q132 0 218.5 -81t86.5 -198q0 -62 -29.5 -118.5t-97.5 -133.5l-321 -362h-60l312 352q-46 -12 -101 -12q-127 0 -222 75.5t-95 200.5q0 117 87 197t222 80zM547 1051q53 61 75.5 105t22.5 97q0 97 -72.5 165.5t-183.5 68.5q-114 0 -186 -66.5t-72 -163.5
q0 -106 79.5 -170.5t188.5 -64.5q75 0 148 29z" />
    <glyph glyph-name="caron.alt" horiz-adv-x="528" 
d="M227 1323q27 110 27 190q0 66 -14 117h51q10 -57 10 -98q0 -115 -35 -209h-39z" />
    <glyph glyph-name="I.ss01" horiz-adv-x="757" 
d="M350 49v1421h-262v50h582v-50h-264v-1421h264v-49h-582v49h262z" />
    <glyph glyph-name="IJ.ss01" horiz-adv-x="1792" 
d="M350 49v1421h-262v50h582v-50h-264v-1421h264v-49h-582v49h262zM1556 1520v-1174q0 -169 -92 -265.5t-250 -96.5q-155 0 -276 108v64q124 -121 281 -121q131 0 206.5 81t75.5 228v1124h-420v52h475z" />
    <glyph glyph-name="Iacute.ss01" horiz-adv-x="757" 
d="M528 2042h64l-260 -326h-51zM350 49v1421h-262v50h582v-50h-264v-1421h264v-49h-582v49h262z" />
    <glyph glyph-name="Icircumflex.ss01" horiz-adv-x="757" 
d="M401 2042l254 -326h-59l-219 281l-219 -281h-58l254 326h47zM350 49v1421h-262v50h582v-50h-264v-1421h264v-49h-582v49h262z" />
    <glyph glyph-name="Idieresis.ss01" horiz-adv-x="757" 
d="M215 1790q-22 0 -36.5 14.5t-14.5 34.5q0 22 14.5 36.5t36.5 14.5t36.5 -14.5t14.5 -36.5q0 -20 -14.5 -34.5t-36.5 -14.5zM541 1790q-22 0 -37 14.5t-15 34.5q0 22 15 36.5t37 14.5t36.5 -14.5t14.5 -36.5q0 -20 -14.5 -34.5t-36.5 -14.5zM350 49v1421h-262v50h582v-50
h-264v-1421h264v-49h-582v49h262z" />
    <glyph glyph-name="Idotaccent.ss01" horiz-adv-x="757" 
d="M375 1790q-20 0 -35.5 14.5t-15.5 34.5q0 21 15 36t36 15q22 0 37.5 -14.5t15.5 -36.5q0 -20 -15.5 -34.5t-37.5 -14.5zM350 49v1421h-262v50h582v-50h-264v-1421h264v-49h-582v49h262z" />
    <glyph glyph-name="Igrave.ss01" horiz-adv-x="757" 
d="M225 2042l248 -326h-51l-260 326h63zM350 49v1421h-262v50h582v-50h-264v-1421h264v-49h-582v49h262z" />
    <glyph glyph-name="Imacron.ss01" horiz-adv-x="757" 
d="M106 1827v47h539v-47h-539zM350 49v1421h-262v50h582v-50h-264v-1421h264v-49h-582v49h262z" />
    <glyph glyph-name="Iogonek.ss01" horiz-adv-x="757" 
d="M670 1470h-264v-1421h264v-49h-131q-107 -84 -161 -149t-54 -127q0 -68 44 -104t101 -36q48 0 70 13v-46q-16 -12 -70 -12q-77 0 -136 46t-59 132q0 127 199 283h-385v49h262v1421h-262v50h582v-50z" />
    <glyph glyph-name="J.ss01" horiz-adv-x="935" 
d="M700 1520v-1174q0 -169 -92 -265.5t-250 -96.5q-155 0 -276 108v64q124 -121 280 -121q131 0 207 81t76 228v1124h-420v52h475z" />
    <glyph glyph-name="a.ss01" horiz-adv-x="1134" 
d="M549 1096q186 0 291.5 -100t105.5 -257v-739h-41l-6 254h-2q-48 -128 -160 -199t-250 -71q-164 0 -271 90t-107 233q0 140 107 236t308 96q186 0 369 -94v186q0 142 -91 227.5t-253 85.5q-104 0 -206 -35.5t-177 -97.5v58q76 60 177.5 93.5t205.5 33.5zM528 590
q-184 0 -275 -81t-91 -202q0 -124 92.5 -199t234.5 -75q167 0 285.5 108.5t118.5 268.5v79q-156 101 -365 101z" />
    <glyph glyph-name="aacute.ss01" horiz-adv-x="1134" 
d="M707 1602h63l-260 -326h-51zM549 1096q186 0 291.5 -100t105.5 -257v-739h-41l-6 254h-2q-48 -128 -160 -199t-250 -71q-164 0 -271 90t-107 233q0 140 107 236t308 96q186 0 369 -94v186q0 142 -91 227.5t-253 85.5q-104 0 -206 -35.5t-177 -97.5v58q76 60 177.5 93.5
t205.5 33.5zM528 590q-184 0 -275 -81t-91 -202q0 -124 92.5 -199t234.5 -75q167 0 285.5 108.5t118.5 268.5v79q-156 101 -365 101z" />
    <glyph glyph-name="abreve.ss01" horiz-adv-x="1134" 
d="M850 1577q-4 -119 -88.5 -187.5t-206.5 -68.5t-206.5 68.5t-90.5 187.5h51q6 -92 75 -150.5t171 -58.5q100 0 169 58.5t75 150.5h51zM549 1096q186 0 291.5 -100t105.5 -257v-739h-41l-6 254h-2q-48 -128 -160 -199t-250 -71q-164 0 -271 90t-107 233q0 140 107 236
t308 96q186 0 369 -94v186q0 142 -91 227.5t-253 85.5q-104 0 -206 -35.5t-177 -97.5v58q76 60 177.5 93.5t205.5 33.5zM528 590q-184 0 -275 -81t-91 -202q0 -124 92.5 -199t234.5 -75q167 0 285.5 108.5t118.5 268.5v79q-156 101 -365 101z" />
    <glyph glyph-name="acircumflex.ss01" horiz-adv-x="1134" 
d="M580 1602l254 -326h-60l-219 280l-219 -280h-57l253 326h48zM549 1096q186 0 291.5 -100t105.5 -257v-739h-41l-6 254h-2q-48 -128 -160 -199t-250 -71q-164 0 -271 90t-107 233q0 140 107 236t308 96q186 0 369 -94v186q0 142 -91 227.5t-253 85.5q-104 0 -206 -35.5
t-177 -97.5v58q76 60 177.5 93.5t205.5 33.5zM528 590q-184 0 -275 -81t-91 -202q0 -124 92.5 -199t234.5 -75q167 0 285.5 108.5t118.5 268.5v79q-156 101 -365 101z" />
    <glyph glyph-name="adieresis.ss01" horiz-adv-x="1134" 
d="M393 1350q-22 0 -36.5 14.5t-14.5 34.5q0 22 14.5 36.5t36.5 14.5t36.5 -14.5t14.5 -36.5q0 -20 -14.5 -34.5t-36.5 -14.5zM719 1350q-22 0 -36.5 14.5t-14.5 34.5q0 22 14.5 36.5t36.5 14.5t36.5 -14.5t14.5 -36.5q0 -20 -14.5 -34.5t-36.5 -14.5zM549 1096
q186 0 291.5 -100t105.5 -257v-739h-41l-6 254h-2q-48 -128 -160 -199t-250 -71q-164 0 -271 90t-107 233q0 140 107 236t308 96q186 0 369 -94v186q0 142 -91 227.5t-253 85.5q-104 0 -206 -35.5t-177 -97.5v58q76 60 177.5 93.5t205.5 33.5zM528 590q-184 0 -275 -81
t-91 -202q0 -124 92.5 -199t234.5 -75q167 0 285.5 108.5t118.5 268.5v79q-156 101 -365 101z" />
    <glyph glyph-name="agrave.ss01" horiz-adv-x="1134" 
d="M403 1602l248 -326h-51l-260 326h63zM549 1096q186 0 291.5 -100t105.5 -257v-739h-41l-6 254h-2q-48 -128 -160 -199t-250 -71q-164 0 -271 90t-107 233q0 140 107 236t308 96q186 0 369 -94v186q0 142 -91 227.5t-253 85.5q-104 0 -206 -35.5t-177 -97.5v58
q76 60 177.5 93.5t205.5 33.5zM528 590q-184 0 -275 -81t-91 -202q0 -124 92.5 -199t234.5 -75q167 0 285.5 108.5t118.5 268.5v79q-156 101 -365 101z" />
    <glyph glyph-name="amacron.ss01" horiz-adv-x="1134" 
d="M285 1386v48h538v-48h-538zM549 1096q186 0 291.5 -100t105.5 -257v-739h-41l-6 254h-2q-48 -128 -160 -199t-250 -71q-164 0 -271 90t-107 233q0 140 107 236t308 96q186 0 369 -94v186q0 142 -91 227.5t-253 85.5q-104 0 -206 -35.5t-177 -97.5v58q76 60 177.5 93.5
t205.5 33.5zM528 590q-184 0 -275 -81t-91 -202q0 -124 92.5 -199t234.5 -75q167 0 285.5 108.5t118.5 268.5v79q-156 101 -365 101z" />
    <glyph glyph-name="aogonek.ss01" horiz-adv-x="1134" 
d="M946 0q-107 -84 -161 -149t-54 -127q0 -68 44 -104t102 -36q47 0 69 13v-46q-16 -12 -69 -12q-77 0 -136 46t-59 132q0 134 223 301l-6 236h-2q-48 -128 -160 -199t-250 -71q-164 0 -271 90t-107 233q0 140 107 236t308 96q186 0 369 -94v186q0 142 -91 227.5t-253 85.5
q-104 0 -206 -35.5t-177 -97.5v58q76 60 177.5 93.5t205.5 33.5q186 0 291.5 -100t105.5 -257v-739zM893 410v79q-156 101 -365 101q-184 0 -275 -81t-91 -202q0 -124 92.5 -199t234.5 -75q167 0 285.5 108.5t118.5 268.5z" />
    <glyph glyph-name="aring.ss01" horiz-adv-x="1134" 
d="M555 1604q70 0 118 -47.5t48 -112.5t-48 -112.5t-118 -47.5t-118 47.5t-48 112.5t48 112.5t118 47.5zM555 1565q-55 0 -89 -34.5t-34 -86.5t34 -86.5t89 -34.5q53 0 88 34.5t35 86.5t-35 86.5t-88 34.5zM549 1096q186 0 291.5 -100t105.5 -257v-739h-41l-6 254h-2
q-48 -128 -160 -199t-250 -71q-164 0 -271 90t-107 233q0 140 107 236t308 96q186 0 369 -94v186q0 142 -91 227.5t-253 85.5q-104 0 -206 -35.5t-177 -97.5v58q76 60 177.5 93.5t205.5 33.5zM528 590q-184 0 -275 -81t-91 -202q0 -124 92.5 -199t234.5 -75
q167 0 285.5 108.5t118.5 268.5v79q-156 101 -365 101z" />
    <glyph glyph-name="atilde.ss01" horiz-adv-x="1134" 
d="M874 1456q4 -79 -45 -121.5t-120 -42.5q-42 0 -85.5 18.5t-74 41t-71.5 41t-79 18.5q-55 0 -88 -31.5t-32 -87.5h-48q-3 79 47 121.5t121 42.5q42 0 85.5 -18.5t74 -41t71.5 -41t79 -18.5q55 0 88 31.5t30 87.5h47zM549 1096q186 0 291.5 -100t105.5 -257v-739h-41
l-6 254h-2q-48 -128 -160 -199t-250 -71q-164 0 -271 90t-107 233q0 140 107 236t308 96q186 0 369 -94v186q0 142 -91 227.5t-253 85.5q-104 0 -206 -35.5t-177 -97.5v58q76 60 177.5 93.5t205.5 33.5zM528 590q-184 0 -275 -81t-91 -202q0 -124 92.5 -199t234.5 -75
q167 0 285.5 108.5t118.5 268.5v79q-156 101 -365 101z" />
    <glyph glyph-name="g.ss01" horiz-adv-x="1136" 
d="M727 145q147 0 239.5 -78.5t92.5 -197.5q0 -147 -139.5 -238.5t-358.5 -91.5t-357 89t-138 235q0 94 54 159t144 99q-98 48 -98 153q0 55 37 102.5t102 78.5q-127 100 -127 276q0 167 112 266t273 99q96 0 174 -35h314v-49h-232q127 -103 127 -281q0 -161 -108.5 -260.5
t-274.5 -99.5q-122 0 -215 55q-129 -52 -129 -145q0 -59 48 -97.5t143 -38.5h317zM231 731q0 -139 94 -225t238 -86q140 0 235 83.5t95 229.5q0 141 -93 227.5t-237 86.5q-139 0 -235.5 -84.5t-96.5 -231.5zM565 -412q194 0 317.5 77.5t123.5 201.5q0 98 -80 162.5
t-207 64.5h-318q-23 0 -63 4q-98 -23 -158.5 -82t-60.5 -151q0 -126 125.5 -201.5t320.5 -75.5z" />
    <glyph glyph-name="gbreve.ss01" horiz-adv-x="1136" 
d="M582 1321q-122 0 -206.5 68.5t-90.5 187.5h51q6 -92 75 -150.5t171 -58.5q100 0 168.5 58.5t74.5 150.5h52q-4 -119 -88.5 -187.5t-206.5 -68.5zM727 145q147 0 239.5 -78.5t92.5 -197.5q0 -147 -139.5 -238.5t-358.5 -91.5t-357 89t-138 235q0 94 54 159t144 99
q-98 48 -98 153q0 55 37 102.5t102 78.5q-127 100 -127 276q0 167 112 266t273 99q96 0 174 -35h314v-49h-232q127 -103 127 -281q0 -161 -108.5 -260.5t-274.5 -99.5q-122 0 -215 55q-129 -52 -129 -145q0 -59 48 -97.5t143 -38.5h317zM231 731q0 -139 94 -225t238 -86
q140 0 235 83.5t95 229.5q0 141 -93 227.5t-237 86.5q-139 0 -235.5 -84.5t-96.5 -231.5zM565 -412q194 0 317.5 77.5t123.5 201.5q0 98 -80 162.5t-207 64.5h-318q-23 0 -63 4q-98 -23 -158.5 -82t-60.5 -151q0 -126 125.5 -201.5t320.5 -75.5z" />
    <glyph glyph-name="gcommaaccent.ss01" horiz-adv-x="1136" 
d="M608 1241h-53q-23 163 49 340h45q-60 -171 -41 -340zM727 145q147 0 239.5 -78.5t92.5 -197.5q0 -147 -139.5 -238.5t-358.5 -91.5t-357 89t-138 235q0 94 54 159t144 99q-98 48 -98 153q0 55 37 102.5t102 78.5q-127 100 -127 276q0 167 112 266t273 99q96 0 174 -35
h314v-49h-232q127 -103 127 -281q0 -161 -108.5 -260.5t-274.5 -99.5q-122 0 -215 55q-129 -52 -129 -145q0 -59 48 -97.5t143 -38.5h317zM231 731q0 -139 94 -225t238 -86q140 0 235 83.5t95 229.5q0 141 -93 227.5t-237 86.5q-139 0 -235.5 -84.5t-96.5 -231.5zM565 -412
q194 0 317.5 77.5t123.5 201.5q0 98 -80 162.5t-207 64.5h-318q-23 0 -63 4q-98 -23 -158.5 -82t-60.5 -151q0 -126 125.5 -201.5t320.5 -75.5z" />
    <glyph glyph-name="gdotaccent.ss01" horiz-adv-x="1136" 
d="M580 1350q-21 0 -36.5 14.5t-15.5 34.5q0 21 15.5 36t36.5 15q22 0 37.5 -14.5t15.5 -36.5q0 -20 -15.5 -34.5t-37.5 -14.5zM727 145q147 0 239.5 -78.5t92.5 -197.5q0 -147 -139.5 -238.5t-358.5 -91.5t-357 89t-138 235q0 94 54 159t144 99q-98 48 -98 153
q0 55 37 102.5t102 78.5q-127 100 -127 276q0 167 112 266t273 99q96 0 174 -35h314v-49h-232q127 -103 127 -281q0 -161 -108.5 -260.5t-274.5 -99.5q-122 0 -215 55q-129 -52 -129 -145q0 -59 48 -97.5t143 -38.5h317zM231 731q0 -139 94 -225t238 -86q140 0 235 83.5
t95 229.5q0 141 -93 227.5t-237 86.5q-139 0 -235.5 -84.5t-96.5 -231.5zM565 -412q194 0 317.5 77.5t123.5 201.5q0 98 -80 162.5t-207 64.5h-318q-23 0 -63 4q-98 -23 -158.5 -82t-60.5 -151q0 -126 125.5 -201.5t320.5 -75.5z" />
    <glyph glyph-name="l.ss01" horiz-adv-x="522" 
d="M246 1630v-1403q0 -87 47.5 -134.5t140.5 -47.5q40 0 58 4v-49q-36 -6 -62 -6q-113 0 -175 62.5t-62 162.5v1411h53z" />
    <glyph glyph-name="lacute.ss01" horiz-adv-x="522" 
d="M369 2152h63l-260 -325h-51zM246 1630v-1403q0 -87 47.5 -134.5t140.5 -47.5q40 0 58 4v-49q-36 -6 -62 -6q-113 0 -175 62.5t-62 162.5v1411h53z" />
    <glyph glyph-name="lcaron.ss01" horiz-adv-x="522" 
d="M246 1630v-1403q0 -87 47.5 -134.5t140.5 -47.5q40 0 58 4v-49q-36 -6 -62 -6q-113 0 -175 62.5t-62 162.5v1411h53zM440 1323q27 110 27 190q0 66 -14 117h51q10 -57 10 -98q0 -115 -35 -209h-39z" />
    <glyph glyph-name="lcommaaccent.ss01" horiz-adv-x="522" 
d="M246 1630v-1403q0 -87 47.5 -134.5t140.5 -47.5q40 0 58 4v-49q-36 -6 -62 -6q-113 0 -175 62.5t-62 162.5v1411h53zM358 -162q23 -163 -49 -340h-45q60 171 41 340h53z" />
    <glyph glyph-name="lslash.ss01" horiz-adv-x="753" 
d="M662 991l-271 -157v-607q0 -87 48 -134.5t141 -47.5q39 0 57 4v-49q-36 -6 -62 -6q-113 0 -175 62.5t-62 162.5v584l-268 -158v57l268 158v770h53v-739l271 158v-58z" />
    <glyph glyph-name="fl.ss01" horiz-adv-x="1196" 
d="M236 0v1030h-164v49h164v228q0 159 86 244t219 85q89 0 157 -30v-54q-72 33 -155 33q-114 0 -184 -71t-70 -216v-219h329v-49h-329v-1030h-53zM920 1630v-1403q0 -87 47.5 -134.5t140.5 -47.5q39 0 57 4v-49q-36 -6 -61 -6q-114 0 -176 62.5t-62 162.5v1411h54z" />
    <glyph glyph-name="A.sc" horiz-adv-x="1153" 
d="M1030 0l-174 444h-559l-176 -444h-55l483 1217h55l483 -1217h-57zM315 494h521l-258 659h-3z" />
    <glyph glyph-name="Aacute.sc" horiz-adv-x="1153" 
d="M793 1739l-261 -326h-51l248 326h64zM1030 0l-174 444h-559l-176 -444h-55l483 1217h55l483 -1217h-57zM315 494h521l-258 659h-3z" />
    <glyph glyph-name="Abreve.sc" horiz-adv-x="1153" 
d="M578 1458q-122 0 -206.5 68.5t-90.5 187.5h51q6 -92 75 -150.5t171 -58.5q100 0 168.5 58.5t74.5 150.5h51q-4 -119 -88 -187.5t-206 -68.5zM1030 0l-174 444h-559l-176 -444h-55l483 1217h55l483 -1217h-57zM315 494h521l-258 659h-3z" />
    <glyph glyph-name="Acircumflex.sc" horiz-adv-x="1153" 
d="M578 1694l-220 -281h-57l254 326h47l254 -326h-59zM1030 0l-174 444h-559l-176 -444h-55l483 1217h55l483 -1217h-57zM315 494h521l-258 659h-3z" />
    <glyph glyph-name="Adieresis.sc" horiz-adv-x="1153" 
d="M416 1487q-22 0 -36.5 14.5t-14.5 34.5q0 22 14.5 36.5t36.5 14.5t36.5 -14.5t14.5 -36.5q0 -20 -14.5 -34.5t-36.5 -14.5zM741 1487q-22 0 -36.5 14.5t-14.5 34.5q0 22 14.5 36.5t36.5 14.5t37 -14.5t15 -36.5q0 -20 -15 -34.5t-37 -14.5zM1030 0l-174 444h-559
l-176 -444h-55l483 1217h55l483 -1217h-57zM315 494h521l-258 659h-3z" />
    <glyph glyph-name="Agrave.sc" horiz-adv-x="1153" 
d="M674 1413h-51l-261 326h64zM1030 0l-174 444h-559l-176 -444h-55l483 1217h55l483 -1217h-57zM315 494h521l-258 659h-3z" />
    <glyph glyph-name="Amacron.sc" horiz-adv-x="1153" 
d="M846 1571v-47h-539v47h539zM1030 0l-174 444h-559l-176 -444h-55l483 1217h55l483 -1217h-57zM315 494h521l-258 659h-3z" />
    <glyph glyph-name="Aogonek.sc" horiz-adv-x="1153" 
d="M872 -276q0 -68 44 -104t102 -36q47 0 69 13v-46q-16 -12 -69 -12q-77 0 -136 46t-59 132q0 131 205 287l-172 440h-559l-176 -444h-55l483 1217h55l483 -1217q-107 -84 -161 -149t-54 -127zM315 494h521l-258 659h-3z" />
    <glyph glyph-name="Aring.sc" horiz-adv-x="1153" 
d="M578 1421q-70 0 -118 47.5t-48 112.5t48 112.5t118 47.5t117.5 -47.5t47.5 -112.5t-47.5 -112.5t-117.5 -47.5zM578 1702q-55 0 -89 -34.5t-34 -86.5t34 -86.5t89 -34.5q53 0 87.5 34.5t34.5 86.5t-34.5 86.5t-87.5 34.5zM1030 0l-174 444h-559l-176 -444h-55l483 1217
h55l483 -1217h-57zM315 494h521l-258 659h-3z" />
    <glyph glyph-name="Atilde.sc" horiz-adv-x="1153" 
d="M301 1430h-47q-3 79 47 121t121 42q42 0 85 -18.5t74 -40.5t71.5 -40.5t78.5 -18.5q56 0 89 31t30 87h47q4 -79 -45.5 -121t-120.5 -42q-42 0 -85 18.5t-74 40.5t-71.5 40.5t-78.5 18.5q-55 0 -88.5 -31t-32.5 -87zM1030 0l-174 444h-559l-176 -444h-55l483 1217h55
l483 -1217h-57zM315 494h521l-258 659h-3z" />
    <glyph glyph-name="AE.sc" horiz-adv-x="1599" 
d="M1456 1167h-534v-524h497v-49h-497v-543h534v-51h-586v444h-499l-308 -444h-61l844 1217h610v-50zM406 494h464v667h-2z" />
    <glyph glyph-name="B.sc" horiz-adv-x="1087" 
d="M659 629q139 -22 217 -100.5t78 -198.5q0 -154 -112 -242t-307 -88h-308v1217h289q183 0 284 -79t101 -223q0 -113 -63.5 -187t-178.5 -99zM279 1167v-516h258q141 -4 226 67.5t85 194.5t-84.5 188.5t-241.5 65.5h-243zM539 51q172 0 268 74.5t96 206.5q0 124 -98 197
t-264 73h-262v-551h260z" />
    <glyph glyph-name="C.sc" horiz-adv-x="1056" 
d="M956 31q-115 -47 -254 -47q-113 0 -216 45t-180.5 125t-123 198.5t-45.5 257.5q0 137 45.5 255t123 198t180.5 125t216 45q136 0 254 -51v-54q-117 54 -251 54q-105 0 -199 -41.5t-164 -115t-111 -181.5t-41 -234q0 -127 41 -236t111 -182.5t164 -115t199 -41.5
q134 0 251 51v-55z" />
    <glyph glyph-name="Cacute.sc" horiz-adv-x="1056" 
d="M836 1739h63l-260 -326h-51zM956 31q-115 -47 -254 -47q-113 0 -216 45t-180.5 125t-123 198.5t-45.5 257.5q0 137 45.5 255t123 198t180.5 125t216 45q136 0 254 -51v-54q-117 54 -251 54q-105 0 -199 -41.5t-164 -115t-111 -181.5t-41 -234q0 -127 41 -236t111 -182.5
t164 -115t199 -41.5q134 0 251 51v-55z" />
    <glyph glyph-name="Ccaron.sc" horiz-adv-x="1056" 
d="M961 1739l-254 -326h-48l-253 326h59l219 -281l219 281h58zM956 31q-115 -47 -254 -47q-113 0 -216 45t-180.5 125t-123 198.5t-45.5 257.5q0 137 45.5 255t123 198t180.5 125t216 45q136 0 254 -51v-54q-117 54 -251 54q-105 0 -199 -41.5t-164 -115t-111 -181.5
t-41 -234q0 -127 41 -236t111 -182.5t164 -115t199 -41.5q134 0 251 51v-55z" />
    <glyph glyph-name="Ccedilla.sc" horiz-adv-x="1056" 
d="M705 1182q-105 0 -199 -41.5t-164 -115t-111 -181.5t-41 -234q0 -127 41 -236t111 -182.5t164 -115t199 -41.5q134 0 251 51v-55q-112 -47 -245 -47q-4 -110 -41.5 -190t-102.5 -159h-61q74 88 113 166.5t43 184.5q-107 7 -202.5 55.5t-167 128t-113.5 194t-42 246.5
q0 137 45.5 255t123 198t180.5 125t216 45q136 0 254 -51v-54q-117 54 -251 54z" />
    <glyph glyph-name="Cdotaccent.sc" horiz-adv-x="1056" 
d="M682 1487q-20 0 -35.5 14.5t-15.5 34.5q0 21 15 36t36 15q22 0 37.5 -14.5t15.5 -36.5q0 -20 -15.5 -34.5t-37.5 -14.5zM956 31q-115 -47 -254 -47q-113 0 -216 45t-180.5 125t-123 198.5t-45.5 257.5q0 137 45.5 255t123 198t180.5 125t216 45q136 0 254 -51v-54
q-117 54 -251 54q-105 0 -199 -41.5t-164 -115t-111 -181.5t-41 -234q0 -127 41 -236t111 -182.5t164 -115t199 -41.5q134 0 251 51v-55z" />
    <glyph glyph-name="D.sc" horiz-adv-x="1241" 
d="M430 1217q305 0 489.5 -163.5t184.5 -445.5q0 -281 -184.5 -444.5t-489.5 -163.5h-203v1217h203zM279 1167v-1116h151q282 0 451.5 146.5t169.5 408.5q0 265 -169.5 413t-451.5 148h-151z" />
    <glyph glyph-name="Eth.sc" 
d="M438 1217q305 0 490.5 -164t185.5 -445t-185 -444.5t-491 -163.5h-202v590h-179v45h179v582h202zM438 51q282 0 452.5 146.5t170.5 408.5q0 265 -170.5 413t-452.5 148h-151v-532h372v-45h-372v-539h151z" />
    <glyph glyph-name="Dcaron.sc" horiz-adv-x="1241" 
d="M893 1739l-254 -326h-47l-254 326h59l219 -281l220 281h57zM430 1217q305 0 489.5 -163.5t184.5 -445.5q0 -281 -184.5 -444.5t-489.5 -163.5h-203v1217h203zM279 1167v-1116h151q282 0 451.5 146.5t169.5 408.5q0 265 -169.5 413t-451.5 148h-151z" />
    <glyph glyph-name="Dcroat.sc" 
d="M438 1217q305 0 490.5 -164t185.5 -445t-185 -444.5t-491 -163.5h-202v590h-179v45h179v582h202zM438 51q282 0 452.5 146.5t170.5 408.5q0 265 -170.5 413t-452.5 148h-151v-532h372v-45h-372v-539h151z" />
    <glyph glyph-name="E.sc" horiz-adv-x="958" 
d="M227 0v1217h588v-50h-536v-522h499v-51h-499v-543h536v-51h-588z" />
    <glyph glyph-name="Eacute.sc" horiz-adv-x="958" 
d="M672 1739h63l-260 -326h-51zM227 0v1217h588v-50h-536v-522h499v-51h-499v-543h536v-51h-588z" />
    <glyph glyph-name="Ecaron.sc" horiz-adv-x="958" 
d="M797 1739l-254 -326h-47l-254 326h59l219 -281l219 281h58zM227 0v1217h588v-50h-536v-522h499v-51h-499v-543h536v-51h-588z" />
    <glyph glyph-name="Ecircumflex.sc" horiz-adv-x="958" 
d="M545 1739l254 -326h-60l-219 281l-219 -281h-57l254 326h47zM227 0v1217h588v-50h-536v-522h499v-51h-499v-543h536v-51h-588z" />
    <glyph glyph-name="Edieresis.sc" horiz-adv-x="958" 
d="M358 1487q-22 0 -36.5 14.5t-14.5 34.5q0 22 14.5 36.5t36.5 14.5t37 -14.5t15 -36.5q0 -20 -15 -34.5t-37 -14.5zM684 1487q-22 0 -36.5 14.5t-14.5 34.5q0 22 14.5 36.5t36.5 14.5t36.5 -14.5t14.5 -36.5q0 -20 -14.5 -34.5t-36.5 -14.5zM227 0v1217h588v-50h-536v-522
h499v-51h-499v-543h536v-51h-588z" />
    <glyph glyph-name="Edotaccent.sc" horiz-adv-x="958" 
d="M518 1487q-20 0 -35.5 14.5t-15.5 34.5q0 21 15 36t36 15q22 0 37.5 -14.5t15.5 -36.5q0 -20 -15.5 -34.5t-37.5 -14.5zM227 0v1217h588v-50h-536v-522h499v-51h-499v-543h536v-51h-588z" />
    <glyph glyph-name="Egrave.sc" horiz-adv-x="958" 
d="M369 1739l247 -326h-51l-260 326h64zM227 0v1217h588v-50h-536v-522h499v-51h-499v-543h536v-51h-588z" />
    <glyph glyph-name="Emacron.sc" horiz-adv-x="958" 
d="M250 1524v47h538v-47h-538zM227 0v1217h588v-50h-536v-522h499v-51h-499v-543h536v-51h-588z" />
    <glyph glyph-name="Eogonek.sc" horiz-adv-x="958" 
d="M815 1167h-536v-522h499v-51h-499v-543h536v-51q-107 -84 -161 -149t-54 -127q0 -68 44 -104t101 -36q48 0 70 13v-46q-16 -12 -70 -12q-77 0 -135.5 46t-58.5 132q0 127 199 283h-523v1217h588v-50z" />
    <glyph glyph-name="F.sc" horiz-adv-x="911" 
d="M227 0v1217h592v-50h-540v-528h499v-49h-499v-590h-52z" />
    <glyph glyph-name="G.sc" horiz-adv-x="1177" 
d="M1014 627v-598q-43 -19 -118.5 -32t-145.5 -13q-170 0 -309 75t-222.5 218.5t-83.5 328.5q0 137 47 254.5t128.5 199t194.5 127.5t243 46q140 0 260 -51v-56q-120 56 -258 56q-245 0 -403.5 -160t-158.5 -416q0 -172 77 -303.5t203.5 -199.5t281.5 -68q56 0 118.5 8.5
t94.5 22.5v561h51z" />
    <glyph glyph-name="Gbreve.sc" horiz-adv-x="1177" 
d="M993 1714q-4 -119 -88.5 -187.5t-206.5 -68.5t-206.5 68.5t-90.5 187.5h52q6 -92 75 -150.5t170 -58.5q100 0 169 58.5t75 150.5h51zM1014 627v-598q-43 -19 -118.5 -32t-145.5 -13q-170 0 -309 75t-222.5 218.5t-83.5 328.5q0 137 47 254.5t128.5 199t194.5 127.5
t243 46q140 0 260 -51v-56q-120 56 -258 56q-245 0 -403.5 -160t-158.5 -416q0 -172 77 -303.5t203.5 -199.5t281.5 -68q56 0 118.5 8.5t94.5 22.5v561h51z" />
    <glyph glyph-name="Gcommaaccent.sc" horiz-adv-x="1177" 
d="M1014 627v-598q-43 -19 -118.5 -32t-145.5 -13q-170 0 -309 75t-222.5 218.5t-83.5 328.5q0 137 47 254.5t128.5 199t194.5 127.5t243 46q140 0 260 -51v-56q-120 56 -258 56q-245 0 -403.5 -160t-158.5 -416q0 -172 77 -303.5t203.5 -199.5t281.5 -68q56 0 118.5 8.5
t94.5 22.5v561h51zM725 -162q23 -163 -49 -340h-45q60 171 41 340h53z" />
    <glyph glyph-name="Gdotaccent.sc" horiz-adv-x="1177" 
d="M696 1487q-20 0 -35.5 14.5t-15.5 34.5q0 21 15 36t36 15q22 0 38 -15t16 -36q0 -20 -16 -34.5t-38 -14.5zM1014 627v-598q-43 -19 -118.5 -32t-145.5 -13q-170 0 -309 75t-222.5 218.5t-83.5 328.5q0 137 47 254.5t128.5 199t194.5 127.5t243 46q140 0 260 -51v-56
q-120 56 -258 56q-245 0 -403.5 -160t-158.5 -416q0 -172 77 -303.5t203.5 -199.5t281.5 -68q56 0 118.5 8.5t94.5 22.5v561h51z" />
    <glyph glyph-name="H.sc" horiz-adv-x="1310" 
d="M1032 0v600h-753v-600h-52v1217h52v-568h753v568h51v-1217h-51z" />
    <glyph glyph-name="Hbar.sc" horiz-adv-x="1325" 
d="M1264 952v-43h-174v-909h-52v600h-753v-600h-52v909h-170v43h170v265h52v-265h753v265h52v-265h174zM1038 649v260h-753v-260h753z" />
    <glyph glyph-name="I.sc" horiz-adv-x="505" 
d="M227 0v1217h52v-1217h-52z" />
    <glyph glyph-name="IJ.sc" horiz-adv-x="1286" 
d="M227 0v1217h52v-1217h-52zM600 111q88 -76 199 -76q102 0 161.5 66t59.5 188v928h51v-928q0 -143 -74.5 -224t-197.5 -81q-113 0 -199 71v56z" />
    <glyph glyph-name="Iacute.sc" horiz-adv-x="505" 
d="M403 1739h64l-260 -326h-51zM227 0v1217h52v-1217h-52z" />
    <glyph glyph-name="Icircumflex.sc" horiz-adv-x="505" 
d="M276 1739l254 -326h-59l-219 281l-219 -281h-58l254 326h47zM227 0v1217h52v-1217h-52z" />
    <glyph glyph-name="Idieresis.sc" horiz-adv-x="505" 
d="M90 1487q-22 0 -36.5 14.5t-14.5 34.5q0 22 14.5 36.5t36.5 14.5t36.5 -14.5t14.5 -36.5q0 -20 -14.5 -34.5t-36.5 -14.5zM416 1487q-22 0 -36.5 14.5t-14.5 34.5q0 22 14.5 36.5t36.5 14.5t36.5 -14.5t14.5 -36.5q0 -20 -14.5 -34.5t-36.5 -14.5zM227 0v1217h52v-1217
h-52z" />
    <glyph glyph-name="Idotaccent.sc" horiz-adv-x="505" 
d="M250 1487q-20 0 -35.5 14.5t-15.5 34.5q0 21 15 36t36 15q22 0 37.5 -14.5t15.5 -36.5q0 -20 -15.5 -34.5t-37.5 -14.5zM227 0v1217h52v-1217h-52z" />
    <glyph glyph-name="Igrave.sc" horiz-adv-x="505" 
d="M100 1739l248 -326h-51l-260 326h63zM227 0v1217h52v-1217h-52z" />
    <glyph glyph-name="Imacron.sc" horiz-adv-x="505" 
d="M-18 1524v47h538v-47h-538zM227 0v1217h52v-1217h-52z" />
    <glyph glyph-name="Iogonek.sc" horiz-adv-x="505" 
d="M66 -276q0 -68 44 -104t101 -36q48 0 70 13v-46q-16 -12 -70 -12q-77 0 -136 46t-59 132q0 130 211 291v1209h52v-1215l2 -2q-107 -84 -161 -149t-54 -127z" />
    <glyph glyph-name="J.sc" horiz-adv-x="757" 
d="M72 111q88 -76 198 -76q102 0 162 66t60 188v928h51v-928q0 -143 -75 -224t-198 -81q-112 0 -198 71v56z" />
    <glyph glyph-name="K.sc" horiz-adv-x="1046" 
d="M279 1217v-1217h-52v1217h52zM975 1217l-627 -594l643 -623h-67l-643 623l626 594h68z" />
    <glyph glyph-name="Kcommaaccent.sc" horiz-adv-x="1046" 
d="M279 1217v-1217h-52v1217h52zM975 1217l-627 -594l643 -623h-67l-643 623l626 594h68zM598 -162q23 -163 -49 -340h-45q60 171 41 340h53z" />
    <glyph glyph-name="L.sc" horiz-adv-x="905" 
d="M227 0v1217h52v-1166h563v-51h-615z" />
    <glyph glyph-name="Lacute.sc" horiz-adv-x="905" 
d="M403 1739h64l-260 -326h-51zM227 0v1217h52v-1166h563v-51h-615z" />
    <glyph glyph-name="Lcaron.sc" horiz-adv-x="905" 
d="M227 0v1217h52v-1166h563v-51h-615zM475 909q27 110 27 191q0 63 -15 117h52q10 -57 10 -99q0 -115 -35 -209h-39z" />
    <glyph glyph-name="Lcommaaccent.sc" horiz-adv-x="905" 
d="M227 0v1217h52v-1166h563v-51h-615zM561 -162q23 -163 -49 -340h-45q60 171 41 340h53z" />
    <glyph glyph-name="Ldot.sc" horiz-adv-x="946" 
d="M227 0v1217h52v-1166h563v-51h-615zM711 547q-28 0 -48 19t-20 48t20 48.5t48 19.5q29 0 49 -19.5t20 -48.5t-20 -48t-49 -19z" />
    <glyph glyph-name="Lslash.sc" horiz-adv-x="991" 
d="M365 51h563v-51h-615v514l-258 -160v54l258 159v650h52v-617l342 211v-55l-342 -211v-494z" />
    <glyph glyph-name="M.sc" horiz-adv-x="1593" 
d="M362 1139l-169 -1139h-54l189 1217h63l406 -1141h2l403 1141h66l186 -1217h-53l-170 1139h-2l-408 -1139h-53l-401 1139h-5z" />
    <glyph glyph-name="N.sc" horiz-adv-x="1331" 
d="M1104 1217v-1217h-57l-766 1139h-2v-1139h-52v1217h60l764 -1137h2v1137h51z" />
    <glyph glyph-name="Nacute.sc" horiz-adv-x="1331" 
d="M823 1739h64l-260 -326h-52zM1104 1217v-1217h-57l-766 1139h-2v-1139h-52v1217h60l764 -1137h2v1137h51z" />
    <glyph glyph-name="Ncaron.sc" horiz-adv-x="1331" 
d="M948 1739l-254 -326h-47l-254 326h60l219 -281l219 281h57zM1104 1217v-1217h-57l-766 1139h-2v-1139h-52v1217h60l764 -1137h2v1137h51z" />
    <glyph glyph-name="Ncommaaccent.sc" horiz-adv-x="1331" 
d="M1104 1217v-1217h-57l-766 1139h-2v-1139h-52v1217h60l764 -1137h2v1137h51zM692 -162q23 -163 -49 -340h-45q60 171 41 340h53z" />
    <glyph glyph-name="Eng.sc" horiz-adv-x="1331" 
d="M1104 1217v-1375q0 -143 -75 -223t-200 -80q-111 0 -196 70v55q88 -76 196 -76q102 0 163 66t61 188v150l-772 1147h-2v-1139h-52v1217h60l764 -1137h2v1137h51z" />
    <glyph glyph-name="Ntilde.sc" horiz-adv-x="1331" 
d="M991 1593q4 -79 -45.5 -121t-120.5 -42q-42 0 -85 18.5t-74 40.5t-71.5 40.5t-78.5 18.5q-55 0 -88.5 -31t-32.5 -87h-47q-3 79 47 121t121 42q42 0 85 -18.5t74 -40.5t71.5 -40.5t78.5 -18.5q56 0 89 31t30 87h47zM1104 1217v-1217h-57l-766 1139h-2v-1139h-52v1217h60
l764 -1137h2v1137h51z" />
    <glyph glyph-name="O.sc" horiz-adv-x="1435" 
d="M717 1233q119 0 225.5 -46t185 -127t124.5 -198.5t46 -253.5q0 -135 -46 -252.5t-124.5 -198.5t-185 -127t-225.5 -46t-225 46t-184.5 127t-124.5 198.5t-46 252.5q0 136 46 253.5t124.5 198.5t184.5 127t225 46zM717 1182q-145 0 -265 -71t-191 -203t-71 -300
q0 -126 41.5 -234t112.5 -182t168 -115.5t205 -41.5q144 0 264 70.5t192 202.5t72 300t-72 300t-192 203t-264 71z" />
    <glyph glyph-name="Oacute.sc" horiz-adv-x="1435" 
d="M868 1739h64l-260 -326h-51zM717 1233q119 0 225.5 -46t185 -127t124.5 -198.5t46 -253.5q0 -135 -46 -252.5t-124.5 -198.5t-185 -127t-225.5 -46t-225 46t-184.5 127t-124.5 198.5t-46 252.5q0 136 46 253.5t124.5 198.5t184.5 127t225 46zM717 1182q-145 0 -265 -71
t-191 -203t-71 -300q0 -126 41.5 -234t112.5 -182t168 -115.5t205 -41.5q144 0 264 70.5t192 202.5t72 300t-72 300t-192 203t-264 71z" />
    <glyph glyph-name="Ocircumflex.sc" horiz-adv-x="1435" 
d="M741 1739l254 -326h-59l-219 281l-219 -281h-58l254 326h47zM717 1233q119 0 225.5 -46t185 -127t124.5 -198.5t46 -253.5q0 -135 -46 -252.5t-124.5 -198.5t-185 -127t-225.5 -46t-225 46t-184.5 127t-124.5 198.5t-46 252.5q0 136 46 253.5t124.5 198.5t184.5 127
t225 46zM717 1182q-145 0 -265 -71t-191 -203t-71 -300q0 -126 41.5 -234t112.5 -182t168 -115.5t205 -41.5q144 0 264 70.5t192 202.5t72 300t-72 300t-192 203t-264 71z" />
    <glyph glyph-name="Odieresis.sc" horiz-adv-x="1435" 
d="M555 1487q-22 0 -36.5 14.5t-14.5 34.5q0 22 14.5 36.5t36.5 14.5t36.5 -14.5t14.5 -36.5q0 -20 -14.5 -34.5t-36.5 -14.5zM881 1487q-22 0 -37 14.5t-15 34.5q0 22 15 36.5t37 14.5t36.5 -14.5t14.5 -36.5q0 -20 -14.5 -34.5t-36.5 -14.5zM717 1233q119 0 225.5 -46
t185 -127t124.5 -198.5t46 -253.5q0 -135 -46 -252.5t-124.5 -198.5t-185 -127t-225.5 -46t-225 46t-184.5 127t-124.5 198.5t-46 252.5q0 136 46 253.5t124.5 198.5t184.5 127t225 46zM717 1182q-145 0 -265 -71t-191 -203t-71 -300q0 -126 41.5 -234t112.5 -182
t168 -115.5t205 -41.5q144 0 264 70.5t192 202.5t72 300t-72 300t-192 203t-264 71z" />
    <glyph glyph-name="Ograve.sc" horiz-adv-x="1435" 
d="M565 1739l248 -326h-51l-260 326h63zM717 1233q119 0 225.5 -46t185 -127t124.5 -198.5t46 -253.5q0 -135 -46 -252.5t-124.5 -198.5t-185 -127t-225.5 -46t-225 46t-184.5 127t-124.5 198.5t-46 252.5q0 136 46 253.5t124.5 198.5t184.5 127t225 46zM717 1182
q-145 0 -265 -71t-191 -203t-71 -300q0 -126 41.5 -234t112.5 -182t168 -115.5t205 -41.5q144 0 264 70.5t192 202.5t72 300t-72 300t-192 203t-264 71z" />
    <glyph glyph-name="Ohungarumlaut.sc" horiz-adv-x="1435" 
d="M864 1739l-295 -326h-53l283 326h65zM1147 1739l-295 -326h-53l280 326h68zM717 1233q119 0 225.5 -46t185 -127t124.5 -198.5t46 -253.5q0 -135 -46 -252.5t-124.5 -198.5t-185 -127t-225.5 -46t-225 46t-184.5 127t-124.5 198.5t-46 252.5q0 136 46 253.5t124.5 198.5
t184.5 127t225 46zM717 1182q-145 0 -265 -71t-191 -203t-71 -300q0 -126 41.5 -234t112.5 -182t168 -115.5t205 -41.5q144 0 264 70.5t192 202.5t72 300t-72 300t-192 203t-264 71z" />
    <glyph glyph-name="Omacron.sc" horiz-adv-x="1435" 
d="M446 1524v47h539v-47h-539zM717 1233q119 0 225.5 -46t185 -127t124.5 -198.5t46 -253.5q0 -135 -46 -252.5t-124.5 -198.5t-185 -127t-225.5 -46t-225 46t-184.5 127t-124.5 198.5t-46 252.5q0 136 46 253.5t124.5 198.5t184.5 127t225 46zM717 1182q-145 0 -265 -71
t-191 -203t-71 -300q0 -126 41.5 -234t112.5 -182t168 -115.5t205 -41.5q144 0 264 70.5t192 202.5t72 300t-72 300t-192 203t-264 71z" />
    <glyph glyph-name="Oslash.sc" horiz-adv-x="1445" 
d="M1305 1194l-150 -160q150 -173 150 -426q0 -135 -46 -252.5t-125 -198.5t-185.5 -127t-225.5 -46q-115 0 -217.5 42t-181.5 119l-144 -153l-30 28l145 156q-154 179 -154 432q0 136 46 253.5t125 198.5t185.5 127t225.5 46q116 0 220 -44t183 -124l148 158zM195 608
q0 -234 135 -395l762 815q-151 154 -369 154q-145 0 -265 -71t-191.5 -203t-71.5 -300zM1251 608q0 232 -131 389l-762 -815q150 -147 365 -147q144 0 264 70.5t192 202.5t72 300z" />
    <glyph glyph-name="Otilde.sc" horiz-adv-x="1435" 
d="M1036 1593q4 -79 -45.5 -121t-120.5 -42q-42 0 -85 18.5t-74 40.5t-71.5 40.5t-78.5 18.5q-55 0 -88.5 -31t-32.5 -87h-47q-3 79 47 121t121 42q42 0 85 -18.5t74 -40.5t71.5 -40.5t78.5 -18.5q56 0 89 31t30 87h47zM717 1233q119 0 225.5 -46t185 -127t124.5 -198.5
t46 -253.5q0 -135 -46 -252.5t-124.5 -198.5t-185 -127t-225.5 -46t-225 46t-184.5 127t-124.5 198.5t-46 252.5q0 136 46 253.5t124.5 198.5t184.5 127t225 46zM717 1182q-145 0 -265 -71t-191 -203t-71 -300q0 -126 41.5 -234t112.5 -182t168 -115.5t205 -41.5
q144 0 264 70.5t192 202.5t72 300t-72 300t-192 203t-264 71z" />
    <glyph glyph-name="OE.sc" horiz-adv-x="1677" 
d="M137 608q0 136 46 253.5t124.5 198.5t184.5 127t225 46q139 0 235 -16h582v-50h-537v-522h500v-51h-500v-543h537v-51h-582q-115 -16 -235 -16q-119 0 -225 46t-184.5 127t-124.5 198.5t-46 252.5zM190 608q0 -126 41.5 -234t112.5 -182t168 -115.5t205 -41.5
q131 0 229 14v1118q-88 15 -229 15q-145 0 -265 -71t-191 -203t-71 -300z" />
    <glyph glyph-name="P.sc" horiz-adv-x="1003" 
d="M227 1217h244q195 0 312.5 -97t117.5 -266q0 -177 -117 -278t-317 -101h-188v-475h-52v1217zM469 524q178 0 278.5 87.5t100.5 242.5q0 147 -100.5 230t-276.5 83h-192v-643h190z" />
    <glyph glyph-name="Thorn.sc" horiz-adv-x="970" 
d="M279 1217v-218h155q197 0 314.5 -96.5t117.5 -265.5q0 -177 -118 -279t-316 -102h-153v-256h-52v1217h52zM432 307q180 0 280.5 86.5t100.5 241.5q0 149 -100.5 231t-278.5 82h-155v-641h153z" />
    <glyph glyph-name="Q.sc" horiz-adv-x="1435" 
d="M1305 -39l-35 -35l-183 193q-160 -135 -370 -135q-119 0 -225 46t-184.5 127t-124.5 198.5t-46 252.5q0 136 46 253.5t124.5 198.5t184.5 127t225 46t225.5 -46t185 -127t124.5 -198.5t46 -253.5t-46 -252t-128 -202zM717 35q196 0 334 123l-265 278l37 37l264 -283
q75 77 116.5 184t41.5 234q0 168 -72 300t-192 203t-264 71q-145 0 -265 -71t-191 -203t-71 -300q0 -126 41.5 -234t112.5 -182t168 -115.5t205 -41.5z" />
    <glyph glyph-name="R.sc" horiz-adv-x="1005" 
d="M348 553l557 -553h-71l-555 555v-555h-52v1217h240q197 0 296 -91.5t99 -240.5q0 -159 -102.5 -245.5t-292.5 -86.5h-119zM279 1167v-565h190q169 0 254.5 73t85.5 212q0 127 -83.5 203.5t-254.5 76.5h-192z" />
    <glyph glyph-name="Racute.sc" horiz-adv-x="1005" 
d="M735 1739l-260 -326h-51l248 326h63zM348 553l557 -553h-71l-555 555v-555h-52v1217h240q197 0 296 -91.5t99 -240.5q0 -159 -102.5 -245.5t-292.5 -86.5h-119zM279 1167v-565h190q169 0 254.5 73t85.5 212q0 127 -83.5 203.5t-254.5 76.5h-192z" />
    <glyph glyph-name="Rcaron.sc" horiz-adv-x="1005" 
d="M543 1413h-47l-254 326h59l219 -281l219 281h58zM348 553l557 -553h-71l-555 555v-555h-52v1217h240q197 0 296 -91.5t99 -240.5q0 -159 -102.5 -245.5t-292.5 -86.5h-119zM279 1167v-565h190q169 0 254.5 73t85.5 212q0 127 -83.5 203.5t-254.5 76.5h-192z" />
    <glyph glyph-name="Rcommaaccent.sc" horiz-adv-x="1005" 
d="M348 553l557 -553h-71l-555 555v-555h-52v1217h240q197 0 296 -91.5t99 -240.5q0 -159 -102.5 -245.5t-292.5 -86.5h-119zM279 1167v-565h190q169 0 254.5 73t85.5 212q0 127 -83.5 203.5t-254.5 76.5h-192zM494 -162h53q23 -163 -49 -340h-45q60 171 41 340z" />
    <glyph glyph-name="S.sc" horiz-adv-x="948" 
d="M793 1122v-63q-56 63 -136.5 93t-160.5 30q-133 0 -215 -67.5t-82 -170.5q0 -44 15.5 -81t37 -62.5t63.5 -53.5t73.5 -44.5t88.5 -43.5q40 -19 56 -26.5t52.5 -26.5t53.5 -30.5t46.5 -32t44.5 -36.5t35 -40.5t29 -47.5t16 -52.5t7 -61.5q0 -136 -103 -228.5t-257 -92.5
q-78 0 -166.5 27t-157.5 85v66q72 -66 159 -96.5t163 -30.5q136 0 223.5 76.5t87.5 191.5q0 55 -21 99t-65.5 80t-85.5 59.5t-109 56.5q-149 71 -204 110q-134 98 -136 236q0 121 97 205t252 84q84 0 164 -27t135 -84z" />
    <glyph glyph-name="Sacute.sc" horiz-adv-x="948" 
d="M659 1739h64l-260 -326h-51zM793 1122v-63q-56 63 -136.5 93t-160.5 30q-133 0 -215 -67.5t-82 -170.5q0 -44 15.5 -81t37 -62.5t63.5 -53.5t73.5 -44.5t88.5 -43.5q40 -19 56 -26.5t52.5 -26.5t53.5 -30.5t46.5 -32t44.5 -36.5t35 -40.5t29 -47.5t16 -52.5t7 -61.5
q0 -136 -103 -228.5t-257 -92.5q-78 0 -166.5 27t-157.5 85v66q72 -66 159 -96.5t163 -30.5q136 0 223.5 76.5t87.5 191.5q0 55 -21 99t-65.5 80t-85.5 59.5t-109 56.5q-149 71 -204 110q-134 98 -136 236q0 121 97 205t252 84q84 0 164 -27t135 -84z" />
    <glyph glyph-name="Scaron.sc" horiz-adv-x="948" 
d="M784 1739l-254 -326h-47l-254 326h60l219 -281l219 281h57zM793 1122v-63q-56 63 -136.5 93t-160.5 30q-133 0 -215 -67.5t-82 -170.5q0 -44 15.5 -81t37 -62.5t63.5 -53.5t73.5 -44.5t88.5 -43.5q40 -19 56 -26.5t52.5 -26.5t53.5 -30.5t46.5 -32t44.5 -36.5t35 -40.5
t29 -47.5t16 -52.5t7 -61.5q0 -136 -103 -228.5t-257 -92.5q-78 0 -166.5 27t-157.5 85v66q72 -66 159 -96.5t163 -30.5q136 0 223.5 76.5t87.5 191.5q0 55 -21 99t-65.5 80t-85.5 59.5t-109 56.5q-149 71 -204 110q-134 98 -136 236q0 121 97 205t252 84q84 0 164 -27
t135 -84z" />
    <glyph glyph-name="Scedilla.sc" horiz-adv-x="948" 
d="M817 305q0 -124 -86.5 -213t-222.5 -106q-4 -111 -41.5 -191.5t-101.5 -159.5h-62q72 87 111.5 165t44.5 184h-2q-78 0 -166.5 27t-157.5 85v66q72 -66 159 -96.5t163 -30.5q136 0 223.5 76.5t87.5 191.5q0 55 -21 99t-65.5 80t-85.5 59.5t-109 56.5q-149 71 -204 110
q-134 98 -136 236q0 121 97 205t252 84q84 0 164 -27t135 -84v-63q-56 63 -136.5 93t-160.5 30q-133 0 -215 -67.5t-82 -170.5q0 -44 15.5 -81t37 -62.5t63.5 -53.5t73.5 -44.5t88.5 -43.5q40 -19 56 -26.5t52.5 -26.5t53.5 -30.5t46.5 -32t44.5 -36.5t35 -40.5t29 -47.5
t16 -52.5t7 -61.5z" />
    <glyph glyph-name="Scommaaccent.sc" horiz-adv-x="948" 
d="M793 1122v-63q-56 63 -136.5 93t-160.5 30q-133 0 -215 -67.5t-82 -170.5q0 -44 15.5 -81t37 -62.5t63.5 -53.5t73.5 -44.5t88.5 -43.5q40 -19 56 -26.5t52.5 -26.5t53.5 -30.5t46.5 -32t44.5 -36.5t35 -40.5t29 -47.5t16 -52.5t7 -61.5q0 -136 -103 -228.5t-257 -92.5
q-78 0 -166.5 27t-157.5 85v66q72 -66 159 -96.5t163 -30.5q136 0 223.5 76.5t87.5 191.5q0 55 -21 99t-65.5 80t-85.5 59.5t-109 56.5q-149 71 -204 110q-134 98 -136 236q0 121 97 205t252 84q84 0 164 -27t135 -84zM508 -162q23 -163 -49 -340h-45q60 171 41 340h53z" />
    <glyph glyph-name="uni1E9E.sc" horiz-adv-x="1241" 
d="M731 659q176 0 285.5 -93.5t109.5 -239.5q0 -143 -104 -241.5t-264 -98.5q-91 0 -176 33.5t-152 91.5v55q150 -133 328 -133q137 0 226 83t89 210q0 130 -96.5 210t-255.5 80h-103l357 467q-112 99 -291 99q-193 0 -307.5 -118t-114.5 -306v-758h-53v762q0 99 34 185.5
t95 149.5t150 99.5t194 36.5q213 0 356 -137l-333 -437h26z" />
    <glyph glyph-name="T.sc" horiz-adv-x="993" 
d="M471 0v1167h-410v50h871v-50h-408v-1167h-53z" />
    <glyph glyph-name="Tbar.sc" horiz-adv-x="1034" 
d="M952 1167h-407v-532h274v-47h-274v-588h-53v588h-277v47h277v532h-410v50h870v-50z" />
    <glyph glyph-name="Tcaron.sc" horiz-adv-x="993" 
d="M772 1739l-254 -326h-47l-254 326h59l220 -281l219 281h57zM471 0v1167h-410v50h871v-50h-408v-1167h-53z" />
    <glyph glyph-name="uni0162.sc" horiz-adv-x="993" 
d="M61 1217h871v-50h-408v-1167h-2q-1 -117 -39 -200.5t-104 -164.5h-62q76 93 115.5 173t40.5 192h-2v1167h-410v50z" />
    </font>
</defs>
</svg>
