<?xml version="1.0" standalone="no"?>
<!DOCTYPE svg PUBLIC "-//W3C//DTD SVG 1.1//EN" "http://www.w3.org/Graphics/SVG/1.1/DTD/svg11.dtd" >
<svg xmlns="http://www.w3.org/2000/svg" xmlns:xlink="http://www.w3.org/1999/xlink" version="1.1">
<metadata>
Created by FontForge 20201107 at Wed May 21 08:18:31 2025
 By 
Copyright 2015 (c) Newlyn Works Limited
</metadata>
<defs>
<font id="HeroNew-Hairline" horiz-adv-x="1249" >
  <font-face 
    font-family="Hero New Hairline"
    font-weight="250"
    font-stretch="normal"
    units-per-em="2048"
    panose-1="2 0 1 0 0 0 0 0 0 0"
    ascent="1638"
    descent="-410"
    x-height="1073"
    cap-height="1520"
    bbox="-346 -487 2345 2152"
    underline-thickness="102"
    underline-position="-204"
    unicode-range="U+000D-FB02"
  />
<missing-glyph horiz-adv-x="1318" 
d="M1133 1520v-1520h-947v1520h947zM1094 1495h-869l445 -709zM213 1466v-1413l440 707zM1106 1466l-420 -706l420 -707v1413zM670 733l-445 -708h869z" />
    <glyph glyph-name="fi" unicode="fi" horiz-adv-x="1099" 
d="M236 0v1049h-166v24h166v240q0 159 81.5 240t208.5 81q90 0 152 -30v-27q-72 33 -152 33q-116 0 -190 -73.5t-74 -223.5v-240h330v-24h-330v-1049h-26zM874 1450q-15 0 -25.5 11t-10.5 26t10.5 26t25.5 11t26 -11t11 -26t-11 -26t-26 -11zM860 0v1073h27v-1073h-27z" />
    <glyph glyph-name="fl" unicode="fl" horiz-adv-x="1099" 
d="M236 0v1049h-166v24h166v240q0 159 81.5 240t208.5 81q90 0 152 -30v-27q-72 33 -152 33q-116 0 -190 -73.5t-74 -223.5v-240h330v-24h-330v-1049h-26zM860 0v1620h27v-1620h-27z" />
    <glyph glyph-name=".notdef" horiz-adv-x="1318" 
d="M1133 1520v-1520h-947v1520h947zM1094 1495h-869l445 -709zM213 1466v-1413l440 707zM1106 1466l-420 -706l420 -707v1413zM670 733l-445 -708h869z" />
    <glyph glyph-name=".null" horiz-adv-x="0" 
 />
    <glyph glyph-name="nonmarkingreturn" horiz-adv-x="682" 
 />
    <glyph glyph-name="CR" unicode="&#xd;" horiz-adv-x="499" 
 />
    <glyph glyph-name="space" unicode=" " horiz-adv-x="610" 
 />
    <glyph glyph-name="exclam" unicode="!" horiz-adv-x="442" 
d="M209 401l-2 1119h29l-3 -1119h-24zM221 -6q-23 0 -39 16t-16 39t16 39t39 16t39 -16t16 -39t-16 -39t-39 -16z" />
    <glyph glyph-name="quotedbl" unicode="&#x22;" horiz-adv-x="641" 
d="M180 1059l-4 461h27l-4 -461h-19zM442 1059l-4 461h27l-4 -461h-19z" />
    <glyph glyph-name="numbersign" unicode="#" horiz-adv-x="1253" 
d="M1139 977h-246l-70 -434h262v-25h-266l-82 -518h-26l82 518h-412l-82 -518h-27l82 518h-239v25h243l70 434h-260v24h264l82 519h27l-82 -519h411l82 519h27l-82 -519h242v-24zM797 543l69 434h-411l-70 -434h412z" />
    <glyph glyph-name="dollar" unicode="$" horiz-adv-x="1075" 
d="M950 410q0 -154 -110 -256t-287 -109l-2 -192h-25l2 192q-110 0 -216.5 35.5t-182.5 91.5v29q75 -58 182 -94.5t217 -36.5q176 0 286 95t110 245q0 60 -21 110t-52.5 85t-85.5 68t-103 54.5t-121 48.5q-88 32 -148 61.5t-117 72.5t-85.5 100t-28.5 129q0 137 100 230.5
t264 103.5v194h25v-192h14q173 0 318 -86v-29q-140 90 -318 90q-169 0 -273 -88t-104 -223q0 -55 19.5 -101t50 -79t81.5 -64t99 -52t117 -46q72 -26 124 -49.5t106 -58t88 -73t55.5 -91t21.5 -115.5z" />
    <glyph glyph-name="percent" unicode="%" horiz-adv-x="1601" 
d="M430 815q-139 0 -233.5 101t-94.5 258q0 156 94.5 258t233.5 102q135 0 230.5 -102.5t95.5 -257.5q0 -156 -95 -257.5t-231 -101.5zM287 0l999 1520h29l-1000 -1520h-28zM430 840q125 0 212 95t87 239q0 145 -87 240t-212 95q-129 0 -215 -94.5t-86 -240.5t86.5 -240
t214.5 -94zM1174 -14q-139 0 -233.5 100.5t-94.5 257.5q0 156 94.5 258.5t233.5 102.5q135 0 230 -103t95 -258q0 -156 -94.5 -257t-230.5 -101zM1174 10q125 0 212 95t87 239q0 146 -87 241t-212 95q-129 0 -215.5 -95t-86.5 -241t87 -240t215 -94z" />
    <glyph glyph-name="ampersand" unicode="&#x26;" horiz-adv-x="1437" 
d="M1350 0h-35l-297 311l-25 -37q-95 -145 -199 -216.5t-241 -71.5q-174 0 -287.5 108t-113.5 271q0 66 22.5 125t55 102t88 86t102.5 71.5t117 65.5q-156 163 -209.5 246t-53.5 168q0 132 99.5 218.5t249.5 86.5q149 0 242 -87t93 -218q0 -58 -22 -110.5t-54.5 -91.5
t-87 -80.5t-102 -70t-117.5 -65.5l439 -459l286 436h31l-299 -454zM623 1509q-138 0 -230 -79.5t-92 -200.5q0 -75 52.5 -158t205.5 -244q70 37 117.5 65t99.5 67.5t83.5 77.5t52 87.5t20.5 104.5q0 120 -86.5 200t-222.5 80zM971 287l28 43l-446 469q-86 -45 -144 -83
t-115.5 -91.5t-86.5 -118t-29 -141.5q0 -153 106.5 -254t268.5 -101q128 0 227 69t191 208z" />
    <glyph glyph-name="quotesingle" unicode="'" horiz-adv-x="378" 
d="M180 1059l-4 461h27l-4 -461h-19z" />
    <glyph glyph-name="parenleft" unicode="(" horiz-adv-x="591" 
d="M553 1520q-397 -387 -397 -897q0 -506 397 -893h-33q-181 181 -285 405.5t-104 487.5q0 264 104.5 490.5t284.5 406.5h33z" />
    <glyph glyph-name="parenright" unicode=")" horiz-adv-x="591" 
d="M39 1520h33q180 -180 284.5 -406.5t104.5 -490.5q0 -263 -104 -487.5t-285 -405.5h-33q397 387 397 893q0 510 -397 897z" />
    <glyph glyph-name="asterisk" unicode="*" horiz-adv-x="1169" 
d="M596 1628v-418l395 129l8 -20l-397 -129l244 -336l-19 -12l-241 334h-2l-242 -334l-18 12l243 336l-397 129l8 20l395 -129v418h23z" />
    <glyph glyph-name="plus" unicode="+" horiz-adv-x="1273" 
d="M649 1276v-479h481v-25h-481v-479h-26v479h-480v25h480v479h26z" />
    <glyph glyph-name="comma" unicode="," horiz-adv-x="391" 
d="M90 -272q94 218 94 415v64h27v-64q0 -190 -96 -415h-25z" />
    <glyph glyph-name="hyphen" unicode="-" horiz-adv-x="796" 
d="M174 575v25h449v-25h-449z" />
    <glyph glyph-name="period" unicode="." horiz-adv-x="442" 
d="M221 -6q-23 0 -39 16t-16 39t16 39t39 16t39 -16t16 -39t-16 -39t-39 -16z" />
    <glyph glyph-name="slash" unicode="/" horiz-adv-x="860" 
d="M92 -270l649 1898h27l-649 -1898h-27z" />
    <glyph glyph-name="zero" unicode="0" horiz-adv-x="1312" 
d="M655 1534q103 0 194.5 -52t160.5 -148t109 -244.5t40 -329.5t-40 -329.5t-109 -244.5t-160.5 -148t-194.5 -52t-194 52t-159.5 148t-108 244.5t-39.5 329.5t39.5 329.5t108 244.5t159.5 148t194 52zM655 1509q-98 0 -184 -50t-151 -143t-102.5 -236.5t-37.5 -319.5
t37.5 -319.5t102.5 -236.5t151 -143.5t184 -50.5t184.5 50.5t152 143.5t103.5 236.5t38 319.5t-38 319.5t-103.5 236.5t-152 143t-184.5 50z" />
    <glyph glyph-name="one" unicode="1" horiz-adv-x="876" 
d="M496 0v1489l-420 -201v27l426 205h20v-1520h-26z" />
    <glyph glyph-name="two" unicode="2" horiz-adv-x="1101" 
d="M90 0q194 207 314 337.5t220.5 248t150 186.5t84.5 137.5t44.5 116.5t9.5 109q0 72 -25.5 138.5t-74 119.5t-125.5 84.5t-172 31.5q-108 0 -201.5 -43t-160.5 -120v30q140 158 362 158q100 0 182 -33.5t134 -90t80 -127.5t28 -148q0 -181 -129 -357.5t-646 -737.5
q-8 -10 -13 -15h821v-25h-883z" />
    <glyph glyph-name="three" unicode="3" horiz-adv-x="1112" 
d="M592 784q177 -29 275 -137.5t98 -261.5q0 -170 -115.5 -284.5t-317.5 -114.5q-126 0 -228 46t-167 136v37q60 -93 163.5 -144t231.5 -51q191 0 298.5 107t107.5 268q0 169 -121 277t-338 108h-149v25h149q95 0 173 32t127 85t75.5 119t26.5 136q0 144 -101 243t-258 99
q-104 0 -191.5 -43t-140.5 -114v37q58 68 144.5 106.5t187.5 38.5q167 0 276 -107t109 -260q0 -132 -84 -241.5t-231 -141.5z" />
    <glyph glyph-name="four" unicode="4" horiz-adv-x="1230" 
d="M1145 430v-24h-275v-406h-26v406h-768v22l770 1092h24v-1090h275zM111 430h733v1036h-2l-731 -1034v-2z" />
    <glyph glyph-name="five" unicode="5" horiz-adv-x="1116" 
d="M915 1520v-25h-518l-137 -653l2 -2q104 53 248 53q220 0 350.5 -131t130.5 -324q0 -125 -54 -227t-161.5 -163.5t-251.5 -61.5q-132 0 -236.5 48.5t-176.5 131.5v31q76 -89 182 -138t231 -49q205 0 323 122t118 306q0 89 -31 167t-88 136.5t-143.5 92.5t-192.5 34
q-158 0 -270 -65l-9 6l150 711h534z" />
    <glyph glyph-name="six" unicode="6" horiz-adv-x="1146" 
d="M840 1520l-496 -639l2 -2q30 15 88.5 28t116.5 13q91 0 177 -31t155.5 -88.5t112 -150t42.5 -204.5q0 -192 -129.5 -326t-328.5 -134q-200 0 -331.5 136t-131.5 329q0 107 45.5 201t150.5 229l498 639h29zM317 846q-95 -125 -134.5 -209.5t-39.5 -185.5q0 -183 124 -312
t313 -129t310.5 126.5t121.5 309.5q0 108 -40.5 195.5t-107 141.5t-147 83t-166.5 29q-130 0 -234 -49z" />
    <glyph glyph-name="seven" unicode="7" horiz-adv-x="999" 
d="M133 0l803 1495h-825v25h866l-813 -1520h-31z" />
    <glyph glyph-name="eight" unicode="8" horiz-adv-x="1216" 
d="M721 784q154 -31 250 -139t96 -254q0 -174 -130 -289.5t-329 -115.5t-328.5 115.5t-129.5 289.5q0 146 96 254t250 139v2q-132 34 -214.5 134.5t-82.5 232.5q0 161 118 271t291 110t291.5 -110t118.5 -271q0 -132 -83 -232.5t-214 -134.5v-2zM223 1153q0 -152 111 -255
t274 -103t274 103t111 255t-111 254t-274 102t-274 -102t-111 -254zM608 774q-188 0 -311 -109.5t-123 -273.5q0 -165 122.5 -273t311.5 -108t311.5 108t122.5 273q0 164 -123 273.5t-311 109.5z" />
    <glyph glyph-name="nine" unicode="9" horiz-adv-x="1126" 
d="M313 0h-26l506 653l-2 2q-30 -15 -87.5 -28t-115.5 -13q-89 0 -173.5 30.5t-153 87t-110.5 147.5t-42 202q0 189 128 321t324 132t325.5 -134t129.5 -323q0 -106 -44.5 -198t-148.5 -226zM819 688q93 123 131.5 206t38.5 183q0 180 -121 306t-307 126t-306 -124
t-120 -304q0 -106 39.5 -192.5t105 -139.5t145 -81.5t163.5 -28.5q127 0 231 49z" />
    <glyph glyph-name="colon" unicode=":" horiz-adv-x="462" 
d="M231 711q-23 0 -39 16t-16 39t16 39t39 16t39.5 -16t16.5 -39t-16.5 -39t-39.5 -16zM231 -6q-23 0 -39 16t-16 39t16 39t39 16t39.5 -16t16.5 -39t-16.5 -39t-39.5 -16z" />
    <glyph glyph-name="semicolon" unicode=";" horiz-adv-x="456" 
d="M242 711q-23 0 -39.5 16t-16.5 39t16.5 39t39.5 16t39 -16t16 -39t-16 -39t-39 -16zM135 -272q94 218 94 415v64h27v-64q0 -190 -96 -415h-25z" />
    <glyph glyph-name="less" unicode="&#x3c;" horiz-adv-x="1329" 
d="M1106 1219v26l-987 -446v-27l987 -446v26l-956 432v2z" />
    <glyph glyph-name="equal" unicode="=" horiz-adv-x="1355" 
d="M184 928v24h987v-24h-987zM184 616v25h987v-25h-987z" />
    <glyph glyph-name="greater" unicode="&#x3e;" horiz-adv-x="1329" 
d="M223 1219l957 -433v-2l-957 -432v-26l987 446v27l-987 446v-26z" />
    <glyph glyph-name="question" unicode="?" horiz-adv-x="1001" 
d="M475 1534q161 0 271 -104.5t110 -280.5q0 -138 -85.5 -271t-293.5 -352l-39 -41h-35l52 56q142 153 214 242.5t116 182.5t44 183q0 166 -101.5 263t-252.5 97q-215 0 -362 -184v35q58 73 153.5 123.5t208.5 50.5zM438 104q23 0 39.5 -16t16.5 -39t-16.5 -39t-39.5 -16
t-39 16t-16 39t16 39t39 16z" />
    <glyph glyph-name="at" unicode="@" horiz-adv-x="2007" 
d="M1323 86h-12l41 287h-2q-59 -138 -166 -219.5t-236 -81.5q-71 0 -135.5 25.5t-117 74.5t-84 128.5t-31.5 178.5q0 144 64.5 264t169.5 187t224 67q134 0 235.5 -85t119.5 -228h2l43 303h22l-123 -876q62 4 129 33.5t132.5 86.5t117.5 133t84.5 182.5t32.5 225.5
q0 154 -58.5 277t-160 200.5t-233 118.5t-283.5 41q-110 0 -220 -26.5t-214.5 -77.5t-194.5 -131.5t-157.5 -181.5t-106.5 -236t-39 -287q0 -173 52.5 -312.5t137.5 -229t199 -150t230 -86t237 -25.5q171 0 348 55l-4 -24q-163 -55 -346 -55q-124 0 -244 26.5t-237 89.5
t-204.5 155.5t-141.5 236t-54 319.5q0 155 40 293t109.5 242t162 187t200.5 135.5t222.5 80t228.5 27.5q155 0 291.5 -44t241 -126t165 -209t60.5 -283q0 -152 -53 -285.5t-134 -218.5t-173.5 -133.5t-176.5 -48.5zM948 96q109 0 208 70t160 189.5t62 254.5q1 92 -30 164.5
t-82 114.5t-110 63t-120 21q-111 0 -209.5 -64t-159.5 -178t-61 -250q0 -95 29.5 -170.5t78.5 -121t109 -69.5t125 -24z" />
    <glyph glyph-name="A" unicode="A" horiz-adv-x="1351" 
d="M1307 0h-29l-238 584h-729l-237 -584h-29l619 1520h24zM676 1483l-354 -875h708z" />
    <glyph glyph-name="B" unicode="B" horiz-adv-x="1259" 
d="M752 782q173 -28 271.5 -131t98.5 -256q0 -171 -129.5 -283t-361.5 -112h-373v1520h356q207 0 325 -102t118 -271q0 -142 -76.5 -239.5t-228.5 -125.5zM285 1495v-702h350q104 0 183 29.5t123.5 80.5t66.5 111.5t22 130.5q0 161 -110 255.5t-306 94.5h-329zM631 25
q222 0 343.5 105t121.5 265t-120 266.5t-341 106.5h-350v-743h346z" />
    <glyph glyph-name="C" unicode="C" horiz-adv-x="1359" 
d="M1262 90q-168 -104 -388 -104q-108 0 -213 32t-199 97.5t-165.5 156t-113.5 217.5t-42 273q0 145 41.5 271t112 216.5t162.5 155.5t194.5 97t206.5 32q234 0 404 -104v-29q-163 108 -404 108q-100 0 -198.5 -30.5t-187 -93.5t-156.5 -150t-108 -209.5t-40 -263.5
q0 -142 40.5 -265.5t109.5 -211t159.5 -151t191.5 -94t205 -30.5q222 0 388 109v-29z" />
    <glyph glyph-name="D" unicode="D" horiz-adv-x="1462" 
d="M530 1520q232 0 410 -89.5t279.5 -262t101.5 -404.5t-101 -406.5t-280 -266t-410 -91.5h-272v1520h272zM285 1495v-1470h245q224 0 396.5 87.5t270 256.5t97.5 395q0 170 -56.5 308t-157.5 230.5t-241.5 142.5t-308.5 50h-245z" />
    <glyph glyph-name="E" unicode="E" horiz-adv-x="1118" 
d="M258 0v1520h692v-25h-665v-713h628v-24h-628v-733h665v-25h-692z" />
    <glyph glyph-name="F" unicode="F" horiz-adv-x="1071" 
d="M258 0v1520h707v-25h-680v-719h653v-24h-653v-752h-27z" />
    <glyph glyph-name="G" unicode="G" horiz-adv-x="1462" 
d="M168 762q0 -169 54 -311t148 -238t222 -148.5t274 -50.5q223 3 391 80v707h27v-723q-75 -38 -192 -65t-226 -27q-151 0 -284 55.5t-230.5 155t-154 246t-56.5 319.5t56 319.5t153 244.5t227 153t277 55q244 0 428 -111v-30q-187 114 -428 114q-142 0 -267 -52
t-218 -146.5t-147 -236t-54 -310.5z" />
    <glyph glyph-name="H" unicode="H" horiz-adv-x="1562" 
d="M1278 0v770h-993v-770h-27v1520h27v-725h993v725h27v-1520h-27z" />
    <glyph glyph-name="I" unicode="I" horiz-adv-x="542" 
d="M258 0v1520h27v-1520h-27z" />
    <glyph glyph-name="J" unicode="J" horiz-adv-x="880" 
d="M59 121q120 -111 265 -111q132 0 209 83t77 235v1192h27v-1192q0 -161 -85.5 -251.5t-227.5 -90.5q-146 0 -265 104v31z" />
    <glyph glyph-name="K" unicode="K" horiz-adv-x="1200" 
d="M285 1520v-1520h-27v1520h27zM1147 1520l-821 -762l831 -758h-37l-831 758l823 762h35z" />
    <glyph glyph-name="L" unicode="L" horiz-adv-x="1054" 
d="M258 0v1520h27v-1495h714v-25h-741z" />
    <glyph glyph-name="M" unicode="M" horiz-adv-x="1923" 
d="M412 1470l-244 -1470h-27l254 1520h29l541 -1473h2l528 1473h29l260 -1520h-29l-248 1470h-2l-528 -1470h-25l-538 1470h-2z" />
    <glyph glyph-name="N" unicode="N" horiz-adv-x="1583" 
d="M1325 1520v-1520h-31l-1007 1477h-2v-1477h-27v1520h33l1005 -1475h2v1475h27z" />
    <glyph glyph-name="O" unicode="O" horiz-adv-x="1710" 
d="M854 -14q-149 0 -280.5 57.5t-226.5 158.5t-150.5 246t-55.5 312t55.5 312t150.5 246t226.5 158.5t280.5 57.5t280.5 -57.5t227.5 -158.5t151.5 -246t55.5 -312t-55.5 -312t-151.5 -246t-227.5 -158.5t-280.5 -57.5zM854 10q192 0 349 94.5t248 266.5t91 389
q0 163 -53.5 303t-145.5 237.5t-218.5 153t-270.5 55.5t-270.5 -55.5t-218 -153t-144.5 -237.5t-53 -303q0 -217 90.5 -389t247 -266.5t348.5 -94.5z" />
    <glyph glyph-name="P" unicode="P" horiz-adv-x="1167" 
d="M258 0v1520h289q238 0 381 -117.5t143 -325.5q0 -215 -142.5 -335.5t-383.5 -120.5h-260v-621h-27zM545 645q231 0 365 113t134 319q0 198 -134.5 308t-362.5 110h-262v-850h260z" />
    <glyph glyph-name="Q" unicode="Q" horiz-adv-x="1710" 
d="M1569 760q0 -181 -62.5 -332t-175.5 -256l234 -252l-19 -18l-233 252q-195 -168 -459 -168q-149 0 -280.5 57.5t-226.5 158.5t-150.5 246t-55.5 312t55.5 312t150.5 246t226.5 158.5t280.5 57.5t280.5 -57.5t227.5 -158.5t151.5 -246t55.5 -312zM854 10q251 0 440 162
l-325 352l18 19l328 -353q107 102 167 248.5t60 321.5q0 163 -53.5 303t-145.5 237.5t-218.5 153t-270.5 55.5t-270.5 -55.5t-218 -153t-144.5 -237.5t-53 -303q0 -217 90.5 -389t247 -266.5t348.5 -94.5z" />
    <glyph glyph-name="R" unicode="R" horiz-adv-x="1153" 
d="M322 721l727 -721h-37l-727 721v-721h-27v1520h274q122 0 215 -31t149 -86t84 -127t28 -158q0 -182 -122.5 -289.5t-355.5 -107.5h-208zM285 1495v-750h245q222 0 336.5 100t114.5 273q0 81 -25.5 148t-77.5 119t-140.5 81t-205.5 29h-247z" />
    <glyph glyph-name="S" unicode="S" horiz-adv-x="1103" 
d="M584 1534q87 0 176.5 -25t157.5 -79v-33q-68 58 -157.5 85t-174.5 27q-176 0 -283.5 -95t-107.5 -236q0 -57 21.5 -106t52 -84t87.5 -72.5t103 -61t123 -59.5q74 -34 120.5 -58.5t104.5 -64.5t91 -79.5t56 -96t23 -121.5q0 -165 -124.5 -277t-315.5 -112
q-108 0 -215.5 38.5t-194.5 110.5v33q87 -76 194 -117t214 -41q182 0 298.5 104.5t116.5 260.5q0 44 -11.5 84t-29 71t-49 61.5t-60 52.5t-73.5 48t-79 42.5t-87 41.5q-55 25 -91.5 43.5t-81.5 44.5t-74 48.5t-59.5 52.5t-47.5 61t-28 70t-11 82q0 151 115.5 253.5
t300.5 102.5z" />
    <glyph glyph-name="T" unicode="T" horiz-adv-x="1153" 
d="M563 0v1495h-516v25h1059v-25h-516v-1495h-27z" />
    <glyph glyph-name="U" unicode="U" horiz-adv-x="1507" 
d="M754 -14q-237 0 -377.5 151.5t-140.5 411.5v971h26v-971q0 -251 132.5 -395t359.5 -144t359 144t132 395v971h27v-971q0 -260 -140.5 -411.5t-377.5 -151.5z" />
    <glyph glyph-name="V" unicode="V" horiz-adv-x="1325" 
d="M1278 1520l-602 -1520h-27l-602 1520h29l586 -1479h2l587 1479h27z" />
    <glyph glyph-name="W" unicode="W" horiz-adv-x="2091" 
d="M1538 0l-491 1473h-3l-491 -1473h-31l-452 1520h28l439 -1473h2l493 1473h27l493 -1473h2l441 1473h26l-452 -1520h-31z" />
    <glyph glyph-name="X" unicode="X" horiz-adv-x="1241" 
d="M68 0l536 766l-530 754h30l517 -734l512 734h30l-528 -754l543 -766h-33l-527 745l-520 -745h-30z" />
    <glyph glyph-name="Y" unicode="Y" horiz-adv-x="1189" 
d="M582 0v682l-541 838h29l524 -807h2l522 807h29l-539 -838v-682h-26z" />
    <glyph glyph-name="Z" unicode="Z" horiz-adv-x="1128" 
d="M1065 1520l-961 -1493v-2h912v-25h-961l963 1493v2h-893v25h940z" />
    <glyph glyph-name="bracketleft" unicode="[" horiz-adv-x="509" 
d="M186 -430v1997h265v-25h-238v-1948h238v-24h-265z" />
    <glyph glyph-name="backslash" unicode="\" horiz-adv-x="860" 
d="M768 -270h-27l-649 1898h27z" />
    <glyph glyph-name="bracketright" unicode="]" horiz-adv-x="509" 
d="M324 -430h-265v24h238v1948h-238v25h265v-1997z" />
    <glyph glyph-name="asciicircum" unicode="^" horiz-adv-x="1062" 
d="M930 664h-27l-371 823h-2l-370 -823h-27l385 856h27z" />
    <glyph glyph-name="underscore" unicode="_" horiz-adv-x="1079" 
d="M0 -322v25h1079v-25h-1079z" />
    <glyph glyph-name="grave" unicode="`" 
d="M485 1597l250 -321h-28l-254 321h32z" />
    <glyph glyph-name="a" unicode="a" horiz-adv-x="1300" 
d="M612 -14q-95 0 -182.5 38.5t-155.5 108t-108.5 175t-40.5 229.5t40.5 229.5t108 174.5t154.5 107.5t182 38.5q156 0 283.5 -95.5t175.5 -268.5h2l2 350h23v-1073h-23l-2 350h-2q-48 -174 -174.5 -269t-282.5 -95zM612 10q90 0 172.5 36.5t146.5 102t102 166.5t38 222
t-38 221.5t-102 166.5t-147 102t-174 36q-90 0 -172 -36.5t-146 -102t-102 -166.5t-38 -221t38.5 -221t102.5 -167t146.5 -102.5t172.5 -36.5z" />
    <glyph glyph-name="b" unicode="b" horiz-adv-x="1300" 
d="M231 1620v-897h2q48 173 176 268.5t285 95.5q95 0 182 -38.5t153.5 -107.5t106.5 -174t40 -230q0 -124 -40 -229.5t-107.5 -175t-154.5 -108t-182 -38.5q-157 0 -285 96.5t-176 273.5h-2l-2 -356h-22v1620h26zM694 1063q-91 0 -174.5 -36t-148.5 -101.5t-103.5 -166.5
t-38.5 -222t39 -222t103.5 -166.5t147.5 -102t173 -36.5t172 36.5t145.5 102.5t101.5 167t38 221t-37.5 220.5t-101 166.5t-145 102.5t-171.5 36.5z" />
    <glyph glyph-name="c" unicode="c" horiz-adv-x="1019" 
d="M150 537q0 -116 38.5 -215.5t104 -167t153 -106t183.5 -38.5q165 0 286 86v-30q-126 -80 -286 -80q-135 0 -250 68t-185.5 195.5t-70.5 287.5q0 119 40.5 222.5t108.5 174.5t160 112t193 41q160 0 290 -75v-29q-130 80 -290 80q-96 0 -183 -39t-151.5 -107t-102.5 -167
t-38 -213z" />
    <glyph glyph-name="d" unicode="d" horiz-adv-x="1300" 
d="M612 -14q-95 0 -182.5 38.5t-155.5 108t-108.5 175t-40.5 229.5t40.5 229.5t108 174.5t154.5 107.5t182 38.5q156 0 282.5 -95t174.5 -269h2v897h27v-1620h-23l-2 356h-2q-48 -178 -174 -274t-283 -96zM612 10q90 0 172.5 36.5t146.5 102t102 166.5t38 222t-38 221.5
t-102 166.5t-147 102t-174 36q-90 0 -172 -36.5t-146 -102t-102 -166.5t-38 -221t38.5 -221t102.5 -167t146.5 -102.5t172.5 -36.5z" />
    <glyph glyph-name="e" unicode="e" horiz-adv-x="1165" 
d="M1042 561l-2 -26h-888q0 -243 133.5 -384t341.5 -141q232 0 399 156v-31q-86 -73 -190 -111t-209 -38q-219 0 -360.5 148.5t-141.5 402.5q0 124 40.5 229.5t107.5 174.5t154 107.5t181 38.5q87 0 164 -33.5t138 -97.5t96.5 -166t35.5 -229zM152 559h864q0 123 -33.5 221
t-91 158.5t-130 92.5t-153.5 32q-86 0 -166.5 -35t-143.5 -98.5t-102.5 -159.5t-43.5 -211z" />
    <glyph glyph-name="f" unicode="f" horiz-adv-x="620" 
d="M236 0v1049h-166v24h166v240q0 159 81.5 240t208.5 81q90 0 152 -30v-27q-72 33 -152 33q-116 0 -190 -73.5t-74 -223.5v-240h330v-24h-330v-1049h-26z" />
    <glyph glyph-name="g" unicode="g" horiz-adv-x="1284" 
d="M602 1087q100 0 189.5 -39.5t160.5 -123t101 -199.5h2l2 348h22v-1085q0 -100 -24 -179t-65 -129.5t-99.5 -83.5t-122 -47t-137.5 -14q-250 0 -412 119v31q165 -125 412 -125q88 0 160 21t133 68t95 133t34 206v381h-2q-46 -169 -170 -263t-277 -94q-93 0 -179.5 38
t-153 105.5t-106.5 170t-40 223.5q0 122 39.5 224.5t106 170.5t152.5 105.5t179 37.5zM602 1063q-88 0 -169 -35.5t-143.5 -100t-100 -163t-37.5 -215.5q0 -116 38 -214t101 -162.5t144 -100t169 -35.5t169 35.5t144 99.5t100.5 162t37.5 215q0 118 -37 216.5t-100 162.5
t-144.5 99.5t-171.5 35.5z" />
    <glyph glyph-name="h" unicode="h" horiz-adv-x="1161" 
d="M231 1620v-756h2q42 105 145.5 164t231.5 59q164 0 262.5 -98.5t98.5 -267.5v-721h-27v721q0 160 -90 251t-244 91q-102 0 -186.5 -37t-138.5 -113t-54 -178v-735h-26v1620h26z" />
    <glyph glyph-name="i" unicode="i" horiz-adv-x="452" 
d="M227 1450q-15 0 -26 11t-11 26t11 26t26 11t26 -11t11 -26t-11 -26t-26 -11zM213 0v1073h27v-1073h-27z" />
    <glyph glyph-name="j" unicode="j" horiz-adv-x="452" 
d="M227 1450q-15 0 -26 11t-11 26t11 26t26 11t26 -11t11 -26t-11 -26t-26 -11zM35 -451q178 199 178 549v975h27v-975q0 -184 -43.5 -315t-126.5 -234h-35z" />
    <glyph glyph-name="k" unicode="k" horiz-adv-x="919" 
d="M231 1620v-1620h-26v1620h26zM860 1073l-588 -504l615 -569h-37l-614 569l587 504h37z" />
    <glyph glyph-name="l" unicode="l" horiz-adv-x="452" 
d="M213 0v1620h27v-1620h-27z" />
    <glyph glyph-name="m" unicode="m" horiz-adv-x="1638" 
d="M1141 1087q144 0 225.5 -93.5t81.5 -250.5v-743h-27v743q0 147 -74.5 233.5t-207.5 86.5q-135 0 -217 -89t-82 -231v-743h-27v743q0 144 -76.5 232t-210.5 88t-214.5 -87.5t-80.5 -225.5v-750h-26v1073h22l2 -201h2q30 99 109 157t188 58q122 0 199.5 -67t99.5 -184
q25 115 108.5 183t205.5 68z" />
    <glyph glyph-name="n" unicode="n" horiz-adv-x="1161" 
d="M606 1087q166 0 265.5 -97.5t99.5 -266.5v-723h-27v723q0 160 -91.5 250t-246.5 90q-158 0 -266.5 -88.5t-108.5 -245.5v-729h-26v1073h22l2 -219h2q40 112 141 172.5t234 60.5z" />
    <glyph glyph-name="o" unicode="o" 
d="M625 -14q-96 0 -185.5 38.5t-159.5 108t-112.5 175t-42.5 229.5t42 229.5t112 174.5t160 107.5t186 38.5t186 -38.5t159.5 -107.5t111.5 -174.5t42 -229.5t-42 -229.5t-112 -175t-159.5 -108t-185.5 -38.5zM625 10q91 0 176 36.5t151 102.5t106 167t40 221t-40 221
t-106 166.5t-151 102t-176 36.5t-176 -36.5t-151 -102t-106 -166.5t-40 -221t40 -221t106 -167t151 -102.5t176 -36.5z" />
    <glyph glyph-name="p" unicode="p" horiz-adv-x="1300" 
d="M205 -451v1524h22l2 -356h2q32 119 105 204.5t164.5 125.5t193.5 40q95 0 182 -38.5t153.5 -107.5t106.5 -174t40 -230q0 -124 -40 -229.5t-107.5 -175t-154.5 -108t-182 -38.5q-156 0 -283.5 95.5t-175.5 268.5h-2v-801h-26zM692 10q90 0 172 36.5t145.5 102.5
t101.5 167t38 221t-37.5 220.5t-101 166.5t-145 102.5t-171.5 36.5q-91 0 -174.5 -36t-148.5 -101.5t-103.5 -166.5t-38.5 -222t39 -222t103.5 -166.5t147.5 -102t173 -36.5z" />
    <glyph glyph-name="q" unicode="q" horiz-adv-x="1300" 
d="M610 1087q157 0 284 -96.5t175 -273.5h2l2 356h23v-1524h-27v801h-2q-48 -174 -173.5 -269t-281.5 -95q-95 0 -182.5 38.5t-155.5 108t-108.5 175t-40.5 229.5t40.5 229.5t108 174.5t154.5 107.5t182 38.5zM610 1063q-90 0 -172 -36.5t-146 -102t-102 -166.5t-38 -221
t38.5 -221t102.5 -167t146.5 -102.5t172.5 -36.5t172.5 36.5t146.5 102t102 166.5t38 222t-38 221.5t-102 166.5t-147 102t-174 36z" />
    <glyph glyph-name="r" unicode="r" horiz-adv-x="641" 
d="M205 0v1073h22l2 -235h2q37 114 128 178.5t194 64.5q31 0 63 -4v-24q-28 4 -63 4q-122 0 -219 -91t-103 -241v-725h-26z" />
    <glyph glyph-name="s" unicode="s" horiz-adv-x="921" 
d="M475 1087q147 0 289 -90v-28q-143 94 -291 94q-131 0 -218 -66.5t-87 -171.5q0 -42 15.5 -76.5t39 -59t67.5 -48t84 -39t105 -37.5q66 -22 110.5 -40.5t90.5 -44.5t72.5 -54.5t43.5 -68t17 -87.5q0 -123 -96.5 -203.5t-245.5 -80.5q-191 0 -360 129v28q171 -133 360 -133
q137 0 226 73t89 185q0 55 -22 97.5t-68.5 75t-99 55.5t-133.5 49q-60 19 -100 34.5t-86 40.5t-73 51.5t-45 65.5t-18 86q0 113 96 188.5t238 75.5z" />
    <glyph glyph-name="t" unicode="t" horiz-adv-x="626" 
d="M250 1329v-256h328v-24h-328v-744q0 -293 278 -293q45 0 84 8v-24q-32 -8 -86 -8q-140 0 -221.5 75t-81.5 238v748h-166v24h166v256h27z" />
    <glyph glyph-name="u" unicode="u" horiz-adv-x="1146" 
d="M573 -14q-175 0 -279 104t-104 285v698h27v-698q0 -172 96 -268.5t260 -96.5q167 0 262 96.5t95 268.5v698h26v-698q0 -181 -104 -285t-279 -104z" />
    <glyph glyph-name="v" unicode="v" horiz-adv-x="1001" 
d="M487 0l-407 1073h26l394 -1038h2l393 1038h27l-408 -1073h-27z" />
    <glyph glyph-name="w" unicode="w" horiz-adv-x="1628" 
d="M1188 0l-373 1038h-2l-375 -1038h-28l-316 1073h27l303 -1038h2l375 1038h26l375 -1038h2l303 1038h27l-317 -1073h-29z" />
    <glyph glyph-name="x" unicode="x" horiz-adv-x="948" 
d="M872 1073l-383 -530l390 -543h-29l-375 522h-2l-373 -522h-28l387 541l-381 532h28l367 -512h2l369 512h28z" />
    <glyph glyph-name="y" unicode="y" horiz-adv-x="1001" 
d="M924 1073l-594 -1524h-27l193 496l-416 1028h26l402 -993h2l387 993h27z" />
    <glyph glyph-name="z" unicode="z" horiz-adv-x="917" 
d="M852 1073l-746 -1046v-2h705v-25h-756l746 1047v2h-680v24h731z" />
    <glyph glyph-name="braceleft" unicode="{" horiz-adv-x="593" 
d="M532 1546v-24q-107 8 -169 -37.5t-62 -141.5v-501q0 -234 -188 -277v-2q55 -13 93 -39t58 -64t28.5 -78.5t8.5 -90.5v-500q0 -96 62 -142t169 -38v-25q-118 -9 -187 44.5t-69 158.5v504q0 104 -43 170t-153 88v27q110 22 153 90t43 172v503q0 105 69 158.5t187 44.5z" />
    <glyph glyph-name="bar" unicode="|" horiz-adv-x="403" 
d="M188 -375v2269h27v-2269h-27z" />
    <glyph glyph-name="braceright" unicode="}" horiz-adv-x="593" 
d="M317 1343v-503q0 -104 43.5 -172t153.5 -90v-27q-110 -22 -153.5 -88.5t-43.5 -169.5v-504q0 -105 -69 -158.5t-187 -44.5v25q107 -8 169.5 38t62.5 142v500q0 50 8.5 90.5t28.5 78.5t58 64t93 39v2q-188 43 -188 277v501q0 96 -62.5 141.5t-169.5 37.5v24
q118 9 187 -44.5t69 -158.5z" />
    <glyph glyph-name="asciitilde" unicode="~" horiz-adv-x="1441" 
d="M1257 889q-13 -92 -72.5 -155.5t-162.5 -63.5q-65 0 -147.5 29.5t-148.5 64.5t-146.5 64.5t-141.5 29.5q-92 0 -151.5 -57t-65.5 -137h-24q6 89 72 154t171 65q65 0 147.5 -29.5t148.5 -65t146.5 -65t141.5 -29.5q90 0 143 55.5t66 139.5h24z" />
    <glyph glyph-name="uni00A0" unicode="&#xa0;" horiz-adv-x="610" 
 />
    <glyph glyph-name="exclamdown" unicode="&#xa1;" horiz-adv-x="442" 
d="M221 1526q23 0 39 -16.5t16 -39.5t-16 -39t-39 -16t-39 16t-16 39t16 39.5t39 16.5zM233 1118l3 -1118h-29l2 1118h24z" />
    <glyph glyph-name="cent" unicode="&#xa2;" horiz-adv-x="1075" 
d="M621 1063q-192 0 -323.5 -133.5t-131.5 -351.5q0 -148 63.5 -259.5t167 -168t228.5 -56.5q157 0 278 86v-30q-126 -80 -278 -80h-19v-211h-26v213q-90 8 -170 46t-140.5 101.5t-95.5 156.5t-35 202q0 216 126.5 354.5t314.5 152.5v222h26v-220h15q152 0 282 -75v-29
q-130 80 -282 80z" />
    <glyph glyph-name="sterling" unicode="&#xa3;" horiz-adv-x="1064" 
d="M131 25h787v-25h-834q86 122 139 274t82 367l8 59h-180v25h184l58 430q27 200 114 289.5t232 89.5q57 0 110 -16t84 -37v-29q-82 57 -194 57q-136 0 -215.5 -82t-104.5 -272l-57 -430h395v-25h-399l-8 -59q-29 -209 -75 -348t-126 -268z" />
    <glyph glyph-name="currency" unicode="&#xa4;" horiz-adv-x="1236" 
d="M1004 1231l20 -19l-115 -112q113 -116 113 -279q0 -161 -109 -276l117 -115l-18 -20l-119 116q-113 -102 -266 -102q-165 0 -281 113l-123 -125l-20 18l125 127q-99 114 -99 264q0 152 103 266l-123 125l20 19l121 -123q115 109 277 109q148 0 262 -99zM627 449
q155 0 261.5 108t106.5 264q0 154 -106.5 262.5t-261.5 108.5q-156 0 -263.5 -108.5t-107.5 -262.5q0 -156 107.5 -264t263.5 -108z" />
    <glyph glyph-name="yen" unicode="&#xa5;" horiz-adv-x="1265" 
d="M1186 1520l-527 -820h404v-24h-416v-246h416v-24h-416v-406h-26v406h-416v24h416v246h-416v24h403l-528 820h29l524 -807h2l522 807h29z" />
    <glyph glyph-name="brokenbar" unicode="&#xa6;" horiz-adv-x="444" 
d="M209 1075v819h27v-819h-27zM236 444v-819h-27v819h27z" />
    <glyph glyph-name="section" unicode="&#xa7;" horiz-adv-x="1011" 
d="M629 238q54 -29 92 -56.5t70 -63t47.5 -80t15.5 -99.5q0 -144 -103 -229t-262 -85q-104 0 -194 37t-145 98v41q51 -69 144 -110t200 -41q145 0 239 76.5t94 210.5q0 43 -9.5 78.5t-32.5 65.5t-46 52.5t-67 49t-77 43.5t-93 46q-52 25 -82.5 40.5t-72.5 39.5t-66.5 43
t-51.5 45.5t-41.5 52.5t-24 59.5t-9.5 70.5q0 121 83.5 208.5t221.5 100.5q-61 29 -101.5 54t-79 60.5t-57 81.5t-18.5 103q0 128 92 214.5t246 86.5q142 0 262 -84v-31q-123 90 -262 90q-143 0 -227.5 -78t-84.5 -198q0 -30 5 -56.5t18.5 -49.5t26 -41.5t37.5 -37.5
t43.5 -32t54 -31.5t58 -29.5t65.5 -31q57 -26 93 -45t79 -45t69 -51t49.5 -57.5t34 -71t10.5 -83.5q0 -121 -72 -208t-171 -123zM180 625q0 -49 18 -91t43 -71t75 -62t88.5 -52.5t109.5 -53.5l88 -43q95 26 169.5 110.5t74.5 202.5q0 34 -6 63.5t-20.5 55.5t-29 46.5
t-41 41.5t-46.5 35.5t-55 32.5t-57.5 29t-62.5 30l-26 12q-145 0 -233.5 -82.5t-88.5 -203.5z" />
    <glyph glyph-name="dieresis" unicode="&#xa8;" 
d="M475 1356q-15 0 -26 11t-11 26t11 26t26 11t26 -11t11 -26t-11 -26t-26 -11zM774 1356q-15 0 -26 11t-11 26t11 26t26 11t26 -11t11 -26t-11 -26t-26 -11z" />
    <glyph glyph-name="copyright" unicode="&#xa9;" horiz-adv-x="1832" 
d="M915 1534q160 0 304 -61t247.5 -165t164.5 -247t61 -301q0 -157 -61 -300t-164.5 -247t-247.5 -165.5t-304 -61.5t-303.5 61.5t-246.5 165.5t-163.5 247t-60.5 300q0 158 60.5 301t163.5 247t246.5 165t303.5 61zM168 760q0 -204 98.5 -376.5t270.5 -273t378 -100.5
q155 0 294 59.5t239 160t158.5 239t58.5 291.5q0 205 -99 377t-272 272t-379 100t-378 -100t-270.5 -272t-98.5 -377zM1157 344q-73 -55 -219 -55q-88 0 -170 34.5t-144 95t-99.5 150.5t-37.5 195q0 134 65.5 243t167 166.5t214.5 57.5q150 0 223 -51v-29q-52 29 -101 42
t-120 13q-108 0 -203.5 -54t-157 -157t-61.5 -231q0 -100 35 -185.5t94 -143t135.5 -90t159.5 -32.5q122 0 219 60v-29z" />
    <glyph glyph-name="ordfeminine" unicode="&#xaa;" horiz-adv-x="1118" 
d="M928 1520v-856h-23l-2 278h-2q-38 -138 -141.5 -214.5t-231.5 -76.5q-78 0 -149.5 31t-126.5 87t-88 140t-33 183t33 182.5t88 139t126.5 86t149.5 30.5q128 0 231.5 -76t141.5 -215h2l2 281h23zM530 1505q-153 0 -262.5 -113.5t-109.5 -301.5q0 -186 110 -300t262 -114
q73 0 140.5 28.5t119 80.5t82.5 131t31 174t-31 174.5t-82.5 131.5t-118.5 80.5t-141 28.5z" />
    <glyph glyph-name="guillemotleft" unicode="&#xab;" horiz-adv-x="1050" 
d="M555 930v-27l-430 -368l430 -369v-27l-449 383v25zM893 930v-27l-430 -368l430 -369v-27l-449 383v25z" />
    <glyph glyph-name="logicalnot" unicode="&#xac;" horiz-adv-x="1384" 
d="M1171 289v481h-958v27h987v-508h-29z" />
    <glyph glyph-name="uni00AD" unicode="&#xad;" horiz-adv-x="796" 
d="M174 575v25h449v-25h-449z" />
    <glyph glyph-name="registered" unicode="&#xae;" horiz-adv-x="1832" 
d="M915 1534q160 0 304 -61t247.5 -165t164.5 -247t61 -301q0 -157 -61 -300t-164.5 -247t-247.5 -165.5t-304 -61.5t-303.5 61.5t-246.5 165.5t-163.5 247t-60.5 300q0 158 60.5 301t163.5 247t246.5 165t303.5 61zM915 10q155 0 294 59.5t239 160t158.5 239t58.5 291.5
q0 205 -99 377t-272 272t-379 100t-378 -100t-270.5 -272t-98.5 -377q0 -204 98.5 -376.5t270.5 -273t378 -100.5zM885 733h-123l436 -430h-37l-434 430v-430h-27v914h185q142 0 213 -67.5t71 -176.5q0 -116 -72 -178t-212 -62zM727 1192v-434h158q260 0 260 215
q0 99 -63.5 159t-196.5 60h-158z" />
    <glyph glyph-name="macron" unicode="&#xaf;" 
d="M375 1395v24h499v-24h-499z" />
    <glyph glyph-name="degree" unicode="&#xb0;" horiz-adv-x="909" 
d="M455 874q-135 0 -229.5 96t-94.5 234t94.5 234t229.5 96t229 -96t94 -234t-94 -234t-229 -96zM455 1509q-124 0 -210.5 -88.5t-86.5 -216.5t86.5 -216.5t210.5 -88.5t210.5 88.5t86.5 216.5t-86.5 216.5t-210.5 88.5z" />
    <glyph glyph-name="plusminus" unicode="&#xb1;" horiz-adv-x="1384" 
d="M705 1276v-479h481v-25h-481v-479h-27v479h-479v25h479v479h27zM1186 25v-25h-987v25h987z" />
    <glyph glyph-name="uni00B2" unicode="&#xb2;" horiz-adv-x="684" 
d="M582 664v-25h-516q289 309 349 380q103 122 125 198q11 37 11 83q0 90 -59.5 149.5t-151.5 59.5q-141 0 -229 -88v29q88 84 229 84q102 0 170 -68t68 -166q0 -101 -64.5 -191.5t-314.5 -361.5q-49 -54 -76 -83h459z" />
    <glyph glyph-name="uni00B3" unicode="&#xb3;" horiz-adv-x="692" 
d="M387 1094q92 -21 147.5 -81.5t55.5 -146.5q0 -104 -75.5 -172.5t-192.5 -68.5q-132 0 -228 86v28q97 -90 228 -90q106 0 173.5 61t67.5 156q0 98 -73 155.5t-189 57.5h-98v25h98q108 0 166.5 63t58.5 148q0 83 -53.5 137.5t-138.5 54.5q-123 0 -209 -86v29q88 84 209 84
q97 0 158 -63t61 -156q0 -75 -43 -137t-123 -84z" />
    <glyph glyph-name="acute" unicode="&#xb4;" 
d="M764 1597h33l-254 -321h-29z" />
    <glyph glyph-name="uni00B5" unicode="&#xb5;" horiz-adv-x="1200" 
d="M1081 18q19 0 39 5v-25q-20 -4 -39 -4q-72 0 -104.5 38t-32.5 124v63q-36 -112 -131.5 -172.5t-224.5 -60.5q-130 0 -223.5 59t-131.5 168h-2v-664h-26v1524h26v-711q0 -159 97 -255.5t260 -96.5q164 0 260 95t96 274v694h27v-917q0 -76 25.5 -107t84.5 -31z" />
    <glyph glyph-name="paragraph" unicode="&#xb6;" horiz-adv-x="1085" 
d="M664 -451v955h-78q-78 0 -151 19.5t-137.5 60.5t-113 100t-76.5 143.5t-28 184.5q0 99 28 183t78 143t118 100.5t147 61.5t167 20h267v-1971h-27v1946h-168v-1946h-26z" />
    <glyph glyph-name="periodcentered" unicode="&#xb7;" horiz-adv-x="462" 
d="M231 705q-23 0 -39 16t-16 39t16 39t39 16t39.5 -16t16.5 -39t-16.5 -39t-39.5 -16z" />
    <glyph glyph-name="cedilla" unicode="&#xb8;" 
d="M504 -373q74 90 111.5 173t37.5 200h27q0 -121 -38.5 -205.5t-106.5 -167.5h-31z" />
    <glyph glyph-name="uni00B9" unicode="&#xb9;" horiz-adv-x="524" 
d="M287 639v854l-228 -117v27l234 121h20v-885h-26z" />
    <glyph glyph-name="ordmasculine" unicode="&#xba;" horiz-adv-x="1075" 
d="M537 1530q79 0 152.5 -30.5t131 -86t91.5 -139.5t34 -184q0 -99 -34.5 -183t-91.5 -139t-130.5 -86t-152.5 -31q-78 0 -151 31t-130.5 86t-92 139t-34.5 183q0 100 34.5 184t91.5 139t130 86t152 31zM537 1505q-74 0 -142 -28.5t-121.5 -80t-85.5 -131.5t-32 -175
q0 -94 32 -173.5t85.5 -131.5t121.5 -80.5t142 -28.5t143 28.5t122.5 80.5t85.5 131.5t32 173.5q0 95 -32 175t-85.5 131.5t-122.5 80t-143 28.5z" />
    <glyph glyph-name="guillemotright" unicode="&#xbb;" horiz-adv-x="1030" 
d="M158 139v27l430 369l-430 368v27l448 -383v-25zM475 139v27l430 369l-430 368v27l449 -383v-25z" />
    <glyph glyph-name="onequarter" unicode="&#xbc;" horiz-adv-x="1595" 
d="M313 639v854l-227 -117v27l233 121h21v-885h-27zM1235 1520h29l-1000 -1520h-28zM1503 268v-24h-139v-244h-27v244h-473v22l473 615h27v-613h139zM899 268h438v566h-2l-436 -564v-2z" />
    <glyph glyph-name="onehalf" unicode="&#xbd;" horiz-adv-x="1679" 
d="M313 639v854l-227 -117v27l233 121h21v-885h-27zM236 0l999 1520h29l-1000 -1520h-28zM1556 25v-25h-516q289 309 349 380q104 122 126 198q11 38 11 84q0 90 -59.5 149t-151.5 59q-142 0 -230 -88v29q88 84 230 84q102 0 169.5 -67.5t67.5 -165.5q0 -55 -14.5 -99
t-64 -111.5t-114.5 -141t-196 -215.5q-42 -45 -65 -70h458z" />
    <glyph glyph-name="threequarters" unicode="&#xbe;" horiz-adv-x="1794" 
d="M625 866q0 -104 -76 -172.5t-193 -68.5q-131 0 -227 86v28q97 -90 227 -90q106 0 174 61t68 156q0 98 -73 155.5t-189 57.5h-98v25h98q108 0 166.5 63t58.5 148q0 83 -53.5 137.5t-138.5 54.5q-123 0 -209 -86v29q88 84 209 84q97 0 158 -63t61 -156q0 -75 -43 -137
t-123 -84q92 -21 147.5 -81.5t55.5 -146.5zM1434 1520h28l-999 -1520h-29zM1702 268v-24h-139v-244h-27v244h-473v22l473 615h27v-613h139zM1098 268h438v566h-2l-436 -564v-2z" />
    <glyph glyph-name="questiondown" unicode="&#xbf;" horiz-adv-x="999" 
d="M561 1415q-23 0 -39 16t-16 39t16 39.5t39 16.5t39 -16.5t16 -39.5t-16 -39t-39 -16zM524 -14q-161 0 -271 104.5t-110 280.5q0 72 22 140t74 145.5t115 152t168 184.5l39 41h35l-51 -55q-107 -115 -168 -187t-113 -148.5t-73 -140.5t-21 -132q0 -166 101.5 -263.5
t252.5 -97.5q216 0 363 185v-35q-58 -73 -154 -123.5t-209 -50.5z" />
    <glyph glyph-name="Agrave" unicode="&#xc0;" horiz-adv-x="1351" 
d="M504 2044l250 -322h-29l-254 322h33zM1307 0h-29l-238 584h-729l-237 -584h-29l619 1520h24zM676 1483l-354 -875h708z" />
    <glyph glyph-name="Aacute" unicode="&#xc1;" horiz-adv-x="1351" 
d="M848 2044h33l-254 -322h-29zM1307 0h-29l-238 584h-729l-237 -584h-29l619 1520h24zM676 1483l-354 -875h708z" />
    <glyph glyph-name="Acircumflex" unicode="&#xc2;" horiz-adv-x="1351" 
d="M690 2044l248 -322h-29l-233 297l-234 -297h-28l248 322h28zM1307 0h-29l-238 584h-729l-237 -584h-29l619 1520h24zM676 1483l-354 -875h708z" />
    <glyph glyph-name="Atilde" unicode="&#xc3;" horiz-adv-x="1351" 
d="M985 1876q3 -67 -43 -104t-111 -37q-49 0 -103.5 28.5t-108.5 57t-101 28.5q-58 0 -94 -29t-33 -87h-26q-3 67 42.5 104t110.5 37q39 0 82.5 -18t75.5 -39.5t74.5 -39.5t80.5 -18q58 0 94 29.5t33 87.5h27zM1307 0h-29l-238 584h-729l-237 -584h-29l619 1520h24z
M676 1483l-354 -875h708z" />
    <glyph glyph-name="Adieresis" unicode="&#xc4;" horiz-adv-x="1351" 
d="M526 1802q-15 0 -26 11t-11 26t11 26t26 11t26 -11t11 -26t-11 -26t-26 -11zM825 1802q-15 0 -26 11t-11 26t11 26t26 11t26 -11t11 -26t-11 -26t-26 -11zM1307 0h-29l-238 584h-729l-237 -584h-29l619 1520h24zM676 1483l-354 -875h708z" />
    <glyph glyph-name="Aring" unicode="&#xc5;" horiz-adv-x="1351" 
d="M678 2032q64 0 107.5 -44.5t43.5 -105.5t-43.5 -104t-107.5 -43q-66 0 -110 43t-44 104t44 105.5t110 44.5zM678 2009q-57 0 -93 -36.5t-36 -90.5t35.5 -89.5t93.5 -35.5q55 0 91 36t36 89t-36 90t-91 37zM1307 0h-29l-238 584h-729l-237 -584h-29l619 1520h24zM676 1483
l-354 -875h708z" />
    <glyph glyph-name="AE" unicode="&#xc6;" horiz-adv-x="1937" 
d="M1769 1495h-665v-713h629v-24h-629v-733h665v-25h-692v584h-645l-414 -584h-32l1077 1520h706v-25zM451 608h626v883h-2z" />
    <glyph glyph-name="Ccedilla" unicode="&#xc7;" horiz-adv-x="1359" 
d="M858 1509q-100 0 -198.5 -30.5t-187 -93.5t-156.5 -150t-108 -209.5t-40 -263.5q0 -142 40.5 -265.5t109.5 -211t159.5 -151t191.5 -94t205 -30.5q222 0 388 109v-29q-168 -104 -388 -104q-31 0 -45 2q-3 -116 -41 -198t-104 -163h-31q73 89 111 170t39 193
q-101 10 -197 47.5t-180.5 104t-147.5 155t-100 208.5t-37 257q0 145 41.5 271t112 216.5t162.5 155.5t194.5 97t206.5 32q234 0 404 -104v-29q-163 108 -404 108z" />
    <glyph glyph-name="Egrave" unicode="&#xc8;" horiz-adv-x="1118" 
d="M444 2044l250 -322h-28l-254 322h32zM258 0v1520h692v-25h-665v-713h628v-24h-628v-733h665v-25h-692z" />
    <glyph glyph-name="Eacute" unicode="&#xc9;" horiz-adv-x="1118" 
d="M788 2044h33l-254 -322h-28zM258 0v1520h692v-25h-665v-713h628v-24h-628v-733h665v-25h-692z" />
    <glyph glyph-name="Ecircumflex" unicode="&#xca;" horiz-adv-x="1118" 
d="M631 2044l248 -322h-29l-234 297l-233 -297h-29l248 322h29zM258 0v1520h692v-25h-665v-713h628v-24h-628v-733h665v-25h-692z" />
    <glyph glyph-name="Edieresis" unicode="&#xcb;" horiz-adv-x="1118" 
d="M467 1802q-15 0 -26 11t-11 26t11 26t26 11t26 -11t11 -26t-11 -26t-26 -11zM766 1802q-15 0 -26 11t-11 26t11 26t26 11t26 -11t11 -26t-11 -26t-26 -11zM258 0v1520h692v-25h-665v-713h628v-24h-628v-733h665v-25h-692z" />
    <glyph glyph-name="Igrave" unicode="&#xcc;" horiz-adv-x="542" 
d="M98 2044l250 -322h-29l-253 322h32zM258 0v1520h27v-1520h-27z" />
    <glyph glyph-name="Iacute" unicode="&#xcd;" horiz-adv-x="542" 
d="M442 2044h33l-254 -322h-28zM258 0v1520h27v-1520h-27z" />
    <glyph glyph-name="Icircumflex" unicode="&#xce;" horiz-adv-x="542" 
d="M285 2044l247 -322h-28l-234 297l-233 -297h-29l248 322h29zM258 0v1520h27v-1520h-27z" />
    <glyph glyph-name="Idieresis" unicode="&#xcf;" horiz-adv-x="542" 
d="M121 1802q-15 0 -26 11t-11 26t11 26t26 11t26 -11t11 -26t-11 -26t-26 -11zM420 1802q-15 0 -26 11t-11 26t11 26t26 11t26 -11t11 -26t-11 -26t-26 -11zM258 0v1520h27v-1520h-27z" />
    <glyph glyph-name="Eth" unicode="&#xd0;" horiz-adv-x="1474" 
d="M543 1520q232 0 410 -89.5t279 -262t101 -404.5t-101 -406.5t-279.5 -266t-409.5 -91.5h-273v770h-247v25h247v725h273zM543 25q224 0 396.5 87.5t270 256.5t97.5 395q0 170 -56.5 308t-157.5 230.5t-241.5 142.5t-308.5 50h-246v-700h485v-25h-485v-745h246z" />
    <glyph glyph-name="Ntilde" unicode="&#xd1;" horiz-adv-x="1583" 
d="M1104 1876q3 -67 -43 -104t-111 -37q-49 0 -103.5 28.5t-108.5 57t-101 28.5q-58 0 -94 -29t-33 -87h-27q-3 67 43 104t111 37q39 0 82.5 -18t75.5 -39.5t74.5 -39.5t80.5 -18q58 0 94 29.5t33 87.5h27zM1325 1520v-1520h-31l-1007 1477h-2v-1477h-27v1520h33l1005 -1475
h2v1475h27z" />
    <glyph glyph-name="Ograve" unicode="&#xd2;" horiz-adv-x="1710" 
d="M682 2044l250 -322h-29l-254 322h33zM854 -14q-149 0 -280.5 57.5t-226.5 158.5t-150.5 246t-55.5 312t55.5 312t150.5 246t226.5 158.5t280.5 57.5t280.5 -57.5t227.5 -158.5t151.5 -246t55.5 -312t-55.5 -312t-151.5 -246t-227.5 -158.5t-280.5 -57.5zM854 10
q192 0 349 94.5t248 266.5t91 389q0 163 -53.5 303t-145.5 237.5t-218.5 153t-270.5 55.5t-270.5 -55.5t-218 -153t-144.5 -237.5t-53 -303q0 -217 90.5 -389t247 -266.5t348.5 -94.5z" />
    <glyph glyph-name="Oacute" unicode="&#xd3;" horiz-adv-x="1710" 
d="M1026 2044h33l-254 -322h-29zM854 -14q-149 0 -280.5 57.5t-226.5 158.5t-150.5 246t-55.5 312t55.5 312t150.5 246t226.5 158.5t280.5 57.5t280.5 -57.5t227.5 -158.5t151.5 -246t55.5 -312t-55.5 -312t-151.5 -246t-227.5 -158.5t-280.5 -57.5zM854 10q192 0 349 94.5
t248 266.5t91 389q0 163 -53.5 303t-145.5 237.5t-218.5 153t-270.5 55.5t-270.5 -55.5t-218 -153t-144.5 -237.5t-53 -303q0 -217 90.5 -389t247 -266.5t348.5 -94.5z" />
    <glyph glyph-name="Ocircumflex" unicode="&#xd4;" horiz-adv-x="1710" 
d="M868 2044l248 -322h-29l-233 297l-233 -297h-29l248 322h28zM854 -14q-149 0 -280.5 57.5t-226.5 158.5t-150.5 246t-55.5 312t55.5 312t150.5 246t226.5 158.5t280.5 57.5t280.5 -57.5t227.5 -158.5t151.5 -246t55.5 -312t-55.5 -312t-151.5 -246t-227.5 -158.5
t-280.5 -57.5zM854 10q192 0 349 94.5t248 266.5t91 389q0 163 -53.5 303t-145.5 237.5t-218.5 153t-270.5 55.5t-270.5 -55.5t-218 -153t-144.5 -237.5t-53 -303q0 -217 90.5 -389t247 -266.5t348.5 -94.5z" />
    <glyph glyph-name="Otilde" unicode="&#xd5;" horiz-adv-x="1710" 
d="M1163 1876q3 -67 -42.5 -104t-110.5 -37q-49 0 -104 28.5t-109 57t-101 28.5q-58 0 -94 -29t-33 -87h-26q-3 67 42.5 104t110.5 37q39 0 82.5 -18t76 -39.5t75 -39.5t80.5 -18q58 0 94 29.5t33 87.5h26zM854 -14q-149 0 -280.5 57.5t-226.5 158.5t-150.5 246t-55.5 312
t55.5 312t150.5 246t226.5 158.5t280.5 57.5t280.5 -57.5t227.5 -158.5t151.5 -246t55.5 -312t-55.5 -312t-151.5 -246t-227.5 -158.5t-280.5 -57.5zM854 10q192 0 349 94.5t248 266.5t91 389q0 163 -53.5 303t-145.5 237.5t-218.5 153t-270.5 55.5t-270.5 -55.5t-218 -153
t-144.5 -237.5t-53 -303q0 -217 90.5 -389t247 -266.5t348.5 -94.5z" />
    <glyph glyph-name="Odieresis" unicode="&#xd6;" horiz-adv-x="1710" 
d="M705 1802q-15 0 -26 11t-11 26t11 26t26 11t25.5 -11t10.5 -26t-10.5 -26t-25.5 -11zM1004 1802q-15 0 -26 11t-11 26t11 26t26 11t25.5 -11t10.5 -26t-10.5 -26t-25.5 -11zM854 -14q-149 0 -280.5 57.5t-226.5 158.5t-150.5 246t-55.5 312t55.5 312t150.5 246
t226.5 158.5t280.5 57.5t280.5 -57.5t227.5 -158.5t151.5 -246t55.5 -312t-55.5 -312t-151.5 -246t-227.5 -158.5t-280.5 -57.5zM854 10q192 0 349 94.5t248 266.5t91 389q0 163 -53.5 303t-145.5 237.5t-218.5 153t-270.5 55.5t-270.5 -55.5t-218 -153t-144.5 -237.5
t-53 -303q0 -217 90.5 -389t247 -266.5t348.5 -94.5z" />
    <glyph glyph-name="multiply" unicode="&#xd7;" horiz-adv-x="1069" 
d="M893 1122l-338 -338l338 -340l-19 -20l-339 340l-338 -338l-21 18l340 340l-340 338l21 19l338 -338l337 338z" />
    <glyph glyph-name="Oslash" unicode="&#xd8;" horiz-adv-x="1728" 
d="M1593 1513l-202 -215q188 -217 188 -538q0 -167 -55.5 -312t-151.5 -246t-227.5 -158.5t-280.5 -57.5q-151 0 -281.5 57t-228.5 162l-200 -213l-17 14l203 215q-90 103 -139 241t-49 298q0 167 55 312t150 246t226.5 158.5t280.5 57.5q150 0 281.5 -57.5t228.5 -161.5
l203 213zM178 760q0 -311 180 -520l1000 1056q-95 102 -221.5 157.5t-272.5 55.5q-144 0 -270.5 -55.5t-218 -153t-144.5 -237.5t-53 -303zM1552 760q0 311 -180 520l-999 -1057q93 -102 219.5 -157.5t271.5 -55.5q192 0 349 94.5t248 266.5t91 389z" />
    <glyph glyph-name="Ugrave" unicode="&#xd9;" horiz-adv-x="1507" 
d="M582 2044l249 -322h-28l-254 322h33zM754 -14q-237 0 -377.5 151.5t-140.5 411.5v971h26v-971q0 -251 132.5 -395t359.5 -144t359 144t132 395v971h27v-971q0 -260 -140.5 -411.5t-377.5 -151.5z" />
    <glyph glyph-name="Uacute" unicode="&#xda;" horiz-adv-x="1507" 
d="M926 2044h32l-253 -322h-29zM754 -14q-237 0 -377.5 151.5t-140.5 411.5v971h26v-971q0 -251 132.5 -395t359.5 -144t359 144t132 395v971h27v-971q0 -260 -140.5 -411.5t-377.5 -151.5z" />
    <glyph glyph-name="Ucircumflex" unicode="&#xdb;" horiz-adv-x="1507" 
d="M768 2044l248 -322h-29l-233 297l-234 -297h-28l247 322h29zM754 -14q-237 0 -377.5 151.5t-140.5 411.5v971h26v-971q0 -251 132.5 -395t359.5 -144t359 144t132 395v971h27v-971q0 -260 -140.5 -411.5t-377.5 -151.5z" />
    <glyph glyph-name="Udieresis" unicode="&#xdc;" horiz-adv-x="1507" 
d="M604 1802q-15 0 -26 11t-11 26t11 26t26 11t26 -11t11 -26t-11 -26t-26 -11zM903 1802q-15 0 -26 11t-11 26t11 26t26 11t26 -11t11 -26t-11 -26t-26 -11zM754 -14q-237 0 -377.5 151.5t-140.5 411.5v971h26v-971q0 -251 132.5 -395t359.5 -144t359 144t132 395v971h27
v-971q0 -260 -140.5 -411.5t-377.5 -151.5z" />
    <glyph glyph-name="Yacute" unicode="&#xdd;" horiz-adv-x="1189" 
d="M766 2044h33l-254 -322h-29zM582 0v682l-541 838h29l524 -807h2l522 807h29l-539 -838v-682h-26z" />
    <glyph glyph-name="Thorn" unicode="&#xde;" horiz-adv-x="1146" 
d="M258 0v1520h27v-287h235q238 0 381 -117t143 -325q0 -215 -142.5 -336t-383.5 -121h-233v-334h-27zM518 358q231 0 365.5 113.5t134.5 319.5q0 198 -135 307.5t-363 109.5h-235v-850h233z" />
    <glyph glyph-name="germandbls" unicode="&#xdf;" horiz-adv-x="1171" 
d="M618 891q193 -19 314 -138t121 -307q0 -114 -41.5 -204t-113 -145t-161 -83t-190.5 -28q-81 0 -154 18v25q65 -19 154 -19q96 0 180.5 26t152 77.5t107 137t39.5 195.5q0 195 -134.5 310.5t-340.5 115.5h-119v25h62q157 0 257.5 93t100.5 212q0 126 -84 209.5t-209 83.5
q-149 0 -238.5 -98.5t-89.5 -261.5v-1135h-26v1135q0 172 98 278.5t256 106.5q135 0 225 -91.5t90 -226.5q0 -101 -69.5 -189t-186.5 -122z" />
    <glyph glyph-name="agrave" unicode="&#xe0;" horiz-adv-x="1300" 
d="M479 1597l250 -321h-29l-254 321h33zM612 -14q-95 0 -182.5 38.5t-155.5 108t-108.5 175t-40.5 229.5t40.5 229.5t108 174.5t154.5 107.5t182 38.5q156 0 283.5 -95.5t175.5 -268.5h2l2 350h23v-1073h-23l-2 350h-2q-48 -174 -174.5 -269t-282.5 -95zM612 10
q90 0 172.5 36.5t146.5 102t102 166.5t38 222t-38 221.5t-102 166.5t-147 102t-174 36q-90 0 -172 -36.5t-146 -102t-102 -166.5t-38 -221t38.5 -221t102.5 -167t146.5 -102.5t172.5 -36.5z" />
    <glyph glyph-name="aacute" unicode="&#xe1;" horiz-adv-x="1300" 
d="M823 1597h33l-254 -321h-29zM612 -14q-95 0 -182.5 38.5t-155.5 108t-108.5 175t-40.5 229.5t40.5 229.5t108 174.5t154.5 107.5t182 38.5q156 0 283.5 -95.5t175.5 -268.5h2l2 350h23v-1073h-23l-2 350h-2q-48 -174 -174.5 -269t-282.5 -95zM612 10q90 0 172.5 36.5
t146.5 102t102 166.5t38 222t-38 221.5t-102 166.5t-147 102t-174 36q-90 0 -172 -36.5t-146 -102t-102 -166.5t-38 -221t38.5 -221t102.5 -167t146.5 -102.5t172.5 -36.5z" />
    <glyph glyph-name="acircumflex" unicode="&#xe2;" horiz-adv-x="1300" 
d="M666 1597l247 -321h-28l-234 297l-233 -297h-29l248 321h29zM612 -14q-95 0 -182.5 38.5t-155.5 108t-108.5 175t-40.5 229.5t40.5 229.5t108 174.5t154.5 107.5t182 38.5q156 0 283.5 -95.5t175.5 -268.5h2l2 350h23v-1073h-23l-2 350h-2q-48 -174 -174.5 -269
t-282.5 -95zM612 10q90 0 172.5 36.5t146.5 102t102 166.5t38 222t-38 221.5t-102 166.5t-147 102t-174 36q-90 0 -172 -36.5t-146 -102t-102 -166.5t-38 -221t38.5 -221t102.5 -167t146.5 -102.5t172.5 -36.5z" />
    <glyph glyph-name="atilde" unicode="&#xe3;" horiz-adv-x="1300" 
d="M961 1430q3 -67 -43 -104.5t-111 -37.5q-39 0 -82.5 18t-75.5 39.5t-74.5 39.5t-80.5 18q-58 0 -94 -29.5t-33 -87.5h-27q-3 67 43 104t111 37q49 0 103.5 -28.5t108.5 -57t101 -28.5q58 0 94 29.5t33 87.5h27zM612 -14q-95 0 -182.5 38.5t-155.5 108t-108.5 175
t-40.5 229.5t40.5 229.5t108 174.5t154.5 107.5t182 38.5q156 0 283.5 -95.5t175.5 -268.5h2l2 350h23v-1073h-23l-2 350h-2q-48 -174 -174.5 -269t-282.5 -95zM612 10q90 0 172.5 36.5t146.5 102t102 166.5t38 222t-38 221.5t-102 166.5t-147 102t-174 36q-90 0 -172 -36.5
t-146 -102t-102 -166.5t-38 -221t38.5 -221t102.5 -167t146.5 -102.5t172.5 -36.5z" />
    <glyph glyph-name="adieresis" unicode="&#xe4;" horiz-adv-x="1300" 
d="M502 1356q-15 0 -26 11t-11 26t11 26t26 11t26 -11t11 -26t-11 -26t-26 -11zM801 1356q-15 0 -26 11t-11 26t11 26t26 11t26 -11t11 -26t-11 -26t-26 -11zM612 -14q-95 0 -182.5 38.5t-155.5 108t-108.5 175t-40.5 229.5t40.5 229.5t108 174.5t154.5 107.5t182 38.5
q156 0 283.5 -95.5t175.5 -268.5h2l2 350h23v-1073h-23l-2 350h-2q-48 -174 -174.5 -269t-282.5 -95zM612 10q90 0 172.5 36.5t146.5 102t102 166.5t38 222t-38 221.5t-102 166.5t-147 102t-174 36q-90 0 -172 -36.5t-146 -102t-102 -166.5t-38 -221t38.5 -221t102.5 -167
t146.5 -102.5t172.5 -36.5z" />
    <glyph glyph-name="aring" unicode="&#xe5;" horiz-adv-x="1300" 
d="M653 1585q64 0 108 -44t44 -105t-44 -104.5t-108 -43.5q-66 0 -109.5 43.5t-43.5 104.5t43.5 105t109.5 44zM653 1563q-57 0 -93 -36.5t-36 -90.5t36 -89.5t93 -35.5q55 0 91 36t36 89t-36 90t-91 37zM612 -14q-95 0 -182.5 38.5t-155.5 108t-108.5 175t-40.5 229.5
t40.5 229.5t108 174.5t154.5 107.5t182 38.5q156 0 283.5 -95.5t175.5 -268.5h2l2 350h23v-1073h-23l-2 350h-2q-48 -174 -174.5 -269t-282.5 -95zM612 10q90 0 172.5 36.5t146.5 102t102 166.5t38 222t-38 221.5t-102 166.5t-147 102t-174 36q-90 0 -172 -36.5t-146 -102
t-102 -166.5t-38 -221t38.5 -221t102.5 -167t146.5 -102.5t172.5 -36.5z" />
    <glyph glyph-name="ae" unicode="&#xe6;" horiz-adv-x="1947" 
d="M1825 561l-2 -26h-889q0 -243 133.5 -384t341.5 -141q232 0 399 156v-31q-86 -73 -190 -111t-209 -38q-176 0 -306 98t-175 274q-19 -159 -143 -265.5t-296 -106.5q-162 0 -269 89t-107 230q0 138 107.5 231t307.5 93q175 0 379 -68v174q0 147 -96.5 237.5t-265.5 90.5
q-102 0 -202 -34.5t-183 -96.5v26q82 62 182 95.5t203 33.5q180 0 284.5 -97.5t104.5 -254.5v-8q50 166 177 263t280 97q87 0 164 -33.5t138 -97.5t96.5 -166t35.5 -229zM934 559h864q0 123 -33.5 221t-90.5 158.5t-129.5 92.5t-153.5 32q-86 0 -166.5 -35t-144 -98
t-103 -159.5t-43.5 -211.5zM907 408v129q-194 67 -379 67q-196 0 -292.5 -85.5t-96.5 -213.5q0 -131 100 -213t250 -82q177 0 297.5 115t120.5 283z" />
    <glyph glyph-name="ccedilla" unicode="&#xe7;" horiz-adv-x="1019" 
d="M625 1063q-96 0 -183 -39t-151.5 -107t-102.5 -167t-38 -213q0 -116 38.5 -215.5t104 -167t153 -106t183.5 -38.5q165 0 286 86v-30q-126 -80 -286 -80h-2q-3 -116 -41 -196.5t-105 -162.5h-30q72 88 109 168t40 191q-96 6 -183 49t-152 113.5t-103.5 171.5t-38.5 217
q0 119 40.5 222.5t108.5 174.5t160 112t193 41q160 0 290 -75v-29q-130 80 -290 80z" />
    <glyph glyph-name="egrave" unicode="&#xe8;" horiz-adv-x="1165" 
d="M684 1276h-29l-254 321h33zM1042 561l-2 -26h-888q0 -243 133.5 -384t341.5 -141q232 0 399 156v-31q-86 -73 -190 -111t-209 -38q-219 0 -360.5 148.5t-141.5 402.5q0 124 40.5 229.5t107.5 174.5t154 107.5t181 38.5q87 0 164 -33.5t138 -97.5t96.5 -166t35.5 -229z
M152 559h864q0 123 -33.5 221t-91 158.5t-130 92.5t-153.5 32q-86 0 -166.5 -35t-143.5 -98.5t-102.5 -159.5t-43.5 -211z" />
    <glyph glyph-name="eacute" unicode="&#xe9;" horiz-adv-x="1165" 
d="M811 1597l-254 -321h-29l250 321h33zM1042 561l-2 -26h-888q0 -243 133.5 -384t341.5 -141q232 0 399 156v-31q-86 -73 -190 -111t-209 -38q-219 0 -360.5 148.5t-141.5 402.5q0 124 40.5 229.5t107.5 174.5t154 107.5t181 38.5q87 0 164 -33.5t138 -97.5t96.5 -166
t35.5 -229zM152 559h864q0 123 -33.5 221t-91 158.5t-130 92.5t-153.5 32q-86 0 -166.5 -35t-143.5 -98.5t-102.5 -159.5t-43.5 -211z" />
    <glyph glyph-name="ecircumflex" unicode="&#xea;" horiz-adv-x="1165" 
d="M606 1573l-233 -297h-29l248 321h29l247 -321h-28zM1042 561l-2 -26h-888q0 -243 133.5 -384t341.5 -141q232 0 399 156v-31q-86 -73 -190 -111t-209 -38q-219 0 -360.5 148.5t-141.5 402.5q0 124 40.5 229.5t107.5 174.5t154 107.5t181 38.5q87 0 164 -33.5t138 -97.5
t96.5 -166t35.5 -229zM152 559h864q0 123 -33.5 221t-91 158.5t-130 92.5t-153.5 32q-86 0 -166.5 -35t-143.5 -98.5t-102.5 -159.5t-43.5 -211z" />
    <glyph glyph-name="edieresis" unicode="&#xeb;" horiz-adv-x="1165" 
d="M457 1356q-15 0 -26 11t-11 26t11 26t26 11t26 -11t11 -26t-11 -26t-26 -11zM756 1356q-15 0 -26 11t-11 26t11 26t26 11t26 -11t11 -26t-11 -26t-26 -11zM1042 561l-2 -26h-888q0 -243 133.5 -384t341.5 -141q232 0 399 156v-31q-86 -73 -190 -111t-209 -38
q-219 0 -360.5 148.5t-141.5 402.5q0 124 40.5 229.5t107.5 174.5t154 107.5t181 38.5q87 0 164 -33.5t138 -97.5t96.5 -166t35.5 -229zM152 559h864q0 123 -33.5 221t-91 158.5t-130 92.5t-153.5 32q-86 0 -166.5 -35t-143.5 -98.5t-102.5 -159.5t-43.5 -211z" />
    <glyph glyph-name="igrave" unicode="&#xec;" horiz-adv-x="452" 
d="M55 1651l250 -322h-29l-253 322h32zM213 0v1073h27v-1073h-27z" />
    <glyph glyph-name="iacute" unicode="&#xed;" horiz-adv-x="452" 
d="M399 1651h33l-254 -322h-28zM213 0v1073h27v-1073h-27z" />
    <glyph glyph-name="icircumflex" unicode="&#xee;" horiz-adv-x="452" 
d="M242 1651l247 -322h-28l-234 297l-233 -297h-29l248 322h29zM213 0v1073h27v-1073h-27z" />
    <glyph glyph-name="idieresis" unicode="&#xef;" horiz-adv-x="452" 
d="M78 1409q-15 0 -26 11t-11 26t11 26t26 11t26 -11t11 -26t-11 -26t-26 -11zM377 1409q-15 0 -26 11t-11 26t11 26t26 11t26 -11t11 -26t-11 -26t-26 -11zM213 0v1073h27v-1073h-27z" />
    <glyph glyph-name="eth" unicode="&#xf0;" horiz-adv-x="1251" 
d="M684 1460q243 -279 340.5 -484.5t97.5 -434.5q0 -126 -40.5 -232t-109.5 -176t-158 -108.5t-187 -38.5q-96 0 -186.5 38.5t-161.5 108t-113.5 175t-42.5 229.5t41.5 229.5t111 174.5t159 107.5t186.5 38.5q141 0 263.5 -80.5t182.5 -222.5l2 2q-88 305 -403 662
l-236 -150l-14 17l233 149q-76 86 -155 164h38q108 -117 138 -151l235 151l15 -20zM627 10q93 0 178 36.5t149.5 102.5t103 167t38.5 221t-40.5 221t-107 166.5t-151.5 102t-176 36.5q-92 0 -176.5 -36.5t-150.5 -102t-105 -166.5t-39 -221t40 -221t107 -167t152.5 -102.5
t177.5 -36.5z" />
    <glyph glyph-name="ntilde" unicode="&#xf1;" horiz-adv-x="1161" 
d="M911 1430q3 -67 -42.5 -104.5t-110.5 -37.5q-39 0 -82.5 18t-76 39.5t-75 39.5t-80.5 18q-58 0 -94 -29.5t-33 -87.5h-26q-3 67 42.5 104t110.5 37q49 0 104 -28.5t109 -57t101 -28.5q58 0 94 29.5t33 87.5h26zM606 1087q166 0 265.5 -97.5t99.5 -266.5v-723h-27v723
q0 160 -91.5 250t-246.5 90q-158 0 -266.5 -88.5t-108.5 -245.5v-729h-26v1073h22l2 -219h2q40 112 141 172.5t234 60.5z" />
    <glyph glyph-name="ograve" unicode="&#xf2;" 
d="M453 1597l249 -321h-28l-254 321h33zM625 -14q-96 0 -185.5 38.5t-159.5 108t-112.5 175t-42.5 229.5t42 229.5t112 174.5t160 107.5t186 38.5t186 -38.5t159.5 -107.5t111.5 -174.5t42 -229.5t-42 -229.5t-112 -175t-159.5 -108t-185.5 -38.5zM625 10q91 0 176 36.5
t151 102.5t106 167t40 221t-40 221t-106 166.5t-151 102t-176 36.5t-176 -36.5t-151 -102t-106 -166.5t-40 -221t40 -221t106 -167t151 -102.5t176 -36.5z" />
    <glyph glyph-name="oacute" unicode="&#xf3;" 
d="M797 1597h32l-254 -321h-28zM625 -14q-96 0 -185.5 38.5t-159.5 108t-112.5 175t-42.5 229.5t42 229.5t112 174.5t160 107.5t186 38.5t186 -38.5t159.5 -107.5t111.5 -174.5t42 -229.5t-42 -229.5t-112 -175t-159.5 -108t-185.5 -38.5zM625 10q91 0 176 36.5t151 102.5
t106 167t40 221t-40 221t-106 166.5t-151 102t-176 36.5t-176 -36.5t-151 -102t-106 -166.5t-40 -221t40 -221t106 -167t151 -102.5t176 -36.5z" />
    <glyph glyph-name="ocircumflex" unicode="&#xf4;" 
d="M639 1597l248 -321h-29l-233 297l-234 -297h-29l248 321h29zM625 -14q-96 0 -185.5 38.5t-159.5 108t-112.5 175t-42.5 229.5t42 229.5t112 174.5t160 107.5t186 38.5t186 -38.5t159.5 -107.5t111.5 -174.5t42 -229.5t-42 -229.5t-112 -175t-159.5 -108t-185.5 -38.5z
M625 10q91 0 176 36.5t151 102.5t106 167t40 221t-40 221t-106 166.5t-151 102t-176 36.5t-176 -36.5t-151 -102t-106 -166.5t-40 -221t40 -221t106 -167t151 -102.5t176 -36.5z" />
    <glyph glyph-name="otilde" unicode="&#xf5;" 
d="M934 1430q3 -67 -43 -104.5t-111 -37.5q-39 0 -82.5 18t-75.5 39.5t-74.5 39.5t-80.5 18q-58 0 -94 -29.5t-33 -87.5h-27q-3 67 43 104t111 37q49 0 103.5 -28.5t108.5 -57t101 -28.5q58 0 94 29.5t33 87.5h27zM625 -14q-96 0 -185.5 38.5t-159.5 108t-112.5 175
t-42.5 229.5t42 229.5t112 174.5t160 107.5t186 38.5t186 -38.5t159.5 -107.5t111.5 -174.5t42 -229.5t-42 -229.5t-112 -175t-159.5 -108t-185.5 -38.5zM625 10q91 0 176 36.5t151 102.5t106 167t40 221t-40 221t-106 166.5t-151 102t-176 36.5t-176 -36.5t-151 -102
t-106 -166.5t-40 -221t40 -221t106 -167t151 -102.5t176 -36.5z" />
    <glyph glyph-name="odieresis" unicode="&#xf6;" 
d="M475 1356q-15 0 -26 11t-11 26t11 26t26 11t26 -11t11 -26t-11 -26t-26 -11zM774 1356q-15 0 -26 11t-11 26t11 26t26 11t26 -11t11 -26t-11 -26t-26 -11zM625 -14q-96 0 -185.5 38.5t-159.5 108t-112.5 175t-42.5 229.5t42 229.5t112 174.5t160 107.5t186 38.5
t186 -38.5t159.5 -107.5t111.5 -174.5t42 -229.5t-42 -229.5t-112 -175t-159.5 -108t-185.5 -38.5zM625 10q91 0 176 36.5t151 102.5t106 167t40 221t-40 221t-106 166.5t-151 102t-176 36.5t-176 -36.5t-151 -102t-106 -166.5t-40 -221t40 -221t106 -167t151 -102.5
t176 -36.5z" />
    <glyph glyph-name="divide" unicode="&#xf7;" horiz-adv-x="1392" 
d="M657 1124q-23 0 -39 16.5t-16 39.5t16 39t39 16t39.5 -16t16.5 -39t-16.5 -39.5t-39.5 -16.5zM199 772v25h987v-25h-987zM657 334q-23 0 -39 16t-16 39t16 39t39 16t39.5 -16t16.5 -39t-16.5 -39t-39.5 -16z" />
    <glyph glyph-name="oslash" unicode="&#xf8;" horiz-adv-x="1255" 
d="M991 922q137 -153 137 -385q0 -124 -42 -229.5t-112 -175t-159.5 -108t-185.5 -38.5q-97 0 -187.5 39t-160.5 112l-131 -145l-17 14l133 146q-137 153 -137 385q0 124 42 229.5t112 174.5t160 107.5t186 38.5q97 0 188 -38.5t160 -110.5l131 143l16 -14zM156 537
q0 -220 127 -367l678 750q-66 69 -152.5 106t-179.5 37q-91 0 -176 -36.5t-151 -102t-106 -166.5t-40 -221zM629 10q91 0 176 36.5t151 102.5t106 167t40 221q0 219 -127 366l-678 -749q66 -69 153 -106.5t179 -37.5z" />
    <glyph glyph-name="ugrave" unicode="&#xf9;" horiz-adv-x="1146" 
d="M401 1597l250 -321h-28l-254 321h32zM573 -14q-175 0 -279 104t-104 285v698h27v-698q0 -172 96 -268.5t260 -96.5q167 0 262 96.5t95 268.5v698h26v-698q0 -181 -104 -285t-279 -104z" />
    <glyph glyph-name="uacute" unicode="&#xfa;" horiz-adv-x="1146" 
d="M745 1597h33l-254 -321h-28zM573 -14q-175 0 -279 104t-104 285v698h27v-698q0 -172 96 -268.5t260 -96.5q167 0 262 96.5t95 268.5v698h26v-698q0 -181 -104 -285t-279 -104z" />
    <glyph glyph-name="ucircumflex" unicode="&#xfb;" horiz-adv-x="1146" 
d="M588 1597l248 -321h-29l-234 297l-233 -297h-29l248 321h29zM573 -14q-175 0 -279 104t-104 285v698h27v-698q0 -172 96 -268.5t260 -96.5q167 0 262 96.5t95 268.5v698h26v-698q0 -181 -104 -285t-279 -104z" />
    <glyph glyph-name="udieresis" unicode="&#xfc;" horiz-adv-x="1146" 
d="M424 1356q-15 0 -26 11t-11 26t11 26t26 11t26 -11t11 -26t-11 -26t-26 -11zM723 1356q-15 0 -26 11t-11 26t11 26t26 11t26 -11t11 -26t-11 -26t-26 -11zM573 -14q-175 0 -279 104t-104 285v698h27v-698q0 -172 96 -268.5t260 -96.5q167 0 262 96.5t95 268.5v698h26
v-698q0 -181 -104 -285t-279 -104z" />
    <glyph glyph-name="yacute" unicode="&#xfd;" horiz-adv-x="1001" 
d="M674 1597h33l-254 -321h-29zM924 1073l-594 -1524h-27l193 496l-416 1028h26l402 -993h2l387 993h27z" />
    <glyph glyph-name="thorn" unicode="&#xfe;" horiz-adv-x="1300" 
d="M231 1628v-905h2q48 173 176 268.5t285 95.5q95 0 182 -38.5t153.5 -107.5t106.5 -174t40 -230q0 -124 -40 -229.5t-107.5 -175t-154.5 -108t-182 -38.5q-156 0 -283.5 95.5t-175.5 268.5h-2v-801h-26v2079h26zM694 1063q-90 0 -173 -36t-148.5 -101.5t-104.5 -166.5
t-39 -222t39 -222t103.5 -166.5t147.5 -102t173 -36.5t172 36.5t145.5 102.5t101.5 167t38 221t-37.5 220.5t-101 166.5t-145 102.5t-171.5 36.5z" />
    <glyph glyph-name="ydieresis" unicode="&#xff;" horiz-adv-x="1001" 
d="M352 1356q-15 0 -26 11t-11 26t11 26t26 11t26 -11t11 -26t-11 -26t-26 -11zM651 1356q-15 0 -26 11t-11 26t11 26t26 11t26 -11t11 -26t-11 -26t-26 -11zM924 1073l-594 -1524h-27l193 496l-416 1028h26l402 -993h2l387 993h27z" />
    <glyph glyph-name="Amacron" unicode="&#x100;" horiz-adv-x="1351" 
d="M426 1841v25h500v-25h-500zM1307 0h-29l-238 584h-729l-237 -584h-29l619 1520h24zM676 1483l-354 -875h708z" />
    <glyph glyph-name="amacron" unicode="&#x101;" horiz-adv-x="1300" 
d="M401 1395v24h500v-24h-500zM612 -14q-95 0 -182.5 38.5t-155.5 108t-108.5 175t-40.5 229.5t40.5 229.5t108 174.5t154.5 107.5t182 38.5q156 0 283.5 -95.5t175.5 -268.5h2l2 350h23v-1073h-23l-2 350h-2q-48 -174 -174.5 -269t-282.5 -95zM612 10q90 0 172.5 36.5
t146.5 102t102 166.5t38 222t-38 221.5t-102 166.5t-147 102t-174 36q-90 0 -172 -36.5t-146 -102t-102 -166.5t-38 -221t38.5 -221t102.5 -167t146.5 -102.5t172.5 -36.5z" />
    <glyph glyph-name="Abreve" unicode="&#x102;" horiz-adv-x="1351" 
d="M967 2013q-7 -116 -89 -181t-202 -65t-202 65t-89 181h27q7 -98 82.5 -159.5t181.5 -61.5t181.5 61.5t82.5 159.5h27zM1307 0h-29l-238 584h-729l-237 -584h-29l619 1520h24zM676 1483l-354 -875h708z" />
    <glyph glyph-name="abreve" unicode="&#x103;" horiz-adv-x="1300" 
d="M942 1567q-7 -116 -89 -181t-202 -65t-202 65t-89 181h27q7 -98 82.5 -159.5t181.5 -61.5t181.5 61.5t82.5 159.5h27zM612 -14q-95 0 -182.5 38.5t-155.5 108t-108.5 175t-40.5 229.5t40.5 229.5t108 174.5t154.5 107.5t182 38.5q156 0 283.5 -95.5t175.5 -268.5h2l2 350
h23v-1073h-23l-2 350h-2q-48 -174 -174.5 -269t-282.5 -95zM612 10q90 0 172.5 36.5t146.5 102t102 166.5t38 222t-38 221.5t-102 166.5t-147 102t-174 36q-90 0 -172 -36.5t-146 -102t-102 -166.5t-38 -221t38.5 -221t102.5 -167t146.5 -102.5t172.5 -36.5z" />
    <glyph glyph-name="Aogonek" unicode="&#x104;" horiz-adv-x="1351" 
d="M1090 -295q0 -72 46 -108.5t103 -36.5q48 0 68 12v-25q-20 -12 -68 -12q-68 0 -122 43.5t-54 126.5q0 66 57 138.5t158 158.5l-238 582h-729l-237 -584h-29l619 1520h24l619 -1520q-110 -95 -163.5 -163t-53.5 -132zM322 608h708l-354 875z" />
    <glyph glyph-name="aogonek" unicode="&#x105;" horiz-adv-x="1300" 
d="M1096 0q-110 -95 -163.5 -163t-53.5 -132q0 -72 46 -108.5t103 -36.5q48 0 68 12v-25q-20 -12 -68 -12q-68 0 -122 43.5t-54 126.5q0 67 58.5 140.5t162.5 162.5l-2 342h-2q-48 -174 -174.5 -269t-282.5 -95q-95 0 -182.5 38.5t-155.5 108t-108.5 175t-40.5 229.5
t40.5 229.5t108 174.5t154.5 107.5t182 38.5q156 0 283.5 -95.5t175.5 -268.5h2l2 350h23v-1073zM612 10q90 0 172.5 36.5t146.5 102t102 166.5t38 222t-38 221.5t-102 166.5t-147 102t-174 36q-90 0 -172 -36.5t-146 -102t-102 -166.5t-38 -221t38.5 -221t102.5 -167
t146.5 -102.5t172.5 -36.5z" />
    <glyph glyph-name="Cacute" unicode="&#x106;" horiz-adv-x="1359" 
d="M1028 2044h33l-254 -322h-29zM1262 90q-168 -104 -388 -104q-108 0 -213 32t-199 97.5t-165.5 156t-113.5 217.5t-42 273q0 145 41.5 271t112 216.5t162.5 155.5t194.5 97t206.5 32q234 0 404 -104v-29q-163 108 -404 108q-100 0 -198.5 -30.5t-187 -93.5t-156.5 -150
t-108 -209.5t-40 -263.5q0 -142 40.5 -265.5t109.5 -211t159.5 -151t191.5 -94t205 -30.5q222 0 388 109v-29z" />
    <glyph glyph-name="cacute" unicode="&#x107;" horiz-adv-x="1019" 
d="M784 1597h33l-254 -321h-28zM150 537q0 -116 38.5 -215.5t104 -167t153 -106t183.5 -38.5q165 0 286 86v-30q-126 -80 -286 -80q-135 0 -250 68t-185.5 195.5t-70.5 287.5q0 119 40.5 222.5t108.5 174.5t160 112t193 41q160 0 290 -75v-29q-130 80 -290 80
q-96 0 -183 -39t-151.5 -107t-102.5 -167t-38 -213z" />
    <glyph glyph-name="Cdotaccent" unicode="&#x10a;" horiz-adv-x="1359" 
d="M856 1802q-15 0 -26 11t-11 26t11 26t26 11t26 -11t11 -26t-11 -26t-26 -11zM1262 90q-168 -104 -388 -104q-108 0 -213 32t-199 97.5t-165.5 156t-113.5 217.5t-42 273q0 145 41.5 271t112 216.5t162.5 155.5t194.5 97t206.5 32q234 0 404 -104v-29q-163 108 -404 108
q-100 0 -198.5 -30.5t-187 -93.5t-156.5 -150t-108 -209.5t-40 -263.5q0 -142 40.5 -265.5t109.5 -211t159.5 -151t191.5 -94t205 -30.5q222 0 388 109v-29z" />
    <glyph glyph-name="cdotaccent" unicode="&#x10b;" horiz-adv-x="1019" 
d="M612 1356q-15 0 -26 11t-11 26t11 26t26 11t26 -11t11 -26t-11 -26t-26 -11zM150 537q0 -116 38.5 -215.5t104 -167t153 -106t183.5 -38.5q165 0 286 86v-30q-126 -80 -286 -80q-135 0 -250 68t-185.5 195.5t-70.5 287.5q0 119 40.5 222.5t108.5 174.5t160 112t193 41
q160 0 290 -75v-29q-130 80 -290 80q-96 0 -183 -39t-151.5 -107t-102.5 -167t-38 -213z" />
    <glyph glyph-name="Ccaron" unicode="&#x10c;" horiz-adv-x="1359" 
d="M1118 2044l-248 -322h-28l-248 322h29l233 -297l234 297h28zM1262 90q-168 -104 -388 -104q-108 0 -213 32t-199 97.5t-165.5 156t-113.5 217.5t-42 273q0 145 41.5 271t112 216.5t162.5 155.5t194.5 97t206.5 32q234 0 404 -104v-29q-163 108 -404 108
q-100 0 -198.5 -30.5t-187 -93.5t-156.5 -150t-108 -209.5t-40 -263.5q0 -142 40.5 -265.5t109.5 -211t159.5 -151t191.5 -94t205 -30.5q222 0 388 109v-29z" />
    <glyph glyph-name="ccaron" unicode="&#x10d;" horiz-adv-x="1019" 
d="M874 1597l-247 -321h-29l-248 321h29l233 -297l234 297h28zM150 537q0 -116 38.5 -215.5t104 -167t153 -106t183.5 -38.5q165 0 286 86v-30q-126 -80 -286 -80q-135 0 -250 68t-185.5 195.5t-70.5 287.5q0 119 40.5 222.5t108.5 174.5t160 112t193 41q160 0 290 -75v-29
q-130 80 -290 80q-96 0 -183 -39t-151.5 -107t-102.5 -167t-38 -213z" />
    <glyph glyph-name="Dcaron" unicode="&#x10e;" horiz-adv-x="1462" 
d="M950 2044l-248 -322h-28l-248 322h29l233 -297l234 297h28zM530 1520q232 0 410 -89.5t279.5 -262t101.5 -404.5t-101 -406.5t-280 -266t-410 -91.5h-272v1520h272zM285 1495v-1470h245q224 0 396.5 87.5t270 256.5t97.5 395q0 170 -56.5 308t-157.5 230.5t-241.5 142.5
t-308.5 50h-245z" />
    <glyph glyph-name="dcaron" unicode="&#x10f;" horiz-adv-x="1300" 
d="M612 -14q-95 0 -182.5 38.5t-155.5 108t-108.5 175t-40.5 229.5t40.5 229.5t108 174.5t154.5 107.5t182 38.5q156 0 282.5 -95t174.5 -269h2v897h27v-1620h-23l-2 356h-2q-48 -178 -174 -274t-283 -96zM1305 1331q26 91 26 187q0 64 -10 102h25q10 -45 10 -96
q0 -111 -31 -193h-20zM612 10q90 0 172.5 36.5t146.5 102t102 166.5t38 222t-38 221.5t-102 166.5t-147 102t-174 36q-90 0 -172 -36.5t-146 -102t-102 -166.5t-38 -221t38.5 -221t102.5 -167t146.5 -102.5t172.5 -36.5z" />
    <glyph glyph-name="Dcroat" unicode="&#x110;" horiz-adv-x="1474" 
d="M543 1520q232 0 410 -89.5t279 -262t101 -404.5t-101 -406.5t-279.5 -266t-409.5 -91.5h-273v770h-247v25h247v725h273zM543 25q224 0 396.5 87.5t270 256.5t97.5 395q0 170 -56.5 308t-157.5 230.5t-241.5 142.5t-308.5 50h-246v-700h485v-25h-485v-745h246z" />
    <glyph glyph-name="dcroat" unicode="&#x111;" horiz-adv-x="1300" 
d="M1313 1317v-25h-217v-1292h-23l-2 356h-2q-48 -178 -174 -274t-283 -96q-95 0 -182.5 38.5t-155.5 108t-108.5 175t-40.5 229.5t40.5 229.5t108 174.5t154.5 107.5t182 38.5q156 0 282.5 -95t174.5 -269h2v569h-373v25h373v303h27v-303h217zM612 10q90 0 172.5 36.5
t146.5 102t102 166.5t38 222t-38 221.5t-102 166.5t-147 102t-174 36q-90 0 -172 -36.5t-146 -102t-102 -166.5t-38 -221t38.5 -221t102.5 -167t146.5 -102.5t172.5 -36.5z" />
    <glyph glyph-name="Emacron" unicode="&#x112;" horiz-adv-x="1118" 
d="M367 1841v25h499v-25h-499zM258 0v1520h692v-25h-665v-713h628v-24h-628v-733h665v-25h-692z" />
    <glyph glyph-name="emacron" unicode="&#x113;" horiz-adv-x="1165" 
d="M856 1419v-24h-500v24h500zM1042 561l-2 -26h-888q0 -243 133.5 -384t341.5 -141q232 0 399 156v-31q-86 -73 -190 -111t-209 -38q-219 0 -360.5 148.5t-141.5 402.5q0 124 40.5 229.5t107.5 174.5t154 107.5t181 38.5q87 0 164 -33.5t138 -97.5t96.5 -166t35.5 -229z
M152 559h864q0 123 -33.5 221t-91 158.5t-130 92.5t-153.5 32q-86 0 -166.5 -35t-143.5 -98.5t-102.5 -159.5t-43.5 -211z" />
    <glyph glyph-name="Edotaccent" unicode="&#x116;" horiz-adv-x="1118" 
d="M616 1802q-15 0 -25.5 11t-10.5 26t10.5 26t25.5 11t26 -11t11 -26t-11 -26t-26 -11zM258 0v1520h692v-25h-665v-713h628v-24h-628v-733h665v-25h-692z" />
    <glyph glyph-name="edotaccent" unicode="&#x117;" horiz-adv-x="1165" 
d="M606 1356q-15 0 -26 11t-11 26t11 26t26 11t26 -11t11 -26t-11 -26t-26 -11zM1042 561l-2 -26h-888q0 -243 133.5 -384t341.5 -141q232 0 399 156v-31q-86 -73 -190 -111t-209 -38q-219 0 -360.5 148.5t-141.5 402.5q0 124 40.5 229.5t107.5 174.5t154 107.5t181 38.5
q87 0 164 -33.5t138 -97.5t96.5 -166t35.5 -229zM152 559h864q0 123 -33.5 221t-91 158.5t-130 92.5t-153.5 32q-86 0 -166.5 -35t-143.5 -98.5t-102.5 -159.5t-43.5 -211z" />
    <glyph glyph-name="Eogonek" unicode="&#x118;" horiz-adv-x="1118" 
d="M950 1495h-665v-713h628v-24h-628v-733h665v-25q-110 -95 -163.5 -163t-53.5 -132q0 -72 46 -108.5t104 -36.5q47 0 67 12v-25q-20 -12 -67 -12q-68 0 -122 43.5t-54 126.5q0 66 55.5 137.5t155.5 157.5h-660v1520h692v-25z" />
    <glyph glyph-name="eogonek" unicode="&#x119;" horiz-adv-x="1165" 
d="M1042 561l-2 -26h-888q0 -243 133.5 -384t341.5 -141q232 0 399 156v-31q-153 -211 -178 -250q-57 -91 -62 -163v-17q0 -72 46 -108.5t104 -36.5q48 0 68 12v-25q-20 -12 -68 -12q-68 0 -122 43.5t-54 126.5q0 39 8.5 71.5t38.5 83.5t53.5 84t87.5 120q12 17 19 26
q-150 -104 -340 -104q-219 0 -360.5 148.5t-141.5 402.5q0 124 40.5 229.5t107.5 174.5t154 107.5t181 38.5q87 0 164 -33.5t138 -97.5t96.5 -166t35.5 -229zM152 559h864q0 123 -33.5 221t-91 158.5t-130 92.5t-153.5 32q-86 0 -166.5 -35t-143.5 -98.5t-102.5 -159.5
t-43.5 -211z" />
    <glyph glyph-name="Ecaron" unicode="&#x11a;" horiz-adv-x="1118" 
d="M879 2044l-248 -322h-29l-248 322h29l233 -297l234 297h29zM258 0v1520h692v-25h-665v-713h628v-24h-628v-733h665v-25h-692z" />
    <glyph glyph-name="ecaron" unicode="&#x11b;" horiz-adv-x="1165" 
d="M621 1276h-29l-248 321h29l233 -297l234 297h28zM1042 561l-2 -26h-888q0 -243 133.5 -384t341.5 -141q232 0 399 156v-31q-86 -73 -190 -111t-209 -38q-219 0 -360.5 148.5t-141.5 402.5q0 124 40.5 229.5t107.5 174.5t154 107.5t181 38.5q87 0 164 -33.5t138 -97.5
t96.5 -166t35.5 -229zM152 559h864q0 123 -33.5 221t-91 158.5t-130 92.5t-153.5 32q-86 0 -166.5 -35t-143.5 -98.5t-102.5 -159.5t-43.5 -211z" />
    <glyph glyph-name="Gbreve" unicode="&#x11e;" horiz-adv-x="1462" 
d="M1137 2013q-7 -116 -89 -181t-202 -65t-202 65t-89 181h27q7 -98 82.5 -159.5t181.5 -61.5t181.5 61.5t82.5 159.5h27zM168 762q0 -169 54 -311t148 -238t222 -148.5t274 -50.5q223 3 391 80v707h27v-723q-75 -38 -192 -65t-226 -27q-151 0 -284 55.5t-230.5 155
t-154 246t-56.5 319.5t56 319.5t153 244.5t227 153t277 55q244 0 428 -111v-30q-187 114 -428 114q-142 0 -267 -52t-218 -146.5t-147 -236t-54 -310.5z" />
    <glyph glyph-name="gbreve" unicode="&#x11f;" horiz-adv-x="1284" 
d="M938 1567q-7 -116 -89 -181t-202 -65t-202 65t-89 181h27q7 -98 82.5 -159.5t181.5 -61.5t181.5 61.5t82.5 159.5h27zM602 1087q100 0 189.5 -39.5t160.5 -123t101 -199.5h2l2 348h22v-1085q0 -100 -24 -179t-65 -129.5t-99.5 -83.5t-122 -47t-137.5 -14q-250 0 -412 119
v31q165 -125 412 -125q88 0 160 21t133 68t95 133t34 206v381h-2q-46 -169 -170 -263t-277 -94q-93 0 -179.5 38t-153 105.5t-106.5 170t-40 223.5q0 122 39.5 224.5t106 170.5t152.5 105.5t179 37.5zM602 1063q-88 0 -169 -35.5t-143.5 -100t-100 -163t-37.5 -215.5
q0 -116 38 -214t101 -162.5t144 -100t169 -35.5t169 35.5t144 99.5t100.5 162t37.5 215q0 118 -37 216.5t-100 162.5t-144.5 99.5t-171.5 35.5z" />
    <glyph glyph-name="Gdotaccent" unicode="&#x120;" horiz-adv-x="1462" 
d="M846 1802q-15 0 -26 11t-11 26t11 26t26 11t26 -11t11 -26t-11 -26t-26 -11zM168 762q0 -169 54 -311t148 -238t222 -148.5t274 -50.5q223 3 391 80v707h27v-723q-75 -38 -192 -65t-226 -27q-151 0 -284 55.5t-230.5 155t-154 246t-56.5 319.5t56 319.5t153 244.5
t227 153t277 55q244 0 428 -111v-30q-187 114 -428 114q-142 0 -267 -52t-218 -146.5t-147 -236t-54 -310.5z" />
    <glyph glyph-name="gdotaccent" unicode="&#x121;" horiz-adv-x="1284" 
d="M647 1356q-15 0 -26 11t-11 26t11 26t26 11t26 -11t11 -26t-11 -26t-26 -11zM602 1087q100 0 189.5 -39.5t160.5 -123t101 -199.5h2l2 348h22v-1085q0 -100 -24 -179t-65 -129.5t-99.5 -83.5t-122 -47t-137.5 -14q-250 0 -412 119v31q165 -125 412 -125q88 0 160 21
t133 68t95 133t34 206v381h-2q-46 -169 -170 -263t-277 -94q-93 0 -179.5 38t-153 105.5t-106.5 170t-40 223.5q0 122 39.5 224.5t106 170.5t152.5 105.5t179 37.5zM602 1063q-88 0 -169 -35.5t-143.5 -100t-100 -163t-37.5 -215.5q0 -116 38 -214t101 -162.5t144 -100
t169 -35.5t169 35.5t144 99.5t100.5 162t37.5 215q0 118 -37 216.5t-100 162.5t-144.5 99.5t-171.5 35.5z" />
    <glyph glyph-name="uni0122" unicode="&#x122;" horiz-adv-x="1462" 
d="M168 762q0 -169 54 -311t148 -238t222 -148.5t274 -50.5q223 3 391 80v707h27v-723q-75 -38 -192 -65t-226 -27q-151 0 -284 55.5t-230.5 155t-154 246t-56.5 319.5t56 319.5t153 244.5t227 153t277 55q244 0 428 -111v-30q-187 114 -428 114q-142 0 -267 -52
t-218 -146.5t-147 -236t-54 -310.5zM856 -162q17 -161 -41 -325h-29q56 162 43 325h27z" />
    <glyph glyph-name="uni0123" unicode="&#x123;" horiz-adv-x="1284" 
d="M633 1235q-18 161 41 326h28q-56 -162 -43 -326h-26zM602 1087q100 0 189.5 -39.5t160.5 -123t101 -199.5h2l2 348h22v-1085q0 -100 -24 -179t-65 -129.5t-99.5 -83.5t-122 -47t-137.5 -14q-250 0 -412 119v31q165 -125 412 -125q88 0 160 21t133 68t95 133t34 206v381
h-2q-46 -169 -170 -263t-277 -94q-93 0 -179.5 38t-153 105.5t-106.5 170t-40 223.5q0 122 39.5 224.5t106 170.5t152.5 105.5t179 37.5zM602 1063q-88 0 -169 -35.5t-143.5 -100t-100 -163t-37.5 -215.5q0 -116 38 -214t101 -162.5t144 -100t169 -35.5t169 35.5t144 99.5
t100.5 162t37.5 215q0 118 -37 216.5t-100 162.5t-144.5 99.5t-171.5 35.5z" />
    <glyph glyph-name="Hbar" unicode="&#x126;" horiz-adv-x="1562" 
d="M1466 1178l-4 -25h-157v-1153h-27v770h-993v-770h-27v1153h-195l5 25h190v342h27v-342h993v342h27v-342h161zM1278 795v358h-993v-358h993z" />
    <glyph glyph-name="hbar" unicode="&#x127;" horiz-adv-x="1161" 
d="M610 1087q164 0 262.5 -98.5t98.5 -267.5v-721h-27v721q0 160 -90 251t-244 91q-102 0 -186.5 -37t-138.5 -113t-54 -178v-735h-26v1292h-203v25h203v303h26v-303h387v-25h-387v-428h2q42 105 145.5 164t231.5 59z" />
    <glyph glyph-name="Imacron" unicode="&#x12a;" horiz-adv-x="542" 
d="M20 1841v25h500v-25h-500zM258 0v1520h27v-1520h-27z" />
    <glyph glyph-name="imacron" unicode="&#x12b;" horiz-adv-x="452" 
d="M-23 1448v25h500v-25h-500zM213 0v1073h27v-1073h-27z" />
    <glyph glyph-name="Iogonek" unicode="&#x12e;" horiz-adv-x="542" 
d="M285 0q-110 -95 -163.5 -163t-53.5 -132q0 -72 46 -108.5t103 -36.5q48 0 68 12v-25q-20 -12 -68 -12q-68 0 -122 43.5t-54 126.5q0 66 58 139.5t159 159.5v1516h27v-1520z" />
    <glyph glyph-name="iogonek" unicode="&#x12f;" horiz-adv-x="452" 
d="M227 1524q15 0 26 -11t11 -26t-11 -26t-26 -11t-26 11t-11 26t11 26t26 11zM213 4v1069h27v-1073q-110 -95 -163.5 -163t-53.5 -132q0 -72 46 -108.5t103 -36.5q48 0 68 12v-25q-20 -12 -68 -12q-68 0 -122 43.5t-54 126.5q0 66 58 139.5t159 159.5z" />
    <glyph glyph-name="Idotaccent" unicode="&#x130;" horiz-adv-x="542" 
d="M270 1802q-15 0 -26 11t-11 26t11 26t26 11t26 -11t11 -26t-11 -26t-26 -11zM258 0v1520h27v-1520h-27z" />
    <glyph glyph-name="dotlessi" unicode="&#x131;" horiz-adv-x="452" 
d="M213 0v1073h27v-1073h-27z" />
    <glyph glyph-name="IJ" unicode="&#x132;" horiz-adv-x="1452" 
d="M258 0v1520h27v-1520h-27zM631 121q120 -111 264 -111q132 0 209.5 83t77.5 235v1192h26v-1192q0 -161 -85.5 -251.5t-227.5 -90.5q-145 0 -264 104v31z" />
    <glyph glyph-name="ij" unicode="&#x133;" horiz-adv-x="903" 
d="M227 1450q-15 0 -26 11t-11 26t11 26t26 11t26 -11t11 -26t-11 -26t-26 -11zM678 1450q-15 0 -26 11t-11 26t11 26t26 11t26 -11t11 -26t-11 -26t-26 -11zM213 0v1073h27v-1073h-27zM485 -451q179 200 179 549v975h26v-975q0 -184 -43.5 -315t-126.5 -234h-35z" />
    <glyph glyph-name="uni0136" unicode="&#x136;" horiz-adv-x="1200" 
d="M285 1520v-1520h-27v1520h27zM1147 1520l-821 -762l831 -758h-37l-831 758l823 762h35zM676 -162q17 -161 -41 -325h-29q56 162 43 325h27z" />
    <glyph glyph-name="uni0137" unicode="&#x137;" horiz-adv-x="919" 
d="M231 1620v-1620h-26v1620h26zM860 1073l-588 -504l615 -569h-37l-614 569l587 504h37zM530 -162q17 -161 -41 -325h-28q56 162 43 325h26z" />
    <glyph glyph-name="kgreenlandic" unicode="&#x138;" horiz-adv-x="917" 
d="M231 1073v-1073h-26v1073h26zM858 1073l-588 -504l615 -569h-35l-614 569l587 504h35z" />
    <glyph glyph-name="Lacute" unicode="&#x139;" horiz-adv-x="1054" 
d="M442 2044h33l-254 -322h-28zM258 0v1520h27v-1495h714v-25h-741z" />
    <glyph glyph-name="lacute" unicode="&#x13a;" horiz-adv-x="452" 
d="M397 2144h33l-254 -321h-29zM213 0v1620h27v-1620h-27z" />
    <glyph glyph-name="uni013B" unicode="&#x13b;" horiz-adv-x="1054" 
d="M258 0v1520h27v-1495h714v-25h-741zM645 -162q17 -161 -41 -325h-29q56 162 43 325h27z" />
    <glyph glyph-name="uni013C" unicode="&#x13c;" horiz-adv-x="452" 
d="M213 0v1620h27v-1620h-27zM240 -162q17 -161 -41 -325h-29q56 162 43 325h27z" />
    <glyph glyph-name="Lcaron" unicode="&#x13d;" horiz-adv-x="1054" 
d="M494 1339q26 91 26 187q0 64 -10 102h25q10 -45 10 -96q0 -111 -31 -193h-20zM258 0v1520h27v-1495h714v-25h-741z" />
    <glyph glyph-name="lcaron" unicode="&#x13e;" horiz-adv-x="444" 
d="M213 0v1620h27v-1620h-27zM449 1331q26 91 26 187q0 64 -10 102h24q11 -50 11 -96q0 -111 -31 -193h-20z" />
    <glyph glyph-name="Ldot" unicode="&#x13f;" horiz-adv-x="1091" 
d="M258 0v1520h27v-1495h714v-25h-741zM809 705q-23 0 -39 16t-16 39t16 39t39 16t39 -16t16 -39t-16 -39t-39 -16z" />
    <glyph glyph-name="ldot" unicode="&#x140;" horiz-adv-x="501" 
d="M213 0v1620h27v-1620h-27zM481 756q-23 0 -39 16t-16 39t16 39t39 16t39.5 -16t16.5 -39t-16.5 -39t-39.5 -16z" />
    <glyph glyph-name="Lslash" unicode="&#x141;" horiz-adv-x="1077" 
d="M307 25h715v-25h-741v709l-273 -158v27l273 157v785h26v-770l381 219v-27l-381 -219v-698z" />
    <glyph glyph-name="lslash" unicode="&#x142;" horiz-adv-x="696" 
d="M643 1026v-27l-276 -159v-840h-27v825l-272 -157v26l272 158v768h27v-754z" />
    <glyph glyph-name="Nacute" unicode="&#x143;" horiz-adv-x="1583" 
d="M967 2044h32l-254 -322h-28zM1325 1520v-1520h-31l-1007 1477h-2v-1477h-27v1520h33l1005 -1475h2v1475h27z" />
    <glyph glyph-name="nacute" unicode="&#x144;" horiz-adv-x="1161" 
d="M774 1597h33l-254 -321h-29zM606 1087q166 0 265.5 -97.5t99.5 -266.5v-723h-27v723q0 160 -91.5 250t-246.5 90q-158 0 -266.5 -88.5t-108.5 -245.5v-729h-26v1073h22l2 -219h2q40 112 141 172.5t234 60.5z" />
    <glyph glyph-name="uni0145" unicode="&#x145;" horiz-adv-x="1583" 
d="M1325 1520v-1520h-31l-1007 1477h-2v-1477h-27v1520h33l1005 -1475h2v1475h27zM805 -162q17 -161 -41 -325h-29q56 162 43 325h27z" />
    <glyph glyph-name="uni0146" unicode="&#x146;" horiz-adv-x="1161" 
d="M606 1087q166 0 265.5 -97.5t99.5 -266.5v-723h-27v723q0 160 -91.5 250t-246.5 90q-158 0 -266.5 -88.5t-108.5 -245.5v-729h-26v1073h22l2 -219h2q40 112 141 172.5t234 60.5zM602 -162q17 -161 -41 -325h-29q56 162 43 325h27z" />
    <glyph glyph-name="Ncaron" unicode="&#x147;" horiz-adv-x="1583" 
d="M1057 2044l-248 -322h-29l-248 322h29l234 -297l233 297h29zM1325 1520v-1520h-31l-1007 1477h-2v-1477h-27v1520h33l1005 -1475h2v1475h27z" />
    <glyph glyph-name="ncaron" unicode="&#x148;" horiz-adv-x="1161" 
d="M864 1597l-248 -321h-28l-248 321h29l233 -297l234 297h28zM606 1087q166 0 265.5 -97.5t99.5 -266.5v-723h-27v723q0 160 -91.5 250t-246.5 90q-158 0 -266.5 -88.5t-108.5 -245.5v-729h-26v1073h22l2 -219h2q40 112 141 172.5t234 60.5z" />
    <glyph glyph-name="Eng" unicode="&#x14a;" horiz-adv-x="1583" 
d="M1325 1520v-1643q0 -161 -85.5 -251.5t-227.5 -90.5q-144 0 -264 105v30q119 -110 264 -110q132 0 209 82.5t77 234.5v117l-1011 1483h-2v-1477h-27v1520h33l1005 -1475h2v1475h27z" />
    <glyph glyph-name="eng" unicode="&#x14b;" horiz-adv-x="1161" 
d="M971 723v-625q0 -184 -43.5 -315t-126.5 -234h-35q178 199 178 549v625q0 160 -91.5 250t-246.5 90q-158 0 -266.5 -88.5t-108.5 -245.5v-729h-26v1073h22l2 -219h2q40 112 141 172.5t234 60.5q166 0 265.5 -97.5t99.5 -266.5z" />
    <glyph glyph-name="Omacron" unicode="&#x14c;" horiz-adv-x="1710" 
d="M604 1841v25h500v-25h-500zM854 -14q-149 0 -280.5 57.5t-226.5 158.5t-150.5 246t-55.5 312t55.5 312t150.5 246t226.5 158.5t280.5 57.5t280.5 -57.5t227.5 -158.5t151.5 -246t55.5 -312t-55.5 -312t-151.5 -246t-227.5 -158.5t-280.5 -57.5zM854 10q192 0 349 94.5
t248 266.5t91 389q0 163 -53.5 303t-145.5 237.5t-218.5 153t-270.5 55.5t-270.5 -55.5t-218 -153t-144.5 -237.5t-53 -303q0 -217 90.5 -389t247 -266.5t348.5 -94.5z" />
    <glyph glyph-name="omacron" unicode="&#x14d;" 
d="M375 1395v24h499v-24h-499zM625 -14q-96 0 -185.5 38.5t-159.5 108t-112.5 175t-42.5 229.5t42 229.5t112 174.5t160 107.5t186 38.5t186 -38.5t159.5 -107.5t111.5 -174.5t42 -229.5t-42 -229.5t-112 -175t-159.5 -108t-185.5 -38.5zM625 10q91 0 176 36.5t151 102.5
t106 167t40 221t-40 221t-106 166.5t-151 102t-176 36.5t-176 -36.5t-151 -102t-106 -166.5t-40 -221t40 -221t106 -167t151 -102.5t176 -36.5z" />
    <glyph glyph-name="Ohungarumlaut" unicode="&#x150;" horiz-adv-x="1710" 
d="M995 2044l-278 -322h-29l275 322h32zM1262 2044l-277 -322h-29l273 322h33zM854 -14q-149 0 -280.5 57.5t-226.5 158.5t-150.5 246t-55.5 312t55.5 312t150.5 246t226.5 158.5t280.5 57.5t280.5 -57.5t227.5 -158.5t151.5 -246t55.5 -312t-55.5 -312t-151.5 -246
t-227.5 -158.5t-280.5 -57.5zM854 10q192 0 349 94.5t248 266.5t91 389q0 163 -53.5 303t-145.5 237.5t-218.5 153t-270.5 55.5t-270.5 -55.5t-218 -153t-144.5 -237.5t-53 -303q0 -217 90.5 -389t247 -266.5t348.5 -94.5z" />
    <glyph glyph-name="ohungarumlaut" unicode="&#x151;" 
d="M766 1597l-279 -321h-28l274 321h33zM1032 1597l-276 -321h-29l272 321h33zM625 -14q-96 0 -185.5 38.5t-159.5 108t-112.5 175t-42.5 229.5t42 229.5t112 174.5t160 107.5t186 38.5t186 -38.5t159.5 -107.5t111.5 -174.5t42 -229.5t-42 -229.5t-112 -175t-159.5 -108
t-185.5 -38.5zM625 10q91 0 176 36.5t151 102.5t106 167t40 221t-40 221t-106 166.5t-151 102t-176 36.5t-176 -36.5t-151 -102t-106 -166.5t-40 -221t40 -221t106 -167t151 -102.5t176 -36.5z" />
    <glyph glyph-name="OE" unicode="&#x152;" horiz-adv-x="1970" 
d="M1802 1520v-25h-665v-713h628v-24h-628v-733h665v-25h-692q-115 -14 -240 -14q-153 0 -288 57.5t-232.5 158.5t-154 246t-56.5 312t56.5 312t154 246t232.5 158.5t288 57.5q125 0 240 -14h692zM1110 1495q-98 14 -240 14q-147 0 -277 -55.5t-224 -153t-148.5 -237.5
t-54.5 -303q0 -217 93 -389t253.5 -266.5t357.5 -94.5q135 0 240 15v1470z" />
    <glyph glyph-name="oe" unicode="&#x153;" horiz-adv-x="2138" 
d="M2015 561l-2 -26h-889q0 -243 133.5 -384t341.5 -141q233 0 400 156v-31q-86 -73 -190.5 -111t-209.5 -38q-190 0 -323 112.5t-166 313.5h-2q-37 -196 -174.5 -311t-308.5 -115q-96 0 -185.5 38.5t-159.5 108t-112.5 175t-42.5 229.5t42 229.5t112 174.5t160 107.5
t186 38.5q172 0 309 -114.5t174 -310.5h2q33 197 163.5 311t307.5 114q87 0 164 -33.5t138 -97.5t96.5 -166t35.5 -229zM625 10q91 0 176 36.5t151 102.5t106 167t40 221t-40 221t-106 166.5t-151 102t-176 36.5t-176 -36.5t-151 -102t-106 -166.5t-40 -221t40 -221
t106 -167t151 -102.5t176 -36.5zM1124 559h865q0 123 -33.5 221t-91 158.5t-130 92.5t-153.5 32q-86 0 -166.5 -35t-144 -98t-103 -159.5t-43.5 -211.5z" />
    <glyph glyph-name="Racute" unicode="&#x154;" horiz-adv-x="1153" 
d="M791 2044l-254 -322h-29l250 322h33zM322 721l727 -721h-37l-727 721v-721h-27v1520h274q122 0 215 -31t149 -86t84 -127t28 -158q0 -182 -122.5 -289.5t-355.5 -107.5h-208zM285 1495v-750h245q222 0 336.5 100t114.5 273q0 81 -25.5 148t-77.5 119t-140.5 81t-205.5 29
h-247z" />
    <glyph glyph-name="racute" unicode="&#x155;" horiz-adv-x="641" 
d="M596 1597h33l-254 -321h-29zM205 0v1073h22l2 -235h2q37 114 128 178.5t194 64.5q31 0 63 -4v-24q-28 4 -63 4q-122 0 -219 -91t-103 -241v-725h-26z" />
    <glyph glyph-name="uni0156" unicode="&#x156;" horiz-adv-x="1153" 
d="M322 721l727 -721h-37l-727 721v-721h-27v1520h274q122 0 215 -31t149 -86t84 -127t28 -158q0 -182 -122.5 -289.5t-355.5 -107.5h-208zM285 1495v-750h245q222 0 336.5 100t114.5 273q0 81 -25.5 148t-77.5 119t-140.5 81t-205.5 29h-247zM604 -162h27q17 -161 -41 -325
h-29q56 162 43 325z" />
    <glyph glyph-name="uni0157" unicode="&#x157;" horiz-adv-x="641" 
d="M205 0v1073h22l2 -235h2q37 114 128 178.5t194 64.5q31 0 63 -4v-24q-28 4 -63 4q-122 0 -219 -91t-103 -241v-725h-26zM231 -162q17 -161 -41 -325h-28q56 162 43 325h26z" />
    <glyph glyph-name="Rcaron" unicode="&#x158;" horiz-adv-x="1153" 
d="M600 1722h-29l-247 322h28l234 -297l233 297h29zM322 721l727 -721h-37l-727 721v-721h-27v1520h274q122 0 215 -31t149 -86t84 -127t28 -158q0 -182 -122.5 -289.5t-355.5 -107.5h-208zM285 1495v-750h245q222 0 336.5 100t114.5 273q0 81 -25.5 148t-77.5 119
t-140.5 81t-205.5 29h-247z" />
    <glyph glyph-name="rcaron" unicode="&#x159;" horiz-adv-x="641" 
d="M686 1597l-248 -321h-28l-248 321h28l234 -297l233 297h29zM205 0v1073h22l2 -235h2q37 114 128 178.5t194 64.5q31 0 63 -4v-24q-28 4 -63 4q-122 0 -219 -91t-103 -241v-725h-26z" />
    <glyph glyph-name="Sacute" unicode="&#x15a;" horiz-adv-x="1103" 
d="M756 2044h32l-253 -322h-29zM584 1534q87 0 176.5 -25t157.5 -79v-33q-68 58 -157.5 85t-174.5 27q-176 0 -283.5 -95t-107.5 -236q0 -57 21.5 -106t52 -84t87.5 -72.5t103 -61t123 -59.5q74 -34 120.5 -58.5t104.5 -64.5t91 -79.5t56 -96t23 -121.5q0 -165 -124.5 -277
t-315.5 -112q-108 0 -215.5 38.5t-194.5 110.5v33q87 -76 194 -117t214 -41q182 0 298.5 104.5t116.5 260.5q0 44 -11.5 84t-29 71t-49 61.5t-60 52.5t-73.5 48t-79 42.5t-87 41.5q-55 25 -91.5 43.5t-81.5 44.5t-74 48.5t-59.5 52.5t-47.5 61t-28 70t-11 82
q0 151 115.5 253.5t300.5 102.5z" />
    <glyph glyph-name="sacute" unicode="&#x15b;" horiz-adv-x="921" 
d="M649 1597h33l-254 -321h-29zM475 1087q147 0 289 -90v-28q-143 94 -291 94q-131 0 -218 -66.5t-87 -171.5q0 -42 15.5 -76.5t39 -59t67.5 -48t84 -39t105 -37.5q66 -22 110.5 -40.5t90.5 -44.5t72.5 -54.5t43.5 -68t17 -87.5q0 -123 -96.5 -203.5t-245.5 -80.5
q-191 0 -360 129v28q171 -133 360 -133q137 0 226 73t89 185q0 55 -22 97.5t-68.5 75t-99 55.5t-133.5 49q-60 19 -100 34.5t-86 40.5t-73 51.5t-45 65.5t-18 86q0 113 96 188.5t238 75.5z" />
    <glyph glyph-name="uni015E" unicode="&#x15e;" horiz-adv-x="1103" 
d="M977 375q0 -160 -118 -271.5t-302 -117.5q-2 -81 -25.5 -152t-50 -112.5t-69.5 -94.5h-31q72 88 109 168t40 191q-106 2 -211.5 40.5t-191.5 108.5v33q87 -76 194 -117t214 -41q182 0 298.5 104.5t116.5 260.5q0 44 -11.5 84t-29 71t-49 61.5t-60 52.5t-73.5 48t-79 42.5
t-87 41.5q-55 25 -91.5 43.5t-81.5 44.5t-74 48.5t-59.5 52.5t-47.5 61t-28 70t-11 82q0 151 115.5 253.5t300.5 102.5q87 0 176.5 -25t157.5 -79v-33q-68 58 -157.5 85t-174.5 27q-176 0 -283.5 -95t-107.5 -236q0 -57 21.5 -106t52 -84t87.5 -72.5t103 -61t123 -59.5
q74 -34 120.5 -58.5t104.5 -64.5t91 -79.5t56 -96t23 -121.5z" />
    <glyph glyph-name="uni015F" unicode="&#x15f;" horiz-adv-x="921" 
d="M813 270q0 -120 -92.5 -199.5t-235.5 -84.5q-2 -81 -25.5 -152t-50 -112.5t-69.5 -94.5h-31q72 88 109.5 168t40.5 191q-185 3 -348 129v28q171 -133 360 -133q137 0 226 73t89 185q0 55 -22 97.5t-68.5 75t-99 55.5t-133.5 49q-60 19 -100 34.5t-86 40.5t-73 51.5
t-45 65.5t-18 86q0 113 96 188.5t238 75.5q147 0 289 -90v-28q-143 94 -291 94q-131 0 -218 -66.5t-87 -171.5q0 -42 15.5 -76.5t39 -59t67.5 -48t84 -39t105 -37.5q66 -22 110.5 -40.5t90.5 -44.5t72.5 -54.5t43.5 -68t17 -87.5z" />
    <glyph glyph-name="Scaron" unicode="&#x160;" horiz-adv-x="1103" 
d="M846 2044l-248 -322h-29l-247 322h28l234 -297l233 297h29zM584 1534q87 0 176.5 -25t157.5 -79v-33q-68 58 -157.5 85t-174.5 27q-176 0 -283.5 -95t-107.5 -236q0 -57 21.5 -106t52 -84t87.5 -72.5t103 -61t123 -59.5q74 -34 120.5 -58.5t104.5 -64.5t91 -79.5t56 -96
t23 -121.5q0 -165 -124.5 -277t-315.5 -112q-108 0 -215.5 38.5t-194.5 110.5v33q87 -76 194 -117t214 -41q182 0 298.5 104.5t116.5 260.5q0 44 -11.5 84t-29 71t-49 61.5t-60 52.5t-73.5 48t-79 42.5t-87 41.5q-55 25 -91.5 43.5t-81.5 44.5t-74 48.5t-59.5 52.5t-47.5 61
t-28 70t-11 82q0 151 115.5 253.5t300.5 102.5z" />
    <glyph glyph-name="scaron" unicode="&#x161;" horiz-adv-x="921" 
d="M739 1597l-247 -321h-29l-248 321h29l233 -297l234 297h28zM475 1087q147 0 289 -90v-28q-143 94 -291 94q-131 0 -218 -66.5t-87 -171.5q0 -42 15.5 -76.5t39 -59t67.5 -48t84 -39t105 -37.5q66 -22 110.5 -40.5t90.5 -44.5t72.5 -54.5t43.5 -68t17 -87.5
q0 -123 -96.5 -203.5t-245.5 -80.5q-191 0 -360 129v28q171 -133 360 -133q137 0 226 73t89 185q0 55 -22 97.5t-68.5 75t-99 55.5t-133.5 49q-60 19 -100 34.5t-86 40.5t-73 51.5t-45 65.5t-18 86q0 113 96 188.5t238 75.5z" />
    <glyph glyph-name="uni0162" unicode="&#x162;" horiz-adv-x="1153" 
d="M47 1520h1059v-25h-516v-1495q0 -121 -38.5 -205t-107.5 -168h-30q74 90 111.5 173t37.5 200v1495h-516v25z" />
    <glyph glyph-name="uni0163" unicode="&#x163;" horiz-adv-x="626" 
d="M528 12q45 0 84 8v-24q-32 -8 -86 -8q-38 0 -73 6q-1 -119 -40 -203t-106 -164h-31q74 90 112 173t38 198q-203 52 -203 303v748h-166v24h166v256h27v-256h328v-24h-328v-744q0 -293 278 -293z" />
    <glyph glyph-name="Tcaron" unicode="&#x164;" horiz-adv-x="1153" 
d="M838 2044l-248 -322h-29l-248 322h29l233 -297l234 297h29zM563 0v1495h-516v25h1059v-25h-516v-1495h-27z" />
    <glyph glyph-name="tcaron" unicode="&#x165;" horiz-adv-x="626" 
d="M459 1339q26 91 26 187q0 64 -10 102h25q10 -45 10 -96q0 -111 -31 -193h-20zM250 1329v-256h328v-24h-328v-744q0 -293 278 -293q45 0 84 8v-24q-32 -8 -86 -8q-140 0 -221.5 75t-81.5 238v748h-166v24h166v256h27z" />
    <glyph glyph-name="Tbar" unicode="&#x166;" horiz-adv-x="1204" 
d="M1130 1495h-516v-711h359v-24h-359v-760h-26v760h-355v24h355v711h-516v25h1058v-25z" />
    <glyph glyph-name="tbar" unicode="&#x167;" horiz-adv-x="643" 
d="M537 12q45 0 84 8v-24q-32 -8 -86 -8q-140 0 -222 75t-82 238v270h-165v25h165v453h-165v24h165v256h27v-256h328v-24h-328v-453h328v-25h-328v-266q0 -293 279 -293z" />
    <glyph glyph-name="Umacron" unicode="&#x16a;" horiz-adv-x="1507" 
d="M504 1841v25h500v-25h-500zM754 -14q-237 0 -377.5 151.5t-140.5 411.5v971h26v-971q0 -251 132.5 -395t359.5 -144t359 144t132 395v971h27v-971q0 -260 -140.5 -411.5t-377.5 -151.5z" />
    <glyph glyph-name="umacron" unicode="&#x16b;" horiz-adv-x="1146" 
d="M324 1395v24h499v-24h-499zM573 -14q-175 0 -279 104t-104 285v698h27v-698q0 -172 96 -268.5t260 -96.5q167 0 262 96.5t95 268.5v698h26v-698q0 -181 -104 -285t-279 -104z" />
    <glyph glyph-name="Uring" unicode="&#x16e;" horiz-adv-x="1507" 
d="M756 2032q64 0 107.5 -44.5t43.5 -105.5t-43.5 -104t-107.5 -43q-66 0 -110 43t-44 104t44 105.5t110 44.5zM756 2009q-57 0 -93 -36.5t-36 -90.5t35.5 -89.5t93.5 -35.5q55 0 91 36t36 89t-36 90t-91 37zM754 -14q-237 0 -377.5 151.5t-140.5 411.5v971h26v-971
q0 -251 132.5 -395t359.5 -144t359 144t132 395v971h27v-971q0 -260 -140.5 -411.5t-377.5 -151.5z" />
    <glyph glyph-name="uring" unicode="&#x16f;" horiz-adv-x="1146" 
d="M575 1585q64 0 108 -44t44 -105t-44 -104.5t-108 -43.5q-66 0 -109.5 43.5t-43.5 104.5t43.5 105t109.5 44zM575 1563q-57 0 -93 -36.5t-36 -90.5t36 -89.5t93 -35.5q55 0 91 36t36 89t-36 90t-91 37zM573 -14q-175 0 -279 104t-104 285v698h27v-698q0 -172 96 -268.5
t260 -96.5q167 0 262 96.5t95 268.5v698h26v-698q0 -181 -104 -285t-279 -104z" />
    <glyph glyph-name="Uhungarumlaut" unicode="&#x170;" horiz-adv-x="1507" 
d="M895 2044l-279 -322h-28l274 322h33zM1161 2044l-276 -322h-29l272 322h33zM754 -14q-237 0 -377.5 151.5t-140.5 411.5v971h26v-971q0 -251 132.5 -395t359.5 -144t359 144t132 395v971h27v-971q0 -260 -140.5 -411.5t-377.5 -151.5z" />
    <glyph glyph-name="uhungarumlaut" unicode="&#x171;" horiz-adv-x="1146" 
d="M715 1597l-279 -321h-28l274 321h33zM981 1597l-276 -321h-29l272 321h33zM573 -14q-175 0 -279 104t-104 285v698h27v-698q0 -172 96 -268.5t260 -96.5q167 0 262 96.5t95 268.5v698h26v-698q0 -181 -104 -285t-279 -104z" />
    <glyph glyph-name="Uogonek" unicode="&#x172;" horiz-adv-x="1507" 
d="M1245 1520h27v-971q0 -266 -148 -420q-138 -186 -168 -234q-71 -112 -71 -190q0 -72 46 -108.5t103 -36.5q48 0 68 12v-25q-20 -12 -68 -12q-68 0 -122 43.5t-54 126.5q0 68 45 148t144 213q-121 -80 -293 -80q-237 0 -377.5 151.5t-140.5 411.5v971h26v-971
q0 -251 132.5 -395t359.5 -144t359 144t132 395v971z" />
    <glyph glyph-name="uogonek" unicode="&#x173;" horiz-adv-x="1146" 
d="M930 1073h26v-698q0 -155 -77 -254q-136 -182 -172 -242q-62 -102 -62 -174t46 -108.5t104 -36.5q47 0 67 12v-25q-20 -12 -67 -12q-68 0 -122.5 44t-54.5 126q0 64 43.5 142t129.5 194q-88 -55 -218 -55q-175 0 -279 104t-104 285v698h27v-698q0 -172 96 -268.5
t260 -96.5q167 0 262 96.5t95 268.5v698z" />
    <glyph glyph-name="Wcircumflex" unicode="&#x174;" horiz-adv-x="2091" 
d="M1061 2044l248 -322h-29l-233 297l-234 -297h-29l248 322h29zM1538 0l-491 1473h-3l-491 -1473h-31l-452 1520h28l439 -1473h2l493 1473h27l493 -1473h2l441 1473h26l-452 -1520h-31z" />
    <glyph glyph-name="wcircumflex" unicode="&#x175;" horiz-adv-x="1628" 
d="M827 1597l248 -321h-28l-234 297l-233 -297h-29l248 321h28zM1188 0l-373 1038h-2l-375 -1038h-28l-316 1073h27l303 -1038h2l375 1038h26l375 -1038h2l303 1038h27l-317 -1073h-29z" />
    <glyph glyph-name="Ycircumflex" unicode="&#x176;" horiz-adv-x="1189" 
d="M608 2044l248 -322h-29l-233 297l-234 -297h-28l248 322h28zM582 0v682l-541 838h29l524 -807h2l522 807h29l-539 -838v-682h-26z" />
    <glyph glyph-name="ycircumflex" unicode="&#x177;" horiz-adv-x="1001" 
d="M516 1597l248 -321h-29l-233 297l-234 -297h-28l247 321h29zM924 1073l-594 -1524h-27l193 496l-416 1028h26l402 -993h2l387 993h27z" />
    <glyph glyph-name="Ydieresis" unicode="&#x178;" horiz-adv-x="1189" 
d="M444 1802q-15 0 -25.5 11t-10.5 26t10.5 26t25.5 11t26 -11t11 -26t-11 -26t-26 -11zM743 1802q-15 0 -25.5 11t-10.5 26t10.5 26t25.5 11t26 -11t11 -26t-11 -26t-26 -11zM582 0v682l-541 838h29l524 -807h2l522 807h29l-539 -838v-682h-26z" />
    <glyph glyph-name="Zacute" unicode="&#x179;" horiz-adv-x="1128" 
d="M758 2044h33l-254 -322h-29zM1065 1520l-961 -1493v-2h912v-25h-961l963 1493v2h-893v25h940z" />
    <glyph glyph-name="zacute" unicode="&#x17a;" horiz-adv-x="917" 
d="M627 1597h32l-253 -321h-29zM852 1073l-746 -1046v-2h705v-25h-756l746 1047v2h-680v24h731z" />
    <glyph glyph-name="Zdotaccent" unicode="&#x17b;" horiz-adv-x="1128" 
d="M586 1802q-15 0 -26 11t-11 26t11 26t26 11t26 -11t11 -26t-11 -26t-26 -11zM1065 1520l-961 -1493v-2h912v-25h-961l963 1493v2h-893v25h940z" />
    <glyph glyph-name="zdotaccent" unicode="&#x17c;" horiz-adv-x="917" 
d="M455 1356q-15 0 -26 11t-11 26t11 26t26 11t26 -11t11 -26t-11 -26t-26 -11zM852 1073l-746 -1046v-2h705v-25h-756l746 1047v2h-680v24h731z" />
    <glyph glyph-name="Zcaron" unicode="&#x17d;" horiz-adv-x="1128" 
d="M848 2044l-248 -322h-29l-247 322h28l234 -297l233 297h29zM1065 1520l-961 -1493v-2h912v-25h-961l963 1493v2h-893v25h940z" />
    <glyph glyph-name="zcaron" unicode="&#x17e;" horiz-adv-x="917" 
d="M717 1597l-248 -321h-29l-247 321h28l234 -297l233 297h29zM852 1073l-746 -1046v-2h705v-25h-756l746 1047v2h-680v24h731z" />
    <glyph glyph-name="florin" unicode="&#x192;" horiz-adv-x="720" 
d="M625 1614q-182 0 -217 -234l-48 -307h283v-24h-287l-188 -1242q-40 -272 -250 -272q-76 0 -125 25v24q47 -24 125 -24q92 0 147.5 58t75.5 189l189 1242h-207v24h211l47 307q20 130 84 194t160 64q61 0 102 -18v-25q-38 19 -102 19z" />
    <glyph glyph-name="uni0218" unicode="&#x218;" horiz-adv-x="1103" 
d="M584 1534q87 0 176.5 -25t157.5 -79v-33q-68 58 -157.5 85t-174.5 27q-176 0 -283.5 -95t-107.5 -236q0 -57 21.5 -106t52 -84t87.5 -72.5t103 -61t123 -59.5q74 -34 120.5 -58.5t104.5 -64.5t91 -79.5t56 -96t23 -121.5q0 -165 -124.5 -277t-315.5 -112
q-108 0 -215.5 38.5t-194.5 110.5v33q87 -76 194 -117t214 -41q182 0 298.5 104.5t116.5 260.5q0 44 -11.5 84t-29 71t-49 61.5t-60 52.5t-73.5 48t-79 42.5t-87 41.5q-55 25 -91.5 43.5t-81.5 44.5t-74 48.5t-59.5 52.5t-47.5 61t-28 70t-11 82q0 151 115.5 253.5
t300.5 102.5zM557 -162q17 -161 -41 -325h-29q56 162 43 325h27z" />
    <glyph glyph-name="uni0219" unicode="&#x219;" horiz-adv-x="921" 
d="M475 1087q147 0 289 -90v-28q-143 94 -291 94q-131 0 -218 -66.5t-87 -171.5q0 -42 15.5 -76.5t39 -59t67.5 -48t84 -39t105 -37.5q66 -22 110.5 -40.5t90.5 -44.5t72.5 -54.5t43.5 -68t17 -87.5q0 -123 -96.5 -203.5t-245.5 -80.5q-191 0 -360 129v28q171 -133 360 -133
q137 0 226 73t89 185q0 55 -22 97.5t-68.5 75t-99 55.5t-133.5 49q-60 19 -100 34.5t-86 40.5t-73 51.5t-45 65.5t-18 86q0 113 96 188.5t238 75.5zM485 -162q17 -161 -41 -325h-28q56 162 43 325h26z" />
    <glyph glyph-name="uni021A" unicode="&#x21a;" horiz-adv-x="1153" 
d="M563 0v1495h-516v25h1059v-25h-516v-1495h-27zM590 -162q17 -161 -41 -325h-29q56 162 43 325h27z" />
    <glyph glyph-name="uni021B" unicode="&#x21b;" horiz-adv-x="626" 
d="M250 1329v-256h328v-24h-328v-744q0 -293 278 -293q45 0 84 8v-24q-32 -8 -86 -8q-140 0 -221.5 75t-81.5 238v748h-166v24h166v256h27zM453 -162q17 -161 -41 -325h-29q56 162 43 325h27z" />
    <glyph glyph-name="circumflex" unicode="&#x2c6;" 
d="M639 1597l248 -321h-29l-233 297l-234 -297h-29l248 321h29z" />
    <glyph glyph-name="caron" unicode="&#x2c7;" 
d="M887 1597l-248 -321h-29l-248 321h29l234 -297l233 297h29z" />
    <glyph glyph-name="breve" unicode="&#x2d8;" 
d="M915 1567q-7 -116 -88.5 -181t-201.5 -65t-202 65t-89 181h26q7 -98 83 -159.5t182 -61.5t181.5 61.5t82.5 159.5h26z" />
    <glyph glyph-name="dotaccent" unicode="&#x2d9;" 
d="M625 1356q-15 0 -26 11t-11 26t11 26t26 11t26 -11t11 -26t-11 -26t-26 -11z" />
    <glyph glyph-name="ring" unicode="&#x2da;" 
d="M625 1585q64 0 107.5 -44t43.5 -105t-43.5 -104.5t-107.5 -43.5q-66 0 -110 43.5t-44 104.5t44 105t110 44zM625 1563q-57 0 -93 -36.5t-36 -90.5t36 -89.5t93 -35.5q55 0 91 36t36 89t-36 90t-91 37z" />
    <glyph glyph-name="ogonek" unicode="&#x2db;" 
d="M725 0q-110 -95 -163.5 -163t-53.5 -132q0 -72 46 -108.5t103 -36.5q48 0 68 12v-25q-20 -12 -68 -12q-68 0 -122 43.5t-54 126.5q0 67 58.5 140.5t162.5 162.5z" />
    <glyph glyph-name="tilde" unicode="&#x2dc;" 
d="M948 1430q3 -67 -42.5 -104.5t-110.5 -37.5q-39 0 -82.5 18t-76 39.5t-75 39.5t-80.5 18q-58 0 -94 -29.5t-33 -87.5h-26q-3 67 42.5 104t110.5 37q49 0 104 -28.5t109 -57t101 -28.5q58 0 94 29.5t33 87.5h26z" />
    <glyph glyph-name="hungarumlaut" unicode="&#x2dd;" 
d="M676 1597l-279 -321h-28l274 321h33zM942 1597l-276 -321h-29l272 321h33z" />
    <glyph glyph-name="gravecomb" unicode="&#x300;" horiz-adv-x="0" 
d="M-172 1597l250 -321h-29l-254 321h33z" />
    <glyph glyph-name="acutecomb" unicode="&#x301;" horiz-adv-x="0" 
d="M172 1597h33l-254 -321h-29z" />
    <glyph glyph-name="uni0302" unicode="&#x302;" horiz-adv-x="0" 
d="M14 1597l248 -321h-29l-233 297l-233 -297h-29l248 321h28z" />
    <glyph glyph-name="tildecomb" unicode="&#x303;" horiz-adv-x="0" 
d="M309 1430q3 -67 -42.5 -104.5t-110.5 -37.5q-39 0 -82.5 18t-76 39.5t-75 39.5t-80.5 18q-58 0 -94 -29.5t-33 -87.5h-26q-3 67 42.5 104t110.5 37q49 0 104 -28.5t109 -57t101 -28.5q58 0 94 29.5t33 87.5h26z" />
    <glyph glyph-name="uni0304" unicode="&#x304;" horiz-adv-x="0" 
d="M-250 1395v24h500v-24h-500z" />
    <glyph glyph-name="uni0306" unicode="&#x306;" horiz-adv-x="0" 
d="M291 1567q-7 -116 -89 -181t-202 -65t-202 65t-89 181h27q7 -98 82.5 -159.5t181.5 -61.5t181.5 61.5t82.5 159.5h27z" />
    <glyph glyph-name="uni0307" unicode="&#x307;" horiz-adv-x="0" 
d="M0 1356q-15 0 -26 11t-11 26t11 26t26 11t26 -11t11 -26t-11 -26t-26 -11z" />
    <glyph glyph-name="uni0308" unicode="&#x308;" horiz-adv-x="0" 
d="M-150 1356q-15 0 -25.5 11t-10.5 26t10.5 26t25.5 11t26 -11t11 -26t-11 -26t-26 -11zM150 1356q-15 0 -26 11t-11 26t11 26t26 11t25.5 -11t10.5 -26t-10.5 -26t-25.5 -11z" />
    <glyph glyph-name="uni030A" unicode="&#x30a;" horiz-adv-x="0" 
d="M2 1585q64 0 108 -44t44 -105t-44 -104.5t-108 -43.5q-66 0 -110 43.5t-44 104.5t44 105t110 44zM2 1563q-57 0 -93 -36.5t-36 -90.5t35.5 -89.5t93.5 -35.5q55 0 91 36t36 89t-36 90t-91 37z" />
    <glyph glyph-name="uni030B" unicode="&#x30b;" horiz-adv-x="0" 
d="M141 1597l-278 -321h-29l275 321h32zM408 1597l-277 -321h-29l273 321h33z" />
    <glyph glyph-name="uni030C" unicode="&#x30c;" horiz-adv-x="0" 
d="M262 1597l-248 -321h-28l-248 321h29l233 -297l233 297h29z" />
    <glyph glyph-name="uni0326" unicode="&#x326;" horiz-adv-x="0" 
d="M14 -162q17 -161 -41 -325h-28q56 162 43 325h26z" />
    <glyph glyph-name="uni0327" unicode="&#x327;" horiz-adv-x="0" 
d="M-162 -373q74 90 112 173t38 200h26q0 -121 -38.5 -205.5t-106.5 -167.5h-31z" />
    <glyph glyph-name="uni0328" unicode="&#x328;" horiz-adv-x="0" 
d="M0 0q-110 -95 -163.5 -163t-53.5 -132q0 -72 46 -108.5t103 -36.5q48 0 68 12v-25q-20 -12 -68 -12q-68 0 -122 43.5t-54 126.5q0 67 58.5 140.5t162.5 162.5z" />
    <glyph glyph-name="uni037E" unicode="&#x37e;" horiz-adv-x="456" 
d="M242 711q-23 0 -39.5 16t-16.5 39t16.5 39t39.5 16t39 -16t16 -39t-16 -39t-39 -16zM135 -272q94 218 94 415v64h27v-64q0 -190 -96 -415h-25z" />
    <glyph glyph-name="tonos" unicode="&#x384;" horiz-adv-x="1245" 
d="M700 1720h31l-156 -424h-26z" />
    <glyph glyph-name="dieresistonos" unicode="&#x385;" horiz-adv-x="1218" 
d="M539 1296l151 424h31l-156 -424h-26zM434 1356q-15 0 -26 11t-11 26t11 26t26 11t26 -11t11 -26t-11 -26t-26 -11zM745 1356q-15 0 -25.5 11t-10.5 26t10.5 26t25.5 11t26 -11t11 -26t-11 -26t-26 -11z" />
    <glyph glyph-name="Alphatonos" unicode="&#x386;" horiz-adv-x="1376" 
d="M1331 0h-28l-238 584h-729l-238 -584h-28l618 1520h25zM358 1520h33l-117 -424h-26zM700 1483l-354 -875h709z" />
    <glyph glyph-name="uni0387" unicode="&#x387;" horiz-adv-x="462" 
d="M231 711q-23 0 -39 16t-16 39t16 39t39 16t39.5 -16t16.5 -39t-16.5 -39t-39.5 -16z" />
    <glyph glyph-name="Epsilontonos" unicode="&#x388;" horiz-adv-x="1232" 
d="M174 1520h33l-117 -424h-27zM373 0v1520h692v-25h-666v-713h629v-24h-629v-733h666v-25h-692z" />
    <glyph glyph-name="Etatonos" unicode="&#x389;" horiz-adv-x="1677" 
d="M174 1520h33l-117 -424h-27zM1393 0v770h-994v-770h-26v1520h26v-725h994v725h26v-1520h-26z" />
    <glyph glyph-name="Iotatonos" unicode="&#x38a;" horiz-adv-x="657" 
d="M174 1520h33l-117 -424h-27zM373 0v1520h26v-1520h-26z" />
    <glyph glyph-name="Omicrontonos" unicode="&#x38c;" horiz-adv-x="1826" 
d="M971 -14q-149 0 -280.5 57.5t-226.5 158.5t-150.5 246t-55.5 312t55.5 312t150.5 246t226.5 158.5t280.5 57.5t280.5 -57.5t227.5 -158.5t151.5 -246t55.5 -312t-55.5 -312t-151.5 -246t-227.5 -158.5t-280.5 -57.5zM240 1520h32l-116 -424h-27zM971 10q192 0 349 94.5
t248 266.5t91 389q0 163 -53.5 303t-145.5 237.5t-218.5 153t-270.5 55.5t-270.5 -55.5t-218 -153t-144.5 -237.5t-53 -303q0 -217 90.5 -389t247 -266.5t348.5 -94.5z" />
    <glyph glyph-name="Upsilontonos" unicode="&#x38e;" horiz-adv-x="1507" 
d="M205 1520h33l-117 -424h-27zM899 0v682l-541 838h29l524 -807h2l523 807h28l-538 -838v-682h-27z" />
    <glyph glyph-name="Omegatonos" unicode="&#x38f;" horiz-adv-x="1804" 
d="M1184 25h497v-25h-561v20q95 41 183 113.5t160 169.5t115 225t44 265q3 320 -184.5 518t-485.5 198t-485 -198t-184 -518q1 -137 44 -265t114.5 -225t159.5 -169.5t183 -113.5v-20h-561v25h498q-199 102 -332 313t-133 455q-1 332 192.5 536.5t503.5 204.5t504 -204.5
t193 -536.5q0 -244 -133 -455t-332 -313zM201 1520h32l-116 -424h-27z" />
    <glyph glyph-name="iotadieresistonos" unicode="&#x390;" horiz-adv-x="593" 
d="M193 1296l151 424h31l-156 -424h-26zM88 1356q-15 0 -26 11t-11 26t11 26t26 11t26 -11t11 -26t-11 -26t-26 -11zM399 1356q-15 0 -26 11t-11 26t11 26t26 11t26 -11t11 -26t-11 -26t-26 -11zM500 -12q-303 0 -303 309v776h26v-772q0 -156 73.5 -222.5t205.5 -66.5
q48 0 88 11v-25q-27 -10 -90 -10z" />
    <glyph glyph-name="Alpha" unicode="&#x391;" horiz-adv-x="1351" 
d="M1307 0h-29l-238 584h-729l-237 -584h-29l619 1520h24zM676 1483l-354 -875h708z" />
    <glyph glyph-name="Beta" unicode="&#x392;" horiz-adv-x="1259" 
d="M752 782q173 -28 271.5 -131t98.5 -256q0 -171 -129.5 -283t-361.5 -112h-373v1520h356q207 0 325 -102t118 -271q0 -142 -76.5 -239.5t-228.5 -125.5zM285 1495v-702h350q104 0 183 29.5t123.5 80.5t66.5 111.5t22 130.5q0 161 -110 255.5t-306 94.5h-329zM631 25
q222 0 343.5 105t121.5 265t-120 266.5t-341 106.5h-350v-743h346z" />
    <glyph glyph-name="Gamma" unicode="&#x393;" horiz-adv-x="997" 
d="M258 0v1520h686v-25h-659v-1495h-27z" />
    <glyph glyph-name="uni0394" unicode="&#x394;" horiz-adv-x="1384" 
d="M43 0l639 1520h25l634 -1520h-1298zM82 25h1221l-609 1458z" />
    <glyph glyph-name="Epsilon" unicode="&#x395;" horiz-adv-x="1118" 
d="M258 0v1520h692v-25h-665v-713h628v-24h-628v-733h665v-25h-692z" />
    <glyph glyph-name="Zeta" unicode="&#x396;" horiz-adv-x="1128" 
d="M1065 1520l-961 -1493v-2h912v-25h-961l963 1493v2h-893v25h940z" />
    <glyph glyph-name="Eta" unicode="&#x397;" horiz-adv-x="1562" 
d="M1278 0v770h-993v-770h-27v1520h27v-725h993v725h27v-1520h-27z" />
    <glyph glyph-name="Theta" unicode="&#x398;" horiz-adv-x="1710" 
d="M854 -14q-149 0 -280.5 57.5t-226.5 158.5t-150.5 246t-55.5 312t55.5 312t150.5 246t226.5 158.5t280.5 57.5t280.5 -57.5t227.5 -158.5t151.5 -246t55.5 -312t-55.5 -312t-151.5 -246t-227.5 -158.5t-280.5 -57.5zM854 10q192 0 349 94.5t248 266.5t91 389
q0 163 -53.5 303t-145.5 237.5t-218.5 153t-270.5 55.5t-270.5 -55.5t-218 -153t-144.5 -237.5t-53 -303q0 -217 90.5 -389t247 -266.5t348.5 -94.5zM444 758v24h820v-24h-820z" />
    <glyph glyph-name="Iota" unicode="&#x399;" horiz-adv-x="542" 
d="M258 0v1520h27v-1520h-27z" />
    <glyph glyph-name="Kappa" unicode="&#x39a;" horiz-adv-x="1200" 
d="M285 1520v-1520h-27v1520h27zM1147 1520l-821 -762l831 -758h-37l-831 758l823 762h35z" />
    <glyph glyph-name="Lambda" unicode="&#x39b;" horiz-adv-x="1294" 
d="M47 0l588 1520h24l588 -1520h-28l-572 1483l-571 -1483h-29z" />
    <glyph glyph-name="Mu" unicode="&#x39c;" horiz-adv-x="1923" 
d="M412 1470l-244 -1470h-27l254 1520h29l541 -1473h2l528 1473h29l260 -1520h-29l-248 1470h-2l-528 -1470h-25l-538 1470h-2z" />
    <glyph glyph-name="Nu" unicode="&#x39d;" horiz-adv-x="1583" 
d="M1325 1520v-1520h-31l-1007 1477h-2v-1477h-27v1520h33l1005 -1475h2v1475h27z" />
    <glyph glyph-name="Xi" unicode="&#x39e;" horiz-adv-x="1267" 
d="M137 1520h993v-27h-993v27zM225 782h817v-24h-817v24zM137 27h993v-27h-993v27z" />
    <glyph glyph-name="Omicron" unicode="&#x39f;" horiz-adv-x="1710" 
d="M854 -14q-149 0 -280.5 57.5t-226.5 158.5t-150.5 246t-55.5 312t55.5 312t150.5 246t226.5 158.5t280.5 57.5t280.5 -57.5t227.5 -158.5t151.5 -246t55.5 -312t-55.5 -312t-151.5 -246t-227.5 -158.5t-280.5 -57.5zM854 10q192 0 349 94.5t248 266.5t91 389
q0 163 -53.5 303t-145.5 237.5t-218.5 153t-270.5 55.5t-270.5 -55.5t-218 -153t-144.5 -237.5t-53 -303q0 -217 90.5 -389t247 -266.5t348.5 -94.5z" />
    <glyph glyph-name="Pi" unicode="&#x3a0;" horiz-adv-x="1519" 
d="M1235 0v1495h-950v-1495h-27v1520h1004v-1520h-27z" />
    <glyph glyph-name="Rho" unicode="&#x3a1;" horiz-adv-x="1167" 
d="M258 0v1520h289q238 0 381 -117.5t143 -325.5q0 -215 -142.5 -335.5t-383.5 -120.5h-260v-621h-27zM545 645q231 0 365 113t134 319q0 198 -134.5 308t-362.5 110h-262v-850h260z" />
    <glyph glyph-name="Sigma" unicode="&#x3a3;" horiz-adv-x="1128" 
d="M119 25h915v-25h-960l448 770l-428 750h920v-25h-875v-2l414 -723l-434 -743v-2z" />
    <glyph glyph-name="Tau" unicode="&#x3a4;" horiz-adv-x="1153" 
d="M563 0v1495h-516v25h1059v-25h-516v-1495h-27z" />
    <glyph glyph-name="Upsilon" unicode="&#x3a5;" horiz-adv-x="1189" 
d="M582 0v682l-541 838h29l524 -807h2l522 807h29l-539 -838v-682h-26z" />
    <glyph glyph-name="Phi" unicode="&#x3a6;" horiz-adv-x="1689" 
d="M858 1454q148 0 279 -50t226 -138t150.5 -213.5t55.5 -270.5t-55.5 -270.5t-150.5 -213t-226 -137.5t-279 -50v-152h-27v152q-198 0 -360 85t-256 239t-94 347q0 145 55 270.5t150 213.5t226 138t279 50v152h27v-152zM831 135v1295q-143 0 -269 -48t-217.5 -132.5
t-144.5 -206t-53 -261.5q0 -187 90.5 -335.5t246.5 -230t347 -81.5zM858 135q191 0 347 81.5t246.5 230t90.5 335.5q0 140 -53 261.5t-144.5 206t-217.5 132.5t-269 48v-1295z" />
    <glyph glyph-name="Chi" unicode="&#x3a7;" horiz-adv-x="1241" 
d="M68 0l536 766l-530 754h30l517 -734l512 734h30l-528 -754l543 -766h-33l-527 745l-520 -745h-30z" />
    <glyph glyph-name="Psi" unicode="&#x3a8;" horiz-adv-x="1546" 
d="M1372 1520h27v-584q0 -264 -166.5 -407.5t-446.5 -143.5v-385h-26v385q-280 0 -446.5 143.5t-166.5 407.5v584h27v-584q0 -255 158 -390.5t428 -135.5v1110h26v-1110q270 0 428 135.5t158 390.5v584z" />
    <glyph glyph-name="uni03A9" unicode="&#x3a9;" horiz-adv-x="1703" 
d="M1083 25h498v-25h-561v20q95 41 183 113.5t160 169.5t115 225t44 265q3 320 -184.5 518t-485.5 198t-485.5 -198t-184.5 -518q1 -137 44 -265t115 -225t160 -169.5t183 -113.5v-20h-561v25h498q-199 102 -332 313t-133 455q-1 332 192.5 536.5t503.5 204.5t503.5 -204.5
t192.5 -536.5q0 -244 -133 -455t-332 -313z" />
    <glyph glyph-name="Iotadieresis" unicode="&#x3aa;" horiz-adv-x="542" 
d="M121 1802q-15 0 -26 11t-11 26t11 26t26 11t26 -11t11 -26t-11 -26t-26 -11zM420 1802q-15 0 -26 11t-11 26t11 26t26 11t26 -11t11 -26t-11 -26t-26 -11zM258 0v1520h27v-1520h-27z" />
    <glyph glyph-name="Upsilondieresis" unicode="&#x3ab;" horiz-adv-x="1189" 
d="M436 1802q-15 0 -26 11t-11 26t11 26t26 11t26 -11t11 -26t-11 -26t-26 -11zM735 1802q-15 0 -26 11t-11 26t11 26t26 11t26 -11t11 -26t-11 -26t-26 -11zM582 0v682l-541 838h29l524 -807h2l522 807h29l-539 -838v-682h-26z" />
    <glyph glyph-name="alphatonos" unicode="&#x3ac;" horiz-adv-x="1294" 
d="M821 1720l-155 -424h-27l152 424h30zM1178 18q19 0 39 5v-25q-20 -4 -39 -4q-75 0 -108.5 38t-33.5 124v82l2 112h-2q-45 -173 -168 -268.5t-272 -95.5q-92 0 -176.5 38.5t-150.5 108t-105 175t-39 229.5t39 229.5t104 174.5t149.5 107.5t176.5 38.5q97 0 184.5 -40
t157.5 -124t100 -200h2l2 350h23v-917q0 -76 26.5 -107t88.5 -31zM596 10q86 0 165.5 36.5t141 102.5t98.5 167t37 221q0 121 -36.5 221.5t-98 166.5t-141.5 102t-168 36q-86 0 -165.5 -36.5t-141 -102t-98.5 -166.5t-37 -221t37 -221t99 -167t142 -102.5t166 -36.5z" />
    <glyph glyph-name="epsilontonos" unicode="&#x3ad;" horiz-adv-x="962" 
d="M662 1720l-156 -424h-27l152 424h31zM516 10q192 0 346 90v-28q-150 -86 -346 -86q-175 0 -282 74.5t-107 207.5q0 111 64 191t182 104q-99 19 -155 83t-56 161q0 130 95 205t261 75q83 0 177 -20.5t147 -50.5v-29q-46 32 -143 54t-181 22q-155 0 -242.5 -68t-87.5 -188
q0 -108 74.5 -170t202.5 -62h254v-24h-242q-154 0 -238.5 -79t-84.5 -204q0 -122 98.5 -190t263.5 -68z" />
    <glyph glyph-name="etatonos" unicode="&#x3ae;" horiz-adv-x="1171" 
d="M686 1720l-156 -424h-26l151 424h31zM616 1087q167 0 268 -97.5t101 -266.5v-1174h-27v1174q0 160 -92.5 250t-249.5 90q-158 0 -267 -88.5t-109 -245.5v-729h-27v928q0 70 -24.5 98.5t-82.5 28.5q-20 0 -36 -4v24q16 4 36 4q68 0 101 -36t33 -115v-66q41 107 142 166
t234 59z" />
    <glyph glyph-name="iotatonos" unicode="&#x3af;" horiz-adv-x="591" 
d="M348 1720h31l-156 -424h-26zM498 -12q-303 0 -303 309v776h26v-772q0 -156 73.5 -222.5t205.5 -66.5q48 0 88 11v-25q-27 -10 -90 -10z" />
    <glyph glyph-name="upsilondieresistonos" unicode="&#x3b0;" horiz-adv-x="1120" 
d="M481 1296l152 424h31l-156 -424h-27zM377 1356q-15 0 -26 11t-11 26t11 26t26 11t26 -11t11 -26t-11 -26t-26 -11zM688 1356q-15 0 -26 11t-11 26t11 26t26 11t26 -11t11 -26t-11 -26t-26 -11zM555 -14q-183 0 -277 102.5t-94 302.5v682h27v-682q0 -189 87 -285t257 -96
q189 0 295 135t106 373q0 322 -133 555h31q67 -124 98 -256.5t31 -298.5q0 -249 -114 -390.5t-314 -141.5z" />
    <glyph glyph-name="alpha" unicode="&#x3b1;" horiz-adv-x="1294" 
d="M1178 18q19 0 39 5v-25q-20 -4 -39 -4q-75 0 -108.5 38t-33.5 124v82l2 112h-2q-45 -173 -168 -268.5t-272 -95.5q-92 0 -176.5 38.5t-150.5 108t-105 175t-39 229.5t39 229.5t104 174.5t149.5 107.5t176.5 38.5q97 0 184.5 -40t157.5 -124t100 -200h2l2 350h23v-917
q0 -76 26.5 -107t88.5 -31zM596 10q86 0 165.5 36.5t141 102.5t98.5 167t37 221q0 121 -36.5 221.5t-98 166.5t-141.5 102t-168 36q-86 0 -165.5 -36.5t-141 -102t-98.5 -166.5t-37 -221t37 -221t99 -167t142 -102.5t166 -36.5z" />
    <glyph glyph-name="beta" unicode="&#x3b2;" horiz-adv-x="1271" 
d="M725 891q192 -23 310 -148.5t118 -308.5q0 -195 -132 -321.5t-335 -126.5q-139 0 -268.5 60t-194.5 153v-650h-26v1637q0 198 118.5 323t309.5 125q183 0 288 -98t105 -270q0 -150 -77 -248t-216 -127zM686 10q192 0 316 119.5t124 304.5q0 193 -136.5 316.5
t-350.5 123.5h-141v25h102q184 0 287.5 97.5t103.5 269.5q0 162 -97.5 253t-268.5 91q-181 0 -291.5 -118t-110.5 -308v-942q66 -106 192 -169t271 -63z" />
    <glyph glyph-name="gamma" unicode="&#x3b3;" horiz-adv-x="1067" 
d="M942 1073q0 -183 -48.5 -378.5t-141 -376.5t-213.5 -306v-463h-27v451l-451 1073h27l434 -1034h6q160 159 273.5 452.5t113.5 581.5h27z" />
    <glyph glyph-name="delta" unicode="&#x3b4;" horiz-adv-x="1224" 
d="M680 1024q225 -116 324.5 -247t99.5 -306q0 -218 -138 -351.5t-358 -133.5q-214 0 -350.5 134t-136.5 343q0 205 137.5 357.5t366.5 205.5q-183 95 -261.5 176.5t-78.5 181.5q0 114 96 182t256 68q88 0 188.5 -24.5t188.5 -67.5v-29q-202 97 -377 97q-149 0 -237.5 -61.5
t-88.5 -164.5q0 -95 80 -173t289 -187zM608 10q209 0 339 126t130 335q0 168 -94 292t-313 238l-15 9q-230 -44 -369 -194t-139 -353q0 -198 129.5 -325.5t331.5 -127.5z" />
    <glyph glyph-name="epsilon" unicode="&#x3b5;" horiz-adv-x="962" 
d="M516 10q192 0 346 90v-28q-150 -86 -346 -86q-175 0 -282 74.5t-107 207.5q0 111 64 191t182 104q-99 19 -155 83t-56 161q0 130 95 205t261 75q83 0 177 -20.5t147 -50.5v-29q-46 32 -143 54t-181 22q-155 0 -242.5 -68t-87.5 -188q0 -108 74.5 -170t202.5 -62h254v-24
h-242q-154 0 -238.5 -79t-84.5 -204q0 -122 98.5 -190t263.5 -68z" />
    <glyph glyph-name="zeta" unicode="&#x3b6;" horiz-adv-x="907" 
d="M881 1620v-25q-377 -381 -556.5 -648t-179.5 -447q0 -139 67.5 -216t238.5 -134l227 -76q184 -61 184 -230q0 -60 -27.5 -128t-93.5 -167h-32q127 180 127 295q0 152 -168 207l-228 76q-179 60 -250 142.5t-71 230.5q0 185 178.5 453.5t548.5 641.5h-651v25h686z" />
    <glyph glyph-name="eta" unicode="&#x3b7;" horiz-adv-x="1171" 
d="M616 1087q167 0 268 -97.5t101 -266.5v-1174h-27v1174q0 160 -92.5 250t-249.5 90q-158 0 -267 -88.5t-109 -245.5v-729h-27v928q0 70 -24.5 98.5t-82.5 28.5q-20 0 -36 -4v24q16 4 36 4q68 0 101 -36t33 -115v-66q41 107 142 166t234 59z" />
    <glyph glyph-name="theta" unicode="&#x3b8;" horiz-adv-x="1282" 
d="M641 1628q227 0 362.5 -221t135.5 -592q0 -383 -134 -606t-364 -223q-229 0 -363.5 223.5t-134.5 605.5q0 371 135.5 592t362.5 221zM641 1604q-212 0 -339 -207.5t-132 -558.5h942q-5 351 -132 558.5t-339 207.5zM641 10q216 0 343.5 218t127.5 585h-942
q0 -367 127.5 -585t343.5 -218z" />
    <glyph glyph-name="iota" unicode="&#x3b9;" horiz-adv-x="591" 
d="M498 -12q-303 0 -303 309v776h26v-772q0 -156 73.5 -222.5t205.5 -66.5q48 0 88 11v-25q-27 -10 -90 -10z" />
    <glyph glyph-name="kappa" unicode="&#x3ba;" horiz-adv-x="1064" 
d="M985 0l-448 594l-314 -344v-250h-26v1073h26v-788l717 788h35l-422 -461l463 -612h-31z" />
    <glyph glyph-name="lambda" unicode="&#x3bb;" horiz-adv-x="1056" 
d="M973 0h-27l-403 1032h-2l-455 -1032h-29l471 1069l-149 385q-29 84 -74.5 117t-116.5 33q-34 0 -67 -11v25q23 10 69 10q76 0 126 -36.5t85 -127.5z" />
    <glyph glyph-name="uni03BC" unicode="&#x3bc;" horiz-adv-x="1179" 
d="M1073 18q19 0 39 5v-25q-20 -4 -39 -4q-72 0 -104.5 38t-32.5 124v63q-36 -112 -131.5 -172.5t-224.5 -60.5q-130 0 -223.5 59t-131.5 168h-2v-664h-26v1524h26v-711q0 -159 97 -255.5t260 -96.5q164 0 260 95t96 274v694h27v-917q0 -76 25.5 -107t84.5 -31z" />
    <glyph glyph-name="nu" unicode="&#x3bd;" horiz-adv-x="1044" 
d="M473 0l-412 1073h27l399 -1042h2q171 174 288.5 475t117.5 567h27q0 -276 -120 -578.5t-306 -494.5h-23z" />
    <glyph glyph-name="xi" unicode="&#x3be;" horiz-adv-x="972" 
d="M629 1604q-211 0 -326 -92t-115 -261q0 -146 111.5 -234.5t296.5 -88.5h156v-25h-154q-203 0 -334 -109.5t-131 -279.5q0 -129 75 -215.5t234 -140.5l248 -84q180 -62 180 -230q0 -60 -28 -128.5t-92 -166.5h-33q127 178 127 295q0 151 -164 207l-248 84
q-169 57 -247.5 148.5t-78.5 230.5q0 154 102 263t273 138q-149 26 -234 115.5t-85 218.5q0 181 119 280t337 99q84 0 168.5 -20t135.5 -52v-28q-39 32 -122 53t-171 23z" />
    <glyph glyph-name="omicron" unicode="&#x3bf;" horiz-adv-x="1245" 
d="M623 -14q-96 0 -185.5 38.5t-159.5 108t-112.5 175t-42.5 229.5t42 229.5t112 174.5t160 107.5t186 38.5t186 -38.5t159.5 -107.5t111.5 -174.5t42 -229.5t-42 -229.5t-112 -175t-159.5 -108t-185.5 -38.5zM623 10q91 0 176 36.5t151 102.5t106 167t40 221t-40 221
t-106 166.5t-151 102t-176 36.5t-176 -36.5t-151 -102t-106 -166.5t-40 -221t40 -221t106 -167t151 -102.5t176 -36.5z" />
    <glyph glyph-name="pi" unicode="&#x3c0;" horiz-adv-x="1316" 
d="M1169 12q35 0 68 11v-25q-23 -10 -70 -10q-130 0 -187.5 74t-57.5 229v758h-584v-1049h-27v1049h-278v24h1194v-24h-279v-754q0 -148 50.5 -215.5t170.5 -67.5z" />
    <glyph glyph-name="rho" unicode="&#x3c1;" horiz-adv-x="1253" 
d="M178 -451v977q0 252 128 406.5t335 154.5q210 0 348.5 -156.5t138.5 -393.5q0 -236 -138 -393.5t-345 -157.5q-159 0 -275.5 95t-162.5 261h-2v-793h-27zM645 10q196 0 326.5 150.5t130.5 376.5q0 227 -131.5 376.5t-329.5 149.5q-193 0 -315.5 -147t-122.5 -379
q0 -230 124.5 -378.5t317.5 -148.5z" />
    <glyph glyph-name="uni03C2" unicode="&#x3c2;" horiz-adv-x="976" 
d="M711 -451q127 185 127 295q0 150 -168 207l-226 76q-164 56 -243.5 164t-79.5 278q0 217 142 367.5t347 150.5q170 0 301 -75v-29q-60 37 -141 58.5t-160 21.5q-128 0 -234.5 -65.5t-167.5 -179t-61 -249.5q0 -162 75.5 -264t232.5 -155l225 -76q184 -62 184 -230
q0 -60 -28 -128t-93 -167h-32z" />
    <glyph glyph-name="sigma" unicode="&#x3c3;" horiz-adv-x="1255" 
d="M1221 1073v-24h-455q150 -47 249 -183.5t99 -335.5q0 -123 -41.5 -227.5t-110.5 -172.5t-157.5 -106t-183.5 -38t-184 38t-158.5 106t-111.5 172.5t-42 227.5t41.5 227t111 172t158.5 106t185 38l10 -2l-2 2h592zM1087 530q0 222 -134 370.5t-332 148.5
q-199 0 -334 -148.5t-135 -370.5q0 -146 62 -265.5t169.5 -187t237.5 -67.5q198 0 332 149t134 371z" />
    <glyph glyph-name="tau" unicode="&#x3c4;" horiz-adv-x="966" 
d="M907 1049h-461v-740q0 -161 71.5 -229t209.5 -68q53 0 96 11v-25q-27 -10 -96 -10q-150 0 -228.5 74.5t-78.5 242.5v744h-381v24h868v-24z" />
    <glyph glyph-name="upsilon" unicode="&#x3c5;" horiz-adv-x="1120" 
d="M555 -14q-183 0 -277 102.5t-94 302.5v682h27v-682q0 -189 87 -285t257 -96q189 0 295 135t106 373q0 322 -133 555h31q67 -124 98 -256.5t31 -298.5q0 -249 -114 -390.5t-314 -141.5z" />
    <glyph glyph-name="phi" unicode="&#x3c6;" horiz-adv-x="1390" 
d="M1268 537q0 -249 -156.5 -399t-402.5 -152v-437h-27v437q-246 2 -402.5 152t-156.5 399q0 165 72 290.5t198.5 192t288.5 67.5v316h27v-316q162 -1 288.5 -67.5t198.5 -192t72 -290.5zM150 537q0 -239 148.5 -382t383.5 -145v1053q-236 -2 -384 -144.5t-148 -381.5z
M709 10q235 2 383.5 145t148.5 382t-148 381.5t-384 144.5v-1053z" />
    <glyph glyph-name="chi" unicode="&#x3c7;" horiz-adv-x="911" 
d="M874 -451h-28l-387 730l-365 -730h-28l380 756l-407 768h29l393 -741l366 741h27l-379 -768z" />
    <glyph glyph-name="psi" unicode="&#x3c8;" horiz-adv-x="1351" 
d="M1214 539q0 -260 -137.5 -404t-384.5 -149v-437h-26v437q-482 3 -482 446v641h27v-641q0 -212 113 -316t342 -106v1393h26v-1393q237 5 366.5 142.5t129.5 386.5q0 152 -31 279.5t-100 254.5h30q127 -240 127 -534z" />
    <glyph glyph-name="omega" unicode="&#x3c9;" horiz-adv-x="1603" 
d="M1296 1073q174 -266 174 -602q0 -234 -89.5 -359.5t-256.5 -125.5q-132 0 -213.5 80.5t-107.5 236.5q-28 -156 -110 -236.5t-214 -80.5q-167 0 -256.5 125.5t-89.5 359.5q0 336 174 602h31q-178 -263 -178 -602q0 -223 82 -342t237 -119q151 0 230 116.5t79 336.5v282h27
v-282q0 -220 79 -336.5t230 -116.5q155 0 237.5 119t82.5 342q0 339 -178 602h30z" />
    <glyph glyph-name="iotadieresis" unicode="&#x3ca;" horiz-adv-x="593" 
d="M68 1356q-15 0 -26 11t-11 26t11 26t26 11t25.5 -11t10.5 -26t-10.5 -26t-25.5 -11zM367 1356q-15 0 -26 11t-11 26t11 26t26 11t25.5 -11t10.5 -26t-10.5 -26t-25.5 -11zM500 -12q-303 0 -303 309v776h26v-772q0 -156 73.5 -222.5t205.5 -66.5q48 0 88 11v-25
q-27 -10 -90 -10z" />
    <glyph glyph-name="upsilondieresis" unicode="&#x3cb;" horiz-adv-x="1120" 
d="M356 1356q-15 0 -26 11t-11 26t11 26t26 11t26 -11t11 -26t-11 -26t-26 -11zM655 1356q-15 0 -26 11t-11 26t11 26t26 11t26 -11t11 -26t-11 -26t-26 -11zM555 -14q-183 0 -277 102.5t-94 302.5v682h27v-682q0 -189 87 -285t257 -96q189 0 295 135t106 373
q0 322 -133 555h31q67 -124 98 -256.5t31 -298.5q0 -249 -114 -390.5t-314 -141.5z" />
    <glyph glyph-name="omicrontonos" unicode="&#x3cc;" horiz-adv-x="1245" 
d="M756 1720h30l-155 -424h-27zM623 -14q-96 0 -185.5 38.5t-159.5 108t-112.5 175t-42.5 229.5t42 229.5t112 174.5t160 107.5t186 38.5t186 -38.5t159.5 -107.5t111.5 -174.5t42 -229.5t-42 -229.5t-112 -175t-159.5 -108t-185.5 -38.5zM623 10q91 0 176 36.5t151 102.5
t106 167t40 221t-40 221t-106 166.5t-151 102t-176 36.5t-176 -36.5t-151 -102t-106 -166.5t-40 -221t40 -221t106 -167t151 -102.5t176 -36.5z" />
    <glyph glyph-name="upsilontonos" unicode="&#x3cd;" horiz-adv-x="1120" 
d="M639 1720h31l-156 -424h-27zM555 -14q-183 0 -277 102.5t-94 302.5v682h27v-682q0 -189 87 -285t257 -96q189 0 295 135t106 373q0 322 -133 555h31q67 -124 98 -256.5t31 -298.5q0 -249 -114 -390.5t-314 -141.5z" />
    <glyph glyph-name="omegatonos" unicode="&#x3ce;" horiz-adv-x="1603" 
d="M961 1720l-156 -424h-27l152 424h31zM1296 1073q174 -266 174 -602q0 -234 -89.5 -359.5t-256.5 -125.5q-132 0 -213.5 80.5t-107.5 236.5q-28 -156 -110 -236.5t-214 -80.5q-167 0 -256.5 125.5t-89.5 359.5q0 336 174 602h31q-178 -263 -178 -602q0 -223 82 -342
t237 -119q151 0 230 116.5t79 336.5v282h27v-282q0 -220 79 -336.5t230 -116.5q155 0 237.5 119t82.5 342q0 339 -178 602h30z" />
    <glyph glyph-name="uni0401" unicode="&#x401;" horiz-adv-x="1118" 
d="M467 1802q-15 0 -26 11t-11 26t11 26t26 11t26 -11t11 -26t-11 -26t-26 -11zM766 1802q-15 0 -26 11t-11 26t11 26t26 11t26 -11t11 -26t-11 -26t-26 -11zM258 0v1520h692v-25h-665v-713h628v-24h-628v-733h665v-25h-692z" />
    <glyph glyph-name="uni0402" unicode="&#x402;" horiz-adv-x="1398" 
d="M858 881q206 0 323 -108t117 -327q0 -203 -118.5 -324.5t-311.5 -121.5h-20v25h20q182 0 293 114t111 307q0 207 -108.5 308.5t-305.5 101.5q-225 0 -395 -90v-766h-27v1495h-391v25h983v-25h-565v-702q174 88 395 88z" />
    <glyph glyph-name="uni0408" unicode="&#x408;" horiz-adv-x="880" 
d="M59 121q120 -111 265 -111q132 0 209 83t77 235v1192h27v-1192q0 -161 -85.5 -251.5t-227.5 -90.5q-146 0 -265 104v31z" />
    <glyph glyph-name="uni0409" unicode="&#x409;" horiz-adv-x="1955" 
d="M1339 850q242 0 383.5 -104.5t141.5 -303.5q0 -209 -142.5 -325.5t-384.5 -116.5h-272v1495h-713v-803q0 -346 -93 -519t-265 -173v25q53 0 99 18.5t90 66t75 121t49.5 191.5t18.5 270v828h766v-670h247zM1337 25q231 0 365.5 109t134.5 308q0 190 -133 286.5t-365 96.5
h-247v-800h245z" />
    <glyph glyph-name="uni040A" unicode="&#x40a;" horiz-adv-x="2086" 
d="M1473 821q242 0 383 -100.5t141 -292.5q0 -203 -143 -315.5t-384 -112.5h-266v797h-919v-797h-27v1520h27v-699h919v699h27v-699h242zM1470 25q231 0 365.5 105.5t134.5 297.5q0 182 -133 275.5t-364 93.5h-242v-772h239z" />
    <glyph glyph-name="uni040B" unicode="&#x40b;" horiz-adv-x="1447" 
d="M895 881q220 0 324 -103.5t104 -331.5v-446h-27v446q0 216 -95 313t-306 97q-249 0 -422 -90v-766h-27v1495h-401v25h1010v-25h-582v-702q174 88 422 88z" />
    <glyph glyph-name="uni040F" unicode="&#x40f;" horiz-adv-x="1466" 
d="M1208 1520v-1520h-463v-348h-26v348h-461v1520h27v-1495h897v1495h26z" />
    <glyph glyph-name="uni0410" unicode="&#x410;" horiz-adv-x="1351" 
d="M1307 0h-29l-238 584h-729l-237 -584h-29l619 1520h24zM676 1483l-354 -875h708z" />
    <glyph glyph-name="uni0411" unicode="&#x411;" horiz-adv-x="1196" 
d="M557 836q241 0 382.5 -102.5t141.5 -297.5q0 -207 -141.5 -321.5t-382.5 -114.5h-299v1520h733v-25h-706v-659h272zM557 25q231 0 364.5 107t133.5 304q0 185 -133.5 280t-364.5 95h-272v-786h272z" />
    <glyph glyph-name="uni0412" unicode="&#x412;" horiz-adv-x="1259" 
d="M752 782q173 -28 271.5 -131t98.5 -256q0 -171 -129.5 -283t-361.5 -112h-373v1520h356q207 0 325 -102t118 -271q0 -142 -76.5 -239.5t-228.5 -125.5zM285 1495v-702h350q104 0 183 29.5t123.5 80.5t66.5 111.5t22 130.5q0 161 -110 255.5t-306 94.5h-329zM631 25
q222 0 343.5 105t121.5 265t-120 266.5t-341 106.5h-350v-743h346z" />
    <glyph glyph-name="uni0413" unicode="&#x413;" horiz-adv-x="987" 
d="M258 0v1520h676v-25h-649v-1495h-27z" />
    <glyph glyph-name="uni0414" unicode="&#x414;" horiz-adv-x="1396" 
d="M1126 25h179v-373h-27v348h-1239v-348h-27v373h160q103 136 141.5 332t38.5 540v623h774v-1495zM379 897q0 -333 -36 -528.5t-138 -343.5h895v1470h-721v-598z" />
    <glyph glyph-name="uni0415" unicode="&#x415;" horiz-adv-x="1118" 
d="M258 0v1520h692v-25h-665v-713h628v-24h-628v-733h665v-25h-692z" />
    <glyph glyph-name="uni0416" unicode="&#x416;" horiz-adv-x="1734" 
d="M43 0l770 760l-760 760h35l762 -762l-770 -758h-37zM854 0v1520h27v-1520h-27zM1655 0l-770 758l762 762h34l-759 -760l770 -760h-37z" />
    <glyph glyph-name="uni0417" unicode="&#x417;" horiz-adv-x="1118" 
d="M629 780q154 -29 241.5 -133t87.5 -258q0 -187 -116 -295t-316 -108q-109 0 -215.5 37t-193.5 104v33q86 -70 193 -110t214 -40q191 0 299.5 101t108.5 278q0 173 -113 276t-307 103h-197v25h220q155 0 255.5 104.5t100.5 263.5q0 160 -108 254t-291 94
q-105 0 -196.5 -29t-154.5 -83v33q63 49 156.5 76.5t196.5 27.5q191 0 307.5 -102.5t116.5 -270.5q0 -142 -80.5 -247t-208.5 -134z" />
    <glyph glyph-name="uni0418" unicode="&#x418;" horiz-adv-x="1583" 
d="M258 0v1520h27v-1475h2l1005 1475h33v-1520h-27v1477h-2l-1007 -1477h-31z" />
    <glyph glyph-name="uni0419" unicode="&#x419;" horiz-adv-x="1583" 
d="M1079 2011q-9 -136 -85 -200t-199 -64t-199.5 64t-85.5 200h27q15 -239 258 -239t258 239h26zM258 0v1520h27v-1475h2l1005 1475h33v-1520h-27v1477h-2l-1007 -1477h-31z" />
    <glyph glyph-name="uni041A" unicode="&#x41a;" horiz-adv-x="1200" 
d="M285 1520v-1520h-27v1520h27zM1147 1520l-821 -762l831 -758h-37l-831 758l823 762h35z" />
    <glyph glyph-name="uni041B" unicode="&#x41b;" horiz-adv-x="1355" 
d="M-8 -4v24q53 0 99 18.5t90 66t75 121.5t49.5 192t18.5 270v832h774v-1520h-27v1495h-721v-807q0 -346 -93 -519t-265 -173z" />
    <glyph glyph-name="uni041C" unicode="&#x41c;" horiz-adv-x="1923" 
d="M412 1470l-244 -1470h-27l254 1520h29l541 -1473h2l528 1473h29l260 -1520h-29l-248 1470h-2l-528 -1470h-25l-538 1470h-2z" />
    <glyph glyph-name="uni041D" unicode="&#x41d;" horiz-adv-x="1562" 
d="M1278 0v770h-993v-770h-27v1520h27v-725h993v725h27v-1520h-27z" />
    <glyph glyph-name="uni041E" unicode="&#x41e;" horiz-adv-x="1710" 
d="M854 -14q-149 0 -280.5 57.5t-226.5 158.5t-150.5 246t-55.5 312t55.5 312t150.5 246t226.5 158.5t280.5 57.5t280.5 -57.5t227.5 -158.5t151.5 -246t55.5 -312t-55.5 -312t-151.5 -246t-227.5 -158.5t-280.5 -57.5zM854 10q192 0 349 94.5t248 266.5t91 389
q0 163 -53.5 303t-145.5 237.5t-218.5 153t-270.5 55.5t-270.5 -55.5t-218 -153t-144.5 -237.5t-53 -303q0 -217 90.5 -389t247 -266.5t348.5 -94.5z" />
    <glyph glyph-name="uni041F" unicode="&#x41f;" horiz-adv-x="1519" 
d="M1235 0v1495h-950v-1495h-27v1520h1004v-1520h-27z" />
    <glyph glyph-name="uni0420" unicode="&#x420;" horiz-adv-x="1167" 
d="M258 0v1520h289q238 0 381 -117.5t143 -325.5q0 -215 -142.5 -335.5t-383.5 -120.5h-260v-621h-27zM545 645q231 0 365 113t134 319q0 198 -134.5 308t-362.5 110h-262v-850h260z" />
    <glyph glyph-name="uni0421" unicode="&#x421;" horiz-adv-x="1359" 
d="M1262 90q-168 -104 -388 -104q-108 0 -213 32t-199 97.5t-165.5 156t-113.5 217.5t-42 273q0 145 41.5 271t112 216.5t162.5 155.5t194.5 97t206.5 32q234 0 404 -104v-29q-163 108 -404 108q-100 0 -198.5 -30.5t-187 -93.5t-156.5 -150t-108 -209.5t-40 -263.5
q0 -142 40.5 -265.5t109.5 -211t159.5 -151t191.5 -94t205 -30.5q222 0 388 109v-29z" />
    <glyph glyph-name="uni0422" unicode="&#x422;" horiz-adv-x="1153" 
d="M563 0v1495h-516v25h1059v-25h-516v-1495h-27z" />
    <glyph glyph-name="uni0423" unicode="&#x423;" horiz-adv-x="1271" 
d="M1219 1520h28l-536 -1205q-75 -169 -170.5 -243t-239.5 -74v25q135 0 224.5 70.5t162.5 236.5l4 10l-641 1180h29l627 -1151z" />
    <glyph glyph-name="uni0424" unicode="&#x424;" horiz-adv-x="1681" 
d="M854 1421q198 0 360 -80.5t256.5 -227.5t94.5 -331q0 -137 -55.5 -256.5t-150.5 -203t-226 -131.5t-279 -48v-163h-27v163q-198 0 -360 81t-256 228t-94 330q0 138 55 257.5t150 203t226 131t279 47.5v164h27v-164zM827 168v1229q-191 0 -347 -77.5t-246.5 -218.5
t-90.5 -319q0 -177 90.5 -318t246.5 -218.5t347 -77.5zM854 168q191 0 347 77.5t246.5 218.5t90.5 318q0 178 -90.5 319t-246.5 218.5t-347 77.5v-1229z" />
    <glyph glyph-name="uni0425" unicode="&#x425;" horiz-adv-x="1241" 
d="M68 0l536 766l-530 754h30l517 -734l512 734h30l-528 -754l543 -766h-33l-527 745l-520 -745h-30z" />
    <glyph glyph-name="uni0426" unicode="&#x426;" horiz-adv-x="1480" 
d="M1208 25h181v-373h-27v348h-1104v1520h27v-1495h897v1495h26v-1495z" />
    <glyph glyph-name="uni0427" unicode="&#x427;" horiz-adv-x="1247" 
d="M963 1520h26v-1520h-26v727q-174 -88 -416 -88q-219 0 -320.5 103t-101.5 331v447h27v-447q0 -217 93 -313t302 -96q246 0 416 90v766z" />
    <glyph glyph-name="uni0428" unicode="&#x428;" horiz-adv-x="1943" 
d="M1659 1520h27v-1520h-1428v1520h27v-1495h673v1495h27v-1495h674v1495z" />
    <glyph glyph-name="uni0429" unicode="&#x429;" horiz-adv-x="1945" 
d="M1673 25h180v-373h-26v348h-1569v1520h27v-1495h667v1495h27v-1495h668v1495h26v-1495z" />
    <glyph glyph-name="uni042A" unicode="&#x42a;" horiz-adv-x="1429" 
d="M811 850q242 0 383 -104.5t141 -303.5q0 -209 -142.5 -325.5t-383.5 -116.5h-289v1495h-475v25h502v-670h264zM809 25q231 0 365.5 109t134.5 308q0 190 -133 286.5t-365 96.5h-264v-800h262z" />
    <glyph glyph-name="uni042B" unicode="&#x42b;" horiz-adv-x="1611" 
d="M532 850q242 0 383.5 -104.5t141.5 -303.5q0 -209 -142.5 -325.5t-384.5 -116.5h-272v1520h27v-670h247zM1327 1520h27v-1520h-27v1520zM530 25q231 0 365.5 109t134.5 308q0 190 -133 286.5t-365 96.5h-247v-800h245z" />
    <glyph glyph-name="uni042C" unicode="&#x42c;" horiz-adv-x="1175" 
d="M557 850q249 0 386.5 -107t137.5 -301q0 -206 -140 -324t-386 -118h-297v1520h27v-670h272zM555 25q235 0 367.5 110.5t132.5 306.5q0 184 -129.5 283.5t-368.5 99.5h-272v-800h270z" />
    <glyph glyph-name="uni042D" unicode="&#x42d;" horiz-adv-x="1404" 
d="M535 1534q110 0 215 -30.5t198 -94t163.5 -153t111.5 -217t41 -277.5q0 -151 -41.5 -279t-113 -218.5t-167 -154t-203.5 -94t-223 -30.5q-222 0 -393 104v29q169 -109 393 -109q111 0 215 29.5t196.5 90.5t161 148.5t108.5 211.5t40 270h-856v24h856q-4 175 -65 316
t-160.5 228.5t-222 134t-254.5 46.5q-245 0 -412 -108v29q173 104 412 104z" />
    <glyph glyph-name="uni042E" unicode="&#x42e;" horiz-adv-x="2181" 
d="M1354 1534q143 0 269.5 -57.5t218 -158.5t145 -246t53.5 -312t-53.5 -312t-145 -246t-218 -158.5t-269.5 -57.5q-142 0 -267.5 56.5t-217 156.5t-145 243t-54.5 308h-385v-750h-27v1520h27v-746h385q2 164 56 306.5t145 241.5t216.5 155.5t266.5 56.5zM1354 10
q187 0 338 97t236 268.5t85 384.5q0 160 -50 299t-137 238t-209.5 155.5t-262.5 56.5q-187 0 -337.5 -96.5t-235.5 -268t-85 -384.5t85 -384.5t235.5 -268.5t337.5 -97z" />
    <glyph glyph-name="uni042F" unicode="&#x42f;" horiz-adv-x="1161" 
d="M621 1520h282v-1520h-26v1495h-256q-117 0 -205.5 -29t-140.5 -81t-77.5 -119t-25.5 -148q0 -373 451 -373h249l-731 -745h-37l707 721h-188q-237 0 -357.5 101.5t-120.5 295.5q0 86 28 158t84 127t149 86t215 31z" />
    <glyph glyph-name="uni0430" unicode="&#x430;" horiz-adv-x="1300" 
d="M612 -14q-95 0 -182.5 38.5t-155.5 108t-108.5 175t-40.5 229.5t40.5 229.5t108 174.5t154.5 107.5t182 38.5q156 0 283.5 -95.5t175.5 -268.5h2l2 350h23v-1073h-23l-2 350h-2q-48 -174 -174.5 -269t-282.5 -95zM612 10q90 0 172.5 36.5t146.5 102t102 166.5t38 222
t-38 221.5t-102 166.5t-147 102t-174 36q-90 0 -172 -36.5t-146 -102t-102 -166.5t-38 -221t38.5 -221t102.5 -167t146.5 -102.5t172.5 -36.5z" />
    <glyph glyph-name="uni0431" unicode="&#x431;" horiz-adv-x="1280" 
d="M674 1071q211 0 346 -154t135 -389q0 -154 -63 -278t-175 -194t-251 -70q-224 0 -362 167t-138 439q0 236 26.5 396.5t86.5 267t145 166t215 98.5q190 59 453 114v-26q-69 -13 -212.5 -48t-244.5 -67q-110 -35 -185 -86.5t-131 -141t-85.5 -223.5t-38.5 -327
q47 159 180 257.5t299 98.5zM664 10q202 0 333 146.5t131 371.5q0 223 -128 371t-326 148q-96 0 -184.5 -38t-153 -102.5t-103 -155t-38.5 -190.5q0 -237 133.5 -394t335.5 -157z" />
    <glyph glyph-name="uni0432" unicode="&#x432;" horiz-adv-x="1038" 
d="M653 553q120 -19 190 -88.5t70 -175.5q0 -135 -97 -212t-269 -77h-342v1073h336q158 0 244.5 -68t86.5 -192q0 -102 -59 -171t-160 -89zM231 1049v-484h326q132 0 210.5 67t78.5 181t-78.5 175t-226.5 61h-310zM547 25q161 0 250.5 69.5t89.5 194.5q0 116 -91.5 184
t-246.5 68h-318v-516h316z" />
    <glyph glyph-name="uni0433" unicode="&#x433;" horiz-adv-x="782" 
d="M205 0v1073h534v-24h-508v-1049h-26z" />
    <glyph glyph-name="uni0434" unicode="&#x434;" horiz-adv-x="1081" 
d="M858 25h139v-291h-26v266h-918v-266h-26v291h123q71 97 97.5 221.5t26.5 343.5v483h584v-1048zM301 590q0 -212 -26 -340t-95 -225h651v1024h-530v-459z" />
    <glyph glyph-name="uni0435" unicode="&#x435;" horiz-adv-x="1165" 
d="M1042 561l-2 -26h-888q0 -243 133.5 -384t341.5 -141q232 0 399 156v-31q-86 -73 -190 -111t-209 -38q-219 0 -360.5 148.5t-141.5 402.5q0 124 40.5 229.5t107.5 174.5t154 107.5t181 38.5q87 0 164 -33.5t138 -97.5t96.5 -166t35.5 -229zM152 559h864q0 123 -33.5 221
t-91 158.5t-130 92.5t-153.5 32q-86 0 -166.5 -35t-143.5 -98.5t-102.5 -159.5t-43.5 -211z" />
    <glyph glyph-name="uni0436" unicode="&#x436;" horiz-adv-x="1347" 
d="M78 1073h35l551 -520l-582 -553h-39l584 553zM668 1073h26v-1073h-26v1073zM1284 1073l-549 -520l584 -553h-39l-582 553l551 520h35z" />
    <glyph glyph-name="uni0437" unicode="&#x437;" horiz-adv-x="927" 
d="M555 555q115 -22 180.5 -96.5t65.5 -186.5q0 -129 -92.5 -207.5t-247.5 -78.5q-94 0 -188.5 33.5t-174.5 95.5v28q172 -133 365 -133q144 0 227.5 71.5t83.5 192.5q0 119 -84 193t-219 74h-186v24h190q109 0 183.5 74.5t74.5 183.5q0 106 -85 173t-224 67
q-150 0 -299 -94v28q145 90 299 90q151 0 243.5 -73t92.5 -191q0 -98 -57 -171.5t-148 -96.5z" />
    <glyph glyph-name="uni0438" unicode="&#x438;" horiz-adv-x="1177" 
d="M205 0v1073h26v-1032h2l709 1032h31v-1073h-27v1030h-2l-706 -1030h-33z" />
    <glyph glyph-name="uni0439" unicode="&#x439;" horiz-adv-x="1177" 
d="M870 1565q-9 -136 -85 -200.5t-199 -64.5t-199.5 64.5t-85.5 200.5h27q15 -240 258 -240t258 240h26zM205 0v1073h26v-1032h2l709 1032h31v-1073h-27v1030h-2l-706 -1030h-33z" />
    <glyph glyph-name="uni043A" unicode="&#x43a;" horiz-adv-x="925" 
d="M231 1073v-1073h-26v1073h26zM862 1073l-590 -520l625 -553h-39l-622 553l591 520h35z" />
    <glyph glyph-name="uni043B" unicode="&#x43b;" horiz-adv-x="1036" 
d="M23 -4v24q37 0 69 13t62 45.5t51 83t34 131.5t13 186v594h579v-1073h-26v1049h-526v-570q0 -242 -66 -362.5t-190 -120.5z" />
    <glyph glyph-name="uni043C" unicode="&#x43c;" horiz-adv-x="1380" 
d="M145 0l125 1073h29l391 -1010h2l389 1010h29l125 -1073h-27l-116 1026h-2l-388 -1006h-24l-387 1006h-2l-117 -1026h-27z" />
    <glyph glyph-name="uni043D" unicode="&#x43d;" horiz-adv-x="1157" 
d="M205 0v1073h26v-510h695v510h26v-1073h-26v539h-695v-539h-26z" />
    <glyph glyph-name="uni043E" unicode="&#x43e;" horiz-adv-x="1245" 
d="M623 -14q-96 0 -185.5 38.5t-159.5 108t-112.5 175t-42.5 229.5t42 229.5t112 174.5t160 107.5t186 38.5t186 -38.5t159.5 -107.5t111.5 -174.5t42 -229.5t-42 -229.5t-112 -175t-159.5 -108t-185.5 -38.5zM623 10q91 0 176 36.5t151 102.5t106 167t40 221t-40 221
t-106 166.5t-151 102t-176 36.5t-176 -36.5t-151 -102t-106 -166.5t-40 -221t40 -221t106 -167t151 -102.5t176 -36.5z" />
    <glyph glyph-name="uni043F" unicode="&#x43f;" horiz-adv-x="1140" 
d="M205 0v1073h731v-1073h-27v1049h-678v-1049h-26z" />
    <glyph glyph-name="uni0440" unicode="&#x440;" horiz-adv-x="1300" 
d="M205 -451v1524h22l2 -356h2q32 119 105 204.5t164.5 125.5t193.5 40q95 0 182 -38.5t153.5 -107.5t106.5 -174t40 -230q0 -124 -40 -229.5t-107.5 -175t-154.5 -108t-182 -38.5q-156 0 -283.5 95.5t-175.5 268.5h-2v-801h-26zM692 10q90 0 172 36.5t145.5 102.5
t101.5 167t38 221t-37.5 220.5t-101 166.5t-145 102.5t-171.5 36.5q-91 0 -174.5 -36t-148.5 -101.5t-103.5 -166.5t-38.5 -222t39 -222t103.5 -166.5t147.5 -102t173 -36.5z" />
    <glyph glyph-name="uni0441" unicode="&#x441;" horiz-adv-x="1019" 
d="M150 537q0 -116 38.5 -215.5t104 -167t153 -106t183.5 -38.5q165 0 286 86v-30q-126 -80 -286 -80q-135 0 -250 68t-185.5 195.5t-70.5 287.5q0 119 40.5 222.5t108.5 174.5t160 112t193 41q160 0 290 -75v-29q-130 80 -290 80q-96 0 -183 -39t-151.5 -107t-102.5 -167
t-38 -213z" />
    <glyph glyph-name="uni0442" unicode="&#x442;" horiz-adv-x="839" 
d="M406 0v1049h-363v24h754v-24h-365v-1049h-26z" />
    <glyph glyph-name="uni0443" unicode="&#x443;" horiz-adv-x="1001" 
d="M924 1073l-594 -1524h-27l193 496l-416 1028h26l402 -993h2l387 993h27z" />
    <glyph glyph-name="uni0444" unicode="&#x444;" horiz-adv-x="1363" 
d="M1241 537q0 -124 -46 -229t-123 -174t-175 -108t-203 -40v-437h-26v437q-104 1 -202 40t-175 108t-123.5 174.5t-46.5 228.5t46 228t123 174t175 108t203 40v533h26v-533q106 -1 204 -39.5t174.5 -108t122.5 -174t46 -228.5zM147 537q0 -119 44 -220t117.5 -166.5
t166.5 -102.5t193 -38v1053q-100 -1 -193 -37.5t-166.5 -102.5t-117.5 -166.5t-44 -219.5zM694 10q100 1 193.5 38t166.5 103t116.5 166.5t43.5 219.5t-43.5 219.5t-116.5 166.5t-166.5 102.5t-193.5 37.5v-1053z" />
    <glyph glyph-name="uni0445" unicode="&#x445;" horiz-adv-x="948" 
d="M872 1073l-383 -530l390 -543h-29l-375 522h-2l-373 -522h-28l387 541l-381 532h28l367 -512h2l369 512h28z" />
    <glyph glyph-name="uni0446" unicode="&#x446;" horiz-adv-x="1138" 
d="M915 25h140v-291h-27v266h-823v1073h26v-1048h658v1048h26v-1048z" />
    <glyph glyph-name="uni0447" unicode="&#x447;" horiz-adv-x="993" 
d="M762 1073h26v-1073h-26v508q-128 -64 -318 -64q-170 0 -252.5 82t-82.5 254v293h26v-293q0 -162 75 -236.5t234 -74.5q194 0 318 68v536z" />
    <glyph glyph-name="uni0448" unicode="&#x448;" horiz-adv-x="1546" 
d="M1315 1073h26v-1073h-1136v1073h26v-1048h529v1048h26v-1048h529v1048z" />
    <glyph glyph-name="uni0449" unicode="&#x449;" horiz-adv-x="1556" 
d="M1333 25h140v-291h-27v266h-1241v1073h26v-1048h525v1048h26v-1048h525v1048h26v-1048z" />
    <glyph glyph-name="uni044A" unicode="&#x44a;" horiz-adv-x="1097" 
d="M653 602q169 0 263 -81t94 -220q0 -138 -104.5 -219.5t-274.5 -81.5h-256v1049h-332v24h358v-471h252zM631 25q160 0 256 74t96 202q0 130 -86 203.5t-244 73.5h-252v-553h230z" />
    <glyph glyph-name="uni044B" unicode="&#x44b;" horiz-adv-x="1261" 
d="M471 602q169 0 262.5 -81t93.5 -220q0 -138 -104 -219.5t-274 -81.5h-244v1073h26v-471h240zM1030 1073h27v-1073h-27v1073zM449 25q160 0 256 74t96 202q0 130 -86 203.5t-244 73.5h-240v-553h218z" />
    <glyph glyph-name="uni044C" unicode="&#x44c;" horiz-adv-x="933" 
d="M489 602q169 0 263 -81t94 -220q0 -138 -104.5 -219.5t-274.5 -81.5h-262v1073h26v-471h258zM467 25q160 0 256 74t96 202q0 130 -86 203.5t-244 73.5h-258v-553h236z" />
    <glyph glyph-name="uni044D" unicode="&#x44d;" horiz-adv-x="1044" 
d="M406 1087q224 0 369 -152t145 -398q0 -249 -147.5 -400t-371.5 -151q-166 0 -295 80v30q124 -86 295 -86q216 0 354 143.5t138 381.5h-623v24h623q-6 226 -142 365t-345 139q-168 0 -300 -80v29q132 75 300 75z" />
    <glyph glyph-name="uni044E" unicode="&#x44e;" horiz-adv-x="1628" 
d="M1016 -14q-93 0 -181 38.5t-157 108t-110.5 175t-41.5 229.5t41.5 229.5t110 174.5t156.5 107.5t182 38.5q95 0 183 -38.5t156 -107.5t109 -174.5t41 -229.5t-41 -229.5t-109.5 -175t-156.5 -108t-182 -38.5zM205 0v1073h26v-516h295v-25h-295v-532h-26zM1016 10
q195 0 329 151.5t134 375.5q0 225 -133 375.5t-330 150.5q-128 0 -234.5 -68.5t-167.5 -189.5t-61 -268q0 -224 134 -375.5t329 -151.5z" />
    <glyph glyph-name="uni044F" unicode="&#x44f;" horiz-adv-x="956" 
d="M469 1073h283v-1073h-27v1049h-256q-157 0 -233 -72.5t-76 -190.5q0 -264 311 -264h250l-594 -522h-39l569 498h-186q-166 0 -252 73t-86 215q0 136 88 211.5t248 75.5z" />
    <glyph glyph-name="uni0451" unicode="&#x451;" horiz-adv-x="1165" 
d="M457 1356q-15 0 -26 11t-11 26t11 26t26 11t26 -11t11 -26t-11 -26t-26 -11zM756 1356q-15 0 -26 11t-11 26t11 26t26 11t26 -11t11 -26t-11 -26t-26 -11zM1042 561l-2 -26h-888q0 -243 133.5 -384t341.5 -141q232 0 399 156v-31q-86 -73 -190 -111t-209 -38
q-219 0 -360.5 148.5t-141.5 402.5q0 124 40.5 229.5t107.5 174.5t154 107.5t181 38.5q87 0 164 -33.5t138 -97.5t96.5 -166t35.5 -229zM152 559h864q0 123 -33.5 221t-91 158.5t-130 92.5t-153.5 32q-86 0 -166.5 -35t-143.5 -98.5t-102.5 -159.5t-43.5 -211z" />
    <glyph glyph-name="uni0452" unicode="&#x452;" horiz-adv-x="1161" 
d="M610 1087q164 0 262.5 -98.5t98.5 -267.5v-623q0 -184 -43.5 -315t-126.5 -234h-35q178 199 178 549v623q0 160 -90 251t-244 91q-102 0 -186.5 -37t-138.5 -113t-54 -178v-735h-26v1292h-203v25h203v303h26v-303h387v-25h-387v-428h2q42 105 145.5 164t231.5 59z" />
    <glyph glyph-name="uni0458" unicode="&#x458;" horiz-adv-x="436" 
d="M219 1450q-15 0 -26 11t-11 26t11 26t26 11t26 -11t11 -26t-11 -26t-26 -11zM27 -451q178 199 178 549v975h26v-975q0 -184 -43.5 -315t-126.5 -234h-34z" />
    <glyph glyph-name="uni0459" unicode="&#x459;" horiz-adv-x="1513" 
d="M1069 602q169 0 262.5 -81t93.5 -220q0 -138 -104 -219.5t-274 -81.5h-244v1049h-522v-566q0 -242 -66 -362.5t-190 -120.5v25q37 0 69 12.5t62 45t51 83.5t34 131.5t13 185.5v590h575v-471h240zM1047 25q160 0 256 74t96 202q0 130 -86 203.5t-244 73.5h-240v-553h218z
" />
    <glyph glyph-name="uni045A" unicode="&#x45a;" horiz-adv-x="1599" 
d="M1157 590q169 0 262.5 -78.5t93.5 -216.5q0 -134 -104 -214.5t-274 -80.5h-244v565h-660v-565h-26v1073h26v-483h660v483h27v-483h239zM1135 25q159 0 255.5 73t96.5 197q0 128 -85.5 199t-244.5 71h-239v-540h217z" />
    <glyph glyph-name="uni045B" unicode="&#x45b;" horiz-adv-x="1161" 
d="M610 1087q164 0 262.5 -98.5t98.5 -267.5v-721h-27v721q0 160 -90 251t-244 91q-102 0 -186.5 -37t-138.5 -113t-54 -178v-735h-26v1292h-203v25h203v303h26v-303h387v-25h-387v-428h2q42 105 145.5 164t231.5 59z" />
    <glyph glyph-name="uni045F" unicode="&#x45f;" horiz-adv-x="1120" 
d="M915 1073v-1073h-342v-266h-26v266h-342v1073h26v-1048h658v1048h26z" />
    <glyph glyph-name="Wgrave" unicode="&#x1e80;" horiz-adv-x="2091" 
d="M874 2044l250 -322h-28l-254 322h32zM1538 0l-491 1473h-3l-491 -1473h-31l-452 1520h28l439 -1473h2l493 1473h27l493 -1473h2l441 1473h26l-452 -1520h-31z" />
    <glyph glyph-name="wgrave" unicode="&#x1e81;" horiz-adv-x="1628" 
d="M641 1597l250 -321h-29l-254 321h33zM1188 0l-373 1038h-2l-375 -1038h-28l-316 1073h27l303 -1038h2l375 1038h26l375 -1038h2l303 1038h27l-317 -1073h-29z" />
    <glyph glyph-name="Wacute" unicode="&#x1e82;" horiz-adv-x="2091" 
d="M1219 2044h32l-254 -322h-28zM1538 0l-491 1473h-3l-491 -1473h-31l-452 1520h28l439 -1473h2l493 1473h27l493 -1473h2l441 1473h26l-452 -1520h-31z" />
    <glyph glyph-name="wacute" unicode="&#x1e83;" horiz-adv-x="1628" 
d="M985 1597h33l-254 -321h-29zM1188 0l-373 1038h-2l-375 -1038h-28l-316 1073h27l303 -1038h2l375 1038h26l375 -1038h2l303 1038h27l-317 -1073h-29z" />
    <glyph glyph-name="Wdieresis" unicode="&#x1e84;" horiz-adv-x="2091" 
d="M897 1802q-15 0 -26 11t-11 26t11 26t26 11t26 -11t11 -26t-11 -26t-26 -11zM1196 1802q-15 0 -26 11t-11 26t11 26t26 11t26 -11t11 -26t-11 -26t-26 -11zM1538 0l-491 1473h-3l-491 -1473h-31l-452 1520h28l439 -1473h2l493 1473h27l493 -1473h2l441 1473h26
l-452 -1520h-31z" />
    <glyph glyph-name="wdieresis" unicode="&#x1e85;" horiz-adv-x="1628" 
d="M664 1356q-15 0 -26 11t-11 26t11 26t26 11t25.5 -11t10.5 -26t-10.5 -26t-25.5 -11zM963 1356q-15 0 -26 11t-11 26t11 26t26 11t25.5 -11t10.5 -26t-10.5 -26t-25.5 -11zM1188 0l-373 1038h-2l-375 -1038h-28l-316 1073h27l303 -1038h2l375 1038h26l375 -1038h2
l303 1038h27l-317 -1073h-29z" />
    <glyph glyph-name="uni1E9E" unicode="&#x1e9e;" horiz-adv-x="1456" 
d="M850 811q221 0 360.5 -115.5t139.5 -296.5q0 -177 -128 -295t-319 -118q-113 0 -222 43.5t-198 117.5v31q202 -168 420 -168q178 0 299 110.5t121 278.5q0 173 -131 280t-342 107h-102l448 584q-156 146 -393 146q-161 0 -286 -76t-191 -204t-66 -286v-950h-27v950
q0 164 70 298t201 213t299 79q112 0 223.5 -39.5t200.5 -126.5l-432 -563h55z" />
    <glyph glyph-name="Ygrave" unicode="&#x1ef2;" horiz-adv-x="1189" 
d="M422 2044l250 -322h-29l-254 322h33zM582 0v682l-541 838h29l524 -807h2l522 807h29l-539 -838v-682h-26z" />
    <glyph glyph-name="ygrave" unicode="&#x1ef3;" horiz-adv-x="1001" 
d="M330 1597l250 -321h-29l-254 321h33zM924 1073l-594 -1524h-27l193 496l-416 1028h26l402 -993h2l387 993h27z" />
    <glyph glyph-name="endash" unicode="&#x2013;" horiz-adv-x="1081" 
d="M174 575v25h733v-25h-733z" />
    <glyph glyph-name="emdash" unicode="&#x2014;" horiz-adv-x="1689" 
d="M174 575v25h1342v-25h-1342z" />
    <glyph glyph-name="quoteleft" unicode="&#x2018;" horiz-adv-x="397" 
d="M283 1520q-95 -221 -95 -416v-64h-26v64q0 191 96 416h25z" />
    <glyph glyph-name="quoteright" unicode="&#x2019;" horiz-adv-x="403" 
d="M141 1038q95 221 95 416v64h26v-64q0 -191 -96 -416h-25z" />
    <glyph glyph-name="quotesinglbase" unicode="&#x201a;" horiz-adv-x="391" 
d="M90 -272q94 218 94 415v64h27v-64q0 -190 -96 -415h-25z" />
    <glyph glyph-name="quotedblleft" unicode="&#x201c;" horiz-adv-x="634" 
d="M283 1520q-95 -221 -95 -416v-64h-26v64q0 191 96 416h25zM520 1520q-94 -218 -94 -416v-64h-27v64q0 189 97 416h24z" />
    <glyph glyph-name="quotedblright" unicode="&#x201d;" horiz-adv-x="632" 
d="M141 1038q95 221 95 416v64h26v-64q0 -191 -96 -416h-25zM371 1038q94 218 94 416v64h27v-64q0 -189 -97 -416h-24z" />
    <glyph glyph-name="quotedblbase" unicode="&#x201e;" horiz-adv-x="647" 
d="M90 -274q94 218 94 415v64h27v-64q0 -190 -96 -415h-25zM346 -274q94 218 94 415v64h27v-64q0 -190 -96 -415h-25z" />
    <glyph glyph-name="dagger" unicode="&#x2020;" horiz-adv-x="944" 
d="M459 -410v1459h-367v24h367v467h26v-467h367v-24h-367v-1459h-26z" />
    <glyph glyph-name="daggerdbl" unicode="&#x2021;" horiz-adv-x="1062" 
d="M545 1540v-467h366v-24h-366v-967h366v-25h-366v-467h-27v467h-366v25h366v967h-366v24h366v467h27z" />
    <glyph glyph-name="bullet" unicode="&#x2022;" horiz-adv-x="954" 
d="M201 760q0 116 80.5 196t195.5 80q116 0 196.5 -80.5t80.5 -195.5q0 -116 -81 -196.5t-196 -80.5t-195.5 80.5t-80.5 196.5z" />
    <glyph glyph-name="ellipsis" unicode="&#x2026;" horiz-adv-x="1316" 
d="M221 -6q-23 0 -39 16t-16 39t16 39t39 16t39 -16t16 -39t-16 -39t-39 -16zM657 -6q-23 0 -39 16t-16 39t16 39t39 16t39.5 -16t16.5 -39t-16.5 -39t-39.5 -16zM1096 -6q-23 0 -39.5 16t-16.5 39t16.5 39t39.5 16t39 -16t16 -39t-16 -39t-39 -16z" />
    <glyph glyph-name="perthousand" unicode="&#x2030;" horiz-adv-x="2385" 
d="M756 1174q0 -156 -95 -257.5t-231 -101.5q-139 0 -233.5 101t-94.5 258q0 156 94.5 258t233.5 102q135 0 230.5 -102.5t95.5 -257.5zM287 0l999 1520h29l-1000 -1520h-28zM729 1174q0 145 -87 240t-212 95q-129 0 -215 -94.5t-86 -240.5t86.5 -240t214.5 -94
q125 0 212 95t87 239zM1499 344q0 -156 -94.5 -257t-230.5 -101q-139 0 -233.5 100.5t-94.5 257.5q0 156 94.5 258.5t233.5 102.5q135 0 230 -103t95 -258zM2298 344q0 -156 -95 -257t-231 -101q-139 0 -233 100.5t-94 257.5q0 156 94 258.5t233 102.5q135 0 230.5 -103
t95.5 -258zM1473 344q0 146 -87 241t-212 95q-129 0 -215.5 -95t-86.5 -241t87 -240t215 -94q125 0 212 95t87 239zM2271 344q0 146 -87 241t-212 95q-129 0 -215 -95t-86 -241t86.5 -240t214.5 -94q125 0 212 95t87 239z" />
    <glyph glyph-name="guilsinglleft" unicode="&#x2039;" horiz-adv-x="712" 
d="M555 930v-27l-430 -368l430 -369v-27l-449 383v25z" />
    <glyph glyph-name="guilsinglright" unicode="&#x203a;" horiz-adv-x="712" 
d="M158 139v27l430 369l-430 368v27l448 -383v-25z" />
    <glyph glyph-name="fraction" unicode="&#x2044;" horiz-adv-x="327" 
d="M-346 0l999 1520h29l-999 -1520h-29z" />
    <glyph glyph-name="Euro" unicode="&#x20ac;" horiz-adv-x="1425" 
d="M967 1509q-162 0 -290.5 -78t-206 -210t-103.5 -301h737v-25h-742q-8 -57 -8 -133q0 -62 6 -123h744v-25h-739q38 -266 199 -435t403 -169q181 0 290 78v-29q-112 -73 -290 -73q-127 0 -236.5 48.5t-189 133t-132 199t-71.5 247.5h-221v25h217q-6 61 -6 123q0 76 8 133
h-219v25h223q27 177 109 314.5t216.5 218.5t301.5 81q175 0 290 -74v-28q-110 77 -290 77z" />
    <glyph glyph-name="uni20B9" unicode="&#x20b9;" horiz-adv-x="1292" 
d="M1174 1520v-25h-549q138 -40 207.5 -135.5t72.5 -226.5h269v-25h-269q-3 -189 -123 -288t-354 -99h-209l727 -721h-37l-751 745h270q445 0 451 363h-719v25h719q-5 164 -115.5 263t-333.5 99h-270v25h1014z" />
    <glyph glyph-name="uni20BA" unicode="&#x20ba;" horiz-adv-x="1241" 
d="M1143 639q7 -191 -68 -336t-222 -224t-345 -79h-123v551l-264 -152v31l264 152v260l-264 -152v31l264 151v648h27v-631l389 223v-31l-389 -223v-260l389 223v-30l-389 -224v-542h96q287 0 452 167t156 447h27z" />
    <glyph glyph-name="uni20BD" unicode="&#x20bd;" horiz-adv-x="1292" 
d="M668 621h-260v-279h380v-25h-380v-317h-27v317h-256v25h256v279h-256v24h256v875h289q238 0 381 -117.5t143 -325.5q0 -215 -142.5 -335.5t-383.5 -120.5zM408 1495v-850h260q231 0 365 113t134 319q0 198 -134.5 308t-362.5 110h-262z" />
    <glyph glyph-name="trademark" unicode="&#x2122;" horiz-adv-x="1837" 
d="M664 1520v-25h-277v-854h-27v854h-276v25h580zM1524 1520l151 -879h-28l-140 832h-2l-297 -832h-24l-301 832h-2l-138 -832h-26l147 879h29l303 -836h2l297 836h29z" />
    <glyph glyph-name="uni2126" unicode="&#x2126;" horiz-adv-x="1703" 
d="M1083 25h498v-25h-561v20q95 41 183 113.5t160 169.5t115 225t44 265q3 320 -184.5 518t-485.5 198t-485.5 -198t-184.5 -518q1 -137 44 -265t115 -225t160 -169.5t183 -113.5v-20h-561v25h498q-199 102 -332 313t-133 455q-1 332 192.5 536.5t503.5 204.5t503.5 -204.5
t192.5 -536.5q0 -244 -133 -455t-332 -313z" />
    <glyph glyph-name="arrowleft" unicode="&#x2190;" horiz-adv-x="1566" 
d="M705 1489h36l-643 -676l1469 2v-27h-1469l643 -671h-36l-658 684z" />
    <glyph glyph-name="arrowup" unicode="&#x2191;" horiz-adv-x="1566" 
d="M1468 862v-37l-675 643l2 -1468h-27v1468l-672 -643v37l684 658z" />
    <glyph glyph-name="arrowright" unicode="&#x2192;" horiz-adv-x="1566" 
d="M862 29h-37l643 676l-1468 -3v27h1468l-643 672h37l658 -684z" />
    <glyph glyph-name="arrowdown" unicode="&#x2193;" horiz-adv-x="1566" 
d="M1468 657l-688 -657l-684 657v37l672 -643v1469h27l-2 -1469l675 643v-37z" />
    <glyph glyph-name="uni2196" unicode="&#x2196;" horiz-adv-x="1566" 
d="M1372 258l-20 -20l-1061 1062v-954l-27 27v973h975l27 -27h-957z" />
    <glyph glyph-name="uni2197" unicode="&#x2197;" horiz-adv-x="1566" 
d="M195 258l1062 1061h-956l27 27h975v-973l-27 -27v954l-1061 -1062z" />
    <glyph glyph-name="uni2198" unicode="&#x2198;" horiz-adv-x="1566" 
d="M193 1323l20 20l1061 -1062v954l26 -27v-972h-974l-27 26h956z" />
    <glyph glyph-name="uni2199" unicode="&#x2199;" horiz-adv-x="1566" 
d="M1374 1323l-1063 -1061h957l-27 -26h-975v972l27 27v-954l1061 1062z" />
    <glyph glyph-name="partialdiff" unicode="&#x2202;" horiz-adv-x="1271" 
d="M668 1610q220 0 349.5 -177.5t129.5 -476.5q0 -76 -21 -260q-46 -323 -202 -516.5t-377 -193.5q-191 0 -306.5 125t-115.5 338q0 183 80.5 328.5t226 227.5t330.5 82q174 0 358 -108q-6 280 -127 443t-325 163q-87 0 -155 -13.5t-144 -49.5v20q77 38 144.5 53t154.5 15z
M545 10q212 0 361 187t194 499q20 164 20 252q-64 47 -165 81t-191 34q-134 0 -249.5 -47.5t-195 -129.5t-124.5 -195t-45 -242q0 -202 108 -320.5t287 -118.5z" />
    <glyph glyph-name="uni2206" unicode="&#x2206;" horiz-adv-x="1331" 
d="M16 0l639 1520h25l635 -1520h-1299zM55 25h1221l-608 1458z" />
    <glyph glyph-name="product" unicode="&#x220f;" horiz-adv-x="1310" 
d="M199 1530h913v-1960h-27v1935h-860v-1935h-26v1960z" />
    <glyph glyph-name="summation" unicode="&#x2211;" horiz-adv-x="1138" 
d="M1024 1520v-25h-895l588 -960l-588 -961h899v-25h-948l606 986l-606 985h944z" />
    <glyph glyph-name="minus" unicode="&#x2212;" horiz-adv-x="1355" 
d="M184 772v25h987v-25h-987z" />
    <glyph glyph-name="radical" unicode="&#x221a;" horiz-adv-x="1187" 
d="M268 618l-225 -88l-6 21l246 98l313 -889h2l518 2134h29l-541 -2216h-2z" />
    <glyph glyph-name="infinity" unicode="&#x221e;" horiz-adv-x="1376" 
d="M979 1034q96 0 162.5 -72.5t66.5 -177.5q0 -101 -66 -171t-163 -70q-40 0 -77 13.5t-64 32t-56.5 51.5t-48 58.5t-45.5 67.5q-27 -42 -45.5 -67.5t-48 -58.5t-56.5 -51.5t-64 -32t-77 -13.5q-97 0 -163 70t-66 171q0 105 66.5 177.5t162.5 72.5q40 0 77 -13.5t64 -32
t56.5 -51.5t48 -58.5t45.5 -67.5q27 42 45.5 67.5t48 58.5t56.5 51.5t64 32t77 13.5zM397 567q38 0 72.5 13.5t59.5 30.5t54 51.5t45.5 58t45.5 67.5q-29 45 -45.5 68t-45.5 57.5t-53.5 52t-59.5 31t-73 13.5q-85 0 -143.5 -65.5t-58.5 -160.5q0 -91 58.5 -154t143.5 -63z
M979 567q85 0 144 63t59 154q0 95 -59 160.5t-144 65.5q-38 0 -73 -13.5t-59.5 -31t-53.5 -52t-45.5 -57.5t-45.5 -68q29 -44 45.5 -67.5t45.5 -58t54 -51.5t59.5 -30.5t72.5 -13.5z" />
    <glyph glyph-name="integral" unicode="&#x222b;" horiz-adv-x="765" 
d="M727 1602v-25q-56 33 -133 33q-91 0 -145 -59.5t-54 -174.5v-1583q0 -124 -62 -191t-163 -67q-71 0 -133 33v24q55 -32 133 -32q91 0 145 59t54 174v1583q0 124 62 191t163 67q73 0 133 -32z" />
    <glyph glyph-name="approxequal" unicode="&#x2248;" horiz-adv-x="1441" 
d="M1257 1063q-13 -92 -72.5 -155.5t-162.5 -63.5q-65 0 -147.5 29.5t-148.5 64.5t-146.5 64.5t-141.5 29.5q-92 0 -151.5 -57t-65.5 -137h-24q6 89 72 154t171 65q65 0 147.5 -29.5t148.5 -65t146.5 -65t141.5 -29.5q90 0 143 55.5t66 139.5h24zM1257 715
q-13 -92 -72.5 -155.5t-162.5 -63.5q-65 0 -147.5 29.5t-148.5 64.5t-146.5 64.5t-141.5 29.5q-92 0 -151.5 -57.5t-65.5 -137.5h-24q6 89 72 154.5t171 65.5q65 0 147.5 -29.5t148.5 -65t146.5 -65t141.5 -29.5q90 0 143 55.5t66 139.5h24z" />
    <glyph glyph-name="notequal" unicode="&#x2260;" horiz-adv-x="1355" 
d="M1171 928h-354l-252 -287h606v-25h-628l-312 -354h-26l311 354h-332v25h355l252 287h-607v24h629l311 355h27l-311 -355h331v-24z" />
    <glyph glyph-name="lessequal" unicode="&#x2264;" horiz-adv-x="1400" 
d="M1171 1219v26l-987 -446v-27l987 -446v26l-956 432v2zM188 0v25h988v-25h-988z" />
    <glyph glyph-name="greaterequal" unicode="&#x2265;" horiz-adv-x="1400" 
d="M229 1219l957 -433v-2l-957 -432v-26l988 446v27l-988 446v-26zM225 0v25h987v-25h-987z" />
    <glyph glyph-name="lozenge" unicode="&#x25ca;" horiz-adv-x="1161" 
d="M1057 760l-475 -774h-2l-476 774l476 774h2zM1028 760l-444 725h-4l-447 -725l447 -725h2z" />
    <glyph glyph-name="NULL" horiz-adv-x="0" 
 />
    <glyph glyph-name="i.loclTRK" horiz-adv-x="452" 
d="M227 1450q-15 0 -26 11t-11 26t11 26t26 11t26 -11t11 -26t-11 -26t-26 -11zM213 0v1073h27v-1073h-27z" />
    <glyph glyph-name="zero.osf" horiz-adv-x="1347" 
d="M674 1087q98 0 192 -37t169.5 -104.5t122 -174t46.5 -234.5t-46.5 -234.5t-122 -174.5t-169.5 -105t-192 -37t-191.5 37t-169.5 105t-122 174.5t-46 234.5t46.5 234.5t122.5 174t169 104.5t191 37zM674 1063q-93 0 -181.5 -35t-160.5 -99t-116 -166.5t-44 -225.5
q0 -124 44 -226t116 -166.5t160.5 -99.5t181.5 -35t182 35t161.5 99.5t116.5 167t44 225.5q0 99 -29 185.5t-78 148t-114 105.5t-137 65.5t-146 21.5z" />
    <glyph glyph-name="one.osf" horiz-adv-x="714" 
d="M397 0v1049l-305 -146v27l311 149h21v-1079h-27z" />
    <glyph glyph-name="two.osf" horiz-adv-x="1132" 
d="M1004 25v-25h-889q180 107 299 181.5t216.5 143.5t151.5 119t90.5 103t49 99.5t12.5 105.5q0 134 -96 222.5t-248 88.5q-132 0 -226.5 -50.5t-170.5 -135.5v30q162 180 397 180q162 0 266.5 -96t104.5 -239q0 -58 -11.5 -104.5t-44.5 -98.5t-84.5 -102t-138.5 -114.5
t-199 -136.5t-274 -169v-2h795z" />
    <glyph glyph-name="three.osf" horiz-adv-x="1077" 
d="M575 338q175 -29 271 -137.5t96 -261.5q0 -170 -114.5 -285t-313.5 -115q-124 0 -225 46t-166 136v37q60 -93 162 -143.5t229 -50.5q189 0 295 107t106 268q0 169 -118.5 277t-331.5 108h-150v24h150q93 0 169 32t124 85.5t74 119.5t26 136q0 144 -99.5 243t-254.5 99
q-103 0 -189 -43t-139 -115v37q58 68 143.5 106.5t184.5 38.5q166 0 273.5 -106.5t107.5 -259.5q0 -131 -83 -241t-227 -142z" />
    <glyph glyph-name="four.osf" horiz-adv-x="1171" 
d="M1098 25v-25h-275v-406h-26v406h-742v23l744 1054h24v-1052h275zM90 25h707v1001h-2l-705 -999v-2z" />
    <glyph glyph-name="five.osf" horiz-adv-x="1089" 
d="M901 1073v-24h-518l-137 -654l2 -2q104 53 248 53q220 0 350.5 -130.5t130.5 -323.5q0 -126 -54 -227.5t-161.5 -163.5t-251.5 -62q-132 0 -237 48.5t-177 131.5v31q76 -89 182 -137.5t232 -48.5q205 0 322.5 122t117.5 306q0 89 -31 167t-87.5 136.5t-143 92.5
t-192.5 34q-157 0 -271 -66l-8 6l150 711h534z" />
    <glyph glyph-name="six.osf" horiz-adv-x="1146" 
d="M840 1520l-496 -639l2 -2q30 15 88.5 28t116.5 13q91 0 177 -31t155.5 -88.5t112 -150t42.5 -204.5q0 -192 -129.5 -326t-328.5 -134q-200 0 -331.5 136t-131.5 329q0 107 45.5 201t150.5 229l498 639h29zM317 846q-95 -125 -134.5 -209.5t-39.5 -185.5q0 -183 124 -312
t313 -129t310.5 126.5t121.5 309.5q0 108 -40.5 195.5t-107 141.5t-147 83t-166.5 29q-130 0 -234 -49z" />
    <glyph glyph-name="seven.osf" horiz-adv-x="980" 
d="M119 -446l803 1495h-826v24h867l-813 -1519h-31z" />
    <glyph glyph-name="eight.osf" horiz-adv-x="1216" 
d="M721 784q154 -31 250 -139t96 -254q0 -174 -130 -289.5t-329 -115.5t-328.5 115.5t-129.5 289.5q0 146 96 254t250 139v2q-132 34 -214.5 134.5t-82.5 232.5q0 161 118 271t291 110t291.5 -110t118.5 -271q0 -132 -83 -232.5t-214 -134.5v-2zM223 1153q0 -152 111 -255
t274 -103t274 103t111 255t-111 254t-274 102t-274 -102t-111 -254zM608 774q-188 0 -311 -109.5t-123 -273.5q0 -165 122.5 -273t311.5 -108t311.5 108t122.5 273q0 164 -123 273.5t-311 109.5z" />
    <glyph glyph-name="nine.osf" horiz-adv-x="1095" 
d="M301 -446h-27l506 653l-2 2q-30 -15 -87.5 -28t-115.5 -13q-89 0 -173.5 30.5t-153 87t-110.5 147.5t-42 202q0 189 128.5 320.5t324.5 131.5t325.5 -133.5t129.5 -322.5q0 -106 -44.5 -198t-148.5 -226zM807 242q93 123 131.5 206t38.5 183q0 180 -121 306t-307 126
t-306 -124t-120 -304q0 -106 39.5 -192.5t104.5 -139.5t144.5 -81.5t163.5 -28.5q128 0 232 49z" />
    <glyph glyph-name="zero.tf" 
d="M625 1534q93 0 174.5 -52t143.5 -148t98 -244.5t36 -329.5t-36 -329.5t-98 -244.5t-143.5 -148t-174.5 -52t-174.5 52t-144 148t-98.5 244.5t-36 329.5t36 329.5t98.5 244.5t144 148t174.5 52zM625 1509q-87 0 -164 -50t-135.5 -143t-92.5 -236.5t-34 -319.5
q0 -141 22 -262.5t61.5 -210t93 -151.5t117 -94.5t132.5 -31.5t132.5 31.5t117 94.5t93 151.5t61.5 210t22 262.5q0 176 -34 319.5t-92.5 236.5t-135.5 143t-164 50z" />
    <glyph glyph-name="one.tf" 
d="M1079 25v-25h-817v25h408v1464l-420 -201v27l426 205h20v-1495h383z" />
    <glyph glyph-name="two.tf" 
d="M164 0q194 207 314 337.5t220.5 248t150 186.5t84.5 137.5t44.5 116.5t9.5 109q0 72 -25.5 138.5t-74 119.5t-125.5 84.5t-172 31.5q-108 0 -202 -43t-161 -120v30q68 77 162 117.5t201 40.5q100 0 182 -33.5t134 -90t80 -127.5t28 -148q0 -180 -129.5 -357t-638.5 -730
q-14 -15 -21 -23h822v-25h-883z" />
    <glyph glyph-name="three.tf" 
d="M662 784q177 -29 274.5 -137.5t97.5 -261.5q0 -170 -115 -284.5t-317 -114.5q-126 0 -228 46t-167 136v37q60 -93 163.5 -144t231.5 -51q191 0 298.5 107t107.5 268q0 169 -121 277t-338 108h-150v25h150q95 0 172.5 32t126.5 85t75.5 119t26.5 136q0 144 -100.5 243
t-257.5 99q-104 0 -191.5 -43t-140.5 -114v37q58 68 144.5 106.5t187.5 38.5q167 0 276 -107t109 -260q0 -132 -84 -241.5t-231 -141.5z" />
    <glyph glyph-name="four.tf" 
d="M1153 430v-24h-274v-406h-27v406h-768v22l770 1092h25v-1090h274zM119 430h733v1036h-2l-731 -1034v-2z" />
    <glyph glyph-name="five.tf" 
d="M981 1520v-25h-518l-137 -653l2 -2q104 53 247 53q220 0 351 -131t131 -324q0 -125 -54 -227t-161.5 -163.5t-251.5 -61.5q-132 0 -237 48.5t-177 131.5v31q76 -89 182 -138t232 -49q205 0 322.5 122t117.5 306q0 89 -31 167t-88 136.5t-143.5 92.5t-192.5 34
q-158 0 -270 -65l-8 6l149 711h535z" />
    <glyph glyph-name="six.tf" 
d="M891 1520l-496 -639l2 -2q30 15 88.5 28t116.5 13q91 0 177 -31t156 -88.5t112.5 -150t42.5 -204.5q0 -192 -130 -326t-329 -134q-200 0 -331.5 136t-131.5 329q0 107 45.5 200.5t151.5 229.5l497 639h29zM369 846q-95 -125 -134.5 -209.5t-39.5 -185.5
q0 -183 123.5 -312t312.5 -129t310.5 126.5t121.5 309.5q0 108 -40.5 195.5t-107 141.5t-147 83t-166.5 29q-129 0 -233 -49z" />
    <glyph glyph-name="seven.tf" 
d="M258 0l803 1495h-825v25h866l-813 -1520h-31z" />
    <glyph glyph-name="eight.tf" 
d="M737 784q154 -31 250 -139t96 -254q0 -174 -129.5 -289.5t-328.5 -115.5t-329 115.5t-130 289.5q0 146 96 254t250 139v2q-132 34 -214.5 134.5t-82.5 232.5q0 161 118.5 271t291.5 110t291 -110t118 -271q0 -132 -83 -232.5t-214 -134.5v-2zM625 1509q-163 0 -274 -102
t-111 -254t111 -255t274 -103t274 103t111 255t-111 254t-274 102zM1059 391q0 164 -123 273.5t-311 109.5t-311.5 -109.5t-123.5 -273.5q0 -165 123 -273t312 -108t311.5 108t122.5 273z" />
    <glyph glyph-name="nine.tf" 
d="M375 0h-27l506 653l-2 2q-30 -15 -87.5 -28t-115.5 -13q-89 0 -173.5 30.5t-153 87t-110.5 147.5t-42 202q0 189 128.5 321t324.5 132t325 -134t129 -323q0 -106 -44.5 -198.5t-147.5 -225.5zM881 688q93 123 131.5 206t38.5 183q0 180 -121 306t-307 126t-306 -124
t-120 -304q0 -106 39.5 -192.5t104.5 -139.5t144.5 -81.5t163.5 -28.5q128 0 232 49z" />
    <glyph glyph-name="zero.dnom" horiz-adv-x="876" 
d="M438 895q142 0 237 -122.5t95 -332.5t-95 -332t-237 -122t-237 122t-95 332t95 332.5t237 122.5zM438 870q-130 0 -217.5 -115.5t-87.5 -314.5t87.5 -314.5t217.5 -115.5t217.5 115.5t87.5 314.5t-87.5 314.5t-217.5 115.5z" />
    <glyph glyph-name="one.dnom" horiz-adv-x="524" 
d="M287 0v854l-228 -117v27l234 121h20v-885h-26z" />
    <glyph glyph-name="two.dnom" horiz-adv-x="684" 
d="M582 25v-25h-516q289 309 351 383q102 121 124 197q10 37 10 82q0 90 -59.5 149t-151.5 59q-141 0 -229 -88v29q88 84 229 84q102 0 170 -67.5t68 -165.5q0 -28 -3 -50.5t-14.5 -51t-21 -49t-37.5 -58t-49 -63.5t-69 -79.5t-83.5 -92.5t-106.5 -116q-46 -50 -71 -77h459z
" />
    <glyph glyph-name="three.dnom" horiz-adv-x="692" 
d="M387 455q92 -21 147.5 -81.5t55.5 -146.5q0 -104 -75.5 -172.5t-192.5 -68.5q-132 0 -228 86v28q97 -90 228 -90q106 0 173.5 61t67.5 156q0 98 -73 155.5t-189 57.5h-98v25h98q108 0 166.5 63t58.5 148q0 83 -53.5 137.5t-138.5 54.5q-123 0 -209 -86v29q88 84 209 84
q97 0 158 -63t61 -156q0 -75 -43 -137t-123 -84z" />
    <glyph glyph-name="four.dnom" horiz-adv-x="768" 
d="M698 268v-24h-139v-244h-27v244h-473v22l473 615h27v-613h139zM94 268h438v566h-2l-436 -564v-2z" />
    <glyph glyph-name="five.dnom" horiz-adv-x="745" 
d="M608 881v-25h-338l-84 -362h2q75 30 170 30q139 0 218 -76t79 -184q0 -113 -83.5 -195.5t-223.5 -82.5q-77 0 -147.5 26.5t-120.5 73.5v29q51 -48 121.5 -76.5t146.5 -28.5q129 0 205 75t76 179q0 100 -71 168t-204 68q-105 0 -192 -41l-6 4l94 418h358z" />
    <glyph glyph-name="six.dnom" horiz-adv-x="759" 
d="M557 881l-324 -369l3 2q57 23 145 23q119 0 210 -75.5t91 -201.5q0 -114 -85.5 -194t-215.5 -80t-217.5 80t-87.5 194q0 64 30 120.5t99 133.5l321 367h31zM209 481q-58 -68 -82.5 -115.5t-24.5 -105.5q0 -104 79.5 -177t199.5 -73q119 0 197.5 72.5t78.5 175.5
q0 118 -83.5 186t-192.5 68q-95 0 -172 -31z" />
    <glyph glyph-name="seven.dnom" horiz-adv-x="679" 
d="M92 0l514 856h-528v25h571l-526 -881h-31z" />
    <glyph glyph-name="eight.dnom" horiz-adv-x="806" 
d="M489 459q95 -20 154 -82.5t59 -145.5q0 -101 -85.5 -169t-213.5 -68t-213.5 68t-85.5 169q0 83 59 145.5t154 82.5q-82 22 -132 79.5t-50 133.5q0 95 77 159t191 64t191.5 -64t77.5 -159q0 -76 -50 -133.5t-133 -79.5zM162 672q0 -86 69 -143.5t172 -57.5t172.5 57.5
t69.5 143.5q0 85 -69.5 141.5t-172.5 56.5t-172 -56.5t-69 -141.5zM403 18q117 0 195 61t78 152q0 92 -78 153.5t-195 61.5t-194.5 -61.5t-77.5 -153.5q0 -91 77.5 -152t194.5 -61z" />
    <glyph glyph-name="nine.dnom" horiz-adv-x="751" 
d="M221 0h-31l330 375l-6 -4q-12 -8 -48.5 -14.5t-72.5 -6.5q-57 0 -112 18.5t-100.5 52t-73 87t-27.5 117.5q0 112 84.5 191t214.5 79q128 0 212.5 -80t84.5 -192q0 -61 -29 -116t-96 -132zM545 406q57 64 80.5 111.5t23.5 105.5q0 102 -76.5 174.5t-193.5 72.5
q-119 0 -196 -70.5t-77 -172.5q0 -114 86.5 -183t200.5 -69q75 0 152 31z" />
    <glyph glyph-name="zero.numr" horiz-adv-x="876" 
d="M438 1534q142 0 237 -122.5t95 -332.5t-95 -332t-237 -122t-237 122t-95 332t95 332.5t237 122.5zM438 1509q-130 0 -217.5 -115.5t-87.5 -314.5t87.5 -314.5t217.5 -115.5t217.5 115.5t87.5 314.5t-87.5 314.5t-217.5 115.5z" />
    <glyph glyph-name="one.numr" horiz-adv-x="524" 
d="M287 639v854l-228 -117v27l234 121h20v-885h-26z" />
    <glyph glyph-name="two.numr" horiz-adv-x="684" 
d="M582 664v-25h-516q289 309 349 380q103 122 125 198q11 37 11 83q0 90 -59.5 149.5t-151.5 59.5q-141 0 -229 -88v29q88 84 229 84q102 0 170 -68t68 -166q0 -101 -64.5 -191.5t-314.5 -361.5q-49 -54 -76 -83h459z" />
    <glyph glyph-name="three.numr" horiz-adv-x="692" 
d="M387 1094q92 -21 147.5 -81.5t55.5 -146.5q0 -104 -75.5 -172.5t-192.5 -68.5q-132 0 -228 86v28q97 -90 228 -90q106 0 173.5 61t67.5 156q0 98 -73 155.5t-189 57.5h-98v25h98q108 0 166.5 63t58.5 148q0 83 -53.5 137.5t-138.5 54.5q-123 0 -209 -86v29q88 84 209 84
q97 0 158 -63t61 -156q0 -75 -43 -137t-123 -84z" />
    <glyph glyph-name="four.numr" horiz-adv-x="768" 
d="M698 907v-24h-139v-244h-27v244h-473v22l473 615h27v-613h139zM94 907h438v566h-2l-436 -564v-2z" />
    <glyph glyph-name="five.numr" horiz-adv-x="745" 
d="M608 1520v-25h-338l-84 -362h2q75 30 170 30q139 0 218 -76t79 -184q0 -113 -83.5 -195.5t-223.5 -82.5q-77 0 -147.5 26.5t-120.5 73.5v29q51 -48 121.5 -76.5t146.5 -28.5q129 0 205 75t76 179q0 100 -71 168t-204 68q-105 0 -192 -41l-6 4l94 418h358z" />
    <glyph glyph-name="six.numr" horiz-adv-x="759" 
d="M557 1520l-324 -369l3 2q58 23 145 23q119 0 210 -75.5t91 -201.5q0 -114 -85.5 -194t-215.5 -80t-217.5 80t-87.5 194q0 64 30 120.5t99 133.5l321 367h31zM209 1120q-58 -68 -82.5 -115.5t-24.5 -105.5q0 -104 79.5 -177t199.5 -73q119 0 197.5 72.5t78.5 175.5
q0 118 -83.5 186t-192.5 68q-95 0 -172 -31z" />
    <glyph glyph-name="seven.numr" horiz-adv-x="679" 
d="M92 639l514 856h-528v25h571l-526 -881h-31z" />
    <glyph glyph-name="eight.numr" horiz-adv-x="806" 
d="M489 1098q95 -20 154 -82.5t59 -145.5q0 -101 -85.5 -169t-213.5 -68t-213.5 68t-85.5 169q0 83 59 145.5t154 82.5q-82 22 -132 79.5t-50 133.5q0 95 77 159t191 64t191.5 -64t77.5 -159q0 -76 -50 -133.5t-133 -79.5zM162 1311q0 -86 69 -143.5t172 -57.5t172.5 57.5
t69.5 143.5q0 85 -69.5 141.5t-172.5 56.5t-172 -56.5t-69 -141.5zM403 657q117 0 195 61t78 152q0 92 -78 153.5t-195 61.5t-194.5 -61.5t-77.5 -153.5q0 -91 77.5 -152t194.5 -61z" />
    <glyph glyph-name="nine.numr" horiz-adv-x="751" 
d="M221 639h-31l330 375l-6 -4q-12 -8 -48.5 -14.5t-72.5 -6.5q-57 0 -112 18.5t-100.5 52t-73 87t-27.5 117.5q0 112 84.5 191t214.5 79q128 0 212.5 -80t84.5 -192q0 -61 -29 -116t-96 -132zM545 1044q56 64 80 112t24 106q0 102 -76.5 174.5t-193.5 72.5
q-119 0 -196 -70.5t-77 -172.5q0 -114 86.5 -183t200.5 -69q77 0 152 30z" />
    <glyph glyph-name="caron.alt" horiz-adv-x="499" 
d="M225 1339q27 95 27 187q0 64 -10 102h24q10 -45 10 -96q0 -113 -30 -193h-21z" />
    <glyph glyph-name="I.ss01" horiz-adv-x="727" 
d="M350 25v1470h-266v25h559v-25h-266v-1470h266v-25h-559v25h266z" />
    <glyph glyph-name="IJ.ss01" horiz-adv-x="1757" 
d="M350 25v1470h-266v25h559v-25h-266v-1470h266v-25h-559v25h266zM1513 1520v-1192q0 -161 -85.5 -251.5t-227.5 -90.5q-145 0 -264 104v31q120 -111 264 -111q132 0 209.5 83t77.5 235v1167h-420v25h446z" />
    <glyph glyph-name="Iacute.ss01" horiz-adv-x="727" 
d="M535 2044h32l-254 -322h-28zM350 25v1470h-266v25h559v-25h-266v-1470h266v-25h-559v25h266z" />
    <glyph glyph-name="Icircumflex.ss01" horiz-adv-x="727" 
d="M377 2044l248 -322h-29l-234 297l-233 -297h-29l248 322h29zM350 25v1470h-266v25h559v-25h-266v-1470h266v-25h-559v25h266z" />
    <glyph glyph-name="Idieresis.ss01" horiz-adv-x="727" 
d="M213 1802q-15 0 -26 11t-11 26t11 26t26 11t26 -11t11 -26t-11 -26t-26 -11zM512 1802q-15 0 -26 11t-11 26t11 26t26 11t26 -11t11 -26t-11 -26t-26 -11zM350 25v1470h-266v25h559v-25h-266v-1470h266v-25h-559v25h266z" />
    <glyph glyph-name="Idotaccent.ss01" horiz-adv-x="727" 
d="M362 1802q-15 0 -25.5 11t-10.5 26t10.5 26t25.5 11t26 -11t11 -26t-11 -26t-26 -11zM350 25v1470h-266v25h559v-25h-266v-1470h266v-25h-559v25h266z" />
    <glyph glyph-name="Igrave.ss01" horiz-adv-x="727" 
d="M190 2044l250 -322h-28l-254 322h32zM350 25v1470h-266v25h559v-25h-266v-1470h266v-25h-559v25h266z" />
    <glyph glyph-name="Imacron.ss01" horiz-adv-x="727" 
d="M113 1841v25h499v-25h-499zM350 25v1470h-266v25h559v-25h-266v-1470h266v-25h-559v25h266z" />
    <glyph glyph-name="Iogonek.ss01" horiz-adv-x="727" 
d="M643 1495h-266v-1470h266v-25h-139q-110 -95 -163.5 -163t-53.5 -132q0 -72 46 -108.5t103 -36.5q48 0 68 12v-25q-20 -12 -68 -12q-68 0 -122 43.5t-54 126.5q0 66 55.5 137.5t155.5 157.5h-387v25h266v1470h-266v25h559v-25z" />
    <glyph glyph-name="J.ss01" horiz-adv-x="909" 
d="M666 1520v-1192q0 -161 -86 -251.5t-228 -90.5q-145 0 -264 104v31q120 -111 264 -111q132 0 209.5 83t77.5 235v1167h-420v25h447z" />
    <glyph glyph-name="a.ss01" horiz-adv-x="1124" 
d="M545 1087q180 0 284.5 -97.5t104.5 -254.5v-735h-23l-2 279h-2q-43 -140 -159.5 -216.5t-262.5 -76.5q-161 0 -266.5 87.5t-105.5 229.5q0 138 106.5 232t306.5 94q190 0 381 -99v205q0 147 -96.5 237.5t-265.5 90.5q-102 0 -202 -34.5t-183 -96.5v26q82 62 182 95.5
t203 33.5zM526 604q-101 0 -177.5 -24.5t-121 -67.5t-66.5 -95.5t-22 -113.5q0 -132 98.5 -212.5t247.5 -80.5q177 0 299.5 115.5t122.5 282.5v92q-166 104 -381 104z" />
    <glyph glyph-name="aacute.ss01" horiz-adv-x="1124" 
d="M719 1597h33l-254 -321h-29zM545 1087q180 0 284.5 -97.5t104.5 -254.5v-735h-23l-2 279h-2q-43 -140 -159.5 -216.5t-262.5 -76.5q-161 0 -266.5 87.5t-105.5 229.5q0 138 106.5 232t306.5 94q190 0 381 -99v205q0 147 -96.5 237.5t-265.5 90.5q-102 0 -202 -34.5
t-183 -96.5v26q82 62 182 95.5t203 33.5zM526 604q-101 0 -177.5 -24.5t-121 -67.5t-66.5 -95.5t-22 -113.5q0 -132 98.5 -212.5t247.5 -80.5q177 0 299.5 115.5t122.5 282.5v92q-166 104 -381 104z" />
    <glyph glyph-name="abreve.ss01" horiz-adv-x="1124" 
d="M838 1567q-7 -116 -89 -181t-202 -65t-202 65t-89 181h27q7 -98 82.5 -159.5t181.5 -61.5t181.5 61.5t82.5 159.5h27zM545 1087q180 0 284.5 -97.5t104.5 -254.5v-735h-23l-2 279h-2q-43 -140 -159.5 -216.5t-262.5 -76.5q-161 0 -266.5 87.5t-105.5 229.5
q0 138 106.5 232t306.5 94q190 0 381 -99v205q0 147 -96.5 237.5t-265.5 90.5q-102 0 -202 -34.5t-183 -96.5v26q82 62 182 95.5t203 33.5zM526 604q-101 0 -177.5 -24.5t-121 -67.5t-66.5 -95.5t-22 -113.5q0 -132 98.5 -212.5t247.5 -80.5q177 0 299.5 115.5t122.5 282.5
v92q-166 104 -381 104z" />
    <glyph glyph-name="acircumflex.ss01" horiz-adv-x="1124" 
d="M561 1597l248 -321h-29l-233 297l-234 -297h-28l247 321h29zM545 1087q180 0 284.5 -97.5t104.5 -254.5v-735h-23l-2 279h-2q-43 -140 -159.5 -216.5t-262.5 -76.5q-161 0 -266.5 87.5t-105.5 229.5q0 138 106.5 232t306.5 94q190 0 381 -99v205q0 147 -96.5 237.5
t-265.5 90.5q-102 0 -202 -34.5t-183 -96.5v26q82 62 182 95.5t203 33.5zM526 604q-101 0 -177.5 -24.5t-121 -67.5t-66.5 -95.5t-22 -113.5q0 -132 98.5 -212.5t247.5 -80.5q177 0 299.5 115.5t122.5 282.5v92q-166 104 -381 104z" />
    <glyph glyph-name="adieresis.ss01" horiz-adv-x="1124" 
d="M397 1356q-15 0 -26 11t-11 26t11 26t26 11t26 -11t11 -26t-11 -26t-26 -11zM696 1356q-15 0 -26 11t-11 26t11 26t26 11t26 -11t11 -26t-11 -26t-26 -11zM545 1087q180 0 284.5 -97.5t104.5 -254.5v-735h-23l-2 279h-2q-43 -140 -159.5 -216.5t-262.5 -76.5
q-161 0 -266.5 87.5t-105.5 229.5q0 138 106.5 232t306.5 94q190 0 381 -99v205q0 147 -96.5 237.5t-265.5 90.5q-102 0 -202 -34.5t-183 -96.5v26q82 62 182 95.5t203 33.5zM526 604q-101 0 -177.5 -24.5t-121 -67.5t-66.5 -95.5t-22 -113.5q0 -132 98.5 -212.5
t247.5 -80.5q177 0 299.5 115.5t122.5 282.5v92q-166 104 -381 104z" />
    <glyph glyph-name="agrave.ss01" horiz-adv-x="1124" 
d="M375 1597l250 -321h-29l-254 321h33zM545 1087q180 0 284.5 -97.5t104.5 -254.5v-735h-23l-2 279h-2q-43 -140 -159.5 -216.5t-262.5 -76.5q-161 0 -266.5 87.5t-105.5 229.5q0 138 106.5 232t306.5 94q190 0 381 -99v205q0 147 -96.5 237.5t-265.5 90.5
q-102 0 -202 -34.5t-183 -96.5v26q82 62 182 95.5t203 33.5zM526 604q-101 0 -177.5 -24.5t-121 -67.5t-66.5 -95.5t-22 -113.5q0 -132 98.5 -212.5t247.5 -80.5q177 0 299.5 115.5t122.5 282.5v92q-166 104 -381 104z" />
    <glyph glyph-name="amacron.ss01" horiz-adv-x="1124" 
d="M297 1395v24h500v-24h-500zM545 1087q180 0 284.5 -97.5t104.5 -254.5v-735h-23l-2 279h-2q-43 -140 -159.5 -216.5t-262.5 -76.5q-161 0 -266.5 87.5t-105.5 229.5q0 138 106.5 232t306.5 94q190 0 381 -99v205q0 147 -96.5 237.5t-265.5 90.5q-102 0 -202 -34.5
t-183 -96.5v26q82 62 182 95.5t203 33.5zM526 604q-101 0 -177.5 -24.5t-121 -67.5t-66.5 -95.5t-22 -113.5q0 -132 98.5 -212.5t247.5 -80.5q177 0 299.5 115.5t122.5 282.5v92q-166 104 -381 104z" />
    <glyph glyph-name="aogonek.ss01" horiz-adv-x="1124" 
d="M934 0q-110 -95 -163.5 -163t-53.5 -132q0 -72 46 -108.5t103 -36.5q48 0 68 12v-25q-20 -12 -68 -12q-68 0 -122 43.5t-54 126.5q0 67 58.5 140.5t162.5 162.5l-2 271h-2q-43 -140 -159.5 -216.5t-262.5 -76.5q-161 0 -266.5 87.5t-105.5 229.5q0 138 106.5 232
t306.5 94q190 0 381 -99v205q0 147 -96.5 237.5t-265.5 90.5q-102 0 -202 -34.5t-183 -96.5v26q82 62 182 95.5t203 33.5q180 0 284.5 -97.5t104.5 -254.5v-735zM907 408v92q-166 104 -381 104q-101 0 -177.5 -24.5t-121 -67.5t-66.5 -95.5t-22 -113.5q0 -132 98.5 -212.5
t247.5 -80.5q177 0 299.5 115.5t122.5 282.5z" />
    <glyph glyph-name="aring.ss01" horiz-adv-x="1124" 
d="M549 1585q64 0 107.5 -44t43.5 -105t-43.5 -104.5t-107.5 -43.5q-66 0 -110 43.5t-44 104.5t44 105t110 44zM549 1563q-57 0 -93 -36.5t-36 -90.5t36 -89.5t93 -35.5q55 0 91 36t36 89t-36 90t-91 37zM545 1087q180 0 284.5 -97.5t104.5 -254.5v-735h-23l-2 279h-2
q-43 -140 -159.5 -216.5t-262.5 -76.5q-161 0 -266.5 87.5t-105.5 229.5q0 138 106.5 232t306.5 94q190 0 381 -99v205q0 147 -96.5 237.5t-265.5 90.5q-102 0 -202 -34.5t-183 -96.5v26q82 62 182 95.5t203 33.5zM526 604q-101 0 -177.5 -24.5t-121 -67.5t-66.5 -95.5
t-22 -113.5q0 -132 98.5 -212.5t247.5 -80.5q177 0 299.5 115.5t122.5 282.5v92q-166 104 -381 104z" />
    <glyph glyph-name="atilde.ss01" horiz-adv-x="1124" 
d="M856 1430q3 -67 -43 -104.5t-111 -37.5q-39 0 -82.5 18t-75.5 39.5t-74.5 39.5t-80.5 18q-58 0 -94 -29.5t-33 -87.5h-26q-3 67 42.5 104t110.5 37q49 0 103.5 -28.5t108.5 -57t101 -28.5q58 0 94 29.5t33 87.5h27zM545 1087q180 0 284.5 -97.5t104.5 -254.5v-735h-23
l-2 279h-2q-43 -140 -159.5 -216.5t-262.5 -76.5q-161 0 -266.5 87.5t-105.5 229.5q0 138 106.5 232t306.5 94q190 0 381 -99v205q0 147 -96.5 237.5t-265.5 90.5q-102 0 -202 -34.5t-183 -96.5v26q82 62 182 95.5t203 33.5zM526 604q-101 0 -177.5 -24.5t-121 -67.5
t-66.5 -95.5t-22 -113.5q0 -132 98.5 -212.5t247.5 -80.5q177 0 299.5 115.5t122.5 282.5v92q-166 104 -381 104z" />
    <glyph glyph-name="g.ss01" horiz-adv-x="1120" 
d="M715 129q147 0 238 -77.5t91 -194.5q0 -144 -136.5 -233t-352.5 -89t-352.5 89t-136.5 233q0 186 215 264q-57 19 -87 58t-30 93q0 51 37.5 96.5t105.5 77.5q-125 101 -125 279q0 86 31.5 156.5t84 114.5t119.5 67.5t140 23.5q100 0 178 -38h299v-25h-254
q71 -47 111.5 -124.5t40.5 -174.5q0 -162 -106.5 -261t-268.5 -99q-133 0 -227 63q-140 -58 -140 -156q0 -54 35 -89.5t103 -47.5q30 -6 69 -6h318zM209 725q0 -151 98 -243.5t250 -92.5q146 0 247 88.5t101 247.5q0 154 -97.5 246t-250.5 92q-93 0 -170.5 -36.5
t-127.5 -115t-50 -186.5zM559 -440q202 0 330.5 82t128.5 215q0 106 -85.5 176.5t-221.5 70.5h-318q-29 0 -69 7q-103 -30 -167.5 -91.5t-64.5 -162.5q0 -133 131 -215t336 -82z" />
    <glyph glyph-name="gbreve.ss01" horiz-adv-x="1120" 
d="M575 1321q-120 0 -201.5 65t-88.5 181h26q7 -98 82.5 -159.5t181.5 -61.5t182 61.5t83 159.5h26q-7 -116 -89 -181t-202 -65zM715 129q147 0 238 -77.5t91 -194.5q0 -144 -136.5 -233t-352.5 -89t-352.5 89t-136.5 233q0 186 215 264q-57 19 -87 58t-30 93
q0 51 37.5 96.5t105.5 77.5q-125 101 -125 279q0 86 31.5 156.5t84 114.5t119.5 67.5t140 23.5q100 0 178 -38h299v-25h-254q71 -47 111.5 -124.5t40.5 -174.5q0 -162 -106.5 -261t-268.5 -99q-133 0 -227 63q-140 -58 -140 -156q0 -54 35 -89.5t103 -47.5q30 -6 69 -6h318z
M209 725q0 -151 98 -243.5t250 -92.5q146 0 247 88.5t101 247.5q0 154 -97.5 246t-250.5 92q-93 0 -170.5 -36.5t-127.5 -115t-50 -186.5zM559 -440q202 0 330.5 82t128.5 215q0 106 -85.5 176.5t-221.5 70.5h-318q-29 0 -69 7q-103 -30 -167.5 -91.5t-64.5 -162.5
q0 -133 131 -215t336 -82z" />
    <glyph glyph-name="gcommaaccent.ss01" horiz-adv-x="1120" 
d="M588 1235h-27q-18 161 41 326h29q-56 -162 -43 -326zM715 129q147 0 238 -77.5t91 -194.5q0 -144 -136.5 -233t-352.5 -89t-352.5 89t-136.5 233q0 186 215 264q-57 19 -87 58t-30 93q0 51 37.5 96.5t105.5 77.5q-125 101 -125 279q0 86 31.5 156.5t84 114.5t119.5 67.5
t140 23.5q100 0 178 -38h299v-25h-254q71 -47 111.5 -124.5t40.5 -174.5q0 -162 -106.5 -261t-268.5 -99q-133 0 -227 63q-140 -58 -140 -156q0 -54 35 -89.5t103 -47.5q30 -6 69 -6h318zM209 725q0 -151 98 -243.5t250 -92.5q146 0 247 88.5t101 247.5q0 154 -97.5 246
t-250.5 92q-93 0 -170.5 -36.5t-127.5 -115t-50 -186.5zM559 -440q202 0 330.5 82t128.5 215q0 106 -85.5 176.5t-221.5 70.5h-318q-29 0 -69 7q-103 -30 -167.5 -91.5t-64.5 -162.5q0 -133 131 -215t336 -82z" />
    <glyph glyph-name="gdotaccent.ss01" horiz-adv-x="1120" 
d="M575 1356q-15 0 -25.5 11t-10.5 26t10.5 26t25.5 11t26 -11t11 -26t-11 -26t-26 -11zM715 129q147 0 238 -77.5t91 -194.5q0 -144 -136.5 -233t-352.5 -89t-352.5 89t-136.5 233q0 186 215 264q-57 19 -87 58t-30 93q0 51 37.5 96.5t105.5 77.5q-125 101 -125 279
q0 86 31.5 156.5t84 114.5t119.5 67.5t140 23.5q100 0 178 -38h299v-25h-254q71 -47 111.5 -124.5t40.5 -174.5q0 -162 -106.5 -261t-268.5 -99q-133 0 -227 63q-140 -58 -140 -156q0 -54 35 -89.5t103 -47.5q30 -6 69 -6h318zM209 725q0 -151 98 -243.5t250 -92.5
q146 0 247 88.5t101 247.5q0 154 -97.5 246t-250.5 92q-93 0 -170.5 -36.5t-127.5 -115t-50 -186.5zM559 -440q202 0 330.5 82t128.5 215q0 106 -85.5 176.5t-221.5 70.5h-318q-29 0 -69 7q-103 -30 -167.5 -91.5t-64.5 -162.5q0 -133 131 -215t336 -82z" />
    <glyph glyph-name="l.ss01" horiz-adv-x="497" 
d="M223 1628v-1425q0 -86 49.5 -135.5t143.5 -49.5q13 0 53 5v-25q-28 -4 -53 -4q-103 0 -161 56.5t-58 152.5v1425h26z" />
    <glyph glyph-name="lacute.ss01" horiz-adv-x="497" 
d="M381 2152h33l-254 -321h-29zM223 1628v-1425q0 -86 49.5 -135.5t143.5 -49.5q13 0 53 5v-25q-28 -4 -53 -4q-103 0 -161 56.5t-58 152.5v1425h26z" />
    <glyph glyph-name="lcaron.ss01" horiz-adv-x="497" 
d="M223 1628v-1425q0 -86 49.5 -135.5t143.5 -49.5q13 0 53 5v-25q-28 -4 -53 -4q-103 0 -161 56.5t-58 152.5v1425h26zM432 1339q27 95 27 187q0 64 -10 102h24q10 -45 10 -96q0 -113 -30 -193h-21z" />
    <glyph glyph-name="lcommaaccent.ss01" horiz-adv-x="497" 
d="M223 1628v-1425q0 -86 49.5 -135.5t143.5 -49.5q13 0 53 5v-25q-28 -4 -53 -4q-103 0 -161 56.5t-58 152.5v1425h26zM338 -162q17 -161 -41 -325h-29q56 162 43 325h27z" />
    <glyph glyph-name="lslash.ss01" horiz-adv-x="733" 
d="M643 999l-270 -155v-641q0 -87 49.5 -136t142.5 -49q13 0 53 5v-25q-28 -4 -53 -4q-103 0 -161 56.5t-58 152.5v624l-278 -159v26l278 160v774h27v-758l270 156v-27z" />
    <glyph glyph-name="fl.ss01" horiz-adv-x="1148" 
d="M236 0v1049h-166v24h166v240q0 159 81.5 240t208.5 81q90 0 152 -30v-27q-72 33 -152 33q-116 0 -190 -73.5t-74 -223.5v-240h330v-24h-330v-1049h-26zM874 1628v-1425q0 -86 49.5 -135.5t143.5 -49.5q13 0 53 5v-25q-28 -4 -53 -4q-103 0 -161 56.5t-58 152.5v1425h26z
" />
    <glyph glyph-name="A.sc" horiz-adv-x="1155" 
d="M1057 0l-189 465h-581l-189 -465h-28l495 1217h25l495 -1217h-28zM297 489h561l-280 689h-3z" />
    <glyph glyph-name="Aacute.sc" horiz-adv-x="1155" 
d="M782 1741l-254 -322h-28l250 322h32zM1057 0l-189 465h-581l-189 -465h-28l495 1217h25l495 -1217h-28zM297 489h561l-280 689h-3z" />
    <glyph glyph-name="Abreve.sc" horiz-adv-x="1155" 
d="M578 1464q-120 0 -202 65t-89 181h26q7 -98 83 -159.5t182 -61.5t181.5 61.5t82.5 159.5h26q-7 -116 -88.5 -181t-201.5 -65zM1057 0l-189 465h-581l-189 -465h-28l495 1217h25l495 -1217h-28zM297 489h561l-280 689h-3z" />
    <glyph glyph-name="Acircumflex.sc" horiz-adv-x="1155" 
d="M578 1716l-234 -297h-29l248 322h29l248 -322h-29zM1057 0l-189 465h-581l-189 -465h-28l495 1217h25l495 -1217h-28zM297 489h561l-280 689h-3z" />
    <glyph glyph-name="Adieresis.sc" horiz-adv-x="1155" 
d="M428 1499q-15 0 -26 11t-11 26t11 26t26 11t26 -11t11 -26t-11 -26t-26 -11zM727 1499q-15 0 -26 11t-11 26t11 26t26 11t26 -11t11 -26t-11 -26t-26 -11zM1057 0l-189 465h-581l-189 -465h-28l495 1217h25l495 -1217h-28zM297 489h561l-280 689h-3z" />
    <glyph glyph-name="Agrave.sc" horiz-adv-x="1155" 
d="M655 1419h-28l-254 322h33zM1057 0l-189 465h-581l-189 -465h-28l495 1217h25l495 -1217h-28zM297 489h561l-280 689h-3z" />
    <glyph glyph-name="Amacron.sc" horiz-adv-x="1155" 
d="M827 1563v-25h-499v25h499zM1057 0l-189 465h-581l-189 -465h-28l495 1217h25l495 -1217h-28zM297 489h561l-280 689h-3z" />
    <glyph glyph-name="Aogonek.sc" horiz-adv-x="1155" 
d="M868 -295q0 -72 46 -108.5t104 -36.5q47 0 67 12v-25q-20 -12 -67 -12q-68 0 -122 43.5t-54 126.5q0 66 57 138.5t158 158.5l-189 463h-581l-189 -465h-28l495 1217h25l495 -1217q-110 -95 -163.5 -163t-53.5 -132zM297 489h561l-280 689h-3z" />
    <glyph glyph-name="Aring.sc" horiz-adv-x="1155" 
d="M580 1432q-66 0 -110 43t-44 104t44 105.5t110 44.5q64 0 107.5 -44.5t43.5 -105.5t-43.5 -104t-107.5 -43zM580 1706q-57 0 -93 -36.5t-36 -90.5q0 -53 35.5 -89t93.5 -36q55 0 91 36t36 89t-36 90t-91 37zM1057 0l-189 465h-581l-189 -465h-28l495 1217h25l495 -1217
h-28zM297 489h561l-280 689h-3z" />
    <glyph glyph-name="Atilde.sc" horiz-adv-x="1155" 
d="M293 1430h-27q-3 67 43 104t111 37q39 0 82.5 -18t75.5 -39.5t74.5 -39.5t80.5 -18q58 0 94 29.5t33 87.5h27q3 -67 -43 -104t-111 -37q-49 0 -103.5 28.5t-108.5 57t-101 28.5q-58 0 -94 -29t-33 -87zM1057 0l-189 465h-581l-189 -465h-28l495 1217h25l495 -1217h-28z
M297 489h561l-280 689h-3z" />
    <glyph glyph-name="AE.sc" horiz-adv-x="1593" 
d="M1450 1192h-541v-561h504v-25h-504v-581h541v-25h-567v465h-512l-330 -465h-33l862 1217h580v-25zM387 489h496v697h-2z" />
    <glyph glyph-name="B.sc" horiz-adv-x="1077" 
d="M637 629q142 -22 223.5 -102t81.5 -199q0 -152 -111 -240t-303 -88h-295v1217h279q179 0 277 -77t98 -218q0 -115 -65.5 -191.5t-184.5 -101.5zM260 1192v-551h272q148 -4 238 73t90 208q0 130 -90.5 200t-257.5 70h-252zM528 25q183 0 285 80t102 223q0 130 -105 209
t-278 79h-272v-591h268z" />
    <glyph glyph-name="C.sc" horiz-adv-x="1050" 
d="M950 31q-110 -45 -250 -45q-112 0 -214 45t-178.5 125t-121.5 198t-45 256q0 136 45 253.5t121.5 197.5t178.5 125t214 45q139 0 250 -51v-25q-111 51 -250 51q-107 0 -204 -43t-169.5 -119.5t-115.5 -189t-43 -244.5q0 -133 43 -247t115.5 -190.5t169.5 -119.5t204 -43
q141 0 250 49v-28z" />
    <glyph glyph-name="Cacute.sc" horiz-adv-x="1050" 
d="M858 1741h33l-254 -322h-29zM950 31q-110 -45 -250 -45q-112 0 -214 45t-178.5 125t-121.5 198t-45 256q0 136 45 253.5t121.5 197.5t178.5 125t214 45q139 0 250 -51v-25q-111 51 -250 51q-107 0 -204 -43t-169.5 -119.5t-115.5 -189t-43 -244.5q0 -133 43 -247
t115.5 -190.5t169.5 -119.5t204 -43q141 0 250 49v-28z" />
    <glyph glyph-name="Ccaron.sc" horiz-adv-x="1050" 
d="M948 1741l-248 -322h-28l-248 322h29l233 -297l234 297h28zM950 31q-110 -45 -250 -45q-112 0 -214 45t-178.5 125t-121.5 198t-45 256q0 136 45 253.5t121.5 197.5t178.5 125t214 45q139 0 250 -51v-25q-111 51 -250 51q-107 0 -204 -43t-169.5 -119.5t-115.5 -189
t-43 -244.5q0 -133 43 -247t115.5 -190.5t169.5 -119.5t204 -43q141 0 250 49v-28z" />
    <glyph glyph-name="Ccedilla.sc" horiz-adv-x="1050" 
d="M700 1206q-107 0 -204 -43t-169.5 -119.5t-115.5 -189t-43 -244.5q0 -133 43 -247t115.5 -190.5t169.5 -119.5t204 -43q141 0 250 49v-28q-110 -45 -250 -45q-2 -81 -25.5 -152t-50 -112.5t-69.5 -94.5h-31q72 88 109.5 168t40.5 191q-108 5 -205 52t-170 127
t-115.5 195.5t-42.5 249.5q0 136 45 253.5t121.5 197.5t178.5 125t214 45q139 0 250 -51v-25q-111 51 -250 51z" />
    <glyph glyph-name="Cdotaccent.sc" horiz-adv-x="1050" 
d="M686 1499q-15 0 -26 11t-11 26t11 26t26 11t26 -11t11 -26t-11 -26t-26 -11zM950 31q-110 -45 -250 -45q-112 0 -214 45t-178.5 125t-121.5 198t-45 256q0 136 45 253.5t121.5 197.5t178.5 125t214 45q139 0 250 -51v-25q-111 51 -250 51q-107 0 -204 -43t-169.5 -119.5
t-115.5 -189t-43 -244.5q0 -133 43 -247t115.5 -190.5t169.5 -119.5t204 -43q141 0 250 49v-28z" />
    <glyph glyph-name="D.sc" horiz-adv-x="1239" 
d="M424 1217q304 0 489 -162.5t185 -446.5t-185 -446t-489 -162h-191v1217h191zM260 1192v-1167h164q294 0 470.5 153t176.5 428q0 184 -81.5 317.5t-227 201t-338.5 67.5h-164z" />
    <glyph glyph-name="Eth.sc" horiz-adv-x="1245" 
d="M430 1217q304 0 489 -162.5t185 -446.5t-185 -446t-489 -162h-190v600h-183v25h183v592h190zM430 25q294 0 470.5 153t176.5 428q0 184 -81.5 317.5t-227 201t-338.5 67.5h-164v-567h385v-25h-385v-575h164z" />
    <glyph glyph-name="Dcaron.sc" horiz-adv-x="1239" 
d="M879 1741l-248 -322h-29l-248 322h29l233 -297l234 297h29zM424 1217q304 0 489 -162.5t185 -446.5t-185 -446t-489 -162h-191v1217h191zM260 1192v-1167h164q294 0 470.5 153t176.5 428q0 184 -81.5 317.5t-227 201t-338.5 67.5h-164z" />
    <glyph glyph-name="Dcroat.sc" horiz-adv-x="1245" 
d="M430 1217q304 0 489 -162.5t185 -446.5t-185 -446t-489 -162h-190v600h-183v25h183v592h190zM430 25q294 0 470.5 153t176.5 428q0 184 -81.5 317.5t-227 201t-338.5 67.5h-164v-567h385v-25h-385v-575h164z" />
    <glyph glyph-name="E.sc" horiz-adv-x="944" 
d="M233 0v1217h568v-25h-541v-561h504v-25h-504v-581h541v-25h-568z" />
    <glyph glyph-name="Eacute.sc" horiz-adv-x="944" 
d="M688 1741h33l-254 -322h-29zM233 0v1217h568v-25h-541v-561h504v-25h-504v-581h541v-25h-568z" />
    <glyph glyph-name="Ecaron.sc" horiz-adv-x="944" 
d="M778 1741l-248 -322h-28l-248 322h29l233 -297l234 297h28zM233 0v1217h568v-25h-541v-561h504v-25h-504v-581h541v-25h-568z" />
    <glyph glyph-name="Ecircumflex.sc" horiz-adv-x="944" 
d="M530 1741l248 -322h-28l-234 297l-233 -297h-29l248 322h28zM233 0v1217h568v-25h-541v-561h504v-25h-504v-581h541v-25h-568z" />
    <glyph glyph-name="Edieresis.sc" horiz-adv-x="944" 
d="M367 1499q-15 0 -26 11t-11 26t11 26t26 11t25.5 -11t10.5 -26t-10.5 -26t-25.5 -11zM666 1499q-15 0 -26 11t-11 26t11 26t26 11t25.5 -11t10.5 -26t-10.5 -26t-25.5 -11zM233 0v1217h568v-25h-541v-561h504v-25h-504v-581h541v-25h-568z" />
    <glyph glyph-name="Edotaccent.sc" horiz-adv-x="944" 
d="M516 1499q-15 0 -26 11t-11 26t11 26t26 11t26 -11t11 -26t-11 -26t-26 -11zM233 0v1217h568v-25h-541v-561h504v-25h-504v-581h541v-25h-568z" />
    <glyph glyph-name="Egrave.sc" horiz-adv-x="944" 
d="M344 1741l250 -322h-29l-254 322h33zM233 0v1217h568v-25h-541v-561h504v-25h-504v-581h541v-25h-568z" />
    <glyph glyph-name="Emacron.sc" horiz-adv-x="944" 
d="M266 1538v25h500v-25h-500zM233 0v1217h568v-25h-541v-561h504v-25h-504v-581h541v-25h-568z" />
    <glyph glyph-name="Eogonek.sc" horiz-adv-x="944" 
d="M801 1192h-541v-561h504v-25h-504v-581h541v-25q-110 -95 -163.5 -163t-53.5 -132q0 -72 46 -108.5t103 -36.5q48 0 68 12v-25q-20 -12 -68 -12q-68 0 -122 43.5t-54 126.5q0 66 55.5 137.5t155.5 157.5h-535v1217h568v-25z" />
    <glyph glyph-name="F.sc" horiz-adv-x="894" 
d="M233 0v1217h576v-25h-549v-559h508v-25h-508v-608h-27z" />
    <glyph glyph-name="G.sc" horiz-adv-x="1173" 
d="M1006 625v-598q-33 -17 -110 -29t-146 -12q-173 0 -312 77t-219 219t-80 324q0 137 46.5 254t127.5 198t194 127t243 46t251 -49v-29q-114 53 -251 53q-254 0 -419 -167t-165 -433q0 -132 44.5 -244t122 -189t185.5 -120t232 -43q60 0 130 8.5t99 22.5v584h27z" />
    <glyph glyph-name="Gbreve.sc" horiz-adv-x="1173" 
d="M989 1710q-7 -116 -89 -181t-202 -65t-201.5 65t-88.5 181h26q7 -98 82.5 -159.5t181.5 -61.5t182 61.5t83 159.5h26zM1006 625v-598q-33 -17 -110 -29t-146 -12q-173 0 -312 77t-219 219t-80 324q0 137 46.5 254t127.5 198t194 127t243 46t251 -49v-29q-114 53 -251 53
q-254 0 -419 -167t-165 -433q0 -132 44.5 -244t122 -189t185.5 -120t232 -43q60 0 130 8.5t99 22.5v584h27z" />
    <glyph glyph-name="Gcommaaccent.sc" horiz-adv-x="1173" 
d="M1006 625v-598q-33 -17 -110 -29t-146 -12q-173 0 -312 77t-219 219t-80 324q0 137 46.5 254t127.5 198t194 127t243 46t251 -49v-29q-114 53 -251 53q-254 0 -419 -167t-165 -433q0 -132 44.5 -244t122 -189t185.5 -120t232 -43q60 0 130 8.5t99 22.5v584h27zM713 -162
q17 -161 -41 -325h-29q56 162 43 325h27z" />
    <glyph glyph-name="Gdotaccent.sc" horiz-adv-x="1173" 
d="M698 1499q-15 0 -25.5 11t-10.5 26t10.5 26t25.5 11t26 -11t11 -26t-11 -26t-26 -11zM1006 625v-598q-33 -17 -110 -29t-146 -12q-173 0 -312 77t-219 219t-80 324q0 137 46.5 254t127.5 198t194 127t243 46t251 -49v-29q-114 53 -251 53q-254 0 -419 -167t-165 -433
q0 -132 44.5 -244t122 -189t185.5 -120t232 -43q60 0 130 8.5t99 22.5v584h27z" />
    <glyph glyph-name="H.sc" horiz-adv-x="1302" 
d="M1042 0v614h-782v-614h-27v1217h27v-578h782v578h27v-1217h-27z" />
    <glyph glyph-name="Hbar.sc" horiz-adv-x="1312" 
d="M1251 940v-25h-178v-915h-26v614h-783v-614h-26v915h-177v25h177v277h26v-277h783v277h26v-277h178zM1047 639v276h-783v-276h783z" />
    <glyph glyph-name="I.sc" horiz-adv-x="493" 
d="M233 0v1217h27v-1217h-27z" />
    <glyph glyph-name="IJ.sc" horiz-adv-x="1277" 
d="M233 0v1217h27v-1217h-27zM592 98q94 -88 213 -88q104 0 164.5 65t60.5 185v957h27v-957q0 -130 -68.5 -202t-183.5 -72q-120 0 -213 84v28z" />
    <glyph glyph-name="Iacute.sc" horiz-adv-x="493" 
d="M418 1741h33l-254 -322h-29zM233 0v1217h27v-1217h-27z" />
    <glyph glyph-name="Icircumflex.sc" horiz-adv-x="493" 
d="M260 1741l248 -322h-29l-233 297l-234 -297h-28l247 322h29zM233 0v1217h27v-1217h-27z" />
    <glyph glyph-name="Idieresis.sc" horiz-adv-x="493" 
d="M96 1499q-15 0 -26 11t-11 26t11 26t26 11t26 -11t11 -26t-11 -26t-26 -11zM395 1499q-15 0 -26 11t-11 26t11 26t26 11t26 -11t11 -26t-11 -26t-26 -11zM233 0v1217h27v-1217h-27z" />
    <glyph glyph-name="Idotaccent.sc" horiz-adv-x="493" 
d="M246 1499q-15 0 -26 11t-11 26t11 26t26 11t26 -11t11 -26t-11 -26t-26 -11zM233 0v1217h27v-1217h-27z" />
    <glyph glyph-name="Igrave.sc" horiz-adv-x="493" 
d="M74 1741l250 -322h-29l-254 322h33zM233 0v1217h27v-1217h-27z" />
    <glyph glyph-name="Imacron.sc" horiz-adv-x="493" 
d="M-4 1538v25h500v-25h-500zM233 0v1217h27v-1217h-27z" />
    <glyph glyph-name="Iogonek.sc" horiz-adv-x="493" 
d="M260 0q-110 -95 -163.5 -163t-53.5 -132q0 -72 46 -108.5t104 -36.5q47 0 67 12v-25q-20 -12 -67 -12q-68 0 -122.5 44t-54.5 126q0 66 58 139.5t159 159.5v1213h27v-1217z" />
    <glyph glyph-name="J.sc" horiz-adv-x="759" 
d="M74 98q94 -88 213 -88q104 0 164.5 65t60.5 185v957h27v-957q0 -130 -68.5 -202t-183.5 -72q-120 0 -213 84v28z" />
    <glyph glyph-name="K.sc" horiz-adv-x="1038" 
d="M260 1217v-1217h-27v1217h27zM961 1217l-660 -599l682 -618h-37l-682 618l660 599h37z" />
    <glyph glyph-name="Kcommaaccent.sc" horiz-adv-x="1038" 
d="M260 1217v-1217h-27v1217h27zM961 1217l-660 -599l682 -618h-37l-682 618l660 599h37zM586 -162q17 -161 -41 -325h-29q56 162 43 325h27z" />
    <glyph glyph-name="L.sc" horiz-adv-x="890" 
d="M233 0v1217h27v-1192h567v-25h-594z" />
    <glyph glyph-name="Lacute.sc" horiz-adv-x="890" 
d="M418 1741h33l-254 -322h-29zM233 0v1217h27v-1192h567v-25h-594z" />
    <glyph glyph-name="Lcaron.sc" horiz-adv-x="890" 
d="M233 0v1217h27v-1192h567v-25h-594zM469 928q27 94 27 186q0 61 -11 103h25q10 -45 10 -97q0 -110 -31 -192h-20z" />
    <glyph glyph-name="Lcommaaccent.sc" horiz-adv-x="890" 
d="M233 0v1217h27v-1192h567v-25h-594zM545 -162q17 -161 -41 -325h-29q56 162 43 325h27z" />
    <glyph glyph-name="Ldot.sc" horiz-adv-x="927" 
d="M233 0v1217h27v-1192h567v-25h-594zM698 551q-23 0 -39 16t-16 39t16 39.5t39 16.5t39.5 -16.5t16.5 -39.5t-16.5 -39t-39.5 -16z" />
    <glyph glyph-name="Lslash.sc" horiz-adv-x="989" 
d="M358 25h568v-25h-594v520l-273 -168v27l273 168v670h26v-654l381 236v-27l-381 -235v-512z" />
    <glyph glyph-name="M.sc" horiz-adv-x="1583" 
d="M350 1167l-178 -1167h-27l189 1217h28l429 -1174h2l428 1174h28l189 -1217h-29l-176 1167h-2l-428 -1167h-25l-426 1167h-2z" />
    <glyph glyph-name="N.sc" horiz-adv-x="1323" 
d="M1090 1217v-1217h-31l-797 1176h-2v-1176h-27v1217h33l795 -1174h2v1174h27z" />
    <glyph glyph-name="Nacute.sc" horiz-adv-x="1323" 
d="M834 1741h32l-254 -322h-28zM1090 1217v-1217h-31l-797 1176h-2v-1176h-27v1217h33l795 -1174h2v1174h27z" />
    <glyph glyph-name="Ncaron.sc" horiz-adv-x="1323" 
d="M924 1741l-248 -322h-29l-248 322h29l234 -297l233 297h29zM1090 1217v-1217h-31l-797 1176h-2v-1176h-27v1217h33l795 -1174h2v1174h27z" />
    <glyph glyph-name="Ncommaaccent.sc" horiz-adv-x="1323" 
d="M1090 1217v-1217h-31l-797 1176h-2v-1176h-27v1217h33l795 -1174h2v1174h27zM676 -162q17 -161 -41 -325h-29q56 162 43 325h27z" />
    <glyph glyph-name="Eng.sc" horiz-adv-x="1323" 
d="M1090 1217v-1407q0 -130 -68.5 -202.5t-183.5 -72.5q-120 0 -213 84v29q94 -88 213 -88q104 0 164.5 65t60.5 185v184l-801 1182h-2v-1176h-27v1217h33l795 -1174h2v1174h27z" />
    <glyph glyph-name="Ntilde.sc" horiz-adv-x="1323" 
d="M971 1573q3 -67 -43 -104t-111 -37q-49 0 -103.5 28.5t-108.5 57t-101 28.5q-58 0 -94 -29t-33 -87h-27q-3 67 43 104t111 37q39 0 82.5 -18t75.5 -39.5t74.5 -39.5t80.5 -18q58 0 94 29.5t33 87.5h27zM1090 1217v-1217h-31l-797 1176h-2v-1176h-27v1217h33l795 -1174h2
v1174h27z" />
    <glyph glyph-name="O.sc" horiz-adv-x="1431" 
d="M715 1231q161 0 292 -78.5t207 -221.5t76 -323q0 -134 -44.5 -250.5t-121.5 -197.5t-183 -127.5t-226 -46.5q-119 0 -225 46.5t-183 127.5t-121.5 197.5t-44.5 250.5q0 135 44.5 251.5t121.5 198t182.5 127.5t225.5 46zM715 1206q-153 0 -278 -75.5t-197 -212.5t-72 -310
t72 -310t197 -212.5t278 -75.5q234 0 391.5 168.5t157.5 429.5t-157.5 429.5t-391.5 168.5z" />
    <glyph glyph-name="Oacute.sc" horiz-adv-x="1431" 
d="M887 1741h33l-254 -322h-29zM715 1231q161 0 292 -78.5t207 -221.5t76 -323q0 -134 -44.5 -250.5t-121.5 -197.5t-183 -127.5t-226 -46.5q-119 0 -225 46.5t-183 127.5t-121.5 197.5t-44.5 250.5q0 135 44.5 251.5t121.5 198t182.5 127.5t225.5 46zM715 1206
q-153 0 -278 -75.5t-197 -212.5t-72 -310t72 -310t197 -212.5t278 -75.5q234 0 391.5 168.5t157.5 429.5t-157.5 429.5t-391.5 168.5z" />
    <glyph glyph-name="Ocircumflex.sc" horiz-adv-x="1431" 
d="M729 1741l248 -322h-29l-233 297l-234 -297h-28l247 322h29zM715 1231q161 0 292 -78.5t207 -221.5t76 -323q0 -134 -44.5 -250.5t-121.5 -197.5t-183 -127.5t-226 -46.5q-119 0 -225 46.5t-183 127.5t-121.5 197.5t-44.5 250.5q0 135 44.5 251.5t121.5 198t182.5 127.5
t225.5 46zM715 1206q-153 0 -278 -75.5t-197 -212.5t-72 -310t72 -310t197 -212.5t278 -75.5q234 0 391.5 168.5t157.5 429.5t-157.5 429.5t-391.5 168.5z" />
    <glyph glyph-name="Odieresis.sc" horiz-adv-x="1431" 
d="M565 1499q-15 0 -26 11t-11 26t11 26t26 11t26 -11t11 -26t-11 -26t-26 -11zM864 1499q-15 0 -26 11t-11 26t11 26t26 11t26 -11t11 -26t-11 -26t-26 -11zM715 1231q161 0 292 -78.5t207 -221.5t76 -323q0 -134 -44.5 -250.5t-121.5 -197.5t-183 -127.5t-226 -46.5
q-119 0 -225 46.5t-183 127.5t-121.5 197.5t-44.5 250.5q0 135 44.5 251.5t121.5 198t182.5 127.5t225.5 46zM715 1206q-153 0 -278 -75.5t-197 -212.5t-72 -310t72 -310t197 -212.5t278 -75.5q234 0 391.5 168.5t157.5 429.5t-157.5 429.5t-391.5 168.5z" />
    <glyph glyph-name="Ograve.sc" horiz-adv-x="1431" 
d="M543 1741l250 -322h-29l-254 322h33zM715 1231q161 0 292 -78.5t207 -221.5t76 -323q0 -134 -44.5 -250.5t-121.5 -197.5t-183 -127.5t-226 -46.5q-119 0 -225 46.5t-183 127.5t-121.5 197.5t-44.5 250.5q0 135 44.5 251.5t121.5 198t182.5 127.5t225.5 46zM715 1206
q-153 0 -278 -75.5t-197 -212.5t-72 -310t72 -310t197 -212.5t278 -75.5q234 0 391.5 168.5t157.5 429.5t-157.5 429.5t-391.5 168.5z" />
    <glyph glyph-name="Ohungarumlaut.sc" horiz-adv-x="1431" 
d="M856 1741l-278 -322h-29l274 322h33zM1122 1741l-276 -322h-29l273 322h32zM715 1231q161 0 292 -78.5t207 -221.5t76 -323q0 -134 -44.5 -250.5t-121.5 -197.5t-183 -127.5t-226 -46.5q-119 0 -225 46.5t-183 127.5t-121.5 197.5t-44.5 250.5q0 135 44.5 251.5
t121.5 198t182.5 127.5t225.5 46zM715 1206q-153 0 -278 -75.5t-197 -212.5t-72 -310t72 -310t197 -212.5t278 -75.5q234 0 391.5 168.5t157.5 429.5t-157.5 429.5t-391.5 168.5z" />
    <glyph glyph-name="Omacron.sc" horiz-adv-x="1431" 
d="M465 1538v25h500v-25h-500zM715 1231q161 0 292 -78.5t207 -221.5t76 -323q0 -134 -44.5 -250.5t-121.5 -197.5t-183 -127.5t-226 -46.5q-119 0 -225 46.5t-183 127.5t-121.5 197.5t-44.5 250.5q0 135 44.5 251.5t121.5 198t182.5 127.5t225.5 46zM715 1206
q-153 0 -278 -75.5t-197 -212.5t-72 -310t72 -310t197 -212.5t278 -75.5q234 0 391.5 168.5t157.5 429.5t-157.5 429.5t-391.5 168.5z" />
    <glyph glyph-name="Oslash.sc" horiz-adv-x="1441" 
d="M1139 1047q157 -175 157 -439q0 -134 -44.5 -250.5t-121.5 -197.5t-183 -127.5t-226 -46.5q-117 0 -221 44t-181 124l-149 -162l-16 14l151 164q-158 179 -158 438q0 135 44.5 251.5t121.5 198t182.5 127.5t225.5 46q241 0 403 -168l150 162l16 -15zM174 608
q0 -253 148 -420l786 856q-74 77 -174 119.5t-213 42.5q-153 0 -278 -75.5t-197 -212.5t-72 -310zM721 10q234 0 391.5 168.5t157.5 429.5q0 253 -148 420l-786 -856q156 -162 385 -162z" />
    <glyph glyph-name="Otilde.sc" horiz-adv-x="1431" 
d="M1024 1573q3 -67 -43 -104t-111 -37q-49 0 -103.5 28.5t-108.5 57t-101 28.5q-58 0 -94 -29t-33 -87h-27q-3 67 43 104t111 37q39 0 82.5 -18t75.5 -39.5t74.5 -39.5t80.5 -18q58 0 94 29.5t33 87.5h27zM715 1231q161 0 292 -78.5t207 -221.5t76 -323
q0 -134 -44.5 -250.5t-121.5 -197.5t-183 -127.5t-226 -46.5q-119 0 -225 46.5t-183 127.5t-121.5 197.5t-44.5 250.5q0 135 44.5 251.5t121.5 198t182.5 127.5t225.5 46zM715 1206q-153 0 -278 -75.5t-197 -212.5t-72 -310t72 -310t197 -212.5t278 -75.5q234 0 391.5 168.5
t157.5 429.5t-157.5 429.5t-391.5 168.5z" />
    <glyph glyph-name="OE.sc" horiz-adv-x="1667" 
d="M141 608q0 135 44.5 251.5t121.5 198t182.5 127.5t225.5 46q146 0 250 -14h559v-25h-541v-561h504v-25h-504v-581h541v-25h-559q-104 -14 -250 -14q-119 0 -225 46.5t-183 127.5t-121.5 197.5t-44.5 250.5zM168 608q0 -173 72 -310t197 -212.5t278 -75.5q124 0 241 13
v1171q-86 12 -241 12q-153 0 -278 -75.5t-197 -212.5t-72 -310z" />
    <glyph glyph-name="P.sc" horiz-adv-x="993" 
d="M233 1217h236q190 0 304 -95t114 -260q0 -173 -113.5 -269.5t-306.5 -96.5h-207v-496h-27v1217zM467 520q183 0 288 89t105 253q0 156 -105.5 243t-285.5 87h-209v-672h207z" />
    <glyph glyph-name="Thorn.sc" horiz-adv-x="931" 
d="M260 1217v-228h143q190 0 304 -94.5t114 -259.5q0 -173 -113.5 -270t-306.5 -97h-141v-268h-27v1217h27zM401 293q183 0 288.5 89.5t105.5 252.5q0 156 -106 243t-286 87h-143v-672h141z" />
    <glyph glyph-name="Q.sc" horiz-adv-x="1431" 
d="M1290 608q0 -142 -47.5 -261t-134.5 -204l182 -196l-18 -19l-182 197q-158 -139 -375 -139q-119 0 -225 46.5t-183 127.5t-121.5 197.5t-44.5 250.5q0 135 44.5 251.5t121.5 198t182.5 127.5t225.5 46q161 0 292 -78.5t207 -221.5t76 -323zM715 10q207 0 356 133
l-268 291l18 19l269 -291q83 81 128.5 195.5t45.5 250.5q0 261 -157.5 429.5t-391.5 168.5q-153 0 -278 -75.5t-197 -212.5t-72 -310t72 -310t197 -212.5t278 -75.5z" />
    <glyph glyph-name="R.sc" horiz-adv-x="983" 
d="M874 0h-36l-578 573v-573h-27v1217h224q192 0 286.5 -89.5t94.5 -234.5q0 -155 -96.5 -237.5t-286.5 -82.5h-158zM260 1192v-594h195q356 0 356 297q0 135 -86.5 216t-267.5 81h-197z" />
    <glyph glyph-name="Racute.sc" horiz-adv-x="983" 
d="M715 1741l-254 -322h-29l250 322h33zM874 0h-36l-578 573v-573h-27v1217h224q192 0 286.5 -89.5t94.5 -234.5q0 -155 -96.5 -237.5t-286.5 -82.5h-158zM260 1192v-594h195q356 0 356 297q0 135 -86.5 216t-267.5 81h-197z" />
    <glyph glyph-name="Rcaron.sc" horiz-adv-x="983" 
d="M524 1419h-28l-248 322h28l234 -297l233 297h29zM874 0h-36l-578 573v-573h-27v1217h224q192 0 286.5 -89.5t94.5 -234.5q0 -155 -96.5 -237.5t-286.5 -82.5h-158zM260 1192v-594h195q356 0 356 297q0 135 -86.5 216t-267.5 81h-197z" />
    <glyph glyph-name="Rcommaaccent.sc" horiz-adv-x="983" 
d="M297 573l577 -573h-36l-578 573v-573h-27v1217h224q192 0 286.5 -89.5t94.5 -234.5q0 -155 -96.5 -237.5t-286.5 -82.5h-158zM260 1192v-594h195q356 0 356 297q0 135 -86.5 216t-267.5 81h-197zM498 -162h26q17 -161 -41 -325h-28q56 162 43 325z" />
    <glyph glyph-name="S.sc" horiz-adv-x="942" 
d="M793 1110v-37q-54 69 -139 101t-167 32q-142 0 -227.5 -73.5t-85.5 -182.5q0 -30 5.5 -56.5t19.5 -50t27.5 -42.5t39 -38.5t44.5 -33t53.5 -31.5t56.5 -29t63 -30q59 -28 97 -47.5t85 -52t74 -64.5t45.5 -77.5t18.5 -98.5q0 -131 -101 -222t-249 -91q-73 0 -159.5 24
t-160.5 84v31q74 -64 160 -89.5t158 -25.5q141 0 234 83t93 206q0 49 -18 91.5t-42.5 72t-71.5 61t-82 50t-97 47.5q-46 21 -74 35t-66 35.5t-60.5 39t-48 42.5t-39.5 50.5t-23 57.5t-9 69q0 117 94.5 199t243.5 82q84 0 168.5 -29t139.5 -92z" />
    <glyph glyph-name="Sacute.sc" horiz-adv-x="942" 
d="M678 1741h33l-254 -322h-29zM793 1110v-37q-54 69 -139 101t-167 32q-142 0 -227.5 -73.5t-85.5 -182.5q0 -30 5.5 -56.5t19.5 -50t27.5 -42.5t39 -38.5t44.5 -33t53.5 -31.5t56.5 -29t63 -30q59 -28 97 -47.5t85 -52t74 -64.5t45.5 -77.5t18.5 -98.5q0 -131 -101 -222
t-249 -91q-73 0 -159.5 24t-160.5 84v31q74 -64 160 -89.5t158 -25.5q141 0 234 83t93 206q0 49 -18 91.5t-42.5 72t-71.5 61t-82 50t-97 47.5q-46 21 -74 35t-66 35.5t-60.5 39t-48 42.5t-39.5 50.5t-23 57.5t-9 69q0 117 94.5 199t243.5 82q84 0 168.5 -29t139.5 -92z" />
    <glyph glyph-name="Scaron.sc" horiz-adv-x="942" 
d="M768 1741l-248 -322h-28l-248 322h28l234 -297l233 297h29zM793 1110v-37q-54 69 -139 101t-167 32q-142 0 -227.5 -73.5t-85.5 -182.5q0 -30 5.5 -56.5t19.5 -50t27.5 -42.5t39 -38.5t44.5 -33t53.5 -31.5t56.5 -29t63 -30q59 -28 97 -47.5t85 -52t74 -64.5t45.5 -77.5
t18.5 -98.5q0 -131 -101 -222t-249 -91q-73 0 -159.5 24t-160.5 84v31q74 -64 160 -89.5t158 -25.5q141 0 234 83t93 206q0 49 -18 91.5t-42.5 72t-71.5 61t-82 50t-97 47.5q-46 21 -74 35t-66 35.5t-60.5 39t-48 42.5t-39.5 50.5t-23 57.5t-9 69q0 117 94.5 199t243.5 82
q84 0 168.5 -29t139.5 -92z" />
    <glyph glyph-name="Scedilla.sc" horiz-adv-x="942" 
d="M803 299q0 -121 -87.5 -209t-221.5 -102q-2 -81 -25.5 -152.5t-50.5 -113.5t-70 -95h-31q72 88 109.5 168t40.5 191h-14q-73 0 -159.5 24t-160.5 84v31q74 -64 160 -89.5t158 -25.5q141 0 234 83t93 206q0 49 -18 91.5t-42.5 72t-71.5 61t-82 50t-97 47.5q-46 21 -74 35
t-66 35.5t-60.5 39t-48 42.5t-39.5 50.5t-23 57.5t-9 69q0 117 94.5 199t243.5 82q84 0 168.5 -29t139.5 -92v-37q-54 69 -139 101t-167 32q-142 0 -227.5 -73.5t-85.5 -182.5q0 -30 5.5 -56.5t19.5 -50t27.5 -42.5t39 -38.5t44.5 -33t53.5 -31.5t56.5 -29t63 -30
q59 -28 97 -47.5t85 -52t74 -64.5t45.5 -77.5t18.5 -98.5z" />
    <glyph glyph-name="Scommaaccent.sc" horiz-adv-x="942" 
d="M793 1110v-37q-54 69 -139 101t-167 32q-142 0 -227.5 -73.5t-85.5 -182.5q0 -30 5.5 -56.5t19.5 -50t27.5 -42.5t39 -38.5t44.5 -33t53.5 -31.5t56.5 -29t63 -30q59 -28 97 -47.5t85 -52t74 -64.5t45.5 -77.5t18.5 -98.5q0 -131 -101 -222t-249 -91q-73 0 -159.5 24
t-160.5 84v31q74 -64 160 -89.5t158 -25.5q141 0 234 83t93 206q0 49 -18 91.5t-42.5 72t-71.5 61t-82 50t-97 47.5q-46 21 -74 35t-66 35.5t-60.5 39t-48 42.5t-39.5 50.5t-23 57.5t-9 69q0 117 94.5 199t243.5 82q84 0 168.5 -29t139.5 -92zM494 -162q17 -161 -41 -325
h-29q56 162 43 325h27z" />
    <glyph glyph-name="uni1E9E.sc" horiz-adv-x="1228" 
d="M711 651q179 0 290 -93t111 -239q0 -141 -103 -236t-255 -95q-90 0 -177.5 35t-158.5 94v28q158 -133 336 -133q142 0 236.5 86.5t94.5 220.5q0 138 -103 223t-271 85h-84l360 469q-120 110 -305 110q-204 0 -322 -125.5t-118 -320.5v-760h-27v760q0 201 127.5 336
t335.5 135q204 0 340 -131l-344 -449h37z" />
    <glyph glyph-name="T.sc" horiz-adv-x="976" 
d="M475 0v1192h-414v25h854v-25h-413v-1192h-27z" />
    <glyph glyph-name="Tbar.sc" horiz-adv-x="1017" 
d="M936 1192h-414v-559h279v-25h-279v-608h-26v608h-279v25h279v559h-414v25h854v-25z" />
    <glyph glyph-name="Tcaron.sc" horiz-adv-x="976" 
d="M750 1741l-248 -322h-29l-248 322h29l233 -297l234 297h29zM475 0v1192h-414v25h854v-25h-413v-1192h-27z" />
    <glyph glyph-name="uni0162.sc" horiz-adv-x="976" 
d="M61 1217h854v-25h-413v-1192q0 -121 -38.5 -205t-107.5 -168h-30q74 90 111.5 173t37.5 200v1192h-414v25z" />
    <glyph glyph-name="uni021A.sc" horiz-adv-x="976" 
d="M475 0v1192h-414v25h854v-25h-413v-1192h-27zM502 -162q17 -161 -41 -325h-29q56 162 43 325h27z" />
    <glyph glyph-name="U.sc" horiz-adv-x="1294" 
d="M1079 1217v-781q0 -216 -122 -333t-312 -117t-310 117t-120 333v781h27v-781q0 -207 112 -316.5t291 -109.5q116 0 206.5 45.5t146 143.5t55.5 237v781h26z" />
    <glyph glyph-name="Uacute.sc" horiz-adv-x="1294" 
d="M819 1741h33l-254 -322h-29zM1079 1217v-781q0 -216 -122 -333t-312 -117t-310 117t-120 333v781h27v-781q0 -207 112 -316.5t291 -109.5q116 0 206.5 45.5t146 143.5t55.5 237v781h26z" />
    <glyph glyph-name="Ucircumflex.sc" horiz-adv-x="1294" 
d="M662 1741l247 -322h-28l-234 297l-233 -297h-29l248 322h29zM1079 1217v-781q0 -216 -122 -333t-312 -117t-310 117t-120 333v781h27v-781q0 -207 112 -316.5t291 -109.5q116 0 206.5 45.5t146 143.5t55.5 237v781h26z" />
    <glyph glyph-name="Udieresis.sc" horiz-adv-x="1294" 
d="M498 1499q-15 0 -26 11t-11 26t11 26t26 11t26 -11t11 -26t-11 -26t-26 -11zM797 1499q-15 0 -26 11t-11 26t11 26t26 11t26 -11t11 -26t-11 -26t-26 -11zM1079 1217v-781q0 -216 -122 -333t-312 -117t-310 117t-120 333v781h27v-781q0 -207 112 -316.5t291 -109.5
q116 0 206.5 45.5t146 143.5t55.5 237v781h26z" />
    <glyph glyph-name="Ugrave.sc" horiz-adv-x="1294" 
d="M475 1741l250 -322h-29l-254 322h33zM1079 1217v-781q0 -216 -122 -333t-312 -117t-310 117t-120 333v781h27v-781q0 -207 112 -316.5t291 -109.5q116 0 206.5 45.5t146 143.5t55.5 237v781h26z" />
    <glyph glyph-name="Uhungarumlaut.sc" horiz-adv-x="1294" 
d="M788 1741l-278 -322h-29l275 322h32zM1055 1741l-277 -322h-28l272 322h33zM1079 1217v-781q0 -216 -122 -333t-312 -117t-310 117t-120 333v781h27v-781q0 -207 112 -316.5t291 -109.5q116 0 206.5 45.5t146 143.5t55.5 237v781h26z" />
    <glyph glyph-name="Umacron.sc" horiz-adv-x="1294" 
d="M397 1538v25h500v-25h-500zM1079 1217v-781q0 -216 -122 -333t-312 -117t-310 117t-120 333v781h27v-781q0 -207 112 -316.5t291 -109.5q116 0 206.5 45.5t146 143.5t55.5 237v781h26z" />
    <glyph glyph-name="Uogonek.sc" horiz-adv-x="1294" 
d="M1053 1217h26v-781q0 -172 -88 -295q-146 -194 -180 -248q-70 -111 -70 -188q0 -72 46 -108.5t104 -36.5q47 0 67 12v-25q-20 -12 -67 -12q-68 0 -122 43.5t-54 126.5q0 68 43.5 147.5t138.5 202.5q-103 -69 -252 -69q-190 0 -310 117t-120 333v781h27v-781
q0 -207 112 -316.5t291 -109.5q116 0 206.5 45.5t146 143.5t55.5 237v781z" />
    </font>
</defs>
</svg>
